<svg id="_Layer_" data-name="&lt;Layer&gt;" xmlns="http://www.w3.org/2000/svg" xmlns:xlink="http://www.w3.org/1999/xlink" viewBox="0 0 3733.45 1885.97"><defs><style>.cls-1{fill:#240e54;}.cls-2{fill:#f7ebeb;}.cls-3{fill:#3d5cff;}.cls-4{clip-path:url(#clip-path);}.cls-5{fill:#5f70fa;}.cls-6{fill:#f74945;}.cls-7{fill:#ffd22f;}.cls-8{fill:#8927d4;}.cls-9{fill:#7bc8ff;}.cls-10{fill:#ff5653;}.cls-11{fill:#ffb2c6;}.cls-12{fill:#1dcedb;}</style><clipPath id="clip-path" transform="translate(0 145.86)"><path class="cls-1" d="M3642,0H1850.32c5.25,72.6,42.92,119-2.49,171.92-58.86,68.59-125.36,56.77-162.3,167.77-21.76,65.4,10.46,172-32.15,246.52-26.39,46.14-69,70.77-160.47,102.46-77.55,26.87-199.51,48.5-263.71,87.15C1197.34,795,1091.44,846,1062.63,867c-41.09,29.93-68.82,60.76-144.71,108.28a8.13,8.13,0,0,0-3.26,9.27c10.05,26,40.93,28.17,65.39,15.73,34.53-17.56,81.54-52.94,104.4-68.17,30.35-20.2,60-30.43,108.68-37.89,36.13-5.54,37-8.77,54.77-17.15,7.11-3.36,10.39,1.36,5.17,6-18.85,16.83-24.11,32.26-61.16,60.3-38.62,29.23-50.77,39.23-40.68,55,14,21.88,42.83,11,64.59-4.51C1325.51,915.77,1332.05,930.77,1383,903c35.48-19.34,56.84-33.4,72.64-54.4,16.48-21.89,36.06-32,73.67-48.3,58.69-25.36,136.65-49,182.29-59.79,59-14,110.51-8.3,132.93,31.17,27.54,48.5,4,110.73,57.89,184.21,92.69,126.27,200.94,74,311.51,116.33,88.73,34,129.52,130.31,193.3,221.91,126.34,181.46,325.43,53.43,407.25,230.35,26,56.21,53.37,98.64,81.27,131H3642Z"/></clipPath></defs><rect class="cls-2" y="145.86" width="3641.95" height="1655.43"/><path class="cls-3" d="M1210.69,966.35c5.06,47.66,21.23,91.26,25.48,139.36a5.92,5.92,0,0,0,7.78,5.23c17.56-6.2,33.67-11.28,37.58-36.32,4.91-31.48-15.22-76.61-15.76-108.6-.53-31.44,71.27-66.85,65.64-99.45-.32-11.19-51.45-2.46-59.54.82-11.63,19.16-61.42,73.23-61,96.08C1211.17,963.31,1211.48,963.15,1210.69,966.35Z" transform="translate(0 145.86)"/><path class="cls-3" d="M1387.33,889.89c-12.53,24-67,48.77-68.4,63.51-2.1,21.55,12,41.24,20.76,76.4,8.07,32.36-11.48,55-33.83,60.92a7,7,0,0,1-8.46-4.63c-6.14-19-15.92-47.15-21.22-66.61-21.78-66.76-33.27-100.62,32.12-140.92,3.79-2.8,23.94-13.71,28.07-15.94C1339.7,859.53,1385.87,882.62,1387.33,889.89Z" transform="translate(0 145.86)"/><path class="cls-3" d="M1414.66,743.16c-11.42,9.37-20.82,20.8-26.27,36-10.4,28.07-12.74,63.15-11.94,94.37-10.19,1.28-19.72,2.16-26,.26-4.68,3.83-26.83,57-24.74,78.48,3.91,40,47.88,45.84,92.74,64.69a5.4,5.4,0,0,0,7.11-3.07c6.91-17.47,6.82-31.17-7-45.1-6.65-6.71-17.61-11.34-23-14.11-9-4.63-8.21-5.7-8.58-12.77-1.77-33.2,55.25-36.23,91.89-71.83,16.72-16.24,27-35.22,40.31-53.28,11.05-15,37.87-33.22,56-39.33C1534.85,740,1469.28,736,1414.66,743.16Z" transform="translate(0 145.86)"/><path class="cls-1" d="M3642,0H1850.32c5.25,72.6,42.92,119-2.49,171.92-58.86,68.59-125.36,56.77-162.3,167.77-21.76,65.4,10.46,172-32.15,246.52-26.39,46.14-69,70.77-160.47,102.46-77.55,26.87-199.51,48.5-263.71,87.15C1197.34,795,1091.44,846,1062.63,867c-41.09,29.93-68.82,60.76-144.71,108.28a8.13,8.13,0,0,0-3.26,9.27c10.05,26,40.93,28.17,65.39,15.73,34.53-17.56,81.54-52.94,104.4-68.17,30.35-20.2,60-30.43,108.68-37.89,36.13-5.54,37-8.77,54.77-17.15,7.11-3.36,10.39,1.36,5.17,6-18.85,16.83-24.11,32.26-61.16,60.3-38.62,29.23-50.77,39.23-40.68,55,14,21.88,42.83,11,64.59-4.51C1325.51,915.77,1332.05,930.77,1383,903c35.48-19.34,56.84-33.4,72.64-54.4,16.48-21.89,36.06-32,73.67-48.3,58.69-25.36,136.65-49,182.29-59.79,59-14,110.51-8.3,132.93,31.17,27.54,48.5,4,110.73,57.89,184.21,92.69,126.27,200.94,74,311.51,116.33,88.73,34,129.52,130.31,193.3,221.91,126.34,181.46,325.43,53.43,407.25,230.35,26,56.21,53.37,98.64,81.27,131H3642Z" transform="translate(0 145.86)"/><g class="cls-4"><circle class="cls-5" cx="2177.38" cy="12.58" r="40.63" transform="translate(2137.06 2335.49) rotate(-89.27)"/><path class="cls-6" d="M2447,947.72a56.9,56.9,0,1,1-56.9-56.89A56.91,56.91,0,0,1,2447,947.72Z" transform="translate(0 145.86)"/><path class="cls-7" d="M2447.21,756.35a18.84,18.84,0,1,1-18.84-18.83A18.84,18.84,0,0,1,2447.21,756.35Z" transform="translate(0 145.86)"/><path class="cls-8" d="M3443.53,1088.55a18.84,18.84,0,1,1-18.84-18.84A18.84,18.84,0,0,1,3443.53,1088.55Z" transform="translate(0 145.86)"/><path class="cls-9" d="M2773.11,646.41a18.84,18.84,0,1,1-18.84-18.84A18.84,18.84,0,0,1,2773.11,646.41Z" transform="translate(0 145.86)"/><path class="cls-10" d="M3029.63-104.31a9.41,9.41,0,0,1-9.42,9.41,9.41,9.41,0,0,1-9.41-9.41,9.41,9.41,0,0,1,9.41-9.42A9.42,9.42,0,0,1,3029.63-104.31Z" transform="translate(0 145.86)"/><path class="cls-7" d="M3229.63,1549a9.42,9.42,0,1,1-9.41-9.42A9.41,9.41,0,0,1,3229.63,1549Z" transform="translate(0 145.86)"/><path class="cls-5" d="M3014.08,619a9.42,9.42,0,1,1-9.42-9.42A9.42,9.42,0,0,1,3014.08,619Z" transform="translate(0 145.86)"/><path class="cls-10" d="M3587.15,1535.73a9.42,9.42,0,1,1-9.42-9.41A9.42,9.42,0,0,1,3587.15,1535.73Z" transform="translate(0 145.86)"/><path class="cls-10" d="M2424.69,80.1a9.42,9.42,0,1,1-9.42-9.42A9.42,9.42,0,0,1,2424.69,80.1Z" transform="translate(0 145.86)"/><path class="cls-11" d="M3406.07,556.34a6.26,6.26,0,1,1-6.26-6.25A6.26,6.26,0,0,1,3406.07,556.34Z" transform="translate(0 145.86)"/><path class="cls-6" d="M2783.84,297.11a6.26,6.26,0,1,1-6.26-6.26A6.26,6.26,0,0,1,2783.84,297.11Z" transform="translate(0 145.86)"/><path class="cls-11" d="M3110.78,26.7a6.26,6.26,0,1,1-6.26-6.25A6.26,6.26,0,0,1,3110.78,26.7Z" transform="translate(0 145.86)"/><path class="cls-11" d="M3624,1086.09a6.26,6.26,0,1,1-6.26-6.25A6.26,6.26,0,0,1,3624,1086.09Z" transform="translate(0 145.86)"/><path class="cls-11" d="M3322.18,276a6.26,6.26,0,1,1-6.26-6.26A6.26,6.26,0,0,1,3322.18,276Z" transform="translate(0 145.86)"/><path class="cls-11" d="M2783.84,933.82a6.26,6.26,0,1,1-6.26-6.26A6.26,6.26,0,0,1,2783.84,933.82Z" transform="translate(0 145.86)"/><path class="cls-11" d="M2711.82,86.45a6.26,6.26,0,1,1-6.26-6.26A6.26,6.26,0,0,1,2711.82,86.45Z" transform="translate(0 145.86)"/><path class="cls-11" d="M2783.9,1003.68a6.26,6.26,0,1,1-6.26-6.26A6.26,6.26,0,0,1,2783.9,1003.68Z" transform="translate(0 145.86)"/><path class="cls-11" d="M3234.08,1343.15a6.26,6.26,0,1,1-6.26-6.26A6.26,6.26,0,0,1,3234.08,1343.15Z" transform="translate(0 145.86)"/><path class="cls-11" d="M1910.17,407.21a6.26,6.26,0,1,1-6.26-6.26A6.26,6.26,0,0,1,1910.17,407.21Z" transform="translate(0 145.86)"/><path class="cls-11" d="M2338.61,508.36a6.26,6.26,0,1,1-6.26-6.26A6.26,6.26,0,0,1,2338.61,508.36Z" transform="translate(0 145.86)"/><path class="cls-11" d="M3025.44,1046.38a6.26,6.26,0,1,1-6.25-6.26A6.25,6.25,0,0,1,3025.44,1046.38Z" transform="translate(0 145.86)"/><path class="cls-11" d="M2602.16,508.21a6.26,6.26,0,1,1-6.26-6.26A6.25,6.25,0,0,1,2602.16,508.21Z" transform="translate(0 145.86)"/><path class="cls-11" d="M3623.53,181a6.26,6.26,0,1,1-6.26-6.26A6.26,6.26,0,0,1,3623.53,181Z" transform="translate(0 145.86)"/><path class="cls-11" d="M2004,53.81a6.26,6.26,0,1,1-6.26-6.26A6.26,6.26,0,0,1,2004,53.81Z" transform="translate(0 145.86)"/><path class="cls-6" d="M2508.66,1090.23a6.26,6.26,0,1,1-6.26-6.26A6.27,6.27,0,0,1,2508.66,1090.23Z" transform="translate(0 145.86)"/><path class="cls-9" d="M3447.64,494a6.26,6.26,0,1,1,6.26,6.25A6.26,6.26,0,0,1,3447.64,494Z" transform="translate(0 145.86)"/><path class="cls-8" d="M2800,515a6.26,6.26,0,1,1,6.26,6.26A6.26,6.26,0,0,1,2800,515Z" transform="translate(0 145.86)"/><path class="cls-8" d="M2221.49,979.85a6.26,6.26,0,1,1,6.26,6.25A6.26,6.26,0,0,1,2221.49,979.85Z" transform="translate(0 145.86)"/><path class="cls-9" d="M1323,809.68c17-1.91,21.71-20.82,22.71-40a.69.69,0,0,1,.68-.62h0a.68.68,0,0,1,.68.62c.92,16.9,4,35.82,22.72,40a.52.52,0,0,1,0,1c-18.09,3.67-21.38,22-22.71,40a.69.69,0,0,1-.68.62h0a.69.69,0,0,1-.69-.62c-.39-16.18-4.29-36.12-22.71-40C1322.52,810.57,1322.51,809.74,1323,809.68Z" transform="translate(0 145.86)"/><path class="cls-8" d="M1704.65,653.84a6.26,6.26,0,1,1,6.26,6.26A6.26,6.26,0,0,1,1704.65,653.84Z" transform="translate(0 145.86)"/><path class="cls-9" d="M3057.11,1016.16a6.26,6.26,0,1,1,6.26,6.26A6.26,6.26,0,0,1,3057.11,1016.16Z" transform="translate(0 145.86)"/><path class="cls-9" d="M1769.17,611.71a6.26,6.26,0,1,1,6.26,6.26A6.26,6.26,0,0,1,1769.17,611.71Z" transform="translate(0 145.86)"/><path class="cls-9" d="M3096.1,452.34a6.26,6.26,0,1,1,6.26,6.26A6.26,6.26,0,0,1,3096.1,452.34Z" transform="translate(0 145.86)"/><path class="cls-9" d="M2575.53,1297.45a6.26,6.26,0,1,1,6.26,6.26A6.26,6.26,0,0,1,2575.53,1297.45Z" transform="translate(0 145.86)"/><path class="cls-9" d="M2640.81,863.59a6.26,6.26,0,1,1,6.26,6.26A6.26,6.26,0,0,1,2640.81,863.59Z" transform="translate(0 145.86)"/><path class="cls-9" d="M1824.51,305.15a6.26,6.26,0,1,1,6.26,6.26A6.26,6.26,0,0,1,1824.51,305.15Z" transform="translate(0 145.86)"/><path class="cls-9" d="M3547.73,977.67a6.26,6.26,0,1,1,6.26,6.26A6.26,6.26,0,0,1,3547.73,977.67Z" transform="translate(0 145.86)"/><path class="cls-9" d="M1990.89,384.64a6.26,6.26,0,1,1,6.26,6.26A6.26,6.26,0,0,1,1990.89,384.64Z" transform="translate(0 145.86)"/><path class="cls-8" d="M3001.54,1639.92a6.26,6.26,0,1,1,6.26,6.26A6.26,6.26,0,0,1,3001.54,1639.92Z" transform="translate(0 145.86)"/><path class="cls-9" d="M2183.73-64.71A6.26,6.26,0,0,1,2190-71a6.26,6.26,0,0,1,6.26,6.26,6.26,6.26,0,0,1-6.26,6.26A6.27,6.27,0,0,1,2183.73-64.71Z" transform="translate(0 145.86)"/><path class="cls-7" d="M3330.33,989c-44.15-40.91-79.62-58.34-177.3-61.35,39.88-5.44,118.8-25.16,188.26,7.69-8.25.71-20,2.43-28.33,3.1,27.46,12.45,47.09,28.82,59.35,42.53a158.09,158.09,0,0,0-43.44-13.28A196.87,196.87,0,0,1,3330.33,989Z" transform="translate(0 145.86)"/><path class="cls-9" d="M1945.55,768.93a6.26,6.26,0,1,1,6.26,6.26A6.26,6.26,0,0,1,1945.55,768.93Z" transform="translate(0 145.86)"/><path class="cls-6" d="M2944.79,1483a6.26,6.26,0,1,1,6.26,6.25A6.26,6.26,0,0,1,2944.79,1483Z" transform="translate(0 145.86)"/><path class="cls-9" d="M3004.69,1431.51a6.26,6.26,0,1,1,6.26,6.26A6.26,6.26,0,0,1,3004.69,1431.51Z" transform="translate(0 145.86)"/><path class="cls-9" d="M3359.73,1237.25a6.26,6.26,0,1,1,6.26,6.26A6.26,6.26,0,0,1,3359.73,1237.25Z" transform="translate(0 145.86)"/><path class="cls-6" d="M3303.74,1159.29a6.26,6.26,0,1,1,6.25,6.26A6.25,6.25,0,0,1,3303.74,1159.29Z" transform="translate(0 145.86)"/><path class="cls-12" d="M2833.4,1124.72a6.26,6.26,0,1,1,6.26,6.26A6.26,6.26,0,0,1,2833.4,1124.72Z" transform="translate(0 145.86)"/><path class="cls-9" d="M3624.75-72.61a6.25,6.25,0,0,1,6.26-6.25,6.25,6.25,0,0,1,6.26,6.25,6.26,6.26,0,0,1-6.26,6.26A6.26,6.26,0,0,1,3624.75-72.61Z" transform="translate(0 145.86)"/><path class="cls-10" d="M3587.15,112.56a9.42,9.42,0,1,1-9.42-9.41A9.42,9.42,0,0,1,3587.15,112.56Z" transform="translate(0 145.86)"/><path class="cls-10" d="M1458.21,738.06a9.42,9.42,0,1,1-9.42-9.42A9.42,9.42,0,0,1,1458.21,738.06Z" transform="translate(0 145.86)"/><path class="cls-6" d="M1990,584.12a9.42,9.42,0,1,1-9.42-9.42A9.41,9.41,0,0,1,1990,584.12Z" transform="translate(0 145.86)"/><path class="cls-6" d="M3733.45,1037.4A9.42,9.42,0,1,1,3724,1028,9.42,9.42,0,0,1,3733.45,1037.4Z" transform="translate(0 145.86)"/><path class="cls-6" d="M3480.68,779.88a77.36,77.36,0,1,0,9.91-109A77.37,77.37,0,0,0,3480.68,779.88Z" transform="translate(0 145.86)"/><path class="cls-8" d="M3680.77,671.56c7.87,18.83-48.72,60.42-126.4,92.89s-147,43.53-154.91,24.7,48.72-60.42,126.4-92.89S3672.9,652.73,3680.77,671.56Z" transform="translate(0 145.86)"/><path class="cls-6" d="M3547.35,747.66c-39.26,16.42-74.3,22-78.56,12.66a77.37,77.37,0,1,1,142.75-59.73C3615.34,710.19,3586.68,731.23,3547.35,747.66Z" transform="translate(0 145.86)"/><circle class="cls-6" cx="3232.46" cy="561.73" r="46.76"/><path class="cls-11" d="M2020.79,1015.66A46.76,46.76,0,1,1,1974,968.9,46.76,46.76,0,0,1,2020.79,1015.66Z" transform="translate(0 145.86)"/><path class="cls-8" d="M2999.7,399.71a22.95,22.95,0,1,1-22.95-22.95A22.95,22.95,0,0,1,2999.7,399.71Z" transform="translate(0 145.86)"/><path class="cls-7" d="M2906.35,193.06a28.47,28.47,0,1,1-28.46-28.46A28.46,28.46,0,0,1,2906.35,193.06Z" transform="translate(0 145.86)"/><path class="cls-12" d="M1730.45,475.2a35,35,0,1,1-35-35A35,35,0,0,1,1730.45,475.2Z" transform="translate(0 145.86)"/><path class="cls-8" d="M1622.27,766.66a35,35,0,1,1-35-35A35,35,0,0,1,1622.27,766.66Z" transform="translate(0 145.86)"/><path class="cls-5" d="M3700.07,1209.73a44.29,44.29,0,1,1-44.29-44.29A44.29,44.29,0,0,1,3700.07,1209.73Z" transform="translate(0 145.86)"/><path class="cls-11" d="M2083.48,278.5a60.95,60.95,0,0,1,0-121.9c1.4,0,2.78.12,4.16.22a76.94,76.94,0,1,0,6.12,120.75A61.12,61.12,0,0,1,2083.48,278.5Z" transform="translate(0 145.86)"/><circle class="cls-11" cx="2494.76" cy="18.83" r="18.83"/><path class="cls-9" d="M2319.16,1031.55a21.35,21.35,0,1,1-21.35-21.34A21.35,21.35,0,0,1,2319.16,1031.55Z" transform="translate(0 145.86)"/><circle class="cls-8" cx="3399.09" cy="1643.45" r="96.66" transform="translate(1311.62 4935.29) rotate(-82.24)"/><circle class="cls-12" cx="3653.82" cy="447.69" r="62.6" transform="translate(2628.84 4129.12) rotate(-80.82)"/><path class="cls-6" d="M2151.09,518c28.41-3.2,36.32-34.84,38-66.91a1.14,1.14,0,0,1,1.14-1h0a1.14,1.14,0,0,1,1.14,1c1.54,28.29,6.7,59.93,38,66.91a.86.86,0,0,1,0,1.68c-30.27,6.13-35.78,36.75-38,66.91a1.14,1.14,0,0,1-1.14,1h0a1.14,1.14,0,0,1-1.14-1c-.66-27.07-7.19-60.43-38-66.91C2150.21,519.51,2150.2,518.12,2151.09,518Z" transform="translate(0 145.86)"/><path class="cls-7" d="M3478.58,1341.36c26.22-2.95,33.52-32.16,35.07-61.76a1.05,1.05,0,0,1,1.06-.94h0a1,1,0,0,1,1.05.94c1.42,26.11,6.18,55.32,35.08,61.76a.8.8,0,0,1,0,1.55c-27.94,5.66-33,33.92-35.07,61.76a1.06,1.06,0,0,1-1.06.95h0a1.05,1.05,0,0,1-1.05-.95c-.61-25-6.64-55.78-35.08-61.76A.8.8,0,0,1,3478.58,1341.36Z" transform="translate(0 145.86)"/><path class="cls-9" d="M3057.32,1281.16c17.41-2,22.26-21.35,23.29-41a.69.69,0,0,1,.69-.63h0a.69.69,0,0,1,.7.63c.95,17.34,4.11,36.73,23.29,41a.53.53,0,0,1,0,1c-18.55,3.76-21.92,22.52-23.28,41a.7.7,0,0,1-.7.63h0a.7.7,0,0,1-.7-.63c-.4-16.59-4.41-37-23.29-41C3056.78,1282.07,3056.77,1281.22,3057.32,1281.16Z" transform="translate(0 145.86)"/><path class="cls-5" d="M2869.13,853.26c24.78-2.79,31.68-30.39,33.15-58.37a1,1,0,0,1,1-.9h0a1,1,0,0,1,1,.9c1.35,24.68,5.85,52.28,33.15,58.37a.76.76,0,0,1,0,1.47c-26.4,5.35-31.2,32-33.14,58.37a1,1,0,0,1-1,.9h0a1,1,0,0,1-1-.9c-.58-23.62-6.28-52.72-33.16-58.37C2868.37,854.56,2868.35,853.35,2869.13,853.26Z" transform="translate(0 145.86)"/><path class="cls-9" d="M3471,279c32.67-2.41,41.77-26.27,43.7-50.45.07-.44.63-.78,1.31-.78h0c.68,0,1.25.34,1.31.78,1.78,21.33,7.71,45.18,43.71,50.45,1,.14,1,1.13,0,1.26-34.81,4.62-41.14,27.7-43.7,50.45-.07.44-.63.77-1.31.77h0c-.68,0-1.24-.33-1.31-.77-.76-20.41-8.27-45.57-43.71-50.45C3470,280.16,3470,279.11,3471,279Z" transform="translate(0 145.86)"/><path class="cls-11" d="M3079.8,716.69c55.37-4.09,70.79-44.52,74.07-85.51.11-.75,1.07-1.31,2.22-1.31h0c1.15,0,2.11.56,2.22,1.31,3,36.15,13.07,76.58,74.09,85.51,1.71.25,1.71,1.91,0,2.14-59,7.83-69.74,46.95-74.07,85.5-.12.75-1.07,1.31-2.23,1.31h0c-1.15,0-2.11-.56-2.22-1.31-1.28-34.59-14-77.23-74.08-85.5C3078.08,718.59,3078.05,716.81,3079.8,716.69Z" transform="translate(0 145.86)"/><path class="cls-5" d="M3149.61,167.88c55.37-4.09,70.79-44.52,74.07-85.51.11-.75,1.07-1.31,2.22-1.31h0c1.15,0,2.11.56,2.23,1.31,3,36.15,13.06,76.59,74.08,85.51,1.71.25,1.72,1.91,0,2.14-59,7.83-69.74,46.95-74.07,85.5-.11.75-1.07,1.31-2.22,1.31h0c-1.15,0-2.11-.56-2.23-1.31-1.28-34.59-14-77.23-74.08-85.5C3147.89,169.78,3147.87,168,3149.61,167.88Z" transform="translate(0 145.86)"/><path class="cls-7" d="M2041,734.37c40.72-3,52.06-32.74,54.47-62.88.08-.55.79-1,1.64-1h0c.84,0,1.55.41,1.63,1,2.21,26.59,9.61,56.32,54.49,62.88,1.26.19,1.26,1.41,0,1.58-43.4,5.76-51.29,34.53-54.48,62.88-.08.55-.79,1-1.63,1h0c-.85,0-1.56-.42-1.64-1-.94-25.44-10.31-56.79-54.48-62.88C2039.72,735.78,2039.7,734.47,2041,734.37Z" transform="translate(0 145.86)"/><circle class="cls-9" cx="2494.2" cy="311.37" r="122.86" transform="translate(1193.6 2608.15) rotate(-65.96)"/><path class="cls-6" d="M2278.82,200.8c-14.8,28.83,69.62,101.72,188.58,162.79s227.38,87.2,242.18,58.36S2640,320.23,2521,259.16,2293.62,172,2278.82,200.8Z" transform="translate(0 145.86)"/><path class="cls-9" d="M2480.59,337.88c60.12,30.86,114.91,44.13,122.81,29.8a122.87,122.87,0,1,0-218.58-112.31C2377.61,270.1,2420.38,307,2480.59,337.88Z" transform="translate(0 145.86)"/><path class="cls-11" d="M2446.87,1188.73c17-1.91,21.71-20.82,22.71-40a.68.68,0,0,1,.68-.61h0a.69.69,0,0,1,.69.61c.92,16.91,4,35.82,22.71,40a.51.51,0,0,1,0,1c-18.09,3.67-21.38,22-22.71,40a.68.68,0,0,1-.68.62h0a.67.67,0,0,1-.68-.61c-.4-16.18-4.3-36.13-22.72-40C2446.35,1189.62,2446.34,1188.79,2446.87,1188.73Z" transform="translate(0 145.86)"/><path class="cls-8" d="M2507,656c17-1.91,21.7-20.83,22.71-40a.68.68,0,0,1,.68-.62h0a.68.68,0,0,1,.68.62c.92,16.9,4,35.81,22.71,40a.51.51,0,0,1,0,1c-18.09,3.66-21.38,22-22.7,40a.69.69,0,0,1-.69.61h0a.68.68,0,0,1-.68-.61c-.39-16.18-4.3-36.12-22.71-40A.51.51,0,0,1,2507,656Z" transform="translate(0 145.86)"/><path class="cls-12" d="M2977.92,86.92c17-1.91,21.71-20.82,22.71-40a.68.68,0,0,1,.68-.61h0a.69.69,0,0,1,.69.61c.92,16.91,4,35.82,22.71,40a.52.52,0,0,1,0,1c-18.09,3.66-21.38,22-22.71,40a.68.68,0,0,1-.68.61h0a.68.68,0,0,1-.68-.61c-.39-16.18-4.3-36.12-22.72-40C2977.4,87.81,2977.39,87,2977.92,86.92Z" transform="translate(0 145.86)"/><path class="cls-11" d="M3334.14,1395.56c34.1-3.84,43.6-41.83,45.62-80.35a1.37,1.37,0,0,1,1.37-1.23h0a1.37,1.37,0,0,1,1.37,1.23c1.85,34,8.05,72,45.63,80.35a1,1,0,0,1,0,2c-36.34,7.36-43,44.12-45.62,80.34a1.37,1.37,0,0,1-1.37,1.24h0a1.37,1.37,0,0,1-1.37-1.24c-.79-32.5-8.64-72.57-45.63-80.34C3333.08,1397.35,3333.06,1395.68,3334.14,1395.56Z" transform="translate(0 145.86)"/><path class="cls-8" d="M2729.42,1273.72a53.68,53.68,0,1,0,49.37-57.66A53.68,53.68,0,0,0,2729.42,1273.72Z" transform="translate(0 145.86)"/><path class="cls-5" d="M2886.12,1292.8c-3.11,13.82-44.34,20.14-109.63,5.44s-99.85-38.09-96.74-51.9,44.35-20.12,109.65-5.42S2889.23,1279,2886.12,1292.8Z" transform="translate(0 145.86)"/><path class="cls-8" d="M2780.08,1282.27c-28.81-6.48-50.89-17.38-49.53-24.4a53.68,53.68,0,1,1,104.74,23.55C2833.59,1288.38,2808.92,1288.77,2780.08,1282.27Z" transform="translate(0 145.86)"/><path class="cls-9" d="M2352.88,689.75a9.42,9.42,0,1,1-9.41-9.42A9.41,9.41,0,0,1,2352.88,689.75Z" transform="translate(0 145.86)"/></g><path class="cls-3" d="M675.69,1062.63c43.61,19.88,83.69,52.59,129.22,68.69a5.92,5.92,0,0,1,3.13,8.84c-10.39,15.46-27.07,28.14-52.06,23.92-31.42-5.29-67.86-38.68-98-49.31-29.65-10.45-48.94,9.89-78.09-5.76-10.51-3.85,17.13-38.58,22.81-45.22,21.85-5,48.7-9.53,70.24-1.9C672.66,1062.13,672.41,1062.36,675.69,1062.63Z" transform="translate(0 145.86)"/><path class="cls-3" d="M524.49,1129.28c79-1.61,98.19,36.37,140.19,72.12,25.39,21.61,54.37,14.17,69.61-3.21a7,7,0,0,0-.39-9.64c-14.31-14-38.48-29.56-53.55-43-50.11-49.19-75.33-74.54-140.51-33.9-4.19,2.16-7.19,5.66-11,8.37C524.56,1121.66,518.63,1124.74,524.49,1129.28Z" transform="translate(0 145.86)"/><path class="cls-3" d="M585.64,1161.55c19.48,35.13,7.27,83.93-1.51,131.79a5.4,5.4,0,0,1-6.46,4.28c-18.4-3.79-28.2-9.1-34.13-33.7-4.59-19-1.06-45.78-5.65-64.62-10.67-43.79-73.63-41.85-74.56-47.68,6.3-16.79,46.53-27,57.4-40.65C526.76,1111.47,575.18,1142.68,585.64,1161.55Z" transform="translate(0 145.86)"/><path class="cls-6" d="M841.5,1009.83a7.09,7.09,0,0,0-8.22-4.08c-85,21.49-92.12,15.67-164.22,21.62-35.51,2.93-163.65,2.29-198.26,2.62-84.06.77-133.34,32.34-296.42,90.19-53.12,18.84-100.82,65.5-115.26,83.65-13.53,17-33.78,41.1-59.12,68.78v228.06c64.08-90.56,137.42-173,235.26-239.13,55.33-37.39,108.46-3.48,147.33-.74,84.06,5.93,119.46-14.71,182-7.53,25.71,3,71.11,19.58,73.73-13,1.67-20.81-23.69-30.35-74.9-38.41-12.2-1.92-87.12-14.74-110.32-24.76-8.86-3.83-4.65-8.07-.47-9.32,37-11.1,55.21-22.66,81.78-40.45,42.14-25.45,89.07-34.42,144.52-39.84,38.13-3.72,89-10.12,126.17-21C831.48,1058.83,852.5,1035.45,841.5,1009.83Z" transform="translate(0 145.86)"/></svg>