<?xml version="1.0" encoding="utf-8"?>
<!-- Generator: Adobe Illustrator 25.2.3, SVG Export Plug-In . SVG Version: 6.00 Build 0)  -->
<svg version="1.1" id="_Layer_" xmlns="http://www.w3.org/2000/svg" xmlns:xlink="http://www.w3.org/1999/xlink" x="0px" y="0px"
	 viewBox="0 0 3827.2 1933.3" style="enable-background:new 0 0 3827.2 1933.3;" xml:space="preserve">
<style type="text/css">
	.st0{fill:#F7EBEB;}
	.st1{fill:#3D5CFF;}
	.st2{fill:#240E54;}
	.st3{clip-path:url(#SVGID_2_);}
	.st4{fill:#5F70FA;}
	.st5{fill:#F74945;}
	.st6{fill:#FFD22F;}
	.st7{fill:#8927D4;}
	.st8{fill:#7BC8FF;}
	.st9{fill:#FF5653;}
	.st10{fill:#FFB2C6;}
	.st11{fill:#1DCEDB;}
</style>
<rect x="0" class="st0" width="3827.1" height="1739.6"/>
<path class="st1" d="M1272.2,1015.5c5.3,50.1,22.3,95.9,26.8,146.4c0.2,3.4,3.2,6,6.7,5.8c0.5,0,1-0.1,1.5-0.3
	c18.5-6.5,35.4-11.9,39.5-38.2c5.1-33.1-16-80.5-16.6-114.1c-0.6-33,74.9-70.3,69-104.5c-0.3-11.8-54.1-2.6-62.5,0.9
	c-12.2,20.1-64.6,77-64.1,101C1272.7,1012.3,1273.1,1012.1,1272.2,1015.5z"/>
<path class="st1" d="M1457.9,935.1c-13.2,25.2-70.4,51.3-71.9,66.7c-2.2,22.6,12.6,43.3,21.8,80.3c8.5,34-12.1,57.8-35.6,64
	c-3.8,1-7.7-1.1-8.9-4.9c-6.4-20-16.7-49.5-22.3-70c-22.9-70.2-35-105.7,33.8-148.1c4-2.9,25.2-14.4,29.5-16.8
	C1407.8,903.2,1456.3,927.5,1457.9,935.1z"/>
<path class="st1" d="M1486.6,780.9c-12,9.9-21.9,21.9-27.6,37.8c-10.9,29.5-13.4,66.4-12.5,99.2c-10.7,1.4-20.7,2.3-27.3,0.3
	c-4.9,4-28.2,59.9-26,82.5c4.1,42,50.3,48.2,97.5,68c2.9,1.2,6.2-0.2,7.4-3.1l0.1-0.1c7.3-18.4,7.2-32.8-7.4-47.4
	c-7-7.1-18.5-11.9-24.2-14.8c-9.5-4.9-8.6-6-9-13.4c-1.9-34.9,58.1-38.1,96.6-75.5c17.6-17.1,28.4-37,42.4-56
	c11.6-15.8,39.8-34.9,58.9-41.3C1612.9,777.6,1544,773.4,1486.6,780.9z"/>
<path class="st2" d="M3827.2,0H1944.4c5.5,76.3,45.1,125.1-2.6,180.7c-61.8,72.1-131.7,59.7-170.5,176.3
	c-22.9,68.7,11,180.7-33.8,259.1c-27.7,48.5-72.5,74.4-168.6,107.6c-81.5,28.2-209.7,51-277.1,91.6c-33.5,20.2-144.8,73.7-175,95.8
	c-43.2,31.5-72.3,63.9-152.1,113.8c-3.2,2.1-4.6,6.1-3.4,9.7c10.6,27.3,43.1,29.6,68.7,16.5c36.3-18.5,85.7-55.6,109.7-71.6
	c31.9-21.2,63.1-32,114.2-39.8c37.9-5.8,38.9-9.2,57.6-18c7.5-3.5,10.9,1.4,5.4,6.3c-19.8,17.7-25.3,33.9-64.3,63.4
	c-40.6,30.8-53.3,41.2-42.7,57.8c14.7,23,45,11.6,67.9-4.7c115.3-82.1,122.1-66.3,175.7-95.5c37.3-20.3,59.7-35.1,76.3-57.2
	c17.3-23,37.9-33.6,77.4-50.8c61.7-26.7,143.6-51.5,191.6-62.8c62-14.7,116.1-8.7,139.7,32.8c28.9,51,4.2,116.4,60.8,193.6
	c97.4,132.7,211.2,77.8,327.4,122.2c93.2,35.7,136.1,136.9,203.1,233.2c132.8,190.7,342,56.1,428,242.1
	c27.3,59.1,56.1,103.7,85.4,137.7h784.2L3827.2,0z"/>
<g>
	<defs>
		<path id="SVGID_1_" d="M3827.2,0H1944.4c5.5,76.3,45.1,125.1-2.6,180.7c-61.8,72.1-131.7,59.7-170.5,176.3
			c-22.9,68.7,11,180.7-33.8,259.1c-27.7,48.5-72.5,74.4-168.6,107.6c-81.5,28.2-209.7,51-277.1,91.6
			c-33.5,20.2-144.8,73.7-175,95.8c-43.2,31.5-72.3,63.9-152.1,113.8c-3.2,2.1-4.6,6.1-3.4,9.7c10.6,27.3,43.1,29.6,68.7,16.5
			c36.3-18.5,85.7-55.6,109.7-71.6c31.9-21.2,63.1-32,114.2-39.8c37.9-5.8,38.9-9.2,57.6-18c7.5-3.5,10.9,1.4,5.4,6.3
			c-19.8,17.7-25.3,33.9-64.3,63.4c-40.6,30.8-53.3,41.2-42.7,57.8c14.7,23,45,11.6,67.9-4.7c115.3-82.1,122.1-66.3,175.7-95.5
			c37.3-20.3,59.7-35.1,76.3-57.2c17.3-23,37.9-33.6,77.4-50.8c61.7-26.7,143.6-51.5,191.6-62.8c62-14.7,116.1-8.7,139.7,32.8
			c28.9,51,4.2,116.4,60.8,193.6c97.4,132.7,211.2,77.8,327.4,122.2c93.2,35.7,136.1,136.9,203.1,233.2
			c132.8,190.7,342,56.1,428,242.1c27.3,59.1,56.1,103.7,85.4,137.7h784.2L3827.2,0z"/>
	</defs>
	<clipPath id="SVGID_2_">
		<use xlink:href="#SVGID_1_"  style="overflow:visible;"/>
	</clipPath>
	<g class="st3">
		
			<ellipse transform="matrix(1.274061e-02 -0.9999 0.9999 1.274061e-02 2245.6892 2300.9446)" class="st4" cx="2288.1" cy="13.2" rx="42.7" ry="42.7"/>
		<path class="st5" d="M2571.4,995.9c0,33-26.8,59.8-59.8,59.8c-33,0-59.8-26.8-59.8-59.8c0-33,26.8-59.8,59.8-59.8l0,0
			C2544.6,936.1,2571.4,962.9,2571.4,995.9C2571.4,995.9,2571.4,995.9,2571.4,995.9z"/>
		<path class="st6" d="M2571.6,794.8c0,10.9-8.9,19.8-19.8,19.8c-10.9,0-19.8-8.9-19.8-19.8c0-10.9,8.9-19.8,19.8-19.8l0,0
			C2562.8,775,2571.6,783.9,2571.6,794.8L2571.6,794.8z"/>
		<path class="st7" d="M3618.6,1143.9c0,10.9-8.9,19.8-19.8,19.8c-10.9,0-19.8-8.9-19.8-19.8c0-10.9,8.9-19.8,19.8-19.8c0,0,0,0,0,0
			C3609.8,1124.1,3618.6,1133,3618.6,1143.9z"/>
		<path class="st8" d="M2914.1,679.3c0,10.9-8.9,19.8-19.8,19.8c-10.9,0-19.8-8.9-19.8-19.8c0-10.9,8.9-19.8,19.8-19.8c0,0,0,0,0,0
			C2905.2,659.5,2914.1,668.3,2914.1,679.3C2914.1,679.3,2914.1,679.3,2914.1,679.3z"/>
		<path class="st9" d="M3183.7-109.6c0,5.5-4.4,9.9-9.9,9.9l0,0c-5.5,0-9.9-4.4-9.9-9.9c0,0,0,0,0,0c0-5.5,4.4-9.9,9.9-9.9
			c0,0,0,0,0,0l0,0C3179.2-119.5,3183.7-115.1,3183.7-109.6z"/>
		<path class="st6" d="M3393.8,1627.8c0,5.5-4.4,9.9-9.9,9.9c-5.5,0-9.9-4.4-9.9-9.9s4.4-9.9,9.9-9.9l0,0l0,0
			C3389.4,1617.9,3393.8,1622.3,3393.8,1627.8L3393.8,1627.8z"/>
		<path class="st4" d="M3167.3,650.5c0,5.5-4.4,9.9-9.9,9.9s-9.9-4.4-9.9-9.9s4.4-9.9,9.9-9.9c0,0,0,0,0,0l0,0
			C3162.9,640.6,3167.3,645,3167.3,650.5z"/>
		<path class="st9" d="M3769.5,1613.8c0,5.5-4.4,9.9-9.9,9.9c-5.5,0-9.9-4.4-9.9-9.9c0-5.5,4.4-9.9,9.9-9.9c0,0,0,0,0,0l0,0
			C3765.1,1603.9,3769.5,1608.4,3769.5,1613.8z"/>
		<path class="st9" d="M2548,84.2c0,5.5-4.4,9.9-9.9,9.9c-5.5,0-9.9-4.4-9.9-9.9c0-5.5,4.4-9.9,9.9-9.9l0,0l0,0
			C2543.5,74.3,2548,78.7,2548,84.2z"/>
		<path class="st10" d="M3579.3,584.6c0,3.6-2.9,6.6-6.6,6.6c-3.6,0-6.6-2.9-6.6-6.6c0-3.6,2.9-6.6,6.6-6.6l0,0l0,0
			C3576.3,578.1,3579.2,581,3579.3,584.6z"/>
		<path class="st5" d="M2925.4,312.2c0,3.6-2.9,6.6-6.6,6.6s-6.6-2.9-6.6-6.6s2.9-6.6,6.6-6.6l0,0
			C2922.4,305.6,2925.4,308.6,2925.4,312.2z"/>
		<path class="st10" d="M3269,28.1c0,3.6-2.9,6.6-6.6,6.6c-3.6,0-6.6-2.9-6.6-6.6c0-3.6,2.9-6.6,6.6-6.6l0,0l0,0
			C3266,21.5,3268.9,24.4,3269,28.1z"/>
		<path class="st10" d="M3808.3,1141.3c0,3.6-2.9,6.6-6.6,6.6c-3.6,0-6.6-2.9-6.6-6.6s2.9-6.6,6.6-6.6l0,0l0,0
			C3805.3,1134.7,3808.3,1137.7,3808.3,1141.3C3808.3,1141.3,3808.3,1141.3,3808.3,1141.3z"/>
		<path class="st10" d="M3491.1,290c0,3.6-2.9,6.6-6.6,6.6c-3.6,0-6.6-2.9-6.6-6.6c0-3.6,2.9-6.6,6.6-6.6c0,0,0,0,0,0
			C3488.2,283.5,3491.1,286.4,3491.1,290z"/>
		<path class="st10" d="M2925.4,981.3c0,3.6-2.9,6.6-6.6,6.6c-3.6,0-6.6-2.9-6.6-6.6c0-3.6,2.9-6.6,6.6-6.6l0,0
			C2922.4,974.7,2925.4,977.7,2925.4,981.3z"/>
		<path class="st10" d="M2849.7,90.8c0,3.6-2.9,6.6-6.6,6.6c-3.6,0-6.6-2.9-6.6-6.6c0-3.6,2.9-6.6,6.6-6.6l0,0
			C2846.8,84.3,2849.7,87.2,2849.7,90.8z"/>
		<path class="st10" d="M2925.4,1054.7c0,3.6-2.9,6.6-6.6,6.6c-3.6,0-6.6-2.9-6.6-6.6s2.9-6.6,6.6-6.6c0,0,0,0,0,0
			C2922.5,1048.1,2925.4,1051.1,2925.4,1054.7z"/>
		<path class="st10" d="M3398.5,1411.5c0,3.6-2.9,6.6-6.6,6.6c-3.6,0-6.6-2.9-6.6-6.6s2.9-6.6,6.6-6.6l0,0
			C3395.6,1404.9,3398.5,1407.8,3398.5,1411.5C3398.5,1411.4,3398.5,1411.4,3398.5,1411.5z"/>
		<path class="st10" d="M2007.3,427.9c0,3.6-2.9,6.6-6.6,6.6c-3.6,0-6.6-2.9-6.6-6.6c0-3.6,2.9-6.6,6.6-6.6c0,0,0,0,0,0
			C2004.3,421.3,2007.3,424.3,2007.3,427.9C2007.3,427.9,2007.3,427.9,2007.3,427.9z"/>
		<path class="st10" d="M2457.5,534.2c0,3.6-2.9,6.6-6.6,6.6c-3.6,0-6.6-2.9-6.6-6.6c0-3.6,2.9-6.6,6.6-6.6c0,0,0,0,0,0
			C2454.6,527.6,2457.5,530.6,2457.5,534.2z"/>
		<path class="st10" d="M3179.3,1099.6c0,3.6-2.9,6.6-6.6,6.6c-3.6,0-6.6-2.9-6.6-6.6c0-3.6,2.9-6.6,6.6-6.6c0,0,0,0,0,0l0,0
			C3176.3,1093,3179.2,1096,3179.3,1099.6L3179.3,1099.6z"/>
		<path class="st10" d="M2734.5,534.1c0,3.6-2.9,6.6-6.6,6.6c-3.6,0-6.6-2.9-6.6-6.6s2.9-6.6,6.6-6.6c0,0,0,0,0,0
			C2731.5,527.5,2734.5,530.4,2734.5,534.1C2734.5,534.1,2734.5,534.1,2734.5,534.1z"/>
		<path class="st10" d="M3807.8,190.2c0,3.6-2.9,6.6-6.6,6.6c-3.6,0-6.6-2.9-6.6-6.6c0-3.6,2.9-6.6,6.6-6.6c0,0,0,0,0,0
			C3804.8,183.6,3807.8,186.6,3807.8,190.2C3807.8,190.2,3807.8,190.2,3807.8,190.2z"/>
		<path class="st10" d="M2105.9,56.5c0,3.6-2.9,6.6-6.6,6.6s-6.6-2.9-6.6-6.6s2.9-6.6,6.6-6.6c0,0,0,0,0,0
			C2102.9,50,2105.9,52.9,2105.9,56.5C2105.9,56.5,2105.9,56.5,2105.9,56.5z"/>
		<path class="st5" d="M2636.2,1145.7c0,3.6-2.9,6.6-6.6,6.6c-3.6,0-6.6-2.9-6.6-6.6c0-3.6,2.9-6.6,6.6-6.6l0,0
			C2633.3,1139.1,2636.2,1142,2636.2,1145.7z"/>
		<path class="st8" d="M3622.9,519.1c0-3.6,2.9-6.6,6.6-6.6c3.6,0,6.6,2.9,6.6,6.6c0,3.6-2.9,6.6-6.6,6.6l0,0l0,0
			C3625.9,525.7,3622.9,522.7,3622.9,519.1z"/>
		<path class="st7" d="M2942.4,541.2c0-3.6,2.9-6.6,6.6-6.6c3.6,0,6.6,2.9,6.6,6.6c0,3.6-2.9,6.6-6.6,6.6l0,0
			C2945.3,547.8,2942.4,544.8,2942.4,541.2z"/>
		<path class="st7" d="M2334.4,1029.7c0-3.6,2.9-6.6,6.6-6.6c3.6,0,6.6,2.9,6.6,6.6c0,3.6-2.9,6.6-6.6,6.6c0,0,0,0,0,0l0,0
			C2337.4,1036.2,2334.4,1033.3,2334.4,1029.7C2334.4,1029.7,2334.4,1029.7,2334.4,1029.7z"/>
		<path class="st8" d="M1390.3,850.8c17.9-2.1,22.8-21.9,23.9-42c0-0.4,0.3-0.7,0.7-0.7l0,0c0.4,0,0.7,0.3,0.7,0.7
			c1,17.8,4.2,37.6,23.9,42c0.3,0.1,0.5,0.4,0.4,0.7c-0.1,0.2-0.2,0.3-0.4,0.4c-19,3.9-22.5,23.1-23.9,42c0,0.4-0.3,0.6-0.7,0.7l0,0
			c-0.4,0-0.7-0.3-0.7-0.7c-0.4-17-4.5-37.9-23.9-42C1389.7,851.8,1389.7,850.9,1390.3,850.8z"/>
		<path class="st7" d="M1791.3,687.1c0-3.6,2.9-6.6,6.6-6.6c3.6,0,6.6,2.9,6.6,6.6c0,3.6-2.9,6.6-6.6,6.6
			C1794.3,693.7,1791.3,690.7,1791.3,687.1C1791.3,687.1,1791.3,687.1,1791.3,687.1z"/>
		<path class="st8" d="M3212.5,1067.8c0-3.6,2.9-6.6,6.6-6.6c3.6,0,6.6,2.9,6.6,6.6c0,3.6-2.9,6.6-6.6,6.6c0,0,0,0,0,0
			C3215.5,1074.4,3212.6,1071.5,3212.5,1067.8C3212.5,1067.8,3212.5,1067.8,3212.5,1067.8z"/>
		<path class="st8" d="M1859.1,642.8c0-3.6,2.9-6.6,6.6-6.6c3.6,0,6.6,2.9,6.6,6.6c0,3.6-2.9,6.6-6.6,6.6
			C1862.1,649.4,1859.1,646.5,1859.1,642.8L1859.1,642.8z"/>
		<path class="st8" d="M3253.5,475.3c0-3.6,2.9-6.6,6.6-6.6c3.6,0,6.6,2.9,6.6,6.6c0,3.6-2.9,6.6-6.6,6.6c0,0,0,0,0,0
			C3256.5,481.9,3253.5,479,3253.5,475.3C3253.5,475.4,3253.5,475.3,3253.5,475.3z"/>
		<path class="st8" d="M2706.5,1363.4c0-3.6,2.9-6.6,6.6-6.6s6.6,2.9,6.6,6.6c0,3.6-2.9,6.6-6.6,6.6c0,0,0,0,0,0
			C2709.4,1370,2706.5,1367,2706.5,1363.4C2706.5,1363.4,2706.5,1363.4,2706.5,1363.4z"/>
		<path class="st8" d="M2775.1,907.5c0-3.6,2.9-6.6,6.6-6.6c3.6,0,6.6,2.9,6.6,6.6c0,3.6-2.9,6.6-6.6,6.6l0,0
			C2778,914.1,2775.1,911.1,2775.1,907.5z"/>
		<path class="st8" d="M1917.3,320.7c0-3.6,2.9-6.6,6.6-6.6c3.6,0,6.6,2.9,6.6,6.6c0,3.6-2.9,6.6-6.6,6.6c0,0,0,0,0,0
			C1920.2,327.2,1917.3,324.3,1917.3,320.7C1917.3,320.7,1917.3,320.7,1917.3,320.7z"/>
		<path class="st8" d="M3728.1,1027.4c0-3.6,2.9-6.6,6.6-6.6c3.6,0,6.6,2.9,6.6,6.6c0,3.6-2.9,6.6-6.6,6.6c0,0,0,0,0,0
			C3731.1,1034,3728.1,1031,3728.1,1027.4z"/>
		<path class="st8" d="M2092.1,404.2c0-3.6,2.9-6.6,6.6-6.6c3.6,0,6.6,2.9,6.6,6.6s-2.9,6.6-6.6,6.6c0,0,0,0,0,0
			C2095.1,410.8,2092.1,407.8,2092.1,404.2C2092.1,404.2,2092.1,404.2,2092.1,404.2z"/>
		<path class="st7" d="M3154.1,1723.3c0-3.6,2.9-6.6,6.6-6.6c3.6,0,6.6,2.9,6.6,6.6c0,3.6-2.9,6.6-6.6,6.6l0,0
			C3157.1,1729.9,3154.1,1726.9,3154.1,1723.3z"/>
		<path class="st8" d="M2294.8-68c0-3.6,2.9-6.6,6.5-6.6c0,0,0,0,0,0l0,0c3.6,0,6.6,2.9,6.6,6.6c0,0,0,0,0,0l0,0
			c0,3.6-2.9,6.6-6.6,6.6c0,0,0,0,0,0l0,0C2297.7-61.5,2294.8-64.4,2294.8-68z"/>
		<path class="st6" d="M3499.7,1039.3c-46.4-43-83.7-61.3-186.3-64.5c41.9-5.7,124.8-26.4,197.8,8.1c-8.7,0.7-21,2.6-29.7,3.2
			c28.9,13.1,49.5,30.3,62.4,44.7c-14.5-6.8-29.9-11.5-45.7-13.9C3499,1024.3,3499.6,1031.8,3499.7,1039.3z"/>
		<path class="st8" d="M2044.5,808c0-3.6,2.9-6.6,6.6-6.6c3.6,0,6.6,2.9,6.6,6.6c0,3.6-2.9,6.6-6.6,6.6c0,0,0,0,0,0
			C2047.4,814.6,2044.5,811.7,2044.5,808L2044.5,808z"/>
		<path class="st5" d="M3094.5,1558.4c0-3.6,2.9-6.6,6.6-6.6c3.6,0,6.6,2.9,6.6,6.6c0,3.6-2.9,6.6-6.6,6.6c0,0,0,0,0,0l0,0
			C3097.5,1565,3094.5,1562.1,3094.5,1558.4C3094.5,1558.4,3094.5,1558.4,3094.5,1558.4z"/>
		<path class="st8" d="M3157.5,1504.3c0-3.6,2.9-6.6,6.6-6.6c3.6,0,6.6,2.9,6.6,6.6s-2.9,6.6-6.6,6.6l0,0
			C3160.4,1510.9,3157.5,1507.9,3157.5,1504.3C3157.5,1504.3,3157.5,1504.3,3157.5,1504.3z"/>
		<path class="st8" d="M3530.6,1300.2c0-3.6,2.9-6.6,6.6-6.6c3.6,0,6.6,2.9,6.6,6.6c0,3.6-2.9,6.6-6.6,6.6c0,0,0,0,0,0
			C3533.5,1306.7,3530.6,1303.8,3530.6,1300.2z"/>
		<path class="st5" d="M3471.7,1218.2c0-3.6,2.9-6.6,6.6-6.6c3.6,0,6.6,2.9,6.6,6.6c0,3.6-2.9,6.6-6.6,6.6l0,0l0,0
			C3474.7,1224.8,3471.7,1221.9,3471.7,1218.2L3471.7,1218.2z"/>
		<path class="st11" d="M2977.5,1182c0-3.6,2.9-6.6,6.6-6.6c3.6,0,6.6,2.9,6.6,6.6c0,3.6-2.9,6.6-6.6,6.6l0,0
			C2980.4,1188.5,2977.5,1185.6,2977.5,1182z"/>
		<path class="st8" d="M3809.1-76.3c0-3.6,2.9-6.6,6.6-6.6l0,0c3.6,0,6.6,2.9,6.6,6.6l0,0c0,3.6-3,6.6-6.6,6.6l0,0
			C3812-69.7,3809-72.7,3809.1-76.3C3809-76.3,3809-76.3,3809.1-76.3L3809.1-76.3z"/>
		<path class="st9" d="M3769.5,118.3c0,5.5-4.4,9.9-9.9,9.9c-5.5,0-9.9-4.4-9.9-9.9c0-5.5,4.4-9.9,9.9-9.9l0,0l0,0
			C3765.1,108.4,3769.5,112.8,3769.5,118.3z"/>
		<path class="st9" d="M1532.3,775.6c0,5.5-4.4,9.9-9.9,9.9c-5.5,0-9.9-4.4-9.9-9.9s4.4-9.9,9.9-9.9c0,0,0,0,0,0
			C1527.9,765.7,1532.3,770.1,1532.3,775.6C1532.3,775.6,1532.3,775.6,1532.3,775.6z"/>
		<path class="st5" d="M2091.2,613.8c0,5.5-4.4,9.9-9.9,9.9s-9.9-4.4-9.9-9.9s4.4-9.9,9.9-9.9c0,0,0,0,0,0
			C2086.7,603.9,2091.2,608.4,2091.2,613.8C2091.2,613.8,2091.2,613.8,2091.2,613.8z"/>
		<path class="st5" d="M3923.3,1090.2c0,5.5-4.4,9.9-9.9,9.9c-5.5,0-9.9-4.4-9.9-9.9c0-5.5,4.4-9.9,9.9-9.9
			C3918.8,1080.3,3923.3,1084.7,3923.3,1090.2z"/>
		<path class="st5" d="M3657.7,819.5c28.8,34.5,80,39.1,114.5,10.4s39.1-80,10.4-114.5c-28.7-34.5-80-39.1-114.4-10.4
			C3633.6,733.7,3628.9,785,3657.7,819.5C3657.6,819.5,3657.6,819.5,3657.7,819.5z"/>
		<path class="st7" d="M3867.9,705.7c8.3,19.8-51.3,63.5-132.8,97.6c-81.6,34.1-154.5,45.7-162.8,26c-8.3-19.8,51.2-63.5,132.8-97.6
			C3786.8,697.6,3859.6,685.9,3867.9,705.7z"/>
		<path class="st5" d="M3727.7,785.7c-41.3,17.3-78.1,23.1-82.6,13.3c-17.3-41.4,2.2-89.1,43.6-106.4s89.1,2.2,106.4,43.6l0,0
			C3799.2,746.3,3769.1,768.4,3727.7,785.7z"/>
		<circle class="st5" cx="3396.8" cy="437" r="49.1"/>
		<path class="st10" d="M2123.5,1067.3c0,27.1-22,49.1-49.1,49.2c-27.1,0-49.1-22-49.2-49.1c0-27.1,22-49.1,49.1-49.2
			C2101.5,1018.1,2123.5,1040.1,2123.5,1067.3C2123.5,1067.3,2123.5,1067.3,2123.5,1067.3z"/>
		<path class="st7" d="M3152.2,420c0,13.3-10.8,24.1-24.1,24.1S3104,433.4,3104,420c0-13.3,10.8-24.1,24.1-24.1l0,0
			C3141.4,395.9,3152.2,406.7,3152.2,420L3152.2,420z"/>
		<path class="st6" d="M3054.1,202.9c0,16.5-13.4,29.9-29.9,29.9c-16.5,0-29.9-13.4-29.9-29.9s13.4-29.9,29.9-29.9c0,0,0,0,0,0l0,0
			C3040.7,173,3054.1,186.3,3054.1,202.9C3054.1,202.9,3054.1,202.9,3054.1,202.9z"/>
		<path class="st11" d="M1818.4,499.4c0,20.3-16.5,36.8-36.8,36.8c-20.3,0-36.8-16.5-36.8-36.8c0-20.3,16.5-36.8,36.8-36.8
			C1802,462.6,1818.4,479,1818.4,499.4L1818.4,499.4z"/>
		<path class="st7" d="M1704.8,805.6c0,20.3-16.5,36.8-36.8,36.8c-20.3,0-36.8-16.5-36.8-36.8c0-20.3,16.5-36.7,36.8-36.8
			C1688.3,768.8,1704.7,785.3,1704.8,805.6C1704.8,805.6,1704.8,805.6,1704.8,805.6z"/>
		<path class="st4" d="M3888.3,1271.3c0,25.7-20.8,46.5-46.6,46.5c-25.7,0-46.5-20.8-46.5-46.6c0-25.7,20.8-46.5,46.5-46.5
			C3867.4,1224.7,3888.3,1245.5,3888.3,1271.3C3888.3,1271.2,3888.3,1271.2,3888.3,1271.3z"/>
		<path class="st10" d="M2189.4,292.7c-35.4,0-64.1-28.7-64.1-64.1s28.7-64.1,64.1-64.1c1.5,0,2.9,0.1,4.4,0.2
			c-36.4-25.8-86.9-17.2-112.7,19.2c-25.8,36.4-17.2,86.9,19.2,112.7c30.5,21.6,71.8,19.5,99.9-5.1
			C2196.6,292.3,2193,292.6,2189.4,292.7z"/>
		<circle class="st10" cx="2621.6" cy="-133.5" r="19.8"/>
		<path class="st8" d="M2437.1,1084c0,12.4-10,22.4-22.4,22.5c-12.4,0-22.4-10-22.5-22.4c0-12.4,10-22.4,22.4-22.5c0,0,0,0,0,0l0,0
			C2427,1061.6,2437.1,1071.6,2437.1,1084z"/>
		
			<ellipse transform="matrix(0.7071 -0.7071 0.7071 0.7071 -174.9816 3031.4517)" class="st7" cx="3571.8" cy="1726.9" rx="101.6" ry="101.6"/>
		
			<ellipse transform="matrix(0.1595 -0.9872 0.9872 0.1595 2762.5427 4185.6812)" class="st11" cx="3839.5" cy="470.4" rx="65.8" ry="65.8"/>
		<path class="st5" d="M2260.5,544.3c29.9-3.4,38.2-36.6,40-70.3c0.1-0.6,0.6-1,1.2-1l0,0c0.6,0,1.1,0.4,1.2,1
			c1.6,29.7,7,63,40,70.3c0.5,0.1,0.8,0.6,0.7,1c-0.1,0.3-0.4,0.6-0.7,0.7c-31.8,6.4-37.6,38.6-40,70.3c-0.1,0.6-0.6,1-1.2,1l0,0
			c-0.6,0-1.1-0.4-1.2-1c-0.7-28.4-7.6-63.6-40-70.3c-0.5-0.2-0.7-0.7-0.6-1.1C2260,544.6,2260.2,544.4,2260.5,544.3z"/>
		<path class="st6" d="M3655.4,1409.5c27.6-3.1,35.2-33.8,36.9-64.9c0-0.6,0.5-1,1.1-1l0,0c0.6,0,1.1,0.4,1.1,1c0,0,0,0,0,0.1
			c1.5,27.4,6.5,58.1,36.9,64.9c0.4,0.1,0.7,0.6,0.6,1c-0.1,0.3-0.3,0.5-0.6,0.6c-29.4,5.9-34.7,35.6-36.9,64.9c0,0.6-0.5,1-1.1,1
			l0,0c-0.6,0-1.1-0.4-1.1-1c-0.6-26.3-7-58.6-36.9-64.9c-0.4-0.1-0.7-0.6-0.6-1C3654.9,1409.8,3655.1,1409.6,3655.4,1409.5
			L3655.4,1409.5z"/>
		<path class="st8" d="M3212.8,1346.3c18.3-2.1,23.4-22.4,24.5-43.1c0-0.4,0.3-0.7,0.7-0.7l0,0c0.4,0,0.7,0.3,0.7,0.7
			c1,18.2,4.3,38.6,24.5,43.1c0.3,0.1,0.4,0.4,0.3,0.7c0,0,0,0,0,0c-0.1,0.2-0.2,0.3-0.3,0.3c-19.5,4-23,23.7-24.5,43.1
			c0,0.4-0.3,0.7-0.7,0.7l0,0c-0.4,0-0.7-0.3-0.7-0.7c-0.4-17.4-4.6-38.9-24.5-43.1c-0.3-0.1-0.5-0.4-0.4-0.7
			C3212.4,1346.5,3212.6,1346.4,3212.8,1346.3z"/>
		<path class="st4" d="M3015,896.7c26-2.9,33.3-31.9,34.9-61.3c0-0.5,0.5-0.9,1-0.9l0,0c0.5,0,1,0.4,1,0.9
			c1.4,25.9,6.2,54.9,34.9,61.3c0.4,0.1,0.7,0.5,0.6,1c0,0,0,0,0,0c-0.1,0.3-0.3,0.5-0.6,0.6c-27.7,5.6-32.8,33.6-34.9,61.3
			c0,0.5-0.5,0.9-1,0.9l0,0c-0.5,0-1-0.4-1-0.9c-0.6-24.8-6.6-55.4-34.9-61.3C3014.2,898,3014.2,896.7,3015,896.7z"/>
		<path class="st8" d="M3647.5,293.2c34.3-2.5,43.9-27.6,45.9-53c0.1-0.5,0.7-0.8,1.4-0.8l0,0c0.7,0,1.3,0.4,1.4,0.8
			c1.9,22.4,8.1,47.5,45.9,53c1,0.1,1,1.2,0,1.3c-36.6,4.8-43.2,29.1-45.9,53c-0.1,0.5-0.7,0.8-1.4,0.8l0,0c-0.7,0-1.3-0.3-1.4-0.8
			c-0.8-21.4-8.7-47.9-45.9-53C3646.4,294.4,3646.4,293.3,3647.5,293.2z"/>
		<path class="st10" d="M3236.4,753.1c58.2-4.3,74.4-46.8,77.8-89.9c0.1-0.8,1.1-1.4,2.3-1.4l0,0c1.2,0,2.2,0.6,2.3,1.4
			c3.1,38,13.7,80.5,77.9,89.9c1.8,0.3,1.8,2,0,2.2c-62,8.2-73.3,49.3-77.8,89.9c-0.1,0.8-1.1,1.4-2.3,1.4l0,0
			c-1.2,0-2.2-0.6-2.3-1.4c-1.3-36.4-14.7-81.2-77.8-89.9C3234.6,755.1,3234.5,753.3,3236.4,753.1z"/>
		<path class="st4" d="M3309.7,176.4c58.2-4.3,74.4-46.8,77.8-89.9c0.1-0.8,1.1-1.4,2.3-1.4l0,0c1.2,0,2.2,0.6,2.3,1.4
			c3.2,38,13.7,80.5,77.8,89.9c1.8,0.3,1.8,2.1,0,2.2c-62,8.2-73.3,49.3-77.8,89.9c-0.1,0.8-1.1,1.4-2.3,1.4l0,0
			c-1.2,0-2.2-0.6-2.3-1.4c-1.3-36.4-14.7-81.2-77.8-89.9C3307.9,178.4,3307.9,176.5,3309.7,176.4z"/>
		<path class="st6" d="M2144.8,771.7c42.8-3.2,54.7-34.4,57.2-66.1c0.1-0.6,0.8-1,1.7-1l0,0c0.9,0,1.6,0.4,1.7,1
			c2.3,27.9,10.1,59.2,57.3,66.1c1.3,0.2,1.3,1.5,0,1.7c-45.6,6-53.9,36.3-57.3,66.1c-0.1,0.6-0.8,1-1.7,1l0,0c-0.9,0-1.6-0.4-1.7-1
			c-1-26.7-10.8-59.7-57.3-66.1C2143.4,773.2,2143.4,771.8,2144.8,771.7z"/>
		
			<ellipse transform="matrix(0.7071 -0.7071 0.7071 0.7071 536.3178 1949.0125)" class="st8" cx="2620.8" cy="327.1" rx="129.1" ry="129.1"/>
		<path class="st5" d="M2394.7,211c-15.6,30.3,73.2,106.9,198.2,171.1c125,64.2,238.9,91.6,254.5,61.3s-73.1-106.9-198.2-171.1
			S2410.2,180.7,2394.7,211z"/>
		<path class="st8" d="M2606.7,355.1c63.2,32.4,120.8,46.4,129.1,31.3c34.2-62.6,11.2-141.1-51.4-175.3
			c-62.6-34.2-141.1-11.2-175.3,51.4c-1.1,1.9-2.1,3.9-3,5.9C2498.5,283.8,2543.4,322.6,2606.7,355.1z"/>
		<path class="st10" d="M2571.3,1249.2c17.9-2.1,22.8-21.9,23.9-42c0-0.4,0.3-0.6,0.7-0.6l0,0c0.4,0,0.7,0.3,0.7,0.6
			c1,17.8,4.2,37.6,23.9,42c0.3,0.1,0.5,0.3,0.4,0.6c0,0.2-0.2,0.4-0.4,0.4c-19,3.9-22.5,23.1-23.9,42c0,0.4-0.3,0.7-0.7,0.6l0,0
			c-0.4,0-0.7-0.3-0.7-0.6c-0.4-17-4.5-37.9-23.9-42C2570.7,1250.1,2570.7,1249.2,2571.3,1249.2z"/>
		<path class="st7" d="M2634.5,689.4c17.9-2.1,22.8-21.9,23.9-42c0-0.4,0.3-0.7,0.7-0.7l0,0c0.4,0,0.7,0.3,0.7,0.7
			c1,17.8,4.2,37.6,23.9,42c0.3,0.1,0.4,0.4,0.3,0.7c-0.1,0.2-0.2,0.3-0.3,0.3c-19,3.8-22.5,23.1-23.9,42c0,0.4-0.4,0.6-0.7,0.6l0,0
			c-0.4,0-0.7-0.3-0.7-0.6c-0.4-17-4.5-37.9-23.9-42c-0.3-0.1-0.4-0.4-0.3-0.7C2634.2,689.5,2634.3,689.4,2634.5,689.4z"/>
		<path class="st11" d="M3129.3,91.3c17.9-2.1,22.8-21.9,23.9-42c0-0.4,0.3-0.6,0.7-0.6l0,0c0.4,0,0.7,0.3,0.7,0.6
			c1,17.8,4.2,37.6,23.9,42c0.3,0.1,0.4,0.4,0.3,0.7c-0.1,0.1-0.2,0.2-0.3,0.3c-19,3.8-22.5,23.1-23.9,42c0,0.4-0.3,0.6-0.7,0.6l0,0
			c-0.4,0-0.7-0.3-0.7-0.6c-0.4-17-4.5-37.9-23.9-42c-0.3-0.1-0.4-0.4-0.3-0.7C3129.1,91.5,3129.2,91.4,3129.3,91.3z"/>
		<path class="st10" d="M3503.7,1466.5c35.9-4,45.8-44,47.9-84.4c0.1-0.7,0.7-1.3,1.4-1.3l0,0c0.7,0,1.4,0.6,1.4,1.3
			c1.9,35.7,8.5,75.7,47.9,84.4c0.6,0,1.1,0.5,1.1,1.1c0,0.6-0.5,1.1-1.1,1.1c-38.2,7.7-45.2,46.4-47.9,84.4
			c-0.1,0.7-0.7,1.3-1.4,1.3l0,0c-0.7,0-1.4-0.6-1.4-1.3c-0.8-34.2-9.1-76.3-48-84.4c-0.6-0.1-0.9-0.7-0.8-1.3
			C3502.9,1466.9,3503.3,1466.6,3503.7,1466.5z"/>
		<path class="st7" d="M2868.2,1338.5c2.4,31,29.5,54.3,60.6,51.8c31-2.4,54.3-29.5,51.8-60.6c-2.4-31-29.5-54.2-60.5-51.8l0,0
			C2889,1280.3,2865.8,1307.4,2868.2,1338.5C2868.2,1338.4,2868.2,1338.5,2868.2,1338.5z"/>
		<path class="st4" d="M3032.9,1358.5c-3.3,14.5-46.6,21.2-115.2,5.7s-104.9-40-101.7-54.5s46.6-21.1,115.2-5.7
			S3036.1,1344,3032.9,1358.5z"/>
		<path class="st7" d="M2921.4,1347.5c-30.3-6.8-53.5-18.3-52-25.6c6.5-30.5,36.5-49.8,67-43.3c30.5,6.5,49.9,36.5,43.3,67
			c-0.1,0.4-0.2,0.7-0.2,1C2977.7,1353.9,2951.7,1354.3,2921.4,1347.5z"/>
		<path class="st8" d="M2472.5,724.8c0,5.5-4.4,9.9-9.9,9.9c-5.5,0-9.9-4.4-9.9-9.9c0-5.5,4.4-9.9,9.9-9.9c0,0,0,0,0,0l0,0
			C2468.1,714.9,2472.5,719.3,2472.5,724.8C2472.5,724.8,2472.5,724.8,2472.5,724.8L2472.5,724.8z"/>
	</g>
</g>
<path class="st1" d="M710,1116.7c45.8,20.9,87.9,55.3,135.8,72.2c3.2,1,5,4.5,4,7.7c-0.2,0.6-0.4,1.1-0.8,1.6
	c-10.9,16.2-28.4,29.6-54.7,25.1c-33-5.6-71.3-40.6-103-51.8c-31.2-11-51.4,10.4-82.1-6c-11.1-4,18-40.5,24-47.5
	c23-5.2,51.2-10,73.8-2.1C706.8,1116.1,706.6,1116.3,710,1116.7z"/>
<path class="st1" d="M551.1,1186.7c83-1.7,103.2,38.2,147.3,75.8c26.7,22.7,57.1,14.9,73.2-3.4c2.6-2.9,2.4-7.4-0.4-10.1
	c-15-14.7-40.4-31.1-56.3-45.2c-52.7-51.7-79.2-78.3-147.6-35.6c-4.4,2.3-7.6,6-11.6,8.8C551.2,1178.7,545,1182,551.1,1186.7z"/>
<path class="st1" d="M615.4,1220.6c20.5,36.9,7.6,88.2-1.6,138.5c-0.6,3.1-3.5,5.1-6.6,4.5H607c-19.3-4-29.6-9.6-35.9-35.4
	c-4.8-20-1.1-48.1-5.9-67.9c-11.2-46-77.4-44-78.3-50.1c6.6-17.6,48.9-28.4,60.3-42.7C553.6,1168,604.4,1200.8,615.4,1220.6z"/>
<path class="st5" d="M884.3,1061.2c-1.4-3.4-5.1-5.2-8.6-4.3c-89.3,22.6-96.8,16.5-172.6,22.7c-37.3,3.1-172,2.4-208.3,2.7
	c-88.3,0.8-140.1,34-311.5,94.8c-55.8,19.8-105.9,68.8-121.1,87.9c-14.2,17.9-35.4,43.2-62.1,72.3V1577
	c67.3-95.2,144.4-181.8,247.2-251.3c58.1-39.3,114-3.7,154.8-0.8c88.3,6.2,125.5-15.5,191.3-7.9c27,3.1,74.7,20.6,77.5-13.7
	c1.7-21.9-24.9-31.9-78.7-40.4c-12.8-2.1-91.6-15.5-115.9-26c-9.3-4-4.9-8.5-0.5-9.8c38.9-11.7,58-23.8,85.9-42.5
	c44.3-26.7,93.6-36.2,151.9-41.9c40.1-3.9,93.5-10.6,132.6-22.1C873.7,1112.7,895.8,1088.1,884.3,1061.2z"/>
</svg>
