<?xml version="1.0" encoding="utf-8"?>
<!-- Generator: Adobe Illustrator 25.2.3, SVG Export Plug-In . SVG Version: 6.00 Build 0)  -->
<svg version="1.1" id="Layer_1" xmlns="http://www.w3.org/2000/svg" xmlns:xlink="http://www.w3.org/1999/xlink" x="0px" y="0px"
	 viewBox="0 0 3827.2 1933.3" style="enable-background:new 0 0 3827.2 1933.3;" xml:space="preserve">
<style type="text/css">
	.st0{fill:#F7EBEB;}
	.st1{fill:#3D5CFF;}
	.st2{fill:#240E54;}
	.st3{clip-path:url(#SVGID_2_);}
	.st4{fill:#5F70FA;}
	.st5{fill:#F74945;}
	.st6{fill:#FFD22F;}
	.st7{fill:#8927D4;}
	.st8{fill:#7BC8FF;}
	.st9{fill:#FF5653;}
	.st10{fill:#FFB2C6;}
	.st11{fill:#1DCEDB;}
	.st12{fill:none;}
</style>
<rect class="st0" width="3827.1" height="1933.3"/>
<path class="st1" d="M1272.2,1015.5c5.3,50.1,22.3,95.9,26.8,146.4c0.3,3.4,3.3,6,6.7,5.8c0.5,0,1-0.1,1.5-0.3
	c18.5-6.5,35.4-11.9,39.5-38.2c5.1-33.1-16-80.5-16.6-114.1c-0.6-33,74.9-70.3,69-104.5c-0.3-11.8-54.1-2.6-62.5,0.9
	c-12.2,20.1-64.6,77-64.1,101C1272.7,1012.3,1273.1,1012.1,1272.2,1015.5z"/>
<path class="st1" d="M1457.9,935.1c-13.2,25.2-70.4,51.3-71.9,66.7c-2.2,22.6,12.6,43.3,21.8,80.3c8.5,34-12.1,57.8-35.6,64
	c-3.8,1-7.7-1.1-8.9-4.9c-6.4-20-16.7-49.5-22.3-70c-22.9-70.2-35-105.7,33.8-148.1c4-2.9,25.2-14.4,29.5-16.8
	C1407.8,903.2,1456.3,927.5,1457.9,935.1z"/>
<path class="st1" d="M1486.6,780.9c-12,9.9-21.9,21.9-27.6,37.8c-10.9,29.5-13.4,66.4-12.5,99.2c-10.7,1.4-20.7,2.3-27.3,0.3
	c-4.9,4-28.2,59.9-26,82.5c4.1,42,50.3,48.2,97.5,68c2.9,1.2,6.2-0.2,7.4-3.1c0,0,0,0,0,0l0.1-0.1c7.3-18.4,7.2-32.8-7.4-47.4
	c-7-7.1-18.5-11.9-24.2-14.8c-9.5-4.9-8.6-6-9-13.4c-1.9-34.9,58.1-38.1,96.6-75.5c17.6-17.1,28.4-37,42.4-56
	c11.6-15.8,39.8-34.9,58.9-41.3C1612.9,777.6,1544,773.4,1486.6,780.9z"/>
<path class="st2" d="M3827.2,0H1944.4c5.5,76.3,45.1,125.1-2.6,180.7c-61.8,72.1-131.7,59.7-170.5,176.3
	c-22.9,68.7,11,180.7-33.8,259.1c-27.7,48.5-72.5,74.4-168.6,107.6c-81.5,28.2-209.7,51-277.1,91.6c-33.5,20.2-144.8,73.7-175,95.8
	c-43.2,31.5-72.3,63.9-152.1,113.8c-3.2,2.1-4.6,6.1-3.4,9.7c10.6,27.3,43.1,29.6,68.7,16.5c36.3-18.5,85.7-55.6,109.7-71.6
	c31.9-21.2,63.1-32,114.2-39.8c37.9-5.8,38.9-9.2,57.6-18c7.5-3.5,10.9,1.4,5.4,6.3c-19.8,17.7-25.3,33.9-64.3,63.4
	c-40.6,30.8-53.3,41.2-42.7,57.8c14.7,23,45,11.6,67.9-4.7c115.3-82.1,122.1-66.3,175.7-95.5c37.3-20.3,59.7-35.1,76.3-57.2
	c17.3-23,37.9-33.6,77.4-50.8c61.7-26.7,143.6-51.5,191.6-62.8c62-14.7,116.1-8.7,139.7,32.8c28.9,51,4.2,116.4,60.8,193.6
	c97.4,132.7,211.2,77.8,327.4,122.2c93.2,35.7,136.1,136.9,203.1,233.2c112,160.8,278.3,90.3,379.3,175.8
	c30.9,26.2,41.4,54.7,48.7,66.3c64.5,102.6,269.3,226.8,869.3,331.2c0.1-64.5,0.2-129,0.3-193.5L3827.2,0z"/>
<g>
	<defs>
		<path id="SVGID_1_" d="M3827.2,0H1944.4c5.5,76.3,45.1,125.1-2.6,180.7c-61.8,72.1-131.7,59.7-170.5,176.3
			c-22.9,68.7,11,180.7-33.8,259.1c-27.7,48.5-72.5,74.4-168.6,107.6c-81.5,28.2-209.7,51-277.1,91.6
			c-33.5,20.2-144.8,73.7-175,95.8c-43.2,31.5-72.3,63.9-152.1,113.8c-3.2,2.1-4.6,6.1-3.4,9.7c10.6,27.3,43.1,29.6,68.7,16.5
			c36.3-18.5,85.7-55.6,109.7-71.6c31.9-21.2,63.1-32,114.2-39.8c37.9-5.8,38.9-9.2,57.6-18c7.5-3.5,10.9,1.4,5.4,6.3
			c-19.8,17.7-25.3,33.9-64.3,63.4c-40.6,30.8-53.3,41.2-42.7,57.8c14.7,23,45,11.6,67.9-4.7c115.3-82.1,122.1-66.3,175.7-95.5
			c37.3-20.3,59.7-35.1,76.3-57.2c17.3-23,37.9-33.6,77.4-50.8c61.7-26.7,143.6-51.5,191.6-62.8c62-14.7,116.1-8.7,139.7,32.8
			c28.9,51,4.2,116.4,60.8,193.6c97.4,132.7,211.2,77.8,327.4,122.2c93.2,35.7,136.1,136.9,203.1,233.2
			c112,160.8,278.3,90.3,379.3,175.8c30.9,26.2,41.4,54.7,48.7,66.3c64.5,102.6,269.3,226.8,869.3,331.2c0.1-64.5,0.2-129,0.3-193.5
			L3827.2,0z"/>
	</defs>
	<clipPath id="SVGID_2_">
		<use xlink:href="#SVGID_1_"  style="overflow:visible;"/>
	</clipPath>
	<g class="st3">
		
			<ellipse transform="matrix(1.274062e-02 -0.9999 0.9999 1.274062e-02 2162.8496 2275.9836)" class="st4" cx="2234" cy="42.7" rx="42.7" ry="42.7"/>
		<path class="st5" d="M2517.4,1025.4c0,33-26.8,59.8-59.8,59.8s-59.8-26.8-59.8-59.8s26.8-59.8,59.8-59.8l0,0
			C2490.6,965.6,2517.4,992.3,2517.4,1025.4z"/>
		<path class="st6" d="M2517.6,824.3c0,10.9-8.9,19.8-19.8,19.8c-10.9,0-19.8-8.9-19.8-19.8c0-10.9,8.9-19.8,19.8-19.8l0,0
			C2508.7,804.4,2517.6,813.3,2517.6,824.3C2517.6,824.2,2517.6,824.2,2517.6,824.3z"/>
		<path class="st7" d="M3564.6,1173.4c0,10.9-8.9,19.8-19.8,19.8s-19.8-8.9-19.8-19.8c0-10.9,8.9-19.8,19.8-19.8l0,0
			C3555.7,1153.5,3564.6,1162.4,3564.6,1173.4C3564.6,1173.3,3564.6,1173.3,3564.6,1173.4z"/>
		<path class="st8" d="M2860.1,708.8c0,10.9-8.9,19.8-19.8,19.8c-10.9,0-19.8-8.9-19.8-19.8c0-10.9,8.9-19.8,19.8-19.8l0,0
			C2851.2,688.9,2860.1,697.8,2860.1,708.8C2860.1,708.7,2860.1,708.7,2860.1,708.8z"/>
		<path class="st6" d="M3339.8,1657.3c0,5.5-4.4,9.9-9.9,9.9c-5.5,0-9.9-4.4-9.9-9.9c0-5.5,4.4-9.9,9.9-9.9l0,0l0,0
			C3335.3,1647.3,3339.7,1651.7,3339.8,1657.3C3339.8,1657.2,3339.8,1657.2,3339.8,1657.3z"/>
		<path class="st4" d="M3113.3,680c0,5.5-4.4,9.9-9.9,9.9c-5.5,0-9.9-4.4-9.9-9.9c0-5.5,4.4-9.9,9.9-9.9l0,0l0,0
			C3108.8,670,3113.2,674.4,3113.3,680C3113.3,679.9,3113.3,679.9,3113.3,680z"/>
		<path class="st9" d="M3715.5,1643.3c0,5.5-4.4,9.9-9.9,9.9c-5.5,0-9.9-4.4-9.9-9.9c0-5.5,4.4-9.9,9.9-9.9l0,0l0,0
			C3711,1633.4,3715.5,1637.8,3715.5,1643.3z"/>
		<path class="st9" d="M2494,113.7c0,5.5-4.4,9.9-9.9,9.9c-5.5,0-9.9-4.4-9.9-9.9c0-5.5,4.4-9.9,9.9-9.9l0,0l0,0
			C2489.5,103.8,2494,108.2,2494,113.7z"/>
		<path class="st10" d="M3525.3,614.1c0,3.6-3,6.6-6.6,6.6c-3.6,0-6.6-3-6.6-6.6s3-6.6,6.6-6.6l0,0
			C3522.3,607.6,3525.2,610.5,3525.3,614.1z"/>
		<path class="st5" d="M2871.4,341.7c0,3.6-3,6.6-6.6,6.6c-3.6,0-6.6-3-6.6-6.6c0-3.6,3-6.6,6.6-6.6l0,0
			C2868.4,335.1,2871.3,338,2871.4,341.7z"/>
		<path class="st10" d="M3215,57.6c0,3.6-3,6.6-6.6,6.6c-3.6,0-6.6-3-6.6-6.6c0-3.6,3-6.6,6.6-6.6l0,0
			C3212,51,3214.9,53.9,3215,57.6z"/>
		<path class="st10" d="M3754.3,1170.8c0,3.6-3,6.6-6.6,6.6c-3.6,0-6.6-3-6.6-6.6c0-3.6,3-6.6,6.6-6.6l0,0
			C3751.3,1164.2,3754.2,1167.1,3754.3,1170.8z"/>
		<path class="st10" d="M3437.1,319.5c0,3.6-3,6.6-6.6,6.6c-3.6,0-6.6-3-6.6-6.6c0-3.6,3-6.6,6.6-6.6l0,0
			C3434.1,312.9,3437,315.8,3437.1,319.5z"/>
		<path class="st10" d="M2871.4,1010.8c0,3.6-3,6.6-6.6,6.6c-3.6,0-6.6-3-6.6-6.6s3-6.6,6.6-6.6l0,0
			C2868.4,1004.2,2871.3,1007.1,2871.4,1010.8z"/>
		<path class="st10" d="M2795.7,120.3c0,3.6-3,6.6-6.6,6.6c-3.6,0-6.6-3-6.6-6.6c0-3.6,3-6.6,6.6-6.6l0,0
			C2792.7,113.7,2795.6,116.6,2795.7,120.3z"/>
		<path class="st10" d="M2871.4,1084.2c0,3.6-3,6.6-6.6,6.6c-3.6,0-6.6-3-6.6-6.6c0-3.6,3-6.6,6.6-6.6l0,0
			C2868.4,1077.6,2871.4,1080.5,2871.4,1084.2C2871.4,1084.1,2871.4,1084.1,2871.4,1084.2z"/>
		<path class="st10" d="M3344.5,1441c0,3.6-3,6.6-6.6,6.6c-3.6,0-6.6-3-6.6-6.6c0-3.6,3-6.6,6.6-6.6l0,0c3.6,0,6.6,2.9,6.6,6.5
			C3344.5,1440.9,3344.5,1440.9,3344.5,1441z"/>
		<path class="st10" d="M1953.3,457.4c0,3.6-3,6.6-6.6,6.6c-3.6,0-6.6-3-6.6-6.6s3-6.6,6.6-6.6l0,0l0,0
			C1950.3,450.8,1953.2,453.7,1953.3,457.4z"/>
		<path class="st10" d="M2403.5,563.7c0,3.6-3,6.6-6.6,6.6c-3.6,0-6.6-3-6.6-6.6s3-6.6,6.6-6.6l0,0
			C2400.5,557.1,2403.5,560,2403.5,563.7C2403.5,563.6,2403.5,563.6,2403.5,563.7z"/>
		<path class="st10" d="M3125.3,1129.1c0,3.6-3,6.6-6.6,6.6c-3.6,0-6.6-3-6.6-6.6c0-3.6,3-6.6,6.6-6.6l0,0
			C3122.3,1122.5,3125.2,1125.4,3125.3,1129.1z"/>
		<path class="st10" d="M2680.5,563.6c0,3.6-3,6.6-6.6,6.6c-3.6,0-6.6-3-6.6-6.6s3-6.6,6.6-6.6l0,0
			C2677.5,557,2680.5,559.9,2680.5,563.6C2680.5,563.5,2680.5,563.5,2680.5,563.6z"/>
		<path class="st10" d="M3753.8,219.7c0,3.6-3,6.6-6.6,6.6c-3.6,0-6.6-3-6.6-6.6c0-3.6,3-6.6,6.6-6.6l0,0
			C3750.8,213.1,3753.7,216,3753.8,219.7z"/>
		<path class="st10" d="M2051.9,86c0,3.6-3,6.6-6.6,6.6c-3.6,0-6.6-3-6.6-6.6c0-3.6,3-6.6,6.6-6.6l0,0
			C2048.9,79.4,2051.8,82.3,2051.9,86z"/>
		<path class="st5" d="M2582.2,1175.2c0,3.6-3,6.6-6.6,6.6c-3.6,0-6.6-3-6.6-6.6c0-3.6,3-6.6,6.6-6.6l0,0c3.6,0,6.6,2.9,6.6,6.5
			C2582.2,1175.1,2582.2,1175.1,2582.2,1175.2z"/>
		<path class="st8" d="M3568.9,548.6c0-3.6,3-6.6,6.6-6.6c3.6,0,6.6,3,6.6,6.6s-3,6.6-6.6,6.6l0,0
			C3571.8,555.1,3568.9,552.2,3568.9,548.6z"/>
		<path class="st7" d="M2888.4,570.7c0-3.6,3-6.6,6.6-6.6c3.6,0,6.6,3,6.6,6.6s-3,6.6-6.6,6.6l0,0
			C2891.3,577.3,2888.4,574.3,2888.4,570.7C2888.4,570.7,2888.4,570.7,2888.4,570.7z"/>
		<path class="st7" d="M2280.4,1059.2c0-3.6,3-6.6,6.6-6.6c3.6,0,6.6,3,6.6,6.6c0,3.6-3,6.6-6.6,6.6l0,0
			C2283.4,1065.7,2280.4,1062.8,2280.4,1059.2z"/>
		<path class="st8" d="M1336.3,880.3c17.9-2.1,22.8-21.9,23.9-42c0-0.4,0.3-0.7,0.7-0.7c0,0,0,0,0,0l0,0c0.4,0,0.7,0.3,0.7,0.7
			c0,0,0,0,0,0c1,17.8,4.2,37.6,23.9,42c0.3,0.1,0.5,0.4,0.4,0.7c0,0,0,0,0,0c-0.1,0.2-0.2,0.3-0.4,0.4c-19,3.9-22.5,23.1-23.9,42
			c0,0.4-0.3,0.6-0.7,0.7l0,0c-0.4,0-0.7-0.3-0.7-0.7c0,0,0,0,0,0c-0.4-17-4.5-37.9-23.9-42c-0.3-0.1-0.5-0.4-0.4-0.7
			C1335.9,880.5,1336,880.3,1336.3,880.3z"/>
		<path class="st7" d="M1737.3,716.6c0-3.6,3-6.6,6.6-6.6s6.6,3,6.6,6.6c0,3.6-3,6.6-6.6,6.6l0,0
			C1740.2,723.2,1737.3,720.2,1737.3,716.6C1737.3,716.6,1737.3,716.6,1737.3,716.6z"/>
		<path class="st8" d="M3158.5,1097.3c0-3.6,3-6.6,6.6-6.6c3.6,0,6.6,3,6.6,6.6c0,3.6-3,6.6-6.6,6.6l0,0
			C3161.4,1103.8,3158.5,1100.9,3158.5,1097.3z"/>
		<path class="st8" d="M1805.1,672.3c0-3.6,3-6.6,6.6-6.6s6.6,3,6.6,6.6c0,3.6-3,6.6-6.6,6.6l0,0
			C1808,678.9,1805.1,675.9,1805.1,672.3C1805.1,672.3,1805.1,672.3,1805.1,672.3z"/>
		<path class="st8" d="M3199.5,504.8c0-3.6,3-6.6,6.6-6.6c3.6,0,6.6,3,6.6,6.6c0,3.6-3,6.6-6.6,6.6l0,0
			C3202.4,511.4,3199.5,508.4,3199.5,504.8C3199.5,504.8,3199.5,504.8,3199.5,504.8z"/>
		<path class="st8" d="M2652.5,1392.9c0-3.6,3-6.6,6.6-6.6c3.6,0,6.6,3,6.6,6.6c0,3.6-3,6.6-6.6,6.6l0,0
			C2655.4,1399.5,2652.5,1396.5,2652.5,1392.9C2652.5,1392.9,2652.5,1392.9,2652.5,1392.9z"/>
		<path class="st8" d="M2721.1,937c0-3.6,3-6.6,6.6-6.6c3.6,0,6.6,3,6.6,6.6s-3,6.6-6.6,6.6l0,0C2724,943.6,2721.1,940.6,2721.1,937
			C2721.1,937,2721.1,937,2721.1,937z"/>
		<path class="st8" d="M1863.3,350.2c0-3.6,3-6.6,6.6-6.6c3.6,0,6.6,3,6.6,6.6s-3,6.6-6.6,6.6l0,0l0,0
			C1866.2,356.7,1863.3,353.8,1863.3,350.2z"/>
		<path class="st8" d="M3674.1,1056.9c0-3.6,3-6.6,6.6-6.6c3.6,0,6.6,3,6.6,6.6c0,3.6-3,6.6-6.6,6.6l0,0
			C3677,1063.4,3674.1,1060.5,3674.1,1056.9z"/>
		<path class="st8" d="M2038.1,433.7c0-3.6,3-6.6,6.6-6.6c3.6,0,6.6,3,6.6,6.6c0,3.6-3,6.6-6.6,6.6l0,0
			C2041,440.2,2038.1,437.3,2038.1,433.7z"/>
		<path class="st7" d="M3262.5,1759.4c0-3.6,3-6.6,6.6-6.6c3.6,0,6.6,3,6.6,6.6c0,3.6-3,6.6-6.6,6.6l0,0
			C3265.5,1765.9,3262.5,1763,3262.5,1759.4z"/>
		<path class="st6" d="M3445.7,1068.8c-46.4-43-83.7-61.3-186.3-64.5c41.9-5.7,124.8-26.4,197.8,8.1c-8.7,0.7-21,2.6-29.7,3.2
			c28.9,13.1,49.5,30.3,62.4,44.7c-14.5-6.8-29.9-11.5-45.7-13.9C3445,1053.8,3445.6,1061.3,3445.7,1068.8z"/>
		<path class="st8" d="M1990.5,837.5c0-3.6,3-6.6,6.6-6.6c3.6,0,6.6,3,6.6,6.6s-3,6.6-6.6,6.6l0,0c-3.6,0-6.6-2.9-6.6-6.5
			C1990.5,837.5,1990.5,837.5,1990.5,837.5L1990.5,837.5z"/>
		<path class="st5" d="M3040.5,1587.9c0-3.6,3-6.6,6.6-6.6c3.6,0,6.6,3,6.6,6.6c0,3.6-3,6.6-6.6,6.6l0,0
			C3043.4,1594.5,3040.5,1591.5,3040.5,1587.9C3040.5,1587.9,3040.5,1587.9,3040.5,1587.9z"/>
		<path class="st8" d="M3103.5,1533.8c0-3.6,3-6.6,6.6-6.6c3.6,0,6.6,3,6.6,6.6c0,3.6-3,6.6-6.6,6.6l0,0
			C3106.4,1540.4,3103.5,1537.4,3103.5,1533.8C3103.5,1533.8,3103.5,1533.8,3103.5,1533.8z"/>
		<path class="st8" d="M3476.6,1329.7c0-3.6,3-6.6,6.6-6.6c3.6,0,6.6,3,6.6,6.6c0,3.6-3,6.6-6.6,6.6l0,0
			C3479.5,1336.2,3476.6,1333.3,3476.6,1329.7z"/>
		<path class="st5" d="M3417.7,1247.7c0-3.6,3-6.6,6.6-6.6c3.6,0,6.6,3,6.6,6.6c0,3.6-3,6.6-6.6,6.6l0,0
			C3420.6,1254.3,3417.7,1251.3,3417.7,1247.7C3417.7,1247.7,3417.7,1247.7,3417.7,1247.7z"/>
		<path class="st11" d="M2923.5,1211.5c0-3.6,3-6.6,6.6-6.6c3.6,0,6.6,3,6.6,6.6c0,3.6-3,6.6-6.6,6.6l0,0
			C2926.4,1218,2923.5,1215.1,2923.5,1211.5z"/>
		<path class="st9" d="M3715.5,147.8c0,5.5-4.4,9.9-9.9,9.9c-5.5,0-9.9-4.4-9.9-9.9c0-5.5,4.4-9.9,9.9-9.9l0,0l0,0
			C3711,137.8,3715.4,142.2,3715.5,147.8C3715.5,147.7,3715.5,147.7,3715.5,147.8z"/>
		<path class="st9" d="M1478.3,805.1c0,5.5-4.4,9.9-9.9,9.9s-9.9-4.4-9.9-9.9c0-5.5,4.4-9.9,9.9-9.9l0,0
			C1473.8,795.1,1478.2,799.5,1478.3,805.1C1478.3,805,1478.3,805,1478.3,805.1z"/>
		<path class="st5" d="M2037.2,643.3c0,5.5-4.4,9.9-9.9,9.9c-5.5,0-9.9-4.4-9.9-9.9c0-5.5,4.4-9.9,9.9-9.9l0,0l0,0
			C2032.7,633.4,2037.1,637.8,2037.2,643.3z"/>
		<path class="st5" d="M3603.7,849c28.7,34.5,80,39.2,114.5,10.5s39.2-80,10.5-114.5c-28.7-34.5-80-39.2-114.5-10.5
			C3579.7,763.2,3575,814.4,3603.7,849z"/>
		<path class="st7" d="M3813.9,735.2c8.3,19.8-51.3,63.5-132.8,97.6s-154.5,45.7-162.8,26s51.2-63.5,132.8-97.6
			S3805.6,715.4,3813.9,735.2z"/>
		<path class="st5" d="M3673.7,815.2c-41.3,17.3-78.1,23.1-82.6,13.3c-17.6-41.3,1.5-89.1,42.8-106.7c41.3-17.6,89.1,1.5,106.7,42.8
			c0.2,0.4,0.3,0.7,0.5,1.1l0,0C3745.2,775.8,3715.1,797.9,3673.7,815.2z"/>
		<circle class="st5" cx="3342.8" cy="466.5" r="49.1"/>
		<path class="st10" d="M2069.5,1096.8c0,27.1-22,49.2-49.1,49.2c-27.1,0-49.2-22-49.2-49.1s22-49.2,49.1-49.2l0,0
			C2047.4,1047.7,2069.4,1069.6,2069.5,1096.8z"/>
		<path class="st7" d="M3098.2,449.5c0,13.3-10.8,24.1-24.1,24.1c-13.3,0-24.1-10.8-24.1-24.1c0-13.3,10.8-24.1,24.1-24.1l0,0
			C3087.4,425.4,3098.2,436.1,3098.2,449.5z"/>
		<path class="st6" d="M3000.1,232.4c0,16.5-13.4,29.9-29.9,29.9c-16.5,0-29.9-13.4-29.9-29.9s13.4-29.9,29.9-29.9l0,0l0,0
			C2986.7,202.4,3000,215.8,3000.1,232.4C3000.1,232.3,3000.1,232.3,3000.1,232.4z"/>
		<path class="st11" d="M1885.3,528.9c0,20.3-16.5,36.8-36.8,36.8c-20.3,0-36.8-16.5-36.8-36.8c0-20.3,16.5-36.8,36.8-36.8
			C1868.8,492.1,1885.3,508.5,1885.3,528.9z"/>
		<path class="st7" d="M1650.8,835.1c0,20.3-16.5,36.8-36.8,36.8c-20.3,0-36.8-16.5-36.8-36.8c0-20.3,16.5-36.8,36.8-36.8
			C1634.3,798.3,1650.8,814.7,1650.8,835.1z"/>
		<path class="st4" d="M3834.3,1300.8c0,25.7-20.9,46.5-46.6,46.5c-25.7,0-46.5-20.9-46.5-46.6c0-25.7,20.8-46.5,46.5-46.5
			c25.7-0.1,46.5,20.7,46.6,46.4C3834.3,1300.6,3834.3,1300.7,3834.3,1300.8z"/>
		<path class="st10" d="M2135.4,322.2c-35.4,0-64.1-28.7-64.1-64.1s28.7-64.1,64.1-64.1c1.5,0,2.9,0.1,4.4,0.2
			c-36.4-25.8-86.9-17.3-112.7,19.1c-25.8,36.4-17.3,86.9,19.1,112.7c30.5,21.6,71.8,19.5,100-5
			C2142.6,321.7,2139,322.1,2135.4,322.2z"/>
		<path class="st8" d="M2383.1,1113.5c0,12.4-10,22.5-22.4,22.5c-12.4,0-22.5-10-22.5-22.4c0-12.4,10-22.5,22.4-22.5l0,0
			C2373,1091,2383,1101.1,2383.1,1113.5L2383.1,1113.5z"/>
		
			<ellipse transform="matrix(0.7071 -0.7071 0.7071 0.7071 -211.6362 3001.821)" class="st7" cx="3517.7" cy="1756.4" rx="101.6" ry="101.6"/>
		
			<ellipse transform="matrix(0.7071 -0.7071 0.7071 0.7071 755.2667 2822.9976)" class="st11" cx="3785.3" cy="499.8" rx="65.8" ry="65.8"/>
		<path class="st5" d="M2206.5,573.8c29.9-3.4,38.2-36.6,40-70.3c0.1-0.6,0.6-1,1.2-1l0,0c0.6,0,1.1,0.4,1.2,1
			c1.6,29.7,7,63,40,70.3c0.5,0.1,0.8,0.5,0.7,1c-0.1,0.3-0.4,0.6-0.7,0.7c-31.8,6.4-37.6,38.6-40,70.3c-0.1,0.6-0.6,1-1.2,1l0,0
			c-0.6,0-1.1-0.4-1.2-1c-0.7-28.4-7.6-63.6-40-70.3c-0.4-0.2-0.7-0.6-0.6-1.1C2206,574.1,2206.2,573.8,2206.5,573.8z"/>
		<path class="st6" d="M3601.4,1439c27.6-3.1,35.2-33.8,36.9-64.9c0-0.6,0.4-1,1-1c0,0,0.1,0,0.1,0l0,0c0.5-0.1,1,0.3,1.1,0.9
			c0,0,0,0.1,0,0.1v0.1c1.5,27.4,6.5,58.1,36.9,64.9c0.4,0.1,0.7,0.6,0.6,1c-0.1,0.3-0.3,0.5-0.6,0.6c-29.4,5.9-34.7,35.6-36.9,64.9
			c0,0.6-0.4,1-1,1c0,0-0.1,0-0.1,0l0,0c-0.5,0.1-1-0.3-1.1-0.9c0,0,0-0.1,0-0.1c-0.6-26.3-7-58.6-36.9-64.9c-0.4-0.1-0.7-0.6-0.6-1
			C3600.8,1439.3,3601.1,1439.1,3601.4,1439z"/>
		<path class="st8" d="M3158.8,1375.8c18.3-2.1,23.4-22.4,24.5-43.1c0-0.4,0.3-0.7,0.7-0.7c0,0,0,0,0,0l0,0c0.4,0,0.7,0.3,0.7,0.7
			c0,0,0,0,0,0c1,18.2,4.3,38.6,24.5,43.1c0.3,0.1,0.4,0.4,0.3,0.7c0,0,0,0,0,0l0,0c-0.1,0.2-0.2,0.3-0.3,0.3
			c-19.5,4-23,23.7-24.5,43.1c0,0.4-0.3,0.7-0.7,0.7c0,0,0,0,0,0l0,0c-0.4,0-0.7-0.3-0.7-0.7c0,0,0,0,0,0
			c-0.4-17.4-4.6-38.9-24.5-43.1c-0.3-0.1-0.5-0.4-0.4-0.7l0,0C3158.4,1376,3158.6,1375.9,3158.8,1375.8z"/>
		<path class="st4" d="M2961,926.2c26-2.9,33.3-31.9,34.9-61.3c0.1-0.5,0.5-0.9,1-0.9l0,0c0.5,0,0.9,0.4,1,0.9
			c1.4,25.9,6.2,54.9,34.9,61.3c0.4,0.1,0.7,0.6,0.6,1l0,0c-0.1,0.3-0.3,0.5-0.6,0.6c-27.7,5.6-32.8,33.6-34.9,61.3
			c-0.1,0.5-0.5,0.9-1,0.9l0,0c-0.5,0-0.9-0.4-1-0.9c-0.6-24.8-6.6-55.4-34.9-61.3C2960.2,927.5,2960.2,926.2,2961,926.2z"/>
		<path class="st8" d="M3593.5,322.7c34.3-2.5,43.9-27.6,45.9-53c0.1-0.5,0.7-0.8,1.4-0.8l0,0c0.6,0,1.1,0.3,1.4,0.8
			c1.9,22.4,8.1,47.5,45.9,53c1,0.1,1,1.2,0,1.3c-36.6,4.8-43.2,29.1-45.9,53c-0.1,0.5-0.7,0.8-1.4,0.8l0,0c-0.7,0-1.3-0.3-1.4-0.8
			c-0.8-21.4-8.7-47.9-45.9-53C3592.4,323.9,3592.4,322.8,3593.5,322.7z"/>
		<path class="st10" d="M3182.4,782.6c58.2-4.3,74.4-46.8,77.8-89.9c0.1-0.8,1.1-1.4,2.3-1.4l0,0c1.2,0,2.2,0.6,2.3,1.4
			c3.1,38,13.7,80.5,77.9,89.9c1.8,0.3,1.8,2,0,2.2c-62,8.2-73.3,49.3-77.8,89.9c-0.1,0.8-1.1,1.4-2.3,1.4l0,0
			c-1.2,0-2.2-0.6-2.3-1.4c-1.3-36.4-14.7-81.2-77.8-89.9C3180.6,784.6,3180.5,782.8,3182.4,782.6z"/>
		<path class="st4" d="M3255.7,205.9c58.2-4.3,74.4-46.8,77.8-89.9c0.1-0.8,1.1-1.4,2.3-1.4l0,0c1.2,0,2.2,0.6,2.3,1.4
			c3.2,38,13.7,80.5,77.8,89.9c1.8,0.3,1.8,2.1,0,2.2c-62,8.2-73.3,49.3-77.8,89.9c-0.1,0.8-1.1,1.4-2.3,1.4l0,0
			c-1.2,0-2.2-0.6-2.3-1.4c-1.3-36.4-14.7-81.2-77.8-89.9C3253.9,207.9,3253.9,206,3255.7,205.9z"/>
		<path class="st6" d="M2090.8,801.2c42.8-3.2,54.7-34.4,57.2-66.1c0.1-0.6,0.8-1,1.7-1l0,0c0.9,0,1.6,0.4,1.7,1
			c2.3,27.9,10.1,59.2,57.3,66.1c1.3,0.2,1.3,1.5,0,1.7c-45.6,6-53.9,36.3-57.3,66.1c-0.1,0.6-0.8,1-1.7,1l0,0c-0.9,0-1.6-0.4-1.7-1
			c-1-26.7-10.8-59.7-57.3-66.1C2089.4,802.7,2089.4,801.3,2090.8,801.2z"/>
		
			<ellipse transform="matrix(0.7071 -0.7071 0.7071 0.7071 499.6322 1919.4136)" class="st8" cx="2566.8" cy="356.6" rx="129.1" ry="129.1"/>
		<path class="st5" d="M2340.7,240.5c-15.6,30.3,73.2,106.9,198.2,171.1s238.9,91.6,254.5,61.3s-73.1-106.9-198.2-171.1
			S2356.2,210.2,2340.7,240.5z"/>
		<path class="st8" d="M2552.7,384.6c63.2,32.4,120.8,46.4,129.1,31.3c34.2-62.6,11.2-141.1-51.4-175.3
			c-62.6-34.2-141.1-11.2-175.3,51.4l0,0c-1.1,1.9-2.1,3.9-3,5.9C2444.5,313.3,2489.4,352.1,2552.7,384.6z"/>
		<path class="st10" d="M2517.3,1278.7c17.9-2.1,22.8-21.9,23.9-42c0-0.4,0.3-0.6,0.7-0.6l0,0c0.4,0,0.7,0.2,0.7,0.6
			c1,17.8,4.2,37.6,23.9,42c0.3,0.1,0.5,0.3,0.4,0.6c0,0.2-0.2,0.4-0.4,0.4c-19,3.9-22.5,23.1-23.9,42c0,0.3-0.2,0.6-0.5,0.6
			c-0.1,0-0.1,0-0.2,0l0,0c-0.4,0-0.7-0.2-0.7-0.6c-0.4-17-4.5-37.9-23.9-42C2516.7,1279.6,2516.7,1278.7,2517.3,1278.7z"/>
		<path class="st7" d="M2580.5,718.9c17.9-2.1,22.8-21.9,23.9-42c0-0.4,0.3-0.7,0.7-0.7c0,0,0,0,0,0l0,0c0.4,0,0.7,0.3,0.7,0.7
			c0,0,0,0,0,0c1,17.8,4.2,37.6,23.9,42c0.3,0.1,0.4,0.4,0.3,0.7c0,0,0,0,0,0c-0.1,0.2-0.2,0.3-0.3,0.3c-19,3.8-22.5,23.1-23.9,42
			c0,0.4-0.3,0.6-0.7,0.6l0,0c-0.4,0-0.7-0.2-0.7-0.6c-0.4-17-4.5-37.9-23.9-42c-0.3-0.1-0.4-0.4-0.3-0.7c0,0,0,0,0,0
			C2580.2,719,2580.3,718.9,2580.5,718.9C2580.4,718.9,2580.4,718.9,2580.5,718.9z"/>
		<path class="st11" d="M3075.3,120.8c17.9-2.1,22.8-21.9,23.9-42c0-0.4,0.3-0.6,0.7-0.6l0,0c0.4,0,0.7,0.2,0.7,0.6
			c1,17.8,4.2,37.6,23.9,42c0.3,0.1,0.4,0.4,0.3,0.7c0,0,0,0,0,0l-0.3,0.3c-19,3.8-22.5,23.1-23.9,42c0,0.4-0.3,0.6-0.7,0.6l0,0
			c-0.4,0-0.7-0.2-0.7-0.6c-0.4-17-4.5-37.9-23.9-42c-0.3-0.1-0.4-0.4-0.3-0.7c0,0,0,0,0,0L3075.3,120.8z"/>
		<path class="st10" d="M3449.7,1496c35.9-4,45.8-44,47.9-84.4c0.1-0.7,0.7-1.3,1.4-1.3l0,0c0.7,0,1.3,0.6,1.4,1.3
			c1.9,35.7,8.5,75.7,47.9,84.4c0.6,0,1.1,0.5,1.1,1.1c0,0.6-0.5,1.1-1.1,1.1c-38.2,7.7-45.2,46.4-47.9,84.4
			c-0.1,0.7-0.7,1.3-1.4,1.3l0,0c-0.7,0-1.3-0.6-1.4-1.3c-0.8-34.2-9.1-76.3-48-84.4c-0.6-0.1-0.9-0.7-0.8-1.3c0,0,0,0,0,0
			C3448.9,1496.4,3449.2,1496.1,3449.7,1496z"/>
		<path class="st7" d="M2814.2,1368c2.4,31,29.6,54.2,60.6,51.8c31-2.4,54.2-29.6,51.8-60.6c-2.4-31-29.5-54.2-60.5-51.8l0,0
			C2835,1309.7,2811.8,1336.8,2814.2,1368C2814.2,1367.9,2814.2,1367.9,2814.2,1368z"/>
		<path class="st4" d="M2978.9,1388c-3.3,14.5-46.6,21.2-115.2,5.7s-104.9-40-101.7-54.5s46.6-21.1,115.2-5.7
			S2982.1,1373.5,2978.9,1388z"/>
		<path class="st7" d="M2867.4,1377c-30.3-6.8-53.5-18.3-52-25.6c6.3-30.5,36.2-50.1,66.7-43.7c30.5,6.3,50.1,36.2,43.7,66.7
			c-0.1,0.2-0.1,0.5-0.2,0.7c-0.1,0.3-0.2,0.7-0.2,1C2923.7,1383.4,2897.7,1383.8,2867.4,1377z"/>
		<path class="st8" d="M2418.5,754.3c0,5.5-4.4,9.9-9.9,9.9c-5.5,0-9.9-4.4-9.9-9.9c0-5.5,4.4-9.9,9.9-9.9l0,0l0,0
			C2414,744.3,2418.4,748.7,2418.5,754.3C2418.5,754.2,2418.5,754.2,2418.5,754.3z"/>
		<path class="st11" d="M3699,1818.7c0-3.6,3-6.6,6.6-6.6c3.6,0,6.6,3,6.6,6.6c0,3.6-3,6.6-6.6,6.6l0,0
			C3701.9,1825.3,3699,1822.4,3699,1818.7z"/>
	</g>
</g>
<path class="st1" d="M710,1116.7c45.8,20.9,87.9,55.3,135.8,72.2c3.2,1,5,4.5,4,7.7c-0.2,0.6-0.4,1.1-0.8,1.6
	c-10.9,16.2-28.4,29.6-54.7,25.1c-33-5.6-71.3-40.6-103-51.8c-31.2-11-51.4,10.4-82.1-6c-11.1-4,18-40.5,24-47.5
	c23-5.2,51.2-10,73.8-2.1C706.8,1116.1,706.6,1116.3,710,1116.7z"/>
<path class="st1" d="M551.1,1186.7c83-1.7,103.2,38.2,147.3,75.8c26.7,22.7,57.1,14.9,73.2-3.4c2.6-2.9,2.4-7.4-0.4-10.1
	c-15-14.7-40.4-31.1-56.3-45.2c-52.7-51.7-79.2-78.3-147.6-35.6c-4.4,2.3-7.6,6-11.6,8.8C551.2,1178.7,545,1182,551.1,1186.7z"/>
<path class="st1" d="M615.4,1220.6c20.5,36.9,7.6,88.2-1.6,138.5c-0.5,3-3.5,5.1-6.5,4.5c0,0-0.1,0-0.1,0H607
	c-19.3-4-29.6-9.6-35.9-35.4c-4.8-20-1.1-48.1-5.9-67.9c-11.2-46-77.4-44-78.3-50.1c6.6-17.6,48.9-28.4,60.3-42.7
	C553.6,1168,604.4,1200.8,615.4,1220.6z"/>
<path class="st5" d="M884.3,1061.2c-1.4-3.4-5.1-5.2-8.6-4.3c-89.3,22.6-96.8,16.5-172.6,22.7c-37.3,3.1-172,2.4-208.3,2.7
	c-88.3,0.8-140.1,34-311.5,94.8c-55.8,19.8-105.9,68.8-121.1,87.9c-14.2,17.9-35.4,43.2-62.1,72.3V1577
	c67.3-95.2,144.4-181.8,247.2-251.3c58.1-39.3,114-3.7,154.8-0.8c88.3,6.2,125.5-15.5,191.3-7.9c27,3.1,74.7,20.6,77.5-13.7
	c1.7-21.9-24.9-31.9-78.7-40.4c-12.8-2.1-91.6-15.5-115.9-26c-9.3-4-4.9-8.5-0.5-9.8c38.9-11.7,58-23.8,85.9-42.5
	c44.3-26.7,93.6-36.2,151.9-41.9c40.1-3.9,93.5-10.6,132.6-22.1C873.7,1112.7,895.8,1088.1,884.3,1061.2z"/>
<path class="st12" d="M4275.8,1350"/>
</svg>
