<svg xmlns="http://www.w3.org/2000/svg" xmlns:xlink="http://www.w3.org/1999/xlink" viewBox="0 0 3827.2 1933.3"><defs><style>.a{fill:none;}.b{fill:#f7ebeb;}.c{fill:#3d5cff;}.d{fill:#240e54;}.e{clip-path:url(#a);}.f{fill:#5f70fa;}.g{fill:#f74945;}.h{fill:#ffd22f;}.i{fill:#8927d4;}.j{fill:#7bc8ff;}.k{fill:#ff5653;}.l{fill:#ffb2c6;}.m{fill:#1dcedb;}</style><clipPath id="a"><path class="a" d="M3827.2,0H1944.4c5.5,76.3,45.1,125.1-2.6,180.7-61.8,72.1-131.7,59.7-170.5,176.3-22.9,68.7,11,180.7-33.8,259.1-27.7,48.5-72.5,74.4-168.6,107.6-81.5,28.2-209.7,51-277.1,91.6-33.5,20.2-144.8,73.7-175,95.8-43.2,31.5-72.3,63.9-152.1,113.8a8.45,8.45,0,0,0-3.4,9.7c10.6,27.3,43.1,29.6,68.7,16.5,36.3-18.5,85.7-55.6,109.7-71.6,31.9-21.2,63.1-32,114.2-39.8,37.9-5.8,38.9-9.2,57.6-18,7.5-3.5,10.9,1.4,5.4,6.3-19.8,17.7-25.3,33.9-64.3,63.4-40.6,30.8-53.3,41.2-42.7,57.8,14.7,23,45,11.6,67.9-4.7,115.3-82.1,122.1-66.3,175.7-95.5,37.3-20.3,59.7-35.1,76.3-57.2,17.3-23,37.9-33.6,77.4-50.8,61.7-26.7,143.6-51.5,191.6-62.8,62-14.7,116.1-8.7,139.7,32.8,28.9,51,4.2,116.4,60.8,193.6,97.4,132.7,211.2,77.8,327.4,122.2,93.2,35.7,136.1,136.9,203.1,233.2,132.8,190.7,342,56.1,428,242.1,27.3,59.1,56.1,103.7,85.4,137.7h784.2Z"/></clipPath></defs><rect class="b" width="3827.1" height="1739.6"/><path class="c" d="M1272.2,1015.5c5.3,50.1,22.3,95.9,26.8,146.4a6.28,6.28,0,0,0,6.7,5.8,4,4,0,0,0,1.5-.3c18.5-6.5,35.4-11.9,39.5-38.2,5.1-33.1-16-80.5-16.6-114.1-.6-33,74.9-70.3,69-104.5-.3-11.8-54.1-2.6-62.5.9-12.2,20.1-64.6,77-64.1,101C1272.7,1012.3,1273.1,1012.1,1272.2,1015.5Z"/><path class="c" d="M1457.9,935.1c-13.2,25.2-70.4,51.3-71.9,66.7-2.2,22.6,12.6,43.3,21.8,80.3,8.5,34-12.1,57.8-35.6,64a7.33,7.33,0,0,1-8.9-4.9c-6.4-20-16.7-49.5-22.3-70-22.9-70.2-35-105.7,33.8-148.1,4-2.9,25.2-14.4,29.5-16.8C1407.8,903.2,1456.3,927.5,1457.9,935.1Z"/><path class="c" d="M1486.6,780.9c-12,9.9-21.9,21.9-27.6,37.8-10.9,29.5-13.4,66.4-12.5,99.2-10.7,1.4-20.7,2.3-27.3.3-4.9,4-28.2,59.9-26,82.5,4.1,42,50.3,48.2,97.5,68a5.67,5.67,0,0,0,7.4-3.1l.1-.1c7.3-18.4,7.2-32.8-7.4-47.4-7-7.1-18.5-11.9-24.2-14.8-9.5-4.9-8.6-6-9-13.4-1.9-34.9,58.1-38.1,96.6-75.5,17.6-17.1,28.4-37,42.4-56,11.6-15.8,39.8-34.9,58.9-41.3C1612.9,777.6,1544,773.4,1486.6,780.9Z"/><path class="d" d="M3827.2,0H1944.4c5.5,76.3,45.1,125.1-2.6,180.7-61.8,72.1-131.7,59.7-170.5,176.3-22.9,68.7,11,180.7-33.8,259.1-27.7,48.5-72.5,74.4-168.6,107.6-81.5,28.2-209.7,51-277.1,91.6-33.5,20.2-144.8,73.7-175,95.8-43.2,31.5-72.3,63.9-152.1,113.8a8.45,8.45,0,0,0-3.4,9.7c10.6,27.3,43.1,29.6,68.7,16.5,36.3-18.5,85.7-55.6,109.7-71.6,31.9-21.2,63.1-32,114.2-39.8,37.9-5.8,38.9-9.2,57.6-18,7.5-3.5,10.9,1.4,5.4,6.3-19.8,17.7-25.3,33.9-64.3,63.4-40.6,30.8-53.3,41.2-42.7,57.8,14.7,23,45,11.6,67.9-4.7,115.3-82.1,122.1-66.3,175.7-95.5,37.3-20.3,59.7-35.1,76.3-57.2,17.3-23,37.9-33.6,77.4-50.8,61.7-26.7,143.6-51.5,191.6-62.8,62-14.7,116.1-8.7,139.7,32.8,28.9,51,4.2,116.4,60.8,193.6,97.4,132.7,211.2,77.8,327.4,122.2,93.2,35.7,136.1,136.9,203.1,233.2,132.8,190.7,342,56.1,428,242.1,27.3,59.1,56.1,103.7,85.4,137.7h784.2Z"/><g class="e"><circle class="f" cx="2288.04" cy="13.24" r="42.7" transform="translate(2245.65 2300.93) rotate(-89.27)"/><path class="g" d="M2571.4,995.9a59.8,59.8,0,1,1-59.8-59.8h0a59.83,59.83,0,0,1,59.8,59.8Z"/><path class="h" d="M2571.6,794.8a19.8,19.8,0,1,1-19.8-19.8h0a19.78,19.78,0,0,1,19.8,19.8Z"/><path class="i" d="M3618.6,1143.9a19.8,19.8,0,1,1-19.8-19.8h0A19.78,19.78,0,0,1,3618.6,1143.9Z"/><path class="j" d="M2914.1,679.3a19.8,19.8,0,1,1-19.8-19.8h0a19.78,19.78,0,0,1,19.8,19.8Z"/><path class="h" d="M3393.8,1627.8a9.9,9.9,0,1,1-9.9-9.9h0a9.86,9.86,0,0,1,9.9,9.9Z"/><path class="f" d="M3167.3,650.5a9.9,9.9,0,1,1-9.9-9.9h0A9.86,9.86,0,0,1,3167.3,650.5Z"/><path class="k" d="M3769.5,1613.8a9.9,9.9,0,1,1-9.9-9.9h0A9.92,9.92,0,0,1,3769.5,1613.8Z"/><path class="k" d="M2548,84.2a9.9,9.9,0,1,1-9.9-9.9h0A9.92,9.92,0,0,1,2548,84.2Z"/><path class="l" d="M3579.3,584.6a6.6,6.6,0,1,1-6.6-6.6h0A6.8,6.8,0,0,1,3579.3,584.6Z"/><path class="g" d="M2925.4,312.2a6.6,6.6,0,1,1-6.6-6.6h0A6.66,6.66,0,0,1,2925.4,312.2Z"/><path class="l" d="M3269,28.1a6.6,6.6,0,1,1-6.6-6.6h0A6.66,6.66,0,0,1,3269,28.1Z"/><path class="l" d="M3808.3,1141.3a6.6,6.6,0,1,1-6.6-6.6h0a6.66,6.66,0,0,1,6.6,6.6Z"/><path class="l" d="M3491.1,290a6.6,6.6,0,1,1-6.6-6.6h0A6.66,6.66,0,0,1,3491.1,290Z"/><path class="l" d="M2925.4,981.3a6.6,6.6,0,1,1-6.6-6.6h0A6.66,6.66,0,0,1,2925.4,981.3Z"/><path class="l" d="M2849.7,90.8a6.6,6.6,0,1,1-6.6-6.6h0A6.66,6.66,0,0,1,2849.7,90.8Z"/><path class="l" d="M2925.4,1054.7a6.6,6.6,0,1,1-6.6-6.6h0A6.59,6.59,0,0,1,2925.4,1054.7Z"/><path class="l" d="M3398.5,1411.5a6.6,6.6,0,1,1-6.6-6.6h0a6.53,6.53,0,0,1,6.6,6.6Z"/><path class="l" d="M2007.3,427.9a6.6,6.6,0,1,1-6.6-6.6h0a6.66,6.66,0,0,1,6.6,6.6Z"/><path class="l" d="M2457.5,534.2a6.6,6.6,0,1,1-6.6-6.6h0A6.59,6.59,0,0,1,2457.5,534.2Z"/><path class="l" d="M3179.3,1099.6a6.6,6.6,0,1,1-6.6-6.6h0a6.73,6.73,0,0,1,6.6,6.6Z"/><path class="l" d="M2734.5,534.1a6.6,6.6,0,1,1-6.6-6.6h0a6.59,6.59,0,0,1,6.6,6.6Z"/><path class="l" d="M3807.8,190.2a6.6,6.6,0,1,1-6.6-6.6h0a6.66,6.66,0,0,1,6.6,6.6Z"/><path class="l" d="M2105.9,56.5a6.6,6.6,0,1,1-6.6-6.6h0a6.73,6.73,0,0,1,6.6,6.6Z"/><path class="g" d="M2636.2,1145.7a6.6,6.6,0,1,1-6.6-6.6h0A6.53,6.53,0,0,1,2636.2,1145.7Z"/><path class="j" d="M3622.9,519.1a6.6,6.6,0,1,1,6.6,6.6h0A6.66,6.66,0,0,1,3622.9,519.1Z"/><path class="i" d="M2942.4,541.2a6.6,6.6,0,1,1,6.6,6.6h0A6.59,6.59,0,0,1,2942.4,541.2Z"/><path class="i" d="M2334.4,1029.7a6.6,6.6,0,1,1,6.6,6.6h0a6.73,6.73,0,0,1-6.6-6.6Z"/><path class="j" d="M1390.3,850.8c17.9-2.1,22.8-21.9,23.9-42a.68.68,0,0,1,.7-.7h0a.68.68,0,0,1,.7.7c1,17.8,4.2,37.6,23.9,42a.57.57,0,0,1,.4.7.78.78,0,0,1-.4.4c-19,3.9-22.5,23.1-23.9,42,0,.4-.3.6-.7.7h0a.68.68,0,0,1-.7-.7c-.4-17-4.5-37.9-23.9-42A.56.56,0,0,1,1390.3,850.8Z"/><path class="i" d="M1791.3,687.1a6.6,6.6,0,1,1,6.6,6.6,6.59,6.59,0,0,1-6.6-6.6Z"/><path class="j" d="M3212.5,1067.8a6.6,6.6,0,1,1,6.6,6.6h0a6.66,6.66,0,0,1-6.6-6.6Z"/><path class="j" d="M1859.1,642.8a6.6,6.6,0,1,1,6.6,6.6,6.59,6.59,0,0,1-6.6-6.6Z"/><path class="j" d="M3253.5,475.3a6.6,6.6,0,1,1,6.6,6.6h0a6.59,6.59,0,0,1-6.6-6.6Z"/><path class="j" d="M2706.5,1363.4a6.6,6.6,0,1,1,6.6,6.6h0a6.59,6.59,0,0,1-6.6-6.6Z"/><path class="j" d="M2775.1,907.5a6.6,6.6,0,1,1,6.6,6.6h0A6.59,6.59,0,0,1,2775.1,907.5Z"/><path class="j" d="M1917.3,320.7a6.6,6.6,0,1,1,6.6,6.6h0a6.66,6.66,0,0,1-6.6-6.6Z"/><path class="j" d="M3728.1,1027.4a6.6,6.6,0,1,1,6.6,6.6h0A6.66,6.66,0,0,1,3728.1,1027.4Z"/><path class="j" d="M2092.1,404.2a6.6,6.6,0,1,1,6.6,6.6h0a6.66,6.66,0,0,1-6.6-6.6Z"/><path class="i" d="M3154.1,1723.3a6.6,6.6,0,1,1,6.6,6.6h0A6.66,6.66,0,0,1,3154.1,1723.3Z"/><path class="h" d="M3499.7,1039.3c-46.4-43-83.7-61.3-186.3-64.5,41.9-5.7,124.8-26.4,197.8,8.1-8.7.7-21,2.6-29.7,3.2,28.9,13.1,49.5,30.3,62.4,44.7a166.64,166.64,0,0,0-45.7-13.9C3499,1024.3,3499.6,1031.8,3499.7,1039.3Z"/><path class="j" d="M2044.5,808a6.6,6.6,0,1,1,6.6,6.6h0a6.53,6.53,0,0,1-6.6-6.6Z"/><path class="g" d="M3094.5,1558.4a6.6,6.6,0,1,1,6.6,6.6h0a6.59,6.59,0,0,1-6.6-6.6Z"/><path class="j" d="M3157.5,1504.3a6.6,6.6,0,1,1,6.6,6.6h0a6.59,6.59,0,0,1-6.6-6.6Z"/><path class="j" d="M3530.6,1300.2a6.6,6.6,0,1,1,6.6,6.6h0A6.66,6.66,0,0,1,3530.6,1300.2Z"/><path class="g" d="M3471.7,1218.2a6.6,6.6,0,1,1,6.6,6.6h0a6.59,6.59,0,0,1-6.6-6.6Z"/><path class="m" d="M2977.5,1182a6.6,6.6,0,1,1,6.6,6.6h0A6.66,6.66,0,0,1,2977.5,1182Z"/><path class="k" d="M3769.5,118.3a9.9,9.9,0,1,1-9.9-9.9h0A9.86,9.86,0,0,1,3769.5,118.3Z"/><path class="k" d="M1532.3,775.6a9.9,9.9,0,1,1-9.9-9.9h0a9.86,9.86,0,0,1,9.9,9.9Z"/><path class="g" d="M2091.2,613.8a9.9,9.9,0,1,1-9.9-9.9h0a10,10,0,0,1,9.9,9.9Z"/><path class="g" d="M3657.7,819.5A81.3,81.3,0,1,0,3668.2,705a81.33,81.33,0,0,0-10.5,114.5Z"/><path class="i" d="M3867.9,705.7c8.3,19.8-51.3,63.5-132.8,97.6s-154.5,45.7-162.8,26,51.2-63.5,132.8-97.6S3859.6,685.9,3867.9,705.7Z"/><path class="g" d="M3727.7,785.7c-41.3,17.3-78.1,23.1-82.6,13.3a81.31,81.31,0,1,1,150-62.8h0C3799.2,746.3,3769.1,768.4,3727.7,785.7Z"/><circle class="g" cx="3396.8" cy="437" r="49.1"/><path class="l" d="M2123.5,1067.3a49.15,49.15,0,1,1-49.2-49.1,49.27,49.27,0,0,1,49.2,49.1Z"/><path class="i" d="M3152.2,420a24.1,24.1,0,1,1-24.1-24.1h0a24.11,24.11,0,0,1,24.1,24.1Z"/><path class="h" d="M3054.1,202.9a29.9,29.9,0,1,1-29.9-29.9h0a29.85,29.85,0,0,1,29.9,29.9Z"/><path class="m" d="M1818.4,499.4a36.8,36.8,0,1,1-36.8-36.8,36.83,36.83,0,0,1,36.8,36.8Z"/><path class="i" d="M1704.8,805.6a36.8,36.8,0,1,1-36.8-36.8,36.83,36.83,0,0,1,36.8,36.8Z"/><path class="f" d="M3888.3,1271.3a46.55,46.55,0,1,1-46.6-46.6,46.5,46.5,0,0,1,46.6,46.6Z"/><path class="l" d="M2189.4,292.7a64.1,64.1,0,1,1,0-128.2c1.5,0,2.9.1,4.4.2a80.84,80.84,0,1,0,6.4,126.8A56.7,56.7,0,0,1,2189.4,292.7Z"/><path class="j" d="M2437.1,1084a22.45,22.45,0,1,1-22.5-22.4h0A22.45,22.45,0,0,1,2437.1,1084Z"/><circle class="i" cx="3571.73" cy="1726.92" r="101.6" transform="translate(-174.98 3031.4) rotate(-45)"/><circle class="m" cx="3839.32" cy="470.36" r="65.8" transform="translate(791.92 2852.57) rotate(-45)"/><path class="g" d="M2260.5,544.3c29.9-3.4,38.2-36.6,40-70.3a1.19,1.19,0,0,1,1.2-1h0a1.19,1.19,0,0,1,1.2,1c1.6,29.7,7,63,40,70.3a.87.87,0,0,1,.7,1,1.21,1.21,0,0,1-.7.7c-31.8,6.4-37.6,38.6-40,70.3a1.19,1.19,0,0,1-1.2,1h0a1.19,1.19,0,0,1-1.2-1c-.7-28.4-7.6-63.6-40-70.3a1,1,0,0,1-.6-1.1A.9.9,0,0,1,2260.5,544.3Z"/><path class="h" d="M3655.4,1409.5c27.6-3.1,35.2-33.8,36.9-64.9a1,1,0,0,1,1.1-1h0a1,1,0,0,1,1.1,1v.1c1.5,27.4,6.5,58.1,36.9,64.9a.89.89,0,0,1,.6,1,.9.9,0,0,1-.6.6c-29.4,5.9-34.7,35.6-36.9,64.9a1,1,0,0,1-1.1,1h0a1,1,0,0,1-1.1-1c-.6-26.3-7-58.6-36.9-64.9a.89.89,0,0,1-.6-1,.88.88,0,0,1,.6-.7Z"/><path class="j" d="M3212.8,1346.3c18.3-2.1,23.4-22.4,24.5-43.1a.68.68,0,0,1,.7-.7h0a.68.68,0,0,1,.7.7c1,18.2,4.3,38.6,24.5,43.1a.52.52,0,0,1,.3.7h0q-.15.3-.3.3c-19.5,4-23,23.7-24.5,43.1a.68.68,0,0,1-.7.7h0a.68.68,0,0,1-.7-.7c-.4-17.4-4.6-38.9-24.5-43.1a.57.57,0,0,1-.4-.7C3212.4,1346.5,3212.6,1346.4,3212.8,1346.3Z"/><path class="f" d="M3015,896.7c26-2.9,33.3-31.9,34.9-61.3a1,1,0,0,1,1-.9h0a1,1,0,0,1,1,.9c1.4,25.9,6.2,54.9,34.9,61.3a.83.83,0,0,1,.6,1h0a.9.9,0,0,1-.6.6c-27.7,5.6-32.8,33.6-34.9,61.3a1,1,0,0,1-1,.9h0a1,1,0,0,1-1-.9c-.6-24.8-6.6-55.4-34.9-61.3C3014.2,898,3014.2,896.7,3015,896.7Z"/><path class="j" d="M3647.5,293.2c34.3-2.5,43.9-27.6,45.9-53,.1-.5.7-.8,1.4-.8h0a1.44,1.44,0,0,1,1.4.8c1.9,22.4,8.1,47.5,45.9,53,1,.1,1,1.2,0,1.3-36.6,4.8-43.2,29.1-45.9,53-.1.5-.7.8-1.4.8h0c-.7,0-1.3-.3-1.4-.8-.8-21.4-8.7-47.9-45.9-53C3646.4,294.4,3646.4,293.3,3647.5,293.2Z"/><path class="l" d="M3236.4,753.1c58.2-4.3,74.4-46.8,77.8-89.9.1-.8,1.1-1.4,2.3-1.4h0c1.2,0,2.2.6,2.3,1.4,3.1,38,13.7,80.5,77.9,89.9,1.8.3,1.8,2,0,2.2-62,8.2-73.3,49.3-77.8,89.9-.1.8-1.1,1.4-2.3,1.4h0c-1.2,0-2.2-.6-2.3-1.4-1.3-36.4-14.7-81.2-77.8-89.9C3234.6,755.1,3234.5,753.3,3236.4,753.1Z"/><path class="f" d="M3309.7,176.4c58.2-4.3,74.4-46.8,77.8-89.9.1-.8,1.1-1.4,2.3-1.4h0c1.2,0,2.2.6,2.3,1.4,3.2,38,13.7,80.5,77.8,89.9,1.8.3,1.8,2.1,0,2.2-62,8.2-73.3,49.3-77.8,89.9-.1.8-1.1,1.4-2.3,1.4h0c-1.2,0-2.2-.6-2.3-1.4-1.3-36.4-14.7-81.2-77.8-89.9C3307.9,178.4,3307.9,176.5,3309.7,176.4Z"/><path class="h" d="M2144.8,771.7c42.8-3.2,54.7-34.4,57.2-66.1.1-.6.8-1,1.7-1h0c.9,0,1.6.4,1.7,1,2.3,27.9,10.1,59.2,57.3,66.1,1.3.2,1.3,1.5,0,1.7-45.6,6-53.9,36.3-57.3,66.1-.1.6-.8,1-1.7,1h0c-.9,0-1.6-.4-1.7-1-1-26.7-10.8-59.7-57.3-66.1C2143.4,773.2,2143.4,771.8,2144.8,771.7Z"/><circle class="j" cx="2620.78" cy="327.14" r="129.1" transform="translate(536.29 1948.99) rotate(-45)"/><path class="g" d="M2394.7,211c-15.6,30.3,73.2,106.9,198.2,171.1s238.9,91.6,254.5,61.3-73.1-106.9-198.2-171.1S2410.2,180.7,2394.7,211Z"/><path class="j" d="M2606.7,355.1c63.2,32.4,120.8,46.4,129.1,31.3a129.17,129.17,0,0,0-226.7-123.9,65.35,65.35,0,0,0-3,5.9C2498.5,283.8,2543.4,322.6,2606.7,355.1Z"/><path class="l" d="M2571.3,1249.2c17.9-2.1,22.8-21.9,23.9-42,0-.4.3-.6.7-.6h0a.67.67,0,0,1,.7.6c1,17.8,4.2,37.6,23.9,42,.3.1.5.3.4.6a.43.43,0,0,1-.4.4c-19,3.9-22.5,23.1-23.9,42a.56.56,0,0,1-.7.6h0a.67.67,0,0,1-.7-.6c-.4-17-4.5-37.9-23.9-42C2570.7,1250.1,2570.7,1249.2,2571.3,1249.2Z"/><path class="i" d="M2634.5,689.4c17.9-2.1,22.8-21.9,23.9-42a.68.68,0,0,1,.7-.7h0a.68.68,0,0,1,.7.7c1,17.8,4.2,37.6,23.9,42a.52.52,0,0,1,.3.7q-.15.3-.3.3c-19,3.8-22.5,23.1-23.9,42a.66.66,0,0,1-.7.6h0a.67.67,0,0,1-.7-.6c-.4-17-4.5-37.9-23.9-42a.52.52,0,0,1-.3-.7A.27.27,0,0,1,2634.5,689.4Z"/><path class="m" d="M3129.3,91.3c17.9-2.1,22.8-21.9,23.9-42,0-.4.3-.6.7-.6h0a.67.67,0,0,1,.7.6c1,17.8,4.2,37.6,23.9,42a.52.52,0,0,1,.3.7l-.3.3c-19,3.8-22.5,23.1-23.9,42,0,.4-.3.6-.7.6h0a.67.67,0,0,1-.7-.6c-.4-17-4.5-37.9-23.9-42a.52.52,0,0,1-.3-.7Z"/><path class="l" d="M3503.7,1466.5c35.9-4,45.8-44,47.9-84.4a1.49,1.49,0,0,1,1.4-1.3h0a1.42,1.42,0,0,1,1.4,1.3c1.9,35.7,8.5,75.7,47.9,84.4a1.1,1.1,0,0,1,0,2.2c-38.2,7.7-45.2,46.4-47.9,84.4a1.49,1.49,0,0,1-1.4,1.3h0a1.42,1.42,0,0,1-1.4-1.3c-.8-34.2-9.1-76.3-48-84.4a1.07,1.07,0,0,1-.8-1.3A1.18,1.18,0,0,1,3503.7,1466.5Z"/><path class="i" d="M2868.2,1338.5a56.37,56.37,0,1,0,51.9-60.6h0a56.37,56.37,0,0,0-51.9,60.6Z"/><path class="f" d="M3032.9,1358.5c-3.3,14.5-46.6,21.2-115.2,5.7s-104.9-40-101.7-54.5,46.6-21.1,115.2-5.7S3036.1,1344,3032.9,1358.5Z"/><path class="i" d="M2921.4,1347.5c-30.3-6.8-53.5-18.3-52-25.6a56.41,56.41,0,1,1,110.3,23.7,4.4,4.4,0,0,0-.2,1C2977.7,1353.9,2951.7,1354.3,2921.4,1347.5Z"/><path class="j" d="M2472.5,724.8a9.9,9.9,0,1,1-9.9-9.9h0a9.86,9.86,0,0,1,9.9,9.9Z"/></g><path class="c" d="M710,1116.7c45.8,20.9,87.9,55.3,135.8,72.2a6.18,6.18,0,0,1,4,7.7,4.81,4.81,0,0,1-.8,1.6c-10.9,16.2-28.4,29.6-54.7,25.1-33-5.6-71.3-40.6-103-51.8-31.2-11-51.4,10.4-82.1-6-11.1-4,18-40.5,24-47.5,23-5.2,51.2-10,73.8-2.1C706.8,1116.1,706.6,1116.3,710,1116.7Z"/><path class="c" d="M551.1,1186.7c83-1.7,103.2,38.2,147.3,75.8,26.7,22.7,57.1,14.9,73.2-3.4a7.32,7.32,0,0,0-.4-10.1c-15-14.7-40.4-31.1-56.3-45.2-52.7-51.7-79.2-78.3-147.6-35.6-4.4,2.3-7.6,6-11.6,8.8C551.2,1178.7,545,1182,551.1,1186.7Z"/><path class="c" d="M615.4,1220.6c20.5,36.9,7.6,88.2-1.6,138.5a5.6,5.6,0,0,1-6.6,4.5H607c-19.3-4-29.6-9.6-35.9-35.4-4.8-20-1.1-48.1-5.9-67.9-11.2-46-77.4-44-78.3-50.1,6.6-17.6,48.9-28.4,60.3-42.7C553.6,1168,604.4,1200.8,615.4,1220.6Z"/><path class="g" d="M884.3,1061.2a7.34,7.34,0,0,0-8.6-4.3c-89.3,22.6-96.8,16.5-172.6,22.7-37.3,3.1-172,2.4-208.3,2.7-88.3.8-140.1,34-311.5,94.8-55.8,19.8-105.9,68.8-121.1,87.9C48,1282.9,26.8,1308.2.1,1337.3V1577c67.3-95.2,144.4-181.8,247.2-251.3,58.1-39.3,114-3.7,154.8-.8,88.3,6.2,125.5-15.5,191.3-7.9,27,3.1,74.7,20.6,77.5-13.7,1.7-21.9-24.9-31.9-78.7-40.4-12.8-2.1-91.6-15.5-115.9-26-9.3-4-4.9-8.5-.5-9.8,38.9-11.7,58-23.8,85.9-42.5,44.3-26.7,93.6-36.2,151.9-41.9,40.1-3.9,93.5-10.6,132.6-22.1C873.7,1112.7,895.8,1088.1,884.3,1061.2Z"/></svg>