<svg xmlns="http://www.w3.org/2000/svg" xmlns:xlink="http://www.w3.org/1999/xlink" viewBox="0 0 1200.24 746.59"><defs><style>.a{fill:none;}.b{fill:#240e54;}.c{fill:#f74945;}.d{fill:#000635;}.e{clip-path:url(#a);}.f{fill:#8927d4;}.g{fill:#5f70fa;}.h{fill:#ffb033;}.i{fill:#85deff;}.j{fill:#ff5653;}.k{fill:#ffb2c6;}.l{fill:#f74944;}.m{fill:#fff;}.n{fill:#3d5cff;}.o{fill:#0c1135;}</style><clipPath id="a" transform="translate(0.24 -453.78)"><path class="a" d="M445.65,573.73c-8.17,43.77-5.68,75.9-54.06,70.38C360.83,640.6,317.06,659,305,694.22c-11.47,33.61-20,51.9-105.61,51.9V949.24c29.91,0,68.78,4.1,96.59,31.32,34.47,33.72,44.19,126.45,144.52,121,86.92-4.68,85.53,32,103.45,56.57,12.06,16.56,43.59,45.94,100.7,49.18H1208V488H569.53C563.52,535,458.32,505.87,445.65,573.73Z"/></clipPath></defs><polygon class="b" points="191.82 293.94 0 251.72 0 493.25 191.48 493.25 191.82 293.94"/><rect class="c" y="493.25" width="1200.24" height="253.33"/><polygon class="d" points="191.48 493.25 0 493.25 0 616.38 191.48 493.3 191.48 493.25"/><path class="b" d="M457,548c-19.49,26.47-27,46-27,46-7.26,18.88-8.26,32.39-21,43-7.62,6.35-14.27,7.35-25.41,10.55-17.31,5-73.64,12-86.56,49.18-11.47,33-20,50.94-105.61,50.94V947c29.91,0,68.78,4,96.59,30.74,34.47,33.09,44.19,124.1,144.52,118.8,86.92-4.59,85.53,31.37,103.45,55.53,12.06,16.25,43.59,45.08,100.7,48.26H1200v-706c-9.31-5.53-23.84-12.37-42-13.34-32.68-1.74-48.49,17.08-73,26-53.35,19.42-74.92-34.63-165-41-61.53-4.35-71.59,19.45-131,6-36.59-8.29-44.59-20-74-18-42.08,2.85-49.25,36.29-92,36-16.18-.11-27-4.63-53-2a186.16,186.16,0,0,0-35,7C496.35,511.44,468.73,532.07,457,548Z" transform="translate(0.24 -453.78)"/><g class="e"><ellipse class="f" cx="461.98" cy="433.09" rx="14.61" ry="14.89"/><ellipse class="f" cx="1107.15" cy="284.16" rx="38.33" ry="39.05"/><ellipse class="c" cx="424.69" cy="250.08" rx="10.17" ry="10.37"/><path class="g" d="M733,1100a14.25,14.25,0,1,1-14.25-14.52A14.38,14.38,0,0,1,733,1100Z" transform="translate(0.24 -453.78)"/><ellipse class="h" cx="760.44" cy="461.53" rx="4.72" ry="4.8"/><path class="i" d="M387.67,896.2a4.72,4.72,0,1,1-4.72-4.8A4.76,4.76,0,0,1,387.67,896.2Z" transform="translate(0.24 -453.78)"/><path class="c" d="M862.15,1106.54a4.72,4.72,0,1,1-4.72-4.8A4.77,4.77,0,0,1,862.15,1106.54Z" transform="translate(0.24 -453.78)"/><path class="j" d="M325.4,974a2.36,2.36,0,1,1-2.36-2.4A2.39,2.39,0,0,1,325.4,974Z" transform="translate(0.24 -453.78)"/><path class="g" d="M1095.89,998.24a2.36,2.36,0,1,1-2.36-2.4A2.38,2.38,0,0,1,1095.89,998.24Z" transform="translate(0.24 -453.78)"/><path class="j" d="M1079.81,552.52a2.36,2.36,0,1,1-2.36-2.4A2.38,2.38,0,0,1,1079.81,552.52Z" transform="translate(0.24 -453.78)"/><path class="j" d="M967.15,813.16a2.36,2.36,0,1,1-2.36-2.4A2.37,2.37,0,0,1,967.15,813.16Z" transform="translate(0.24 -453.78)"/><ellipse class="k" cx="943.13" cy="237.62" rx="1.57" ry="1.6"/><path class="k" d="M1002.11,588.73a1.57,1.57,0,1,1-1.57-1.6A1.59,1.59,0,0,1,1002.11,588.73Z" transform="translate(0.24 -453.78)"/><path class="k" d="M1002.35,740.92a1.57,1.57,0,1,1-1.57-1.6A1.59,1.59,0,0,1,1002.35,740.92Z" transform="translate(0.24 -453.78)"/><path class="k" d="M892.29,718.23a1.57,1.57,0,1,1-1.57-1.6A1.59,1.59,0,0,1,892.29,718.23Z" transform="translate(0.24 -453.78)"/><path class="g" d="M516.52,704.81a1.57,1.57,0,1,1-1.57-1.6A1.59,1.59,0,0,1,516.52,704.81Z" transform="translate(0.24 -453.78)"/><path class="k" d="M1046.54,825.62A1.57,1.57,0,1,1,1045,824,1.59,1.59,0,0,1,1046.54,825.62Z" transform="translate(0.24 -453.78)"/><path class="k" d="M1086.48,1025.62a1.57,1.57,0,1,1-1.57-1.6A1.59,1.59,0,0,1,1086.48,1025.62Z" transform="translate(0.24 -453.78)"/><path class="k" d="M858.31,1027a1.57,1.57,0,1,1-1.57-1.6A1.59,1.59,0,0,1,858.31,1027Z" transform="translate(0.24 -453.78)"/><path class="k" d="M1080.9,676.76a1.57,1.57,0,1,1-1.56-1.6A1.58,1.58,0,0,1,1080.9,676.76Z" transform="translate(0.24 -453.78)"/><ellipse class="k" cx="900.26" cy="370.45" rx="1.57" ry="1.6"/><path class="k" d="M839.88,986.5a1.57,1.57,0,1,1-1.57-1.6A1.58,1.58,0,0,1,839.88,986.5Z" transform="translate(0.24 -453.78)"/><path class="g" d="M766.87,761.75a1.57,1.57,0,1,1-1.57-1.6A1.58,1.58,0,0,1,766.87,761.75Z" transform="translate(0.24 -453.78)"/><path class="k" d="M560,824.46a1.57,1.57,0,1,1-1.57-1.6A1.59,1.59,0,0,1,560,824.46Z" transform="translate(0.24 -453.78)"/><path class="k" d="M590.08,560.26a1.57,1.57,0,1,1-1.57-1.6A1.59,1.59,0,0,1,590.08,560.26Z" transform="translate(0.24 -453.78)"/><path class="k" d="M506.73,633.28a1.57,1.57,0,1,1-1.57-1.6A1.58,1.58,0,0,1,506.73,633.28Z" transform="translate(0.24 -453.78)"/><path class="k" d="M671.76,709.13a1.57,1.57,0,1,1-1.57-1.6A1.59,1.59,0,0,1,671.76,709.13Z" transform="translate(0.24 -453.78)"/><path class="k" d="M440,771.42a1.57,1.57,0,1,1-1.56-1.6A1.58,1.58,0,0,1,440,771.42Z" transform="translate(0.24 -453.78)"/><path class="k" d="M664.23,872.66a1.57,1.57,0,1,1-1.57-1.59A1.58,1.58,0,0,1,664.23,872.66Z" transform="translate(0.24 -453.78)"/><path class="k" d="M752.84,1187.45a1.57,1.57,0,1,1-1.56-1.6A1.58,1.58,0,0,1,752.84,1187.45Z" transform="translate(0.24 -453.78)"/><path class="k" d="M426.59,662.49a1.57,1.57,0,1,1-1.57-1.6A1.58,1.58,0,0,1,426.59,662.49Z" transform="translate(0.24 -453.78)"/><path class="k" d="M1020.12,1077.33a1.57,1.57,0,1,1-1.57-1.6A1.59,1.59,0,0,1,1020.12,1077.33Z" transform="translate(0.24 -453.78)"/><path class="k" d="M673.68,1172.94a1.57,1.57,0,1,1-1.56-1.6A1.58,1.58,0,0,1,673.68,1172.94Z" transform="translate(0.24 -453.78)"/><path class="k" d="M379.83,1061.82a1.57,1.57,0,1,1-1.57-1.6A1.59,1.59,0,0,1,379.83,1061.82Z" transform="translate(0.24 -453.78)"/><path class="k" d="M656.29,524.75a1.57,1.57,0,1,1-1.56-1.6A1.58,1.58,0,0,1,656.29,524.75Z" transform="translate(0.24 -453.78)"/><ellipse class="k" cx="538.97" cy="616.14" rx="1.57" ry="1.6"/><path class="k" d="M746,690.33a1.57,1.57,0,1,1-1.57-1.6A1.58,1.58,0,0,1,746,690.33Z" transform="translate(0.24 -453.78)"/><path class="k" d="M382.51,702.09a1.57,1.57,0,1,1-1.56-1.6A1.58,1.58,0,0,1,382.51,702.09Z" transform="translate(0.24 -453.78)"/><path class="k" d="M1096.26,1182.61a1.57,1.57,0,1,1-1.57-1.59A1.58,1.58,0,0,1,1096.26,1182.61Z" transform="translate(0.24 -453.78)"/><path class="k" d="M533.58,550.06a1.57,1.57,0,1,1-1.56-1.59A1.58,1.58,0,0,1,533.58,550.06Z" transform="translate(0.24 -453.78)"/><ellipse class="k" cx="1088.08" cy="670.89" rx="1.57" ry="1.6"/><path class="k" d="M784.64,1098.16a1.57,1.57,0,1,1-1.57-1.6A1.59,1.59,0,0,1,784.64,1098.16Z" transform="translate(0.24 -453.78)"/><path class="c" d="M350.06,887.82a1.57,1.57,0,1,1-1.57-1.6A1.58,1.58,0,0,1,350.06,887.82Z" transform="translate(0.24 -453.78)"/><ellipse class="k" cx="547.32" cy="587.29" rx="1.57" ry="1.6"/><path class="c" d="M754.73,991.92a1.57,1.57,0,1,1-1.57-1.6A1.59,1.59,0,0,1,754.73,991.92Z" transform="translate(0.24 -453.78)"/><path class="g" d="M436.23,1065.41a1.57,1.57,0,1,1-1.57-1.6A1.59,1.59,0,0,1,436.23,1065.41Z" transform="translate(0.24 -453.78)"/><path class="k" d="M636.32,945.43a1.57,1.57,0,1,1-1.56-1.6A1.58,1.58,0,0,1,636.32,945.43Z" transform="translate(0.24 -453.78)"/><path class="k" d="M355.24,936.89a1.57,1.57,0,1,1-1.57-1.6A1.59,1.59,0,0,1,355.24,936.89Z" transform="translate(0.24 -453.78)"/><ellipse class="i" cx="732.3" cy="306.01" rx="1.57" ry="1.6"/><ellipse class="i" cx="682.23" cy="520.39" rx="1.57" ry="1.6"/><path class="i" d="M600.3,995.31a1.57,1.57,0,1,1,1.56,1.59A1.58,1.58,0,0,1,600.3,995.31Z" transform="translate(0.24 -453.78)"/><path class="i" d="M693.44,876.09a1.57,1.57,0,1,1,1.57,1.6A1.58,1.58,0,0,1,693.44,876.09Z" transform="translate(0.24 -453.78)"/><ellipse class="i" cx="904.36" cy="437.74" rx="1.57" ry="1.6"/><ellipse class="i" cx="590.67" cy="136.07" rx="1.57" ry="1.6"/><path class="i" d="M545.25,665a1.57,1.57,0,1,1,1.57,1.6A1.59,1.59,0,0,1,545.25,665Z" transform="translate(0.24 -453.78)"/><path class="i" d="M851.23,589.37a1.57,1.57,0,1,1,1.56,1.6A1.58,1.58,0,0,1,851.23,589.37Z" transform="translate(0.24 -453.78)"/><path class="g" d="M814.77,1014.67a1.57,1.57,0,1,1,1.57,1.6A1.58,1.58,0,0,1,814.77,1014.67Z" transform="translate(0.24 -453.78)"/><path class="i" d="M781.12,657.32a1.57,1.57,0,1,1,1.57,1.6A1.59,1.59,0,0,1,781.12,657.32Z" transform="translate(0.24 -453.78)"/><path class="i" d="M616.58,714.6a1.57,1.57,0,1,1,1.57,1.6A1.59,1.59,0,0,1,616.58,714.6Z" transform="translate(0.24 -453.78)"/><path class="i" d="M837.63,668a1.57,1.57,0,1,1,1.57,1.59A1.58,1.58,0,0,1,837.63,668Z" transform="translate(0.24 -453.78)"/><path class="i" d="M779.81,818.72a1.57,1.57,0,1,1,1.57,1.6A1.59,1.59,0,0,1,779.81,818.72Z" transform="translate(0.24 -453.78)"/><path class="i" d="M965.25,863.45a1.57,1.57,0,1,1,1.57,1.59A1.59,1.59,0,0,1,965.25,863.45Z" transform="translate(0.24 -453.78)"/><path class="i" d="M974.08,1050.52a1.57,1.57,0,1,1,1.57,1.59A1.58,1.58,0,0,1,974.08,1050.52Z" transform="translate(0.24 -453.78)"/><path class="i" d="M1014.88,937.5a1.57,1.57,0,1,1,1.56,1.6A1.58,1.58,0,0,1,1014.88,937.5Z" transform="translate(0.24 -453.78)"/><path class="i" d="M874.93,871.34a1.57,1.57,0,1,1,1.56,1.6A1.58,1.58,0,0,1,874.93,871.34Z" transform="translate(0.24 -453.78)"/><path class="i" d="M1017.42,839.56a1.57,1.57,0,1,1,1.57,1.59A1.58,1.58,0,0,1,1017.42,839.56Z" transform="translate(0.24 -453.78)"/><path class="i" d="M1094.4,723.64a1.57,1.57,0,1,1,1.57,1.59A1.58,1.58,0,0,1,1094.4,723.64Z" transform="translate(0.24 -453.78)"/><ellipse class="i" cx="473.69" cy="252.07" rx="1.57" ry="1.6"/><path class="i" d="M1016.69,556.19a1.57,1.57,0,1,1,1.57,1.6A1.59,1.59,0,0,1,1016.69,556.19Z" transform="translate(0.24 -453.78)"/><path class="i" d="M362,958.65a1.57,1.57,0,1,1,1.57,1.6A1.59,1.59,0,0,1,362,958.65Z" transform="translate(0.24 -453.78)"/><ellipse class="i" cx="896.3" cy="618.42" rx="1.57" ry="1.6"/><path class="i" d="M320.73,879.68a1.57,1.57,0,1,1,1.57,1.6A1.6,1.6,0,0,1,320.73,879.68Z" transform="translate(0.24 -453.78)"/><path class="i" d="M365,774.88a1.57,1.57,0,1,1,1.56,1.6A1.58,1.58,0,0,1,365,774.88Z" transform="translate(0.24 -453.78)"/><path class="i" d="M537.6,830.37a1.57,1.57,0,1,1,1.57,1.6A1.58,1.58,0,0,1,537.6,830.37Z" transform="translate(0.24 -453.78)"/><ellipse class="i" cx="457.23" cy="533.02" rx="1.57" ry="1.6"/><path class="i" d="M876.31,519.9a1.57,1.57,0,1,1,1.57,1.6A1.58,1.58,0,0,1,876.31,519.9Z" transform="translate(0.24 -453.78)"/><ellipse class="i" cx="1188.31" cy="177.38" rx="1.57" ry="1.6"/><path class="i" d="M1053.55,513.46a1.57,1.57,0,1,1,1.56,1.6A1.58,1.58,0,0,1,1053.55,513.46Z" transform="translate(0.24 -453.78)"/><path class="i" d="M1160.36,651a1.57,1.57,0,1,1,1.57,1.6A1.58,1.58,0,0,1,1160.36,651Z" transform="translate(0.24 -453.78)"/><path class="i" d="M740.4,545.6a1.57,1.57,0,1,1,1.57,1.6A1.58,1.58,0,0,1,740.4,545.6Z" transform="translate(0.24 -453.78)"/><path class="i" d="M1167.49,536a1.57,1.57,0,1,1,1.57,1.6A1.58,1.58,0,0,1,1167.49,536Z" transform="translate(0.24 -453.78)"/><ellipse class="i" cx="1175.18" cy="438.43" rx="1.57" ry="1.6"/><path class="i" d="M455.26,828a1.57,1.57,0,1,1,1.57,1.6A1.59,1.59,0,0,1,455.26,828Z" transform="translate(0.24 -453.78)"/><path class="i" d="M1145.21,823.24a1.57,1.57,0,1,1,1.57,1.6A1.59,1.59,0,0,1,1145.21,823.24Z" transform="translate(0.24 -453.78)"/><ellipse class="i" cx="658.14" cy="633.72" rx="1.57" ry="1.6"/><ellipse class="i" cx="924" cy="733.69" rx="1.57" ry="1.6"/><ellipse class="h" cx="874.94" cy="672.42" rx="1.57" ry="1.6"/><path class="i" d="M461,583.64a1.57,1.57,0,1,1,1.57,1.59A1.58,1.58,0,0,1,461,583.64Z" transform="translate(0.24 -453.78)"/><ellipse class="i" cx="538.35" cy="160.42" rx="1.57" ry="1.6"/><path class="c" d="M1018.73,1137.45a1.57,1.57,0,1,1,1.57,1.6A1.59,1.59,0,0,1,1018.73,1137.45Z" transform="translate(0.24 -453.78)"/><path class="g" d="M844.65,1135.87a1.57,1.57,0,1,1,1.57,1.6A1.59,1.59,0,0,1,844.65,1135.87Z" transform="translate(0.24 -453.78)"/><ellipse class="i" cx="600.82" cy="53.32" rx="1.57" ry="1.6"/><path class="i" d="M381,676.31a1.57,1.57,0,1,1,1.56,1.59A1.58,1.58,0,0,1,381,676.31Z" transform="translate(0.24 -453.78)"/><path class="i" d="M1158,987.51a1.57,1.57,0,1,1,1.57,1.59A1.58,1.58,0,0,1,1158,987.51Z" transform="translate(0.24 -453.78)"/><path class="i" d="M1139,1140.71a1.57,1.57,0,1,1,1.57,1.59A1.58,1.58,0,0,1,1139,1140.71Z" transform="translate(0.24 -453.78)"/><path class="i" d="M1026.64,1179.4a1.57,1.57,0,1,1,1.57,1.6A1.58,1.58,0,0,1,1026.64,1179.4Z" transform="translate(0.24 -453.78)"/><ellipse class="i" cx="1183.56" cy="632.09" rx="1.57" ry="1.6"/><path class="i" d="M1091.53,1061.7a1.57,1.57,0,1,1,1.56,1.59A1.58,1.58,0,0,1,1091.53,1061.7Z" transform="translate(0.24 -453.78)"/><path class="j" d="M759,569.63a2.36,2.36,0,1,1-2.36-2.41A2.38,2.38,0,0,1,759,569.63Z" transform="translate(0.24 -453.78)"/><path class="i" d="M1031.48,593a2.36,2.36,0,1,1-2.36-2.4A2.37,2.37,0,0,1,1031.48,593Z" transform="translate(0.24 -453.78)"/><path class="c" d="M1099.45,859.69a2.36,2.36,0,1,1-2.36-2.4A2.39,2.39,0,0,1,1099.45,859.69Z" transform="translate(0.24 -453.78)"/><path class="h" d="M1009.62,1014a5.35,5.35,0,1,1-5.35-5.44A5.4,5.4,0,0,1,1009.62,1014Z" transform="translate(0.24 -453.78)"/><path class="h" d="M1151.28,1088a10.32,10.32,0,1,1-10.32-10.52A10.42,10.42,0,0,1,1151.28,1088Z" transform="translate(0.24 -453.78)"/><path class="c" d="M1080.39,603.12a19.38,19.38,0,1,0,17.52-21.46A19.48,19.48,0,0,0,1080.39,603.12Z" transform="translate(0.24 -453.78)"/><path class="f" d="M1137,609.33c-1,5.09-18.63,5.64-39.26,1.22s-36.5-12.14-35.45-17.24,18.63-5.64,39.26-1.22S1138.08,604.23,1137,609.33Z" transform="translate(0.24 -453.78)"/><path class="c" d="M1098.71,606c-10.43-2.23-18.45-6.12-18-8.71a19.32,19.32,0,0,1,38.25,2.23,20.14,20.14,0,0,1-.33,5.88C1118.05,608,1109.15,608.24,1098.71,606Z" transform="translate(0.24 -453.78)"/><ellipse class="g" cx="885.73" cy="201.01" rx="28.12" ry="28.65"/><path class="i" d="M628.57,1134.85a5.35,5.35,0,1,1-5.34-5.44A5.4,5.4,0,0,1,628.57,1134.85Z" transform="translate(0.24 -453.78)"/><ellipse class="f" cx="802.27" cy="249.39" rx="11.71" ry="11.93"/><ellipse class="i" cx="1092.67" cy="323.38" rx="11.71" ry="11.93"/><path class="c" d="M615.84,673.24a5.75,5.75,0,1,1-5.75-5.85A5.8,5.8,0,0,1,615.84,673.24Z" transform="translate(0.24 -453.78)"/><path class="h" d="M406.54,774.09a7.13,7.13,0,1,1-7.12-7.27A7.2,7.2,0,0,1,406.54,774.09Z" transform="translate(0.24 -453.78)"/><ellipse class="c" cx="531.2" cy="316.39" rx="22.88" ry="23.31"/><ellipse class="h" cx="818.83" cy="57.37" rx="19" ry="19.35"/><path class="k" d="M686.14,618.92c-16.31,0-29.53-13.48-29.53-30.1s13.22-30.09,29.53-30.09c.68,0,1.35.06,2,.1a36.62,36.62,0,0,0-21.49-7c-20.59,0-37.28,17-37.28,38s16.69,38,37.28,38a36.73,36.73,0,0,0,24.46-9.36A29.4,29.4,0,0,1,686.14,618.92Z" transform="translate(0.24 -453.78)"/><ellipse class="f" cx="544.88" cy="415.8" rx="4.72" ry="4.8"/><path class="i" d="M515.41,1077.19a5.35,5.35,0,1,1-5.35-5.44A5.4,5.4,0,0,1,515.41,1077.19Z" transform="translate(0.24 -453.78)"/><ellipse class="h" cx="580.12" cy="310.84" rx="42.45" ry="43.26"/><ellipse class="c" cx="838.9" cy="343.31" rx="15.68" ry="15.97"/><path class="c" d="M706.86,948.66c10.79-1.24,13.8-13.5,14.44-25.91a.43.43,0,0,1,.43-.4h0a.44.44,0,0,1,.44.4c.58,11,2.54,23.2,14.44,25.91a.34.34,0,0,1,0,.65c-11.51,2.37-13.59,14.22-14.44,25.9a.43.43,0,0,1-.43.4h0a.44.44,0,0,1-.44-.4c-.25-10.48-2.73-23.4-14.44-25.9C706.53,949.23,706.52,948.69,706.86,948.66Z" transform="translate(0.24 -453.78)"/><path class="c" d="M1053.35,935.65c7.11-.81,9.09-8.89,9.51-17.07a.3.3,0,0,1,.29-.27h0a.28.28,0,0,1,.28.27c.39,7.22,1.68,15.29,9.52,17.07a.22.22,0,0,1,0,.43c-7.58,1.56-9,9.37-9.52,17.07a.28.28,0,0,1-.28.26h0a.29.29,0,0,1-.29-.26c-.16-6.91-1.8-15.42-9.51-17.07C1053.13,936,1053.12,935.68,1053.35,935.65Z" transform="translate(0.24 -453.78)"/><path class="h" d="M397.07,979.58c7.11-.81,9.09-8.89,9.51-17.07a.29.29,0,0,1,.29-.26h0a.28.28,0,0,1,.28.26c.39,7.22,1.68,15.29,9.52,17.07a.22.22,0,0,1,0,.43c-7.58,1.56-9,9.38-9.52,17.07a.29.29,0,0,1-.28.27h0a.29.29,0,0,1-.29-.27c-.16-6.9-1.8-15.42-9.51-17.07C396.85,980,396.84,979.61,397.07,979.58Z" transform="translate(0.24 -453.78)"/><path class="h" d="M791.92,1156.34c7.93-.91,10.14-9.91,10.61-19a.31.31,0,0,1,.31-.29h0a.31.31,0,0,1,.32.29c.44,8,1.88,17,10.61,19a.25.25,0,0,1,0,.48c-8.45,1.74-10,10.45-10.61,19a.31.31,0,0,1-.32.29h0a.31.31,0,0,1-.31-.29c-.19-7.7-2-17.19-10.61-19A.25.25,0,0,1,791.92,1156.34Z" transform="translate(0.24 -453.78)"/><path class="f" d="M619.81,1030.57c18.26-1.38,23.35-15,24.43-28.74,0-.25.36-.44.74-.44h0c.38,0,.69.19.73.44,1,12.15,4.31,25.74,24.44,28.74.57.08.57.64,0,.72-19.46,2.63-23,15.78-24.43,28.73,0,.25-.36.44-.74.44h0c-.38,0-.7-.19-.73-.44-.42-11.62-4.63-26-24.44-28.73C619.24,1031.21,619.23,1030.61,619.81,1030.57Z" transform="translate(0.24 -453.78)"/><path class="g" d="M814.24,915.23c13.86-1.05,17.72-11.36,18.55-21.82a.52.52,0,0,1,.55-.34h0c.29,0,.53.14.56.34.75,9.22,3.27,19.54,18.55,21.82.43.06.43.48,0,.54-14.78,2-17.47,12-18.55,21.82,0,.19-.27.33-.56.33h0c-.28,0-.52-.14-.55-.33-.32-8.83-3.51-19.71-18.55-21.82C813.81,915.71,813.8,915.26,814.24,915.23Z" transform="translate(0.24 -453.78)"/><path class="k" d="M1007.68,713.71c13.87-1,17.73-11.35,18.55-21.81a.52.52,0,0,1,.55-.34h0c.29,0,.53.14.56.34.75,9.22,3.27,19.54,18.55,21.81.43.07.43.49,0,.55-14.77,2-17.46,12-18.55,21.82,0,.19-.27.33-.55.33h0c-.29,0-.53-.14-.56-.33-.32-8.83-3.51-19.71-18.56-21.82C1007.25,714.2,1007.24,713.75,1007.68,713.71Z" transform="translate(0.24 -453.78)"/><path class="i" d="M337.63,832.93c11.2-.84,14.32-9.17,15-17.62a.43.43,0,0,1,.45-.28h0c.24,0,.43.12.45.28.61,7.45,2.65,15.78,15,17.62.35.05.35.4,0,.44-11.94,1.62-14.11,9.68-15,17.63a.43.43,0,0,1-.45.27h0c-.24,0-.43-.12-.45-.27-.26-7.13-2.84-15.92-15-17.63C337.28,833.33,337.28,833,337.63,832.93Z" transform="translate(0.24 -453.78)"/><path class="i" d="M914.9,542.46c13.87-1,17.73-11.36,18.55-21.81,0-.19.27-.34.56-.34h0c.29,0,.53.14.56.34.75,9.22,3.27,19.53,18.55,21.81.43.07.43.49,0,.55-14.78,2-17.47,12-18.55,21.81,0,.2-.27.34-.55.34h0c-.29,0-.53-.14-.56-.34-.32-8.82-3.51-19.7-18.55-21.81C914.47,543,914.47,542.49,914.9,542.46Z" transform="translate(0.24 -453.78)"/><path class="f" d="M677.66,774.62c4.25-.48,5.44-5.31,5.69-10.2a.17.17,0,0,1,.17-.16h0a.17.17,0,0,1,.17.16c.23,4.32,1,9.14,5.69,10.2a.14.14,0,0,1,0,.26c-4.54.94-5.36,5.6-5.69,10.21a.16.16,0,0,1-.17.15h0a.16.16,0,0,1-.17-.15c-.1-4.13-1.08-9.22-5.69-10.21A.14.14,0,0,1,677.66,774.62Z" transform="translate(0.24 -453.78)"/><path class="f" d="M417.08,820.78c4.25-.49,5.43-5.31,5.68-10.21a.17.17,0,0,1,.17-.15h0a.17.17,0,0,1,.17.15c.23,4.32,1,9.14,5.69,10.21a.13.13,0,0,1,0,.25c-4.53.94-5.35,5.61-5.69,10.21a.17.17,0,0,1-.17.16h0a.17.17,0,0,1-.17-.16c-.1-4.13-1.07-9.22-5.68-10.21C416.94,821,416.94,820.79,417.08,820.78Z" transform="translate(0.24 -453.78)"/><path class="g" d="M315.12,727.05c4.25-.49,5.43-5.31,5.68-10.21a.18.18,0,0,1,.18-.15h0a.16.16,0,0,1,.17.15c.22,4.32,1,9.14,5.68,10.21a.14.14,0,0,1,0,.26c-4.53.93-5.35,5.6-5.68,10.2a.18.18,0,0,1-.18.16h0a.17.17,0,0,1-.17-.16c-.1-4.13-1.08-9.21-5.69-10.2C315,727.28,315,727.06,315.12,727.05Z" transform="translate(0.24 -453.78)"/><path class="f" d="M720.73,603.72c4.25-.49,5.44-5.32,5.69-10.21a.17.17,0,0,1,.17-.16h0a.17.17,0,0,1,.17.16c.23,4.32,1,9.14,5.69,10.21a.13.13,0,0,1,0,.25c-4.53.94-5.35,5.61-5.69,10.21a.17.17,0,0,1-.17.15h0a.17.17,0,0,1-.17-.15c-.1-4.13-1.08-9.22-5.69-10.21A.13.13,0,0,1,720.73,603.72Z" transform="translate(0.24 -453.78)"/><path class="f" d="M871.6,1020.32c4.25-.49,5.43-5.31,5.68-10.2a.18.18,0,0,1,.18-.16h0a.17.17,0,0,1,.17.16c.22,4.31,1,9.14,5.68,10.2a.14.14,0,0,1,0,.26c-4.53.94-5.35,5.6-5.68,10.2a.18.18,0,0,1-.17.16h0a.19.19,0,0,1-.18-.16c-.09-4.12-1.07-9.21-5.68-10.2A.14.14,0,0,1,871.6,1020.32Z" transform="translate(0.24 -453.78)"/><path class="l" d="M472.27,1048c4.25-.48,5.43-5.31,5.68-10.2a.18.18,0,0,1,.18-.16h0a.17.17,0,0,1,.17.16c.23,4.32,1,9.14,5.68,10.2a.14.14,0,0,1,0,.26c-4.53.94-5.35,5.6-5.68,10.21a.18.18,0,0,1-.18.15h0a.16.16,0,0,1-.17-.15c-.1-4.13-1.08-9.22-5.69-10.21A.13.13,0,0,1,472.27,1048Z" transform="translate(0.24 -453.78)"/><path class="f" d="M975.56,637.34c4.25-.49,5.43-5.31,5.69-10.21a.16.16,0,0,1,.17-.15h0a.16.16,0,0,1,.17.15c.23,4.32,1,9.14,5.68,10.21a.13.13,0,0,1,0,.25c-4.53.94-5.35,5.61-5.68,10.21a.17.17,0,0,1-.17.15h0a.16.16,0,0,1-.17-.15c-.1-4.13-1.08-9.22-5.69-10.21C975.43,637.56,975.42,637.35,975.56,637.34Z" transform="translate(0.24 -453.78)"/><path class="i" d="M582.16,877.86c8.54-1,10.92-10.68,11.43-20.5a.35.35,0,0,1,.34-.32h0a.36.36,0,0,1,.35.32c.46,8.67,2,18.36,11.42,20.5a.26.26,0,0,1,0,.51c-9.1,1.88-10.76,11.26-11.42,20.5a.35.35,0,0,1-.35.31h0a.35.35,0,0,1-.34-.31c-.2-8.29-2.16-18.52-11.42-20.5C581.9,878.32,581.89,877.89,582.16,877.86Z" transform="translate(0.24 -453.78)"/><path class="c" d="M950.61,777.32c-17.75-16-31.88-22.63-70.34-22.91,15.64-2.56,46.52-11.22,74.16,1.29-3.25.37-7.84,1.17-11.12,1.52a70.38,70.38,0,0,1,23.75,16.48,61.22,61.22,0,0,0-17.22-4.91A79,79,0,0,1,950.61,777.32Z" transform="translate(0.24 -453.78)"/><path class="k" d="M501.11,965c10.22-12.43,18.95-18.29,44.48-22.4-10.65-.11-32-2.71-49.14,8.43,2.18-.09,5.32,0,7.53-.13a47.68,47.68,0,0,0-14.16,13.37,41.91,41.91,0,0,1,11-5A52,52,0,0,0,501.11,965Z" transform="translate(0.24 -453.78)"/><ellipse class="i" cx="928.58" cy="485.57" rx="30.77" ry="31.35"/><path class="k" d="M984.38,968.9a1.57,1.57,0,1,1-1.57-1.59A1.58,1.58,0,0,1,984.38,968.9Z" transform="translate(0.24 -453.78)"/><path class="c" d="M871.65,961.1c2.86,7.74,30.59,4.27,61.92-7.75s54.42-28,51.56-35.77-30.58-4.27-61.91,7.75S868.79,953.36,871.65,961.1Z" transform="translate(0.24 -453.78)"/><path class="i" d="M931,946.45c15.84-6.07,27.51-14.15,26.18-18.1a30.75,30.75,0,0,0-30.69-20.3c-17,1.06-29.87,15.93-28.83,33.21a32.13,32.13,0,0,0,1.92,9.16C901.13,954.31,915.16,952.54,931,946.45Z" transform="translate(0.24 -453.78)"/><ellipse class="f" cx="727.93" cy="386.02" rx="13.44" ry="13.69"/><path class="g" d="M749.75,854.64c-2,3-12.17.81-26.17-8.58s-20-18.1-18.07-21.11,12.17-.8,26.17,8.59S751.7,851.63,749.75,854.64Z" transform="translate(0.24 -453.78)"/><path class="f" d="M725.84,842.57c-6.18-4.14-10.39-8.74-9.45-10.29a13.32,13.32,0,0,1,15-5.63,13.83,13.83,0,0,1,7.46,20.69C737.83,848.85,732,846.72,725.84,842.57Z" transform="translate(0.24 -453.78)"/><ellipse class="f" cx="950.37" cy="657.93" rx="21.18" ry="21.58"/><path class="i" d="M725.72,503.93a5.35,5.35,0,1,1-5.35-5.44A5.4,5.4,0,0,1,725.72,503.93Z" transform="translate(0.24 -453.78)"/></g><rect class="m" x="191.66" y="293.89" width="103.77" height="199.36"/><polygon class="n" points="191.66 493.25 133.86 530.02 133.86 246.51 191.66 293.89 191.66 493.25"/><rect class="o" x="127.33" y="246.5" width="6.53" height="283.52"/><path class="o" d="M123.65,852.59c0-2.1.36-2.9.67-3.2s1.24-.42,2.6-.42h.56v-3.33h-.62c-1.69,0-3.53,0-4.86,1.31-1.09,1.09-1.58,2.78-1.58,5.49v6.77c0,2.71.49,4.4,1.58,5.49,1.32,1.32,3.17,1.31,4.86,1.31h.62v-3.33h-.56c-1.36,0-2.2,0-2.6-.41s-.67-1.11-.67-3.21Z" transform="translate(0.24 -453.78)"/></svg>