<?xml version="1.0" encoding="utf-8"?>
<!-- Generator: Adobe Illustrator 25.2.3, SVG Export Plug-In . SVG Version: 6.00 Build 0)  -->
<svg version="1.1" id="_x3C_Layer_x3E_" xmlns="http://www.w3.org/2000/svg" xmlns:xlink="http://www.w3.org/1999/xlink" x="0px"
	 y="0px" viewBox="0 0 3199.75 1882.2" style="enable-background:new 0 0 3199.75 1882.2;" xml:space="preserve">
<style type="text/css">
	.st0{fill:#F7EBEB;stroke:#000000;stroke-miterlimit:10;}
	.st1{fill:#240E54;}
	.st2{fill:#F74945;}
	.st3{fill:#000635;}
	.st4{clip-path:url(#SVGID_3_);fill:#5F70FA;}
	.st5{clip-path:url(#SVGID_5_);fill:#FFB2C6;}
	.st6{clip-path:url(#SVGID_7_);fill:#F74945;}
	.st7{clip-path:url(#SVGID_9_);}
	.st8{fill:#8927D4;}
	.st9{fill:#5F70FA;}
	.st10{fill:#FFB033;}
	.st11{fill:#85DEFF;}
	.st12{fill:#FF5653;}
	.st13{fill:#FFB2C6;}
	.st14{fill:#F74944;}
	.st15{fill:#FFFFFF;}
	.st16{fill:#3D5CFF;}
	.st17{fill:#0C1135;}
</style>
<rect class="st0" width="3199.75" height="1882.2"/>
<polygon class="st1" points="511.38,675.49 0,562.93 0,1206.84 510.47,1206.84 "/>
<rect y="1206.84" class="st2" width="3199.75" height="675.36"/>
<polygon class="st3" points="510.47,1206.84 0,1206.84 0,1535.08 510.47,1206.97 "/>
<g>
	<g>
		<path id="SVGID_1_" class="st1" d="M1167.39,224.32c-21.79,114.52-15.15,198.59-144.11,184.14
			c-82.02-9.19-198.71,38.95-230.77,131.1c-30.59,87.94-53.31,135.8-281.56,135.8c0,129.68,0,531.48,0,531.48
			c79.74,0,183.36,10.72,257.52,81.94c91.88,88.23,117.8,330.84,385.28,316.72c231.72-12.23,228.01,83.64,275.79,148.03
			c32.15,43.33,116.19,120.2,268.44,128.67h1501.77V0h-1702.1C1481.63,122.88,1201.17,46.76,1167.39,224.32z"/>
	</g>
	<g>
		<g>
			<defs>
				<path id="SVGID_2_" d="M905.47,1463.42c42.22,108.65,92.41,176.41-24.59,232.51c-74.41,35.68-147.84,138.34-126.18,233.47
					c20.67,90.78,26.78,143.4-166.76,264.38c68.73,109.96,281.69,450.64,281.69,450.64c67.62-42.26,161.15-88.09,261.78-67.01
					c124.67,26.12,275.23,218.09,494.54,64.35c189.99-133.18,237.65-49.93,312.3-20.66c50.23,19.7,162.22,40.33,295.81-33.18
					l1273.34-795.95L2509.81,196.07l-1443.21,902.11C1118.15,1210.86,840.01,1294.97,905.47,1463.42z"/>
			</defs>
			<clipPath id="SVGID_3_">
				<use xlink:href="#SVGID_2_"  style="overflow:visible;"/>
			</clipPath>

				<ellipse transform="matrix(0.9612 -0.2757 0.2757 0.9612 -234.5959 931.6992)" class="st4" cx="3196.47" cy="1300.23" rx="50.64" ry="50.64"/>
		</g>
	</g>
	<g>
		<g>
			<defs>
				<path id="SVGID_4_" d="M1167.39,224.32c-21.79,114.52-15.15,198.59-144.11,184.14c-82.02-9.19-198.71,38.95-230.77,131.1
					c-30.59,87.94-53.31,135.8-281.56,135.8c0,129.68,0,531.48,0,531.48c79.74,0,183.36,10.72,257.52,81.94
					c91.88,88.23,117.8,330.84,385.28,316.72c231.72-12.23,228.01,83.64,275.79,148.03c32.15,43.33,116.19,120.2,268.44,128.67
					h1501.77V0h-1702.1C1481.63,122.88,1201.17,46.76,1167.39,224.32z"/>
			</defs>
			<clipPath id="SVGID_5_">
				<use xlink:href="#SVGID_4_"  style="overflow:visible;"/>
			</clipPath>
			<path class="st5" d="M2966.32,5.24c0,18.45-14.96,33.42-33.42,33.42s-33.42-14.96-33.42-33.42c0-18.45,14.96-33.42,33.42-33.42
				C2951.36-28.17,2966.32-13.21,2966.32,5.24z"/>
		</g>
	</g>
	<g>
		<g>
			<defs>
				<path id="SVGID_6_" d="M2543.26,3842.94c70.95-92.51,102.81-170.6,211.52-99.72c69.14,45.08,195.03,54.52,265.09-13.38
					c66.86-64.81,108.67-97.36,312.58,5.25c58.3-115.85,238.91-474.81,238.91-474.81c-71.24-35.85-158.99-92-193.23-188.96
					c-42.42-120.12,43.48-348.52-201.83-456.14c-212.51-93.24-166.1-177.22-179.84-256.22c-9.24-53.16-49.77-159.61-181.97-235.62
					l-1341.63-675.09l-846.1,1681.5l1520.61,765.13C2216.93,3792.3,2433.26,3986.38,2543.26,3842.94z"/>
			</defs>
			<clipPath id="SVGID_7_">
				<use xlink:href="#SVGID_6_"  style="overflow:visible;"/>
			</clipPath>

				<ellipse transform="matrix(0.231 -0.973 0.973 0.231 -62.4171 3661.3298)" class="st6" cx="2284.96" cy="1870.15" rx="75.83" ry="75.83"/>
		</g>
	</g>
	<g>
		<g>
			<defs>
				<path id="SVGID_8_" d="M1167.39,224.32c-21.79,114.52-15.15,198.59-144.11,184.14c-82.02-9.19-198.71,38.95-230.77,131.1
					c-30.59,87.94-53.31,135.8-281.56,135.8c0,129.68,0,531.48,0,531.48c79.74,0,183.36,10.72,257.52,81.94
					c91.88,88.23,117.8,330.84,385.28,316.72c231.72-12.23,228.01,83.64,275.79,148.03c32.15,43.33,116.19,120.2,268.44,128.67
					h1501.77V0h-1702.1C1481.63,122.88,1201.17,46.76,1167.39,224.32z"/>
			</defs>
			<clipPath id="SVGID_9_">
				<use xlink:href="#SVGID_8_"  style="overflow:visible;"/>
			</clipPath>
			<g class="st7">

					<ellipse transform="matrix(0.7071 -0.7071 0.7071 0.7071 -383.4571 1161.4813)" class="st8" cx="1210.3" cy="1043.61" rx="38.95" ry="38.95"/>

					<ellipse transform="matrix(0.7071 -0.7071 0.7071 0.7071 395.8398 2263.55)" class="st8" cx="2930.27" cy="653.95" rx="102.18" ry="102.18"/>
				<circle class="st2" cx="1110.86" cy="564.78" r="27.12"/>
				<path class="st9" d="M1933.52,1601.31c0,20.98-17,37.98-37.98,37.98s-37.98-17-37.98-37.98s17-37.98,37.98-37.98
					S1933.52,1580.33,1933.52,1601.31z"/>
				<ellipse class="st10" cx="2005.93" cy="1118.03" rx="12.57" ry="12.57"/>
				<path class="st11" d="M1012.81,1068.06c0,6.94-5.63,12.57-12.57,12.57s-12.57-5.63-12.57-12.57s5.63-12.57,12.57-12.57
					C1007.18,1055.49,1012.81,1061.11,1012.81,1068.06z"/>
				<path class="st2" d="M2277.73,1618.41c0,6.94-5.63,12.57-12.57,12.57c-6.94,0-12.57-5.63-12.57-12.57s5.63-12.57,12.57-12.57
					C2272.1,1605.83,2277.73,1611.46,2277.73,1618.41z"/>
				<path class="st12" d="M846.8,1271.65c0,3.47-2.81,6.29-6.29,6.29c-3.47,0-6.29-2.81-6.29-6.29c0-3.47,2.81-6.29,6.29-6.29
					S846.8,1268.18,846.8,1271.65z"/>
				<path class="st9" d="M2900.88,1335.05c0,3.47-2.81,6.29-6.29,6.29c-3.47,0-6.29-2.81-6.29-6.29c0-3.47,2.81-6.29,6.29-6.29
					C2898.07,1328.76,2900.88,1331.58,2900.88,1335.05z"/>
				<path class="st12" d="M2858.01,168.82c0,3.47-2.81,6.29-6.29,6.29s-6.29-2.81-6.29-6.29c0-3.47,2.81-6.29,6.29-6.29
					S2858.01,165.35,2858.01,168.82z"/>
				<path class="st12" d="M2557.67,850.78c0,3.47-2.81,6.29-6.29,6.29c-3.47,0-6.29-2.81-6.29-6.29c0-3.47,2.81-6.29,6.29-6.29
					C2554.86,844.5,2557.67,847.31,2557.67,850.78z"/>
				<g>
					<circle class="st13" cx="2492.98" cy="532.18" r="4.18"/>
				</g>
				<g>
					<path class="st13" d="M2650.87,263.56c0,2.31-1.87,4.18-4.18,4.18s-4.18-1.87-4.18-4.18s1.87-4.18,4.18-4.18
						S2650.87,261.25,2650.87,263.56z"/>
				</g>
				<g>
					<path class="st13" d="M2651.51,661.76c0,2.31-1.87,4.18-4.18,4.18s-4.18-1.87-4.18-4.18s1.87-4.18,4.18-4.18
						S2651.51,659.46,2651.51,661.76z"/>
				</g>
				<g>
					<path class="st13" d="M2358.08,602.39c0,2.31-1.87,4.18-4.18,4.18s-4.18-1.87-4.18-4.18s1.87-4.18,4.18-4.18
						S2358.08,600.08,2358.08,602.39z"/>
				</g>
				<g>
					<path class="st9" d="M1356.31,567.28c0,2.31-1.87,4.18-4.18,4.18s-4.18-1.87-4.18-4.18s1.87-4.18,4.18-4.18
						C1354.44,563.11,1356.31,564.98,1356.31,567.28z"/>
				</g>
				<g>
					<path class="st13" d="M2769.31,883.38c0,2.31-1.87,4.18-4.18,4.18s-4.18-1.87-4.18-4.18s1.87-4.18,4.18-4.18
						S2769.31,881.07,2769.31,883.38z"/>
				</g>
				<g>
					<path class="st13" d="M2875.78,1406.68c0,2.31-1.87,4.18-4.18,4.18s-4.18-1.87-4.18-4.18s1.87-4.18,4.18-4.18
						S2875.78,1404.37,2875.78,1406.68z"/>
				</g>
				<g>
					<path class="st13" d="M2267.5,1410.24c0,2.31-1.87,4.18-4.18,4.18c-2.31,0-4.18-1.87-4.18-4.18s1.87-4.18,4.18-4.18
						C2265.63,1406.06,2267.5,1407.93,2267.5,1410.24z"/>
				</g>
				<g>
					<path class="st13" d="M2860.92,493.88c0,2.31-1.87,4.18-4.18,4.18s-4.18-1.87-4.18-4.18s1.87-4.18,4.18-4.18
						S2860.92,491.57,2860.92,493.88z"/>
				</g>
				<g>
					<circle class="st13" cx="2378.68" cy="879.73" r="4.18"/>
				</g>
				<g>
					<path class="st13" d="M2218.38,1304.31c0,2.31-1.87,4.18-4.18,4.18c-2.31,0-4.18-1.87-4.18-4.18s1.87-4.18,4.18-4.18
						C2216.51,1300.13,2218.38,1302,2218.38,1304.31z"/>
				</g>
				<g>
					<path class="st9" d="M2023.73,716.27c0,2.31-1.87,4.18-4.18,4.18s-4.18-1.87-4.18-4.18s1.87-4.18,4.18-4.18
						S2023.73,713.96,2023.73,716.27z"/>
				</g>
				<g>
					<path class="st13" d="M1472.21,880.34c0,2.31-1.87,4.18-4.18,4.18s-4.18-1.87-4.18-4.18s1.87-4.18,4.18-4.18
						S1472.21,878.03,1472.21,880.34z"/>
				</g>
				<g>
					<path class="st13" d="M1552.43,189.07c0,2.31-1.87,4.18-4.18,4.18s-4.18-1.87-4.18-4.18s1.87-4.18,4.18-4.18
						S1552.43,186.76,1552.43,189.07z"/>
				</g>
				<g>
					<path class="st13" d="M1330.22,380.13c0,2.31-1.87,4.18-4.18,4.18s-4.18-1.87-4.18-4.18s1.87-4.18,4.18-4.18
						C1328.34,375.95,1330.22,377.82,1330.22,380.13z"/>
				</g>
				<g>
					<path class="st13" d="M1770.18,578.58c0,2.31-1.87,4.18-4.18,4.18s-4.18-1.87-4.18-4.18s1.87-4.18,4.18-4.18
						S1770.18,576.27,1770.18,578.58z"/>
				</g>
				<g>
					<path class="st13" d="M1152.39,741.57c0,2.31-1.87,4.18-4.18,4.18s-4.18-1.87-4.18-4.18s1.87-4.18,4.18-4.18
						S1152.39,739.26,1152.39,741.57z"/>
				</g>
				<g>
					<path class="st13" d="M1750.1,1006.47c0,2.31-1.87,4.18-4.18,4.18s-4.18-1.87-4.18-4.18s1.87-4.18,4.18-4.18
						C1748.23,1002.3,1750.1,1004.17,1750.1,1006.47z"/>
				</g>
				<g>
					<path class="st13" d="M1986.34,1830.1c0,2.31-1.87,4.18-4.18,4.18s-4.18-1.87-4.18-4.18s1.87-4.18,4.18-4.18
						S1986.34,1827.8,1986.34,1830.1z"/>
				</g>
				<g>
					<path class="st13" d="M1116.58,456.54c0,2.31-1.87,4.18-4.18,4.18s-4.18-1.87-4.18-4.18s1.87-4.18,4.18-4.18
						C1114.71,452.36,1116.58,454.23,1116.58,456.54z"/>
				</g>
				<g>
					<path class="st13" d="M2698.88,1541.98c0,2.31-1.87,4.18-4.18,4.18s-4.18-1.87-4.18-4.18s1.87-4.18,4.18-4.18
						S2698.88,1539.67,2698.88,1541.98z"/>
				</g>
				<g>
					<path class="st13" d="M1775.31,1792.13c0,2.31-1.87,4.18-4.18,4.18s-4.18-1.87-4.18-4.18s1.87-4.18,4.18-4.18
						S1775.31,1789.83,1775.31,1792.13z"/>
				</g>
				<g>
					<path class="st13" d="M991.92,1501.39c0,2.31-1.87,4.18-4.18,4.18s-4.18-1.87-4.18-4.18s1.87-4.18,4.18-4.18
						S991.92,1499.08,991.92,1501.39z"/>
				</g>
				<g>
					<path class="st13" d="M1728.95,96.16c0,2.31-1.87,4.18-4.18,4.18s-4.18-1.87-4.18-4.18s1.87-4.18,4.18-4.18
						S1728.95,93.85,1728.95,96.16z"/>
				</g>
				<g>
					<circle class="st13" cx="1415.53" cy="1522.58" r="4.18"/>
				</g>
				<g>
					<path class="st13" d="M1968.12,529.4c0,2.31-1.87,4.18-4.18,4.18s-4.18-1.87-4.18-4.18s1.87-4.18,4.18-4.18
						C1966.25,525.22,1968.12,527.09,1968.12,529.4z"/>
				</g>
				<g>
					<path class="st13" d="M999.07,560.16c0,2.31-1.87,4.18-4.18,4.18s-4.18-1.87-4.18-4.18s1.87-4.18,4.18-4.18
						S999.07,557.85,999.07,560.16z"/>
				</g>
				<g>
					<path class="st13" d="M2901.86,1817.45c0,2.31-1.87,4.18-4.18,4.18s-4.18-1.87-4.18-4.18s1.87-4.18,4.18-4.18
						S2901.86,1815.14,2901.86,1817.45z"/>
				</g>
				<g>
					<path class="st13" d="M1401.81,162.39c0,2.31-1.87,4.18-4.18,4.18s-4.18-1.87-4.18-4.18s1.87-4.18,4.18-4.18
						C1399.94,158.22,1401.81,160.09,1401.81,162.39z"/>
				</g>
				<g>
					<circle class="st13" cx="2879.41" cy="1665.82" r="4.18"/>
				</g>
				<g>
					<path class="st13" d="M2071.1,1596.48c0,2.31-1.87,4.18-4.18,4.18s-4.18-1.87-4.18-4.18s1.87-4.18,4.18-4.18
						S2071.1,1594.18,2071.1,1596.48z"/>
				</g>
				<g>
					<path class="st2" d="M912.56,1046.13c0,2.31-1.87,4.18-4.18,4.18s-4.18-1.87-4.18-4.18s1.87-4.18,4.18-4.18
						S912.56,1043.82,912.56,1046.13z"/>
				</g>
				<g>
					<circle class="st13" cx="1437.78" cy="1447.09" r="4.18"/>
				</g>
				<g>
					<path class="st2" d="M1991.37,1318.5c0,2.31-1.87,4.18-4.18,4.18s-4.18-1.87-4.18-4.18s1.87-4.18,4.18-4.18
						S1991.37,1316.2,1991.37,1318.5z"/>
				</g>
				<g>
					<path class="st9" d="M1142.28,1510.79c0,2.31-1.87,4.18-4.18,4.18s-4.18-1.87-4.18-4.18s1.87-4.18,4.18-4.18
						S1142.28,1508.48,1142.28,1510.79z"/>
				</g>
				<g>
					<path class="st13" d="M1675.71,1196.85c0,2.31-1.87,4.18-4.18,4.18s-4.18-1.87-4.18-4.18s1.87-4.18,4.18-4.18
						C1673.84,1192.67,1675.71,1194.54,1675.71,1196.85z"/>
				</g>
				<g>
					<path class="st13" d="M926.35,1174.52c0,2.31-1.87,4.18-4.18,4.18s-4.18-1.87-4.18-4.18s1.87-4.18,4.18-4.18
						C924.48,1170.35,926.35,1172.22,926.35,1174.52z"/>
				</g>
				<g>
					<circle class="st11" cx="1930.92" cy="711.12" r="4.18"/>
				</g>
				<g>
					<circle class="st11" cx="1797.45" cy="1272.05" r="4.18"/>
				</g>
				<g>
					<path class="st11" d="M1579.66,1327.36c0-2.31,1.87-4.18,4.18-4.18s4.18,1.87,4.18,4.18s-1.87,4.18-4.18,4.18
						S1579.66,1329.66,1579.66,1327.36z"/>
				</g>
				<g>
					<path class="st11" d="M1827.98,1015.44c0-2.31,1.87-4.18,4.18-4.18s4.18,1.87,4.18,4.18s-1.87,4.18-4.18,4.18
						C1829.85,1019.61,1827.98,1017.74,1827.98,1015.44z"/>
				</g>
				<g>
					<circle class="st11" cx="2389.62" cy="1055.8" r="4.18"/>
				</g>
				<g>
					<circle class="st11" cx="1553.36" cy="266.47" r="4.18"/>
				</g>
				<g>
					<path class="st11" d="M1432.91,463.22c0-2.31,1.87-4.18,4.18-4.18s4.18,1.87,4.18,4.18s-1.87,4.18-4.18,4.18
						S1432.91,465.53,1432.91,463.22z"/>
				</g>
				<g>
					<path class="st11" d="M2248.62,265.23c0-2.31,1.87-4.18,4.18-4.18c2.31,0,4.18,1.87,4.18,4.18s-1.87,4.18-4.18,4.18
						C2250.49,269.41,2248.62,267.54,2248.62,265.23z"/>
				</g>
				<g>
					<path class="st9" d="M2151.44,1378.02c0-2.31,1.87-4.18,4.18-4.18s4.18,1.87,4.18,4.18s-1.87,4.18-4.18,4.18
						S2151.44,1380.33,2151.44,1378.02z"/>
				</g>
				<g>
					<path class="st11" d="M2061.72,443.02c0-2.31,1.87-4.18,4.18-4.18c2.31,0,4.18,1.87,4.18,4.18s-1.87,4.18-4.18,4.18
						C2063.59,447.2,2061.72,445.33,2061.72,443.02z"/>
				</g>
				<g>
					<path class="st11" d="M1623.08,592.9c0-2.31,1.87-4.18,4.18-4.18s4.18,1.87,4.18,4.18s-1.87,4.18-4.18,4.18
						S1623.08,595.21,1623.08,592.9z"/>
				</g>
				<g>
					<path class="st11" d="M2212.37,470.88c0-2.31,1.87-4.18,4.18-4.18s4.18,1.87,4.18,4.18s-1.87,4.18-4.18,4.18
						S2212.37,473.19,2212.37,470.88z"/>
				</g>
				<g>
					<path class="st11" d="M2058.24,865.32c0-2.31,1.87-4.18,4.18-4.18c2.31,0,4.18,1.87,4.18,4.18s-1.87,4.18-4.18,4.18
						S2058.24,867.63,2058.24,865.32z"/>
				</g>
				<g>
					<path class="st11" d="M2552.61,982.35c0-2.31,1.87-4.18,4.18-4.18s4.18,1.87,4.18,4.18s-1.87,4.18-4.18,4.18
						S2552.61,984.66,2552.61,982.35z"/>
				</g>
				<g>
					<path class="st11" d="M2576.14,1471.82c0-2.31,1.87-4.18,4.18-4.18s4.18,1.87,4.18,4.18s-1.87,4.18-4.18,4.18
						S2576.14,1474.13,2576.14,1471.82z"/>
				</g>
				<g>
					<path class="st11" d="M2684.9,1176.11c0-2.31,1.87-4.18,4.18-4.18s4.18,1.87,4.18,4.18s-1.87,4.18-4.18,4.18
						S2684.9,1178.42,2684.9,1176.11z"/>
				</g>
				<g>
					<path class="st11" d="M2311.8,1003.01c0-2.31,1.87-4.18,4.18-4.18c2.31,0,4.18,1.87,4.18,4.18s-1.87,4.18-4.18,4.18
						C2313.67,1007.19,2311.8,1005.31,2311.8,1003.01z"/>
				</g>
				<g>
					<path class="st11" d="M2691.68,919.84c0-2.31,1.87-4.18,4.18-4.18s4.18,1.87,4.18,4.18s-1.87,4.18-4.18,4.18
						S2691.68,922.15,2691.68,919.84z"/>
				</g>
				<g>
					<path class="st11" d="M2896.9,616.54c0-2.31,1.87-4.18,4.18-4.18s4.18,1.87,4.18,4.18s-1.87,4.18-4.18,4.18
						S2896.9,618.84,2896.9,616.54z"/>
				</g>
				<g>
					<circle class="st11" cx="1241.48" cy="569.99" r="4.18"/>
				</g>
				<g>
					<path class="st11" d="M2689.74,178.42c0-2.31,1.87-4.18,4.18-4.18c2.31,0,4.18,1.87,4.18,4.18s-1.87,4.18-4.18,4.18
						C2691.61,182.6,2689.74,180.73,2689.74,178.42z"/>
				</g>
				<g>
					<path class="st11" d="M944.36,1231.45c0-2.31,1.87-4.18,4.18-4.18s4.18,1.87,4.18,4.18s-1.87,4.18-4.18,4.18
						S944.36,1233.76,944.36,1231.45z"/>
				</g>
				<g>
					<circle class="st11" cx="2368.14" cy="1528.54" r="4.18"/>
				</g>
				<g>
					<path class="st11" d="M834.37,1024.82c0-2.31,1.87-4.18,4.18-4.18s4.18,1.87,4.18,4.18c0,2.31-1.87,4.18-4.18,4.18
						C836.25,1028.99,834.37,1027.12,834.37,1024.82z"/>
				</g>
				<g>
					<path class="st11" d="M952.24,750.63c0-2.31,1.87-4.18,4.18-4.18s4.18,1.87,4.18,4.18s-1.87,4.18-4.18,4.18
						S952.24,752.94,952.24,750.63z"/>
				</g>
				<g>
					<path class="st11" d="M1412.53,895.82c0-2.31,1.87-4.18,4.18-4.18s4.18,1.87,4.18,4.18s-1.87,4.18-4.18,4.18
						S1412.53,898.13,1412.53,895.82z"/>
				</g>
				<g>
					<circle class="st11" cx="1197.62" cy="1305.08" r="4.18"/>
				</g>
				<g>
					<path class="st11" d="M2315.5,83.46c0-2.31,1.87-4.18,4.18-4.18c2.31,0,4.18,1.87,4.18,4.18s-1.87,4.18-4.18,4.18
						C2317.38,87.64,2315.5,85.76,2315.5,83.46z"/>
				</g>
				<g>
					<circle class="st11" cx="3146.6" cy="374.57" r="4.18"/>
				</g>
				<g>
					<path class="st11" d="M2787.99,66.62c0-2.31,1.87-4.18,4.18-4.18c2.31,0,4.18,1.87,4.18,4.18s-1.87,4.18-4.18,4.18
						S2787.99,68.93,2787.99,66.62z"/>
				</g>
				<g>
					<path class="st11" d="M3072.75,426.56c0-2.31,1.87-4.18,4.18-4.18s4.18,1.87,4.18,4.18s-1.87,4.18-4.18,4.18
						S3072.75,428.86,3072.75,426.56z"/>
				</g>
				<g>
					<path class="st11" d="M1953.17,150.72c0-2.31,1.87-4.18,4.18-4.18s4.18,1.87,4.18,4.18s-1.87,4.18-4.18,4.18
						S1953.17,153.03,1953.17,150.72z"/>
				</g>
				<g>
					<path class="st11" d="M3091.75,125.69c0-2.31,1.87-4.18,4.18-4.18s4.18,1.87,4.18,4.18s-1.87,4.18-4.18,4.18
						S3091.75,128,3091.75,125.69z"/>
				</g>
				<g>
					<circle class="st11" cx="3111.61" cy="1057.61" r="4.18"/>
				</g>
				<g>
					<path class="st11" d="M1193.02,889.61c0-2.31,1.87-4.18,4.18-4.18s4.18,1.87,4.18,4.18s-1.87,4.18-4.18,4.18
						C1194.9,893.78,1193.02,891.91,1193.02,889.61z"/>
				</g>
				<g>
					<path class="st11" d="M3032.37,877.15c0-2.31,1.87-4.18,4.18-4.18s4.18,1.87,4.18,4.18s-1.87,4.18-4.18,4.18
						S3032.37,879.46,3032.37,877.15z"/>
				</g>
				<g>
					<circle class="st11" cx="1733.21" cy="1568.57" r="4.18"/>
				</g>
				<g>
					<circle class="st11" cx="2441.99" cy="1830.15" r="4.18"/>
				</g>
				<g>
					<circle class="st10" cx="2311.2" cy="1669.83" r="4.18"/>
				</g>
				<g>
					<path class="st11" d="M1208.2,250.23c0-2.31,1.87-4.18,4.18-4.18s4.18,1.87,4.18,4.18s-1.87,4.18-4.18,4.18
						C1210.07,254.41,1208.2,252.54,1208.2,250.23z"/>
				</g>
				<g>
					<circle class="st11" cx="1413.87" cy="330.18" r="4.18"/>
				</g>
				<g>
					<path class="st2" d="M2695.17,1699.28c0-2.31,1.87-4.18,4.18-4.18s4.18,1.87,4.18,4.18s-1.87,4.18-4.18,4.18
						S2695.17,1701.58,2695.17,1699.28z"/>
				</g>
				<g>
					<path class="st9" d="M2231.09,1695.14c0-2.31,1.87-4.18,4.18-4.18c2.31,0,4.18,1.87,4.18,4.18s-1.87,4.18-4.18,4.18
						C2232.96,1699.32,2231.09,1697.45,2231.09,1695.14z"/>
				</g>
				<g>
					<circle class="st11" cx="1580.42" cy="49.97" r="4.18"/>
				</g>
				<g>
					<path class="st11" d="M994.97,492.7c0-2.31,1.87-4.18,4.18-4.18s4.18,1.87,4.18,4.18s-1.87,4.18-4.18,4.18
						C996.84,496.87,994.97,495,994.97,492.7z"/>
				</g>
				<g>
					<path class="st11" d="M3066.4,1306.95c0-2.31,1.87-4.18,4.18-4.18s4.18,1.87,4.18,4.18s-1.87,4.18-4.18,4.18
						S3066.4,1309.26,3066.4,1306.95z"/>
				</g>
				<g>
					<path class="st11" d="M3015.81,1707.8c0-2.31,1.87-4.18,4.18-4.18s4.18,1.87,4.18,4.18s-1.87,4.18-4.18,4.18
						S3015.81,1710.1,3015.81,1707.8z"/>
				</g>
				<g>
					<path class="st11" d="M2716.26,1809.05c0-2.31,1.87-4.18,4.18-4.18s4.18,1.87,4.18,4.18s-1.87,4.18-4.18,4.18
						S2716.26,1811.36,2716.26,1809.05z"/>
				</g>
				<g>
					<circle class="st11" cx="3133.94" cy="1564.31" r="4.18"/>
				</g>
				<g>
					<path class="st11" d="M2889.24,1501.07c0-2.31,1.87-4.18,4.18-4.18s4.18,1.87,4.18,4.18s-1.87,4.18-4.18,4.18
						S2889.24,1503.37,2889.24,1501.07z"/>
				</g>
				<path class="st12" d="M2002.68,213.58c0,3.47-2.81,6.29-6.29,6.29c-3.47,0-6.29-2.81-6.29-6.29c0-3.47,2.81-6.29,6.29-6.29
					C1999.87,207.3,2002.68,210.11,2002.68,213.58z"/>
				<path class="st11" d="M2729.16,274.81c0,3.47-2.81,6.29-6.29,6.29c-3.47,0-6.29-2.81-6.29-6.29c0-3.47,2.81-6.29,6.29-6.29
					C2726.35,268.52,2729.16,271.34,2729.16,274.81z"/>
				<path class="st2" d="M2910.36,972.53c0,3.47-2.81,6.29-6.29,6.29c-3.47,0-6.29-2.81-6.29-6.29c0-3.47,2.81-6.29,6.29-6.29
					C2907.54,966.25,2910.36,969.06,2910.36,972.53z"/>
				<path class="st10" d="M2670.88,1376.31c0,7.87-6.38,14.25-14.25,14.25s-14.25-6.38-14.25-14.25s6.38-14.25,14.25-14.25
					S2670.88,1368.43,2670.88,1376.31z"/>
				<path class="st10" d="M3048.55,1569.99c0,15.19-12.32,27.51-27.51,27.51s-27.51-12.32-27.51-27.51
					c0-15.19,12.32-27.51,27.51-27.51C3036.24,1542.47,3048.55,1554.79,3048.55,1569.99z"/>
				<g>
					<path class="st2" d="M2859.54,301.21c2.6,28.4,27.74,49.32,56.14,46.72s49.32-27.74,46.72-56.14
						c-2.6-28.4-27.74-49.32-56.14-46.72C2877.85,247.67,2856.93,272.81,2859.54,301.21z"/>
					<path class="st8" d="M3010.56,317.45c-2.81,13.33-49.67,14.76-104.67,3.19s-97.32-31.76-94.51-45.1
						c2.8-13.33,49.67-14.76,104.67-3.19C2971.05,283.93,3013.36,304.12,3010.56,317.45z"/>
					<path class="st2" d="M2908.39,308.75c-27.8-5.85-49.19-16.03-47.98-22.8c4.51-21.65,22.68-38.76,45.84-40.89
						c28.41-2.6,53.54,18.31,56.14,46.72c0.48,5.29,0.15,10.47-0.89,15.4C2959.96,313.9,2936.23,314.61,2908.39,308.75z"/>
				</g>
				<circle class="st9" cx="2339.95" cy="436.38" r="74.96"/>
				<path class="st11" d="M1655.04,1692.48c0,7.87-6.38,14.25-14.25,14.25s-14.25-6.38-14.25-14.25s6.38-14.25,14.25-14.25
					C1648.65,1678.22,1655.04,1684.61,1655.04,1692.48z"/>
				<circle class="st8" cx="2117.47" cy="562.97" r="31.21"/>

					<ellipse transform="matrix(0.7071 -0.7071 0.7071 0.7071 311.9748 2266.3103)" class="st11" cx="2891.67" cy="756.57" rx="31.21" ry="31.21"/>
				<path class="st2" d="M1621.1,484.69c0,8.46-6.86,15.32-15.32,15.32s-15.32-6.86-15.32-15.32c0-8.46,6.86-15.32,15.32-15.32
					S1621.1,476.23,1621.1,484.69z"/>
				<path class="st10" d="M1063.13,748.54c0,10.49-8.51,19-19,19s-19-8.51-19-19s8.51-19,19-19S1063.13,738.05,1063.13,748.54z"/>
				<ellipse class="st2" cx="1394.82" cy="738.28" rx="61" ry="61"/>

					<ellipse transform="matrix(0.2943 -0.9557 0.9557 0.2943 1362.5061 2138.9661)" class="st10" cx="2129.64" cy="146.87" rx="50.64" ry="50.64"/>
				<path class="st13" d="M1800.52,402.72c-43.48,0-78.74-35.25-78.74-78.74s35.25-78.74,78.74-78.74c1.82,0,3.59,0.15,5.38,0.27
					c-16.2-11.47-35.94-18.27-57.3-18.27c-54.89,0-99.38,44.5-99.38,99.39s44.49,99.39,99.38,99.39c24.98,0,47.75-9.28,65.21-24.5
					C1809.47,402.26,1805.06,402.72,1800.52,402.72z"/>
				<circle class="st8" cx="1431.27" cy="998.39" r="12.57"/>
				<path class="st11" d="M1353.36,1541.62c0,7.87-6.38,14.25-14.25,14.25s-14.25-6.38-14.25-14.25s6.38-14.25,14.25-14.25
					C1346.97,1527.36,1353.36,1533.74,1353.36,1541.62z"/>

					<ellipse transform="matrix(0.7071 -0.7071 0.7071 0.7071 -65.046 1290.4886)" class="st10" cx="1525.23" cy="723.76" rx="113.18" ry="113.18"/>
				<circle class="st2" cx="2215.11" cy="808.73" r="41.79"/>
				<g>
					<path class="st2" d="M1863.75,1205.3c28.78-3.24,36.79-35.3,38.49-67.79c0.06-0.6,0.56-1.04,1.16-1.04l0,0
						c0.6,0,1.1,0.44,1.16,1.04c1.56,28.66,6.79,60.72,38.5,67.79c0.89,0.2,0.89,1.52,0,1.7c-30.67,6.21-36.24,37.23-38.49,67.79
						c-0.06,0.6-0.56,1.04-1.16,1.04l0,0c-0.6,0-1.1-0.44-1.16-1.04c-0.66-27.43-7.28-61.23-38.5-67.79
						C1862.86,1206.81,1862.85,1205.4,1863.75,1205.3z"/>
				</g>
				<g>
					<path class="st2" d="M2787.46,1171.27c18.96-2.13,24.24-23.26,25.37-44.67c0.04-0.39,0.37-0.69,0.76-0.69l0,0
						c0.39,0,0.72,0.29,0.76,0.69c1.03,18.89,4.47,40.01,25.37,44.67c0.59,0.13,0.59,1,0,1.12c-20.21,4.09-23.88,24.53-25.37,44.67
						c-0.04,0.39-0.37,0.69-0.76,0.69l0,0c-0.39,0-0.72-0.29-0.76-0.69c-0.44-18.07-4.8-40.35-25.37-44.67
						C2786.87,1172.27,2786.86,1171.34,2787.46,1171.27z"/>
				</g>
				<g>
					<path class="st10" d="M1037.87,1286.22c18.96-2.13,24.24-23.26,25.37-44.67c0.04-0.39,0.37-0.69,0.76-0.69l0,0
						c0.39,0,0.72,0.29,0.76,0.69c1.03,18.89,4.47,40.01,25.37,44.67c0.59,0.13,0.59,1,0,1.12c-20.21,4.09-23.88,24.53-25.37,44.67
						c-0.04,0.39-0.37,0.69-0.76,0.69l0,0c-0.39,0-0.72-0.29-0.76-0.69c-0.44-18.07-4.8-40.35-25.37-44.67
						C1037.28,1287.21,1037.27,1286.28,1037.87,1286.22z"/>
				</g>
				<g>
					<path class="st10" d="M2090.51,1748.71c21.14-2.38,27.03-25.93,28.28-49.8c0.04-0.44,0.41-0.76,0.85-0.76l0,0
						c0.44,0,0.81,0.33,0.85,0.76c1.15,21.05,4.99,44.61,28.28,49.8c0.65,0.15,0.66,1.11,0,1.25c-22.53,4.56-26.63,27.35-28.28,49.8
						c-0.04,0.44-0.41,0.76-0.85,0.76l0,0c-0.44,0-0.81-0.33-0.85-0.76c-0.49-20.15-5.35-44.98-28.28-49.8
						C2089.86,1749.82,2089.85,1748.79,2090.51,1748.71z"/>
				</g>
				<g>
					<path class="st8" d="M1631.68,1419.62c48.69-3.59,62.26-39.15,65.14-75.19c0.1-0.66,0.94-1.15,1.96-1.15l0,0
						c1.01,0,1.85,0.49,1.96,1.15c2.64,31.79,11.49,67.35,65.15,75.19c1.51,0.22,1.51,1.68,0,1.88
						c-51.89,6.89-61.33,41.29-65.14,75.19c-0.1,0.66-0.94,1.15-1.96,1.15l0,0c-1.01,0-1.86-0.49-1.96-1.15
						c-1.12-30.42-12.33-67.91-65.15-75.19C1630.17,1421.3,1630.15,1419.73,1631.68,1419.62z"/>
				</g>
				<g>
					<path class="st9" d="M2150.01,1117.83c36.96-2.73,47.26-29.72,49.45-57.08c0.08-0.5,0.72-0.88,1.48-0.88l0,0
						c0.77,0,1.41,0.37,1.48,0.88c2.01,24.13,8.72,51.12,49.46,57.08c1.14,0.17,1.15,1.28,0,1.43
						c-39.39,5.23-46.56,31.34-49.45,57.08c-0.08,0.5-0.72,0.88-1.48,0.88l0,0c-0.77,0-1.41-0.37-1.48-0.88
						c-0.85-23.09-9.36-51.56-49.46-57.08C2148.87,1119.1,2148.85,1117.91,2150.01,1117.83z"/>
				</g>
				<g>
					<path class="st13" d="M2665.71,590.58c36.97-2.73,47.26-29.72,49.45-57.08c0.08-0.5,0.72-0.88,1.48-0.88l0,0
						c0.77,0,1.41,0.37,1.48,0.88c2.01,24.13,8.72,51.12,49.46,57.08c1.14,0.17,1.15,1.28,0,1.43
						c-39.39,5.23-46.56,31.34-49.45,57.08c-0.08,0.5-0.72,0.88-1.48,0.88l0,0c-0.77,0-1.41-0.37-1.49-0.88
						c-0.85-23.09-9.36-51.55-49.46-57.08C2664.56,591.85,2664.55,590.66,2665.71,590.58z"/>
				</g>
				<g>
					<path class="st11" d="M879.41,902.51c29.87-2.2,38.19-24.01,39.95-46.12c0.06-0.41,0.58-0.71,1.2-0.71l0,0
						c0.62,0,1.14,0.3,1.2,0.71c1.62,19.5,7.05,41.31,39.96,46.12c0.92,0.13,0.93,1.03,0,1.15c-31.83,4.23-37.62,25.33-39.95,46.12
						c-0.06,0.41-0.58,0.71-1.2,0.71l0,0c-0.62,0-1.14-0.3-1.2-0.71c-0.69-18.66-7.56-41.66-39.96-46.12
						C878.49,903.54,878.47,902.58,879.41,902.51z"/>
				</g>
				<g>
					<path class="st11" d="M2418.38,142.5c36.96-2.73,47.26-29.72,49.45-57.08c0.08-0.5,0.72-0.88,1.48-0.88l0,0
						c0.77,0,1.41,0.37,1.49,0.88c2.01,24.13,8.72,51.12,49.46,57.08c1.14,0.17,1.15,1.28,0,1.43
						c-39.39,5.23-46.56,31.34-49.45,57.08c-0.08,0.5-0.72,0.88-1.48,0.88l0,0c-0.77,0-1.41-0.37-1.48-0.88
						c-0.85-23.09-9.36-51.55-49.46-57.08C2417.23,143.77,2417.22,142.58,2418.38,142.5z"/>
				</g>
				<g>
					<path class="st8" d="M1785.91,749.95c11.33-1.28,14.49-13.9,15.16-26.7c0.02-0.23,0.22-0.41,0.46-0.41l0,0
						c0.24,0,0.43,0.17,0.45,0.41c0.61,11.29,2.67,23.91,15.16,26.7c0.35,0.08,0.35,0.6,0,0.67c-12.08,2.45-14.27,14.66-15.16,26.7
						c-0.02,0.24-0.22,0.41-0.45,0.41l0,0c-0.24,0-0.43-0.17-0.46-0.41c-0.26-10.8-2.87-24.11-15.16-26.7
						C1785.56,750.54,1785.56,749.99,1785.91,749.95z"/>
				</g>
				<g>
					<path class="st8" d="M1091.21,870.71c11.33-1.28,14.49-13.9,15.16-26.7c0.02-0.23,0.22-0.41,0.46-0.41l0,0
						c0.24,0,0.43,0.18,0.45,0.41c0.61,11.29,2.67,23.91,15.16,26.7c0.35,0.08,0.35,0.6,0,0.67c-12.08,2.45-14.27,14.66-15.16,26.7
						c-0.02,0.23-0.22,0.41-0.45,0.41l0,0c-0.24,0-0.43-0.17-0.46-0.41c-0.26-10.8-2.87-24.11-15.16-26.7
						C1090.86,871.3,1090.85,870.75,1091.21,870.71z"/>
				</g>
				<g>
					<path class="st9" d="M819.4,625.47c11.33-1.28,14.49-13.9,15.16-26.7c0.02-0.23,0.22-0.41,0.46-0.41l0,0
						c0.24,0,0.43,0.17,0.45,0.41c0.61,11.29,2.67,23.91,15.16,26.7c0.35,0.08,0.35,0.6,0,0.67c-12.08,2.45-14.27,14.66-15.16,26.7
						c-0.02,0.24-0.22,0.41-0.46,0.41l0,0c-0.24,0-0.43-0.17-0.46-0.41c-0.26-10.8-2.87-24.11-15.16-26.7
						C819.05,626.07,819.04,625.51,819.4,625.47z"/>
				</g>
				<g>
					<path class="st8" d="M1900.74,302.77c11.33-1.28,14.49-13.9,15.16-26.7c0.02-0.23,0.22-0.41,0.45-0.41l0,0
						c0.24,0,0.43,0.17,0.46,0.41c0.61,11.29,2.67,23.91,15.16,26.7c0.35,0.08,0.35,0.6,0,0.67c-12.08,2.45-14.27,14.66-15.16,26.7
						c-0.02,0.23-0.22,0.41-0.45,0.41l0,0c-0.24,0-0.43-0.18-0.46-0.41c-0.26-10.8-2.87-24.11-15.16-26.7
						C1900.39,303.37,1900.38,302.82,1900.74,302.77z"/>
				</g>
				<g>
					<path class="st8" d="M2302.93,1392.82c11.33-1.28,14.49-13.9,15.16-26.7c0.02-0.23,0.22-0.41,0.46-0.41l0,0
						c0.24,0,0.43,0.17,0.45,0.41c0.61,11.29,2.67,23.91,15.16,26.7c0.35,0.08,0.35,0.6,0,0.67c-12.08,2.45-14.27,14.66-15.16,26.7
						c-0.02,0.23-0.22,0.41-0.45,0.41l0,0c-0.24,0-0.43-0.18-0.46-0.41c-0.26-10.8-2.87-24.11-15.16-26.7
						C2302.58,1393.42,2302.58,1392.86,2302.93,1392.82z"/>
				</g>
				<g>
					<path class="st14" d="M1238.35,1465.22c11.33-1.28,14.49-13.9,15.16-26.7c0.02-0.23,0.22-0.41,0.46-0.41l0,0
						c0.24,0,0.43,0.17,0.45,0.41c0.61,11.29,2.67,23.91,15.16,26.7c0.35,0.08,0.35,0.6,0,0.67c-12.08,2.45-14.27,14.66-15.16,26.7
						c-0.02,0.23-0.22,0.41-0.46,0.41l0,0c-0.24,0-0.43-0.17-0.46-0.41c-0.26-10.8-2.87-24.11-15.16-26.7
						C1237.99,1465.81,1237.99,1465.26,1238.35,1465.22z"/>
				</g>
				<g>
					<path class="st8" d="M2580.08,390.74c11.33-1.28,14.49-13.9,15.16-26.7c0.02-0.24,0.22-0.41,0.46-0.41l0,0
						c0.24,0,0.43,0.17,0.45,0.41c0.61,11.29,2.67,23.91,15.16,26.7c0.35,0.08,0.35,0.6,0,0.67c-12.08,2.45-14.27,14.66-15.16,26.7
						c-0.02,0.23-0.22,0.41-0.45,0.41l0,0c-0.24,0-0.43-0.18-0.46-0.41c-0.26-10.8-2.87-24.11-15.16-26.7
						C2579.73,391.33,2579.72,390.78,2580.08,390.74z"/>
				</g>
				<g>
					<path class="st11" d="M1531.32,1020.06c22.77-2.56,29.11-27.93,30.46-53.64c0.05-0.47,0.44-0.82,0.92-0.82l0,0
						c0.47,0,0.87,0.35,0.91,0.82c1.23,22.68,5.37,48.04,30.46,53.64c0.7,0.16,0.71,1.2,0,1.34c-24.27,4.92-28.68,29.46-30.46,53.64
						c-0.05,0.47-0.44,0.82-0.91,0.82l0,0c-0.47,0-0.87-0.35-0.91-0.82c-0.53-21.7-5.76-48.45-30.46-53.64
						C1530.61,1021.26,1530.6,1020.14,1531.32,1020.06z"/>
				</g>
				<path class="st2" d="M2513.57,757.01c-47.33-41.83-84.98-59.22-187.53-59.95c41.7-6.71,124.02-29.36,197.7,3.38
					c-8.64,0.95-20.88,3.05-29.64,3.96c29.12,12.37,50.13,29.06,63.32,43.13c-15.5-7.13-34.79-11.66-45.9-12.85
					C2512.49,741.45,2513.22,748.2,2513.57,757.01z"/>
				<path class="st13" d="M1315.23,1248.15c27.26-32.53,50.53-47.86,118.59-58.62c-28.38-0.28-85.34-7.08-131.01,22.05
					c5.83-0.23,14.18-0.07,20.09-0.34c-18.11,11.14-30.39,24.33-37.75,35c9.58-6.29,21.95-11.23,29.21-13.13
					C1314.39,1237.7,1314.58,1242.27,1315.23,1248.15z"/>
				<g>
					<ellipse class="st11" cx="2454.2" cy="1180.95" rx="82.02" ry="82.02"/>
					<g>
						<path class="st13" d="M2603.59,1258.28c0,2.31-1.87,4.18-4.18,4.18s-4.18-1.87-4.18-4.18s1.87-4.18,4.18-4.18
							S2603.59,1255.97,2603.59,1258.28z"/>
					</g>
					<path class="st2" d="M2303.08,1237.87c7.62,20.25,81.53,11.17,165.07-20.28c83.54-31.45,145.08-73.36,137.45-93.61
						c-7.62-20.25-81.53-11.17-165.06,20.28C2356.99,1175.71,2295.45,1217.62,2303.08,1237.87z"/>
					<path class="st11" d="M2461.35,1199.54c42.22-15.89,73.34-37.04,69.8-47.38c-12.3-32.89-44.97-55.37-81.84-53.1
						c-45.22,2.78-79.62,41.68-76.84,86.89c0.52,8.42,2.29,16.46,5.12,23.96C2381.65,1220.09,2419.06,1215.46,2461.35,1199.54z"/>
				</g>
				<g>

						<ellipse transform="matrix(0.9702 -0.2424 0.2424 0.9702 -165.8792 492.6582)" class="st8" cx="1919.22" cy="920.46" rx="35.83" ry="35.83"/>
					<path class="st9" d="M1978.08,959.32c-5.2,7.89-32.44,2.12-69.75-22.47c-37.31-24.58-53.38-47.34-48.17-55.23
						c5.2-7.89,32.45-2.1,69.76,22.48C1967.22,928.68,1983.28,951.43,1978.08,959.32z"/>
					<path class="st8" d="M1914.34,927.73c-16.46-10.84-27.68-22.86-25.17-26.92c8.41-12.83,24.5-19.26,39.99-14.74
						c19,5.54,29.91,25.44,24.36,44.43c-1.03,3.54-2.57,6.79-4.49,9.72C1946.32,944.16,1930.82,938.59,1914.34,927.73z"/>
				</g>
				<ellipse class="st8" cx="2512.29" cy="1631.92" rx="56.46" ry="56.46"/>
			</g>
		</g>
	</g>
</g>
<rect x="510.94" y="675.36" class="st15" width="276.63" height="531.48"/>
<polygon class="st16" points="510.94,1206.84 356.85,1304.86 356.85,549.03 510.94,675.36 "/>
<rect x="339.44" y="549.02" class="st17" width="17.41" height="755.84"/>
<path class="st17" d="M330.29,955.08c0-5.6,0.97-7.75,1.78-8.55c1.07-1.06,3.32-1.1,6.94-1.1h1.49v-8.89h-1.65
	c-4.51,0.01-9.42-0.03-12.95,3.49c-2.92,2.91-4.22,7.42-4.22,14.63v18.07c0,7.21,1.3,11.73,4.22,14.63
	c3.52,3.52,8.44,3.48,12.95,3.49h1.65v-8.88h-1.49c-3.62,0-5.88-0.04-6.94-1.1c-0.81-0.81-1.78-2.95-1.78-8.55V955.08z"/>
</svg>
