<svg id="_Layer_" data-name="&lt;Layer&gt;" xmlns="http://www.w3.org/2000/svg" xmlns:xlink="http://www.w3.org/1999/xlink" viewBox="0 0 3272.81 2666.03"><defs><style>.cls-1{fill:#5f70fa;}.cls-2{clip-path:url(#clip-path);}.cls-3{fill:#0c1135;}.cls-4{fill:#8927d4;}.cls-5{fill:#fff;}.cls-6{fill:#eb3834;}.cls-7{fill:#ff5653;}.cls-8{fill:#ff6c5c;}.cls-9{fill:#f54743;}.cls-10{fill:#ffb033;}.cls-11{fill:#ffb2c6;}.cls-12{fill:#85deff;}.cls-13{fill:#f74945;}.cls-14{fill:#ffd22f;}.cls-15{fill:#f74944;}</style><clipPath id="clip-path" transform="translate(0 33.89)"><rect class="cls-1" width="3199.75" height="1882.2"/></clipPath></defs><rect class="cls-1" y="33.89" width="3199.75" height="1882.2"/><g class="cls-2"><path class="cls-3" d="M1573.13-33.89c45.2,58,53.73,173.78-211.4,155.56-224.76-15.44-201.21,25.56-296.36,122.78-72.75,74.34-157.77,51.86-353.47,74.42-129.42,14.92-202.68,66.35-246.15,122-66.19,84.81,22.75,198.58,90,128.37,0,0,24.84,330.29,50.16,450.09,32.66,154.46,121.49,81.78,180.71,149.08,51.92,59-37.61,182.49-4.91,293.4C826.56,1613.91,918.46,1603,919,1690.65c.67,108.55-126.27,113-78.06,258.4,39.06,117.8,223.89,280,56.16,396.18-202.47,140.29,193.55,286.91,193.55,286.91H3246.47v-2666Z" transform="translate(0 33.89)"/><circle class="cls-4" cx="3170.62" cy="1374.95" r="102.18" transform="translate(1234.64 4271.58) rotate(-79.37)"/><path class="cls-1" d="M2362.24,6.14a27.52,27.52,0,1,1-27.51-27.51A27.51,27.51,0,0,1,2362.24,6.14Z" transform="translate(0 33.89)"/><circle class="cls-4" cx="1729.65" cy="1854.54" r="50.15" transform="translate(-591.51 867.04) rotate(-23.24)"/></g><path class="cls-5" d="M465.65,360.15C341.43,441,341.09,517.62,294.4,559.13S198.85,616.25,182,617.54s-16.86,29.83,2.6,35,52.92,2,97,63,30.08,84.88,105.31,156.22S465.48,932.51,502.35,982c44.71,60,43.61,72.76,45.8,85.86,2.37,14.26,28.29,15.68,30.88-1.18s21.89-51,80.26-82.09S782.5,941.79,837,892.51s151.29-216.75,197.14-264.59c34.56-36,73.14-43.91,88.15-47.49,7.57-1.8,11.81-24,1.43-27.87s-76.61,2.73-137.57-81.58-114-149.23-157.55-184.24c-29.33-23.56-41.06-56.39-53.86-97.21-4-12.84-25.46-9.27-31.13,0C694.06,270.6,579.37,286.17,465.65,360.15Z" transform="translate(0 33.89)"/><path class="cls-6" d="M1776.28,1243.8c-4.32-8.78-13.47-26.64-35.65-34.24s-54.5-21-78.76-43.74-19.66-36.84-48.35-49.25c-17.91-7.74-34.63,6.73-46.92,24.69-13.41,19.61-37.48,29.16-122.16,28.86-77.35-.27-112.88-26-155.44,2.75-12.63,8.53,61.41-36,140.11-106.92,63.68-57.36,76.28-125.36,37.59-170.49-28.34-33.07-86.91-55.67-145.26-22.3-82.25,47-259.42,248.83-319.93,356.89-33.4,59.64,24.33,106.18,77.69,96.28,62.42-11.58,382.07-77,432.62-89.91,76.73-19.58,81.26-5.07,132.93,4.9,38.65,7.46,54.75,3.12,71.62,3.62s36,11,43.89,14.7c4.73,2.22,9.55,3,14,.34C1781.93,1255.31,1779,1249.41,1776.28,1243.8Z" transform="translate(0 33.89)"/><path class="cls-7" d="M1139.32,811.28c-53.7-27.13-84.8-43.09-130.67-108.43-28.95-41.22-47.11-65.48-73.55-80.17-42.66-23.7-61.58-17.45-91.77-23.27-19.56-3.76-27.46-3-60-32.29a103.27,103.27,0,0,1-21.09-25.69c-13.89,2.22-29-.15-44.27-9.76C702.94,522.2,706.6,512,683,513.4c-16.72,1-19.43,19.7-31.7,36.84-11.49,16-28.58,14.6-42.22,8.79-18.21-7.77-27.33-15.9-42.85-3.15-4.42,3.63-7.48,8.36-10.43,13.4,1.5,1.09,3.32,2.48,5.63,4.36,16.34,13.29,27.26,37.41,24.25,53.87-1.94,10.56,7,16.36,14,12.51,5.58-3.11,13.39-10.9,19.88-3.53,5.93,6.74-1.73,11.81,5.09,16.82,7.63,5.59,10.62-7,17.93-1.95,6.14,4.28-4.94,9.65,3.08,16.16,6.56,5.33,11.72-2.92,17.07.41,9.3,5.8,6.57,16,21.05,16.8,12.69.71,30.06-23.62,39.69-33,7.25-7.07,18.54-11.57,25.05-7.2,27.45,18.44,55.22,33.25,57.68,89.85,1,21.76,8.29,38.53,7.35,87.28-.73,37.87-9.13,90.06,16.51,110.85,49,39.73,109.89,9.86,138,25.84,113,64.26,171.83,80.43,274.7,73.48,26.94-53.87,200.8-97.8,194-160.13C1356.19,829.36,1271.39,878,1139.32,811.28Z" transform="translate(0 33.89)"/><path class="cls-8" d="M1436.69,871.68c-80.5-42.32-165.3,6.33-297.37-60.4-26.31-13.29-47.18-23.93-67-39A375.28,375.28,0,0,1,1025.06,859c-13.28,19.92-39.84,33.2-59.76,39.84-39.84,6.64-86.32,0-86.32-39.84-11.51-86.31-8-172.61,6-254.6-14-2.21-26.43-2.08-41.7-5-19.56-3.76-27.46-3-60-32.29a103.5,103.5,0,0,1-21.09-25.69c-13.89,2.22-29-.15-44.27-9.76C702.94,522.2,706.6,512,683,513.4c-16.72,1-19.43,19.69-31.7,36.84-11.49,16-28.58,14.6-42.22,8.79-18.21-7.77-27.33-15.9-42.85-3.15-4.42,3.63-7.48,8.36-10.43,13.4,1.5,1.09,3.32,2.48,5.63,4.36,16.34,13.29,27.26,37.41,24.24,53.87-1.93,10.56,7,16.36,14,12.51,5.58-3.11,13.39-10.9,19.88-3.53,5.93,6.74-1.73,11.81,5.1,16.82,7.62,5.59,10.61-7,17.91-1.95,6.16,4.28-4.93,9.65,3.09,16.16,6.56,5.33,11.72-2.92,17.07.41,9.3,5.8,6.57,16,21.05,16.8,12.69.71,30.06-23.62,39.69-33,7.25-7.07,18.54-11.57,25.05-7.2,27.45,18.44,55.22,33.25,57.68,89.85,1,21.76,8.29,38.53,7.35,87.28-.73,37.87-9.13,90.06,16.52,110.85,49,39.73,109.88,9.86,138,25.84,113,64.26,171.83,80.43,274.7,73.48C1269.59,977.94,1443.45,934,1436.69,871.68Z" transform="translate(0 33.89)"/><path class="cls-8" d="M879,859c0,39.84,46.48,46.48,86.32,39.84,19.92-6.64,46.48-19.92,59.76-39.84a375.28,375.28,0,0,0,47.23-86.72c-20.68-15.67-40.24-36.13-63.64-69.46-28.95-41.23-47.11-65.48-73.55-80.17C914,611,898.74,606.58,885,604.43,870.94,686.42,867.47,772.72,879,859Z" transform="translate(0 33.89)"/><path class="cls-9" d="M858.21,609.77c0-4,10.7-9.07,36.81-3.39-18.48-4.39-32.91-3.35-51.69-7-19.56-3.76-29.48,3.21-62-26.09-9.82-8.85-10.64-27.84-19.07-31.89-12.68-6.09-29-.15-44.27-9.76C702.94,522.2,706.6,512,683,513.4c-16.72,1-19.43,19.69-31.7,36.84-11.49,16-28.58,14.6-42.22,8.79-18.21-7.77-27.33-15.9-42.85-3.15-4.42,3.63-7.48,8.36-10.43,13.4,1.5,1.09,3.32,2.48,5.63,4.36,16.34,13.29,27.26,37.41,24.24,53.87-1.93,10.56,7,16.36,14,12.51,5.58-3.11,13.39-10.9,19.88-3.53,5.93,6.74-1.73,11.81,5.1,16.82,7.62,5.59,10.61-7,17.91-1.95,6.16,4.28-4.93,9.65,3.09,16.16,6.56,5.33,11.72-2.92,17.07.41,9.3,5.8,6.57,16,21.05,16.8,12.69.71,30.06-23.62,39.69-33,7.25-7.07,18.54-11.57,25.05-7.2,26.76,18,53.74,32.61,57.38,85.73C833.27,695,845.34,657,858.21,609.77Z" transform="translate(0 33.89)"/><path class="cls-7" d="M687.17,619.25a26.71,26.71,0,1,1,16.13-34.16A26.72,26.72,0,0,1,687.17,619.25Z" transform="translate(0 33.89)"/><path class="cls-10" d="M863.07,813.15c.07-1.5-.42-1.19,0,0Z" transform="translate(0 33.89)"/><path class="cls-10" d="M1139.32,811.28c-53.7-27.13-84.8-43.09-130.67-108.43-28.46-40.53-46.51-64.63-72.24-79.4,41.18,35.33,47.64,128.51,12.93,174.21-22.43,29.52-44.93,28.49-66.68,25-15.18-2.45-18.85-7.36-19.59-9.49-.11,2.25-1.53,8.53-9.31,22-7.16,12.41-13.07,72.45-11.55,105.67,46.53,26.76,99.95,2.82,125.74,17.49,57.91,32.93,101.59,53.17,144.26,64.2.12-50.16,95.19-113,120.8-179.09A347.85,347.85,0,0,1,1139.32,811.28Z" transform="translate(0 33.89)"/><path class="cls-8" d="M1904.62,1558.67a69.43,69.43,0,0,0-7.55-48.84c-23.33-41-44.26-26.84-77.35-63.31-22.35-24.63-24.72-51.48-46.48-60.61-19.7-8.27-31.85-1.51-57.63,21.46-17.74,15.8-43.35,24.44-122.72-5.08-94-35-118.05-80.39-196.41-97.69-27-6-75.34.38-92.45,3.55-7.7,1.42-12.73-4-7.26-12.14,7.06-10.45,11.14-15.56,22.47-31.93,29.88-43.15,102.69-127.52,147.72-223.38,36.43-77.58,29.28-133.94-30.27-169-37.53-22.11-101.79-26.16-142.63,27.24-57.55,75.25-133,335.9-146.53,395.8-20.75,91.89,39.76,133.24,93.71,139.12s376,42.68,428,46.81c64.11,5.09,63.09,22.39,127.39,36.27,28.11,6.07,49.7,2.65,62.79,13.29s18.86,23.61,22.89,31.33c2.41,4.63,5.75,8.2,10.9,8.75C1902.13,1571.25,1903.41,1564.81,1904.62,1558.67Z" transform="translate(0 33.89)"/><path class="cls-8" d="M884.72,604.69c-42.71-7-71.22,25-75.88,73.14-4.14,42.76-10,203.06-11.29,238.42A3.56,3.56,0,0,1,791.8,919C764.56,898,645.11,805.7,637.29,794.12,628.46,781,609.88,762.89,597.23,751s-26.43-21.42-35.09-33.24S547,688.41,542.83,679s-14.45-4.53-13.53,5.48,7.78,27.83,11,35.08c1.14,2.52,3.5,11.44,1.44,13.29-1.49,1.34-8.37-3.34-10.46-5.41-14.38-14.27-34.11-24.79-44.39-30.83s-26.83-14.11-37.83-19.85-14.57,6.73-7.87,11.52c4.65,3.34,15.5,12.32,27.13,19.53s29.26,21.15,30.64,26c1.48,5.12-24-7.08-39.07-13.28s-28.79-10.75-37.61-12.83-11.19,10.93-3.49,14.39,17.7,9,36.19,15.75c33,12,38.23,15.81,37.1,23.21-.7,4.63-10,2.67-18.22.6s-34.9-6.9-45.2-6.11-8.73,14.11.52,14.75,33.9,6,48.38,10.88c10.51,3.51,14.42,6.8,15.71,9.83,1.09,2.57-5.56,1.66-15.63.83-9-.75-22.73-2.54-32.31-.33s-5.23,14.25,2.59,13.84,15.25.1,33.74,1.39,26.41,10.29,52.6,16.86c22.59,5.66,35.64,10.06,49.81,9s25.75,5.31,42.6,24.8C651.37,885.86,744.13,985.74,779,1027.49c10.46,12.54,33,33.2,60.32,27.48,21.8-4.56,28.85-14.91,37.11-58,8.53-44.46,51.14-261.65,55.29-299.61C937.14,647.7,925.8,611.41,884.72,604.69Z" transform="translate(0 33.89)"/><path class="cls-3" d="M555.76,569.28c3.52-4.66,6-9.77,10.43-13.4,15.52-12.75,24.64-4.62,42.85,3.15,13.64,5.81,30.73,7.26,42.22-8.79,12.27-17.15,18.22-34.1,34.92-32.88,16,1.17,18.28,9.72,25.25,30.93,7.35,22.38,21.2,40,43.64,46.29,28.78,8.11,70.29,3.83,90,6.45,29.79,4,49.06-1.14,90,21.65l1.32.78h0l.05,0c22.48,12.91,39.11,33,61.94,64.89,3.28,4.57,6.68,9.39,10.25,14.47,8.6,12.25,16.68,22.77,24.49,31.95,2.65,3.12,5.26,6,7.86,8.81l239.93-113.39L1065.37,244.45c-51.66,51.37-142.94,22.74-237.54,15.84-44.16-3.22-87.7,1-139.93,59.13-53.18,59.2-139.61-.6-193.95,62.19-42.54,49.14,2,85.39-22.58,105.26-26.19,21.21-39.3,60.87-10.7,91.28C483,601.88,526.37,608.27,555.76,569.28Z" transform="translate(0 33.89)"/><circle class="cls-11" cx="1574.34" cy="687.94" r="27.12"/><path class="cls-1" d="M2190.37,1488.36a38,38,0,1,1-38-38A38,38,0,0,1,2190.37,1488.36Z" transform="translate(0 33.89)"/><circle class="cls-10" cx="2469.43" cy="1207.3" r="12.57" transform="translate(-130.41 2133.65) rotate(-45)"/><circle class="cls-12" cx="1044.01" cy="1517.32" r="12.57" transform="translate(-767.13 1216.53) rotate(-45)"/><path class="cls-7" d="M1802.34,1623.14a6.29,6.29,0,1,1-6.29-6.29A6.29,6.29,0,0,1,1802.34,1623.14Z" transform="translate(0 33.89)"/><path class="cls-1" d="M2414.21,1660.53a6.29,6.29,0,1,1-6.29-6.29A6.28,6.28,0,0,1,2414.21,1660.53Z" transform="translate(0 33.89)"/><path class="cls-7" d="M1134.68,1711.61a6.29,6.29,0,1,1-6.29-6.28A6.29,6.29,0,0,1,1134.68,1711.61Z" transform="translate(0 33.89)"/><path class="cls-7" d="M2995.07,937.34a6.29,6.29,0,1,1-6.28-6.29A6.29,6.29,0,0,1,2995.07,937.34Z" transform="translate(0 33.89)"/><path class="cls-11" d="M2960.63,621.46a4.18,4.18,0,1,1-4.17-4.18A4.18,4.18,0,0,1,2960.63,621.46Z" transform="translate(0 33.89)"/><path class="cls-11" d="M3114.35,352.84a4.18,4.18,0,1,1-4.18-4.18A4.18,4.18,0,0,1,3114.35,352.84Z" transform="translate(0 33.89)"/><path class="cls-10" d="M3115,751a4.18,4.18,0,1,1-4.18-4.17A4.18,4.18,0,0,1,3115,751Z" transform="translate(0 33.89)"/><path class="cls-11" d="M2821.56,691.67a4.18,4.18,0,1,1-4.18-4.18A4.18,4.18,0,0,1,2821.56,691.67Z" transform="translate(0 33.89)"/><path class="cls-11" d="M1819.78,656.56a4.18,4.18,0,1,1-4.17-4.18A4.18,4.18,0,0,1,1819.78,656.56Z" transform="translate(0 33.89)"/><path class="cls-11" d="M3024.71,1275.5a4.18,4.18,0,1,1-4.18-4.17A4.18,4.18,0,0,1,3024.71,1275.5Z" transform="translate(0 33.89)"/><path class="cls-11" d="M2826.23,187.46a4.18,4.18,0,1,1-4.18-4.18A4.18,4.18,0,0,1,2826.23,187.46Z" transform="translate(0 33.89)"/><path class="cls-13" d="M3042.14,1746.76a4.18,4.18,0,1,1-4.17-4.18A4.18,4.18,0,0,1,3042.14,1746.76Z" transform="translate(0 33.89)"/><path class="cls-11" d="M2546,1543.3a4.18,4.18,0,1,1-4.18-4.18A4.18,4.18,0,0,1,2546,1543.3Z" transform="translate(0 33.89)"/><path class="cls-13" d="M2516.07,62.81a4.18,4.18,0,1,1-4.18-4.18A4.18,4.18,0,0,1,2516.07,62.81Z" transform="translate(0 33.89)"/><path class="cls-11" d="M2401.13,661.31a4.18,4.18,0,1,1-4.17-4.18A4.18,4.18,0,0,1,2401.13,661.31Z" transform="translate(0 33.89)"/><path class="cls-11" d="M2766.19,190a4.18,4.18,0,1,1-4.18-4.18A4.18,4.18,0,0,1,2766.19,190Z" transform="translate(0 33.89)"/><circle class="cls-10" cx="2600.6" cy="851.78" r="4.18"/><path class="cls-11" d="M1935.68,969.62a4.18,4.18,0,1,1-4.18-4.18A4.18,4.18,0,0,1,1935.68,969.62Z" transform="translate(0 33.89)"/><circle class="cls-11" cx="2011.73" cy="312.24" r="4.18"/><path class="cls-4" d="M1860.56,494.76a4.18,4.18,0,1,1-4.18-4.18A4.18,4.18,0,0,1,1860.56,494.76Z" transform="translate(0 33.89)"/><path class="cls-11" d="M3108.48,1579a4.18,4.18,0,1,1-4.18-4.18A4.18,4.18,0,0,1,3108.48,1579Z" transform="translate(0 33.89)"/><path class="cls-11" d="M1589.13,786.34a4.18,4.18,0,1,1-4.18-4.18A4.18,4.18,0,0,1,1589.13,786.34Z" transform="translate(0 33.89)"/><path class="cls-13" d="M2197.31,1030.18a4.18,4.18,0,1,1-4.17-4.18A4.18,4.18,0,0,1,2197.31,1030.18Z" transform="translate(0 33.89)"/><circle class="cls-11" cx="2521.37" cy="1335.24" r="4.18"/><circle class="cls-11" cx="2094.84" cy="1718.52" r="4.18"/><path class="cls-13" d="M1065.16,316.45a4.18,4.18,0,1,1-4.18-4.18A4.18,4.18,0,0,1,1065.16,316.45Z" transform="translate(0 33.89)"/><path class="cls-11" d="M2314.52,1263.38a4.18,4.18,0,1,1-4.18-4.17A4.18,4.18,0,0,1,2314.52,1263.38Z" transform="translate(0 33.89)"/><path class="cls-14" d="M1415.72,1632.79a4.18,4.18,0,1,1-4.18-4.18A4.18,4.18,0,0,1,1415.72,1632.79Z" transform="translate(0 33.89)"/><path class="cls-11" d="M2192.42,185.44a4.18,4.18,0,1,1-4.17-4.18A4.17,4.17,0,0,1,2192.42,185.44Z" transform="translate(0 33.89)"/><path class="cls-11" d="M2040.91,1836.11a4.18,4.18,0,1,1-4.18-4.17A4.18,4.18,0,0,1,2040.91,1836.11Z" transform="translate(0 33.89)"/><path class="cls-11" d="M1117.09,1841.27a4.18,4.18,0,1,1-4.18-4.18A4.18,4.18,0,0,1,1117.09,1841.27Z" transform="translate(0 33.89)"/><circle class="cls-1" cx="1557.93" cy="1067.37" r="4.18"/><circle class="cls-11" cx="1458.37" cy="683.33" r="4.18"/><path class="cls-4" d="M1268.13,591.92a4.18,4.18,0,1,1-4.18-4.18A4.18,4.18,0,0,1,1268.13,591.92Z" transform="translate(0 33.89)"/><path class="cls-13" d="M1808.5,354.11a4.18,4.18,0,1,1-4.18-4.18A4.18,4.18,0,0,1,1808.5,354.11Z" transform="translate(0 33.89)"/><circle class="cls-11" cx="1411.86" cy="230.96" r="4.18"/><path class="cls-11" d="M777.86,456.06a4.18,4.18,0,1,1-4.18-4.17A4.18,4.18,0,0,1,777.86,456.06Z" transform="translate(0 33.89)"/><circle class="cls-13" cx="1373" cy="1572.58" r="4.18"/><path class="cls-1" d="M1756.25,1583.45a4.18,4.18,0,1,1-4.18-4.18A4.18,4.18,0,0,1,1756.25,1583.45Z" transform="translate(0 33.89)"/><path class="cls-11" d="M1980.39,1400.57a4.18,4.18,0,1,1-4.18-4.18A4.18,4.18,0,0,1,1980.39,1400.57Z" transform="translate(0 33.89)"/><path class="cls-1" d="M1894.18,1758.63a4.18,4.18,0,1,1-4.18-4.18A4.18,4.18,0,0,1,1894.18,1758.63Z" transform="translate(0 33.89)"/><circle class="cls-10" cx="1984.34" cy="1302.11" r="4.18"/><path class="cls-11" d="M1001.33,1086a4.18,4.18,0,1,1-4.18-4.18A4.18,4.18,0,0,1,1001.33,1086Z" transform="translate(0 33.89)"/><path class="cls-12" d="M2390.22,800.4a4.18,4.18,0,1,1,4.18,4.18A4.18,4.18,0,0,1,2390.22,800.4Z" transform="translate(0 33.89)"/><path class="cls-12" d="M2256.75,1361.33a4.18,4.18,0,1,1,4.18,4.17A4.18,4.18,0,0,1,2256.75,1361.33Z" transform="translate(0 33.89)"/><path class="cls-13" d="M2043.14,1416.64a4.18,4.18,0,1,1,4.18,4.17A4.18,4.18,0,0,1,2043.14,1416.64Z" transform="translate(0 33.89)"/><circle class="cls-12" cx="2295.63" cy="1138.6" r="4.18"/><path class="cls-13" d="M2821.5,1207.66a4.18,4.18,0,1,1,4.18,4.18A4.18,4.18,0,0,1,2821.5,1207.66Z" transform="translate(0 33.89)"/><path class="cls-12" d="M1858.32,413.56a4.18,4.18,0,1,1,4.18,4.18A4.18,4.18,0,0,1,1858.32,413.56Z" transform="translate(0 33.89)"/><path class="cls-12" d="M1896.38,552.5a4.18,4.18,0,1,1,4.18,4.18A4.18,4.18,0,0,1,1896.38,552.5Z" transform="translate(0 33.89)"/><circle class="cls-12" cx="2069.89" cy="328.61" r="4.18"/><path class="cls-12" d="M2992.19,1484.74a4.18,4.18,0,1,1,4.18,4.18A4.18,4.18,0,0,1,2992.19,1484.74Z" transform="translate(0 33.89)"/><path class="cls-12" d="M2525.2,532.3a4.18,4.18,0,1,1,4.18,4.18A4.18,4.18,0,0,1,2525.2,532.3Z" transform="translate(0 33.89)"/><path class="cls-12" d="M2086.56,682.18a4.18,4.18,0,1,1,4.17,4.18A4.18,4.18,0,0,1,2086.56,682.18Z" transform="translate(0 33.89)"/><path class="cls-12" d="M2675.85,560.16a4.18,4.18,0,1,1,4.17,4.18A4.18,4.18,0,0,1,2675.85,560.16Z" transform="translate(0 33.89)"/><circle class="cls-12" cx="2525.9" cy="988.49" r="4.18"/><path class="cls-12" d="M2887.39,977.75a4.18,4.18,0,1,1,4.18,4.18A4.18,4.18,0,0,1,2887.39,977.75Z" transform="translate(0 33.89)"/><path class="cls-4" d="M3108.52,1614.35a4.18,4.18,0,1,1,4.18,4.18A4.18,4.18,0,0,1,3108.52,1614.35Z" transform="translate(0 33.89)"/><path class="cls-12" d="M2136.29,1774.36a4.18,4.18,0,1,1,4.17,4.18A4.17,4.17,0,0,1,2136.29,1774.36Z" transform="translate(0 33.89)"/><path class="cls-12" d="M2775.28,1092.29a4.18,4.18,0,1,1,4.17,4.17A4.18,4.18,0,0,1,2775.28,1092.29Z" transform="translate(0 33.89)"/><path class="cls-13" d="M1795,1077.64a4.18,4.18,0,1,1,4.18,4.17A4.18,4.18,0,0,1,1795,1077.64Z" transform="translate(0 33.89)"/><path class="cls-12" d="M2764.89,32.56a4.18,4.18,0,1,1,4.18,4.18A4.18,4.18,0,0,1,2764.89,32.56Z" transform="translate(0 33.89)"/><path class="cls-12" d="M1233.3,794.73a4.18,4.18,0,1,1,4.18,4.18A4.18,4.18,0,0,1,1233.3,794.73Z" transform="translate(0 33.89)"/><path class="cls-4" d="M1481.8,776.6a4.18,4.18,0,1,1,4.18,4.18A4.18,4.18,0,0,1,1481.8,776.6Z" transform="translate(0 33.89)"/><circle class="cls-12" cx="1643.44" cy="1384.37" r="4.18"/><path class="cls-13" d="M729.3,1069a4.18,4.18,0,1,1,4.18,4.18A4.18,4.18,0,0,1,729.3,1069Z" transform="translate(0 33.89)"/><circle class="cls-12" cx="1144.54" cy="1597.42" r="4.18"/><circle class="cls-12" cx="1005.11" cy="1800.79" r="4.18"/><path class="cls-1" d="M658.48,400a4.18,4.18,0,1,1,4.18,4.18A4.18,4.18,0,0,1,658.48,400Z" transform="translate(0 33.89)"/><path class="cls-12" d="M866.74,1282.8a4.18,4.18,0,1,1,4.18,4.18A4.18,4.18,0,0,1,866.74,1282.8Z" transform="translate(0 33.89)"/><path class="cls-12" d="M2829.67,316.53a4.18,4.18,0,1,1,4.18,4.17A4.18,4.18,0,0,1,2829.67,316.53Z" transform="translate(0 33.89)"/><path class="cls-12" d="M2178.38,157.54a4.18,4.18,0,1,1,4.18,4.18A4.18,4.18,0,0,1,2178.38,157.54Z" transform="translate(0 33.89)"/><path class="cls-10" d="M1881.72,33.38a4.18,4.18,0,1,1,4.18,4.18A4.18,4.18,0,0,1,1881.72,33.38Z" transform="translate(0 33.89)"/><path class="cls-10" d="M2108.71,209.53a4.18,4.18,0,1,1,4.18,4.18A4.18,4.18,0,0,1,2108.71,209.53Z" transform="translate(0 33.89)"/><path class="cls-12" d="M2416.64,240a4.18,4.18,0,1,1,4.18,4.18A4.18,4.18,0,0,1,2416.64,240Z" transform="translate(0 33.89)"/><path class="cls-12" d="M527,524.55a4.18,4.18,0,1,1,4.18,4.18A4.18,4.18,0,0,1,527,524.55Z" transform="translate(0 33.89)"/><path class="cls-12" d="M3117.26,1149a4.18,4.18,0,1,1,4.18,4.18A4.18,4.18,0,0,1,3117.26,1149Z" transform="translate(0 33.89)"/><path class="cls-10" d="M2976.85,235.34a4.18,4.18,0,1,1,4.18,4.17A4.18,4.18,0,0,1,2976.85,235.34Z" transform="translate(0 33.89)"/><circle class="cls-12" cx="2030.48" cy="1565.14" r="4.18"/><path class="cls-12" d="M2932.69,1716.73a4.18,4.18,0,1,1,4.18,4.18A4.18,4.18,0,0,1,2932.69,1716.73Z" transform="translate(0 33.89)"/><path class="cls-4" d="M2846.23,1141.08a4.18,4.18,0,1,1,4.18,4.17A4.18,4.18,0,0,1,2846.23,1141.08Z" transform="translate(0 33.89)"/><path class="cls-10" d="M1682.05,231.8a4.18,4.18,0,1,1,4.18,4.18A4.18,4.18,0,0,1,1682.05,231.8Z" transform="translate(0 33.89)"/><path class="cls-12" d="M1611.53,516.37a4.18,4.18,0,1,1,4.18,4.18A4.18,4.18,0,0,1,1611.53,516.37Z" transform="translate(0 33.89)"/><path class="cls-10" d="M1074.77,437.8A4.18,4.18,0,1,1,1079,442,4.18,4.18,0,0,1,1074.77,437.8Z" transform="translate(0 33.89)"/><path class="cls-10" d="M2749.34,1249.73a4.18,4.18,0,1,1,4.18,4.18A4.18,4.18,0,0,1,2749.34,1249.73Z" transform="translate(0 33.89)"/><path class="cls-4" d="M1842.37,177a4.18,4.18,0,1,1,4.18,4.17A4.18,4.18,0,0,1,1842.37,177Z" transform="translate(0 33.89)"/><path class="cls-12" d="M1458.45,582a4.18,4.18,0,1,1,4.18,4.17A4.18,4.18,0,0,1,1458.45,582Z" transform="translate(0 33.89)"/><path class="cls-12" d="M2599.1,1789.39a4.18,4.18,0,1,1,4.18,4.17A4.18,4.18,0,0,1,2599.1,1789.39Z" transform="translate(0 33.89)"/><circle class="cls-12" cx="1386.26" cy="516.15" r="4.18"/><path class="cls-12" d="M1082.54,583.52a4.18,4.18,0,1,1,4.18,4.18A4.18,4.18,0,0,1,1082.54,583.52Z" transform="translate(0 33.89)"/><path class="cls-12" d="M1496,338.78a4.18,4.18,0,1,1,4.18,4.18A4.18,4.18,0,0,1,1496,338.78Z" transform="translate(0 33.89)"/><path class="cls-12" d="M1014.17,425.25a4.18,4.18,0,1,1,4.18,4.18A4.18,4.18,0,0,1,1014.17,425.25Z" transform="translate(0 33.89)"/><path class="cls-7" d="M2466.16,302.86a6.29,6.29,0,1,1-6.29-6.28A6.29,6.29,0,0,1,2466.16,302.86Z" transform="translate(0 33.89)"/><path class="cls-12" d="M1765.13,57.79a6.29,6.29,0,1,1-6.29-6.29A6.29,6.29,0,0,1,1765.13,57.79Z" transform="translate(0 33.89)"/><path class="cls-13" d="M2361.75,1570.79a6.29,6.29,0,1,1-6.29-6.29A6.29,6.29,0,0,1,2361.75,1570.79Z" transform="translate(0 33.89)"/><path class="cls-10" d="M1415.34,1760.2a14.26,14.26,0,1,1-14.26-14.25A14.27,14.27,0,0,1,1415.34,1760.2Z" transform="translate(0 33.89)"/><circle class="cls-13" cx="2826.78" cy="1564.02" r="51.64" transform="translate(-394.76 1839.88) rotate(-33.25)"/><ellipse class="cls-4" cx="2826.78" cy="1564.02" rx="24.67" ry="101.77" transform="translate(714.27 4042.11) rotate(-78.12)"/><path class="cls-13" d="M2824.2,1576.28c-27.8-5.85-49.19-16-48-22.8a51.65,51.65,0,1,1,101.09,21.23C2875.77,1581.43,2852,1582.13,2824.2,1576.28Z" transform="translate(0 33.89)"/><circle class="cls-1" cx="3016.47" cy="809.63" r="74.96" transform="translate(1735.89 3692.15) rotate(-80.82)"/><path class="cls-12" d="M2251.22,1425.27A14.26,14.26,0,1,1,2237,1411,14.26,14.26,0,0,1,2251.22,1425.27Z" transform="translate(0 33.89)"/><circle class="cls-10" cx="2549.74" cy="654.92" r="31.21"/><path class="cls-10" d="M2542.81,1714.48a31.22,31.22,0,1,1-31.22-31.21A31.22,31.22,0,0,1,2542.81,1714.48Z" transform="translate(0 33.89)"/><circle class="cls-12" cx="3012.05" cy="127.91" r="31.21" transform="translate(2252.89 3079.41) rotate(-77.85)"/><circle class="cls-13" cx="2069.25" cy="607.85" r="15.32"/><path class="cls-10" d="M960.24,1580a19,19,0,1,1-19-19A19,19,0,0,1,960.24,1580Z" transform="translate(0 33.89)"/><circle class="cls-4" cx="2593.17" cy="270.01" r="50.64"/><path class="cls-11" d="M2264,492a78.74,78.74,0,0,1,0-157.47c1.82,0,3.6.15,5.38.27a99.39,99.39,0,1,0,7.91,156A78.66,78.66,0,0,1,2264,492Z" transform="translate(0 33.89)"/><path class="cls-4" d="M1907.32,1087.67a12.58,12.58,0,1,1-12.58-12.57A12.57,12.57,0,0,1,1907.32,1087.67Z" transform="translate(0 33.89)"/><path class="cls-12" d="M2222.74,924a14.25,14.25,0,1,1-14.25-14.25A14.25,14.25,0,0,1,2222.74,924Z" transform="translate(0 33.89)"/><circle class="cls-10" cx="1305.38" cy="350.52" r="58.99"/><circle class="cls-13" cx="2704.96" cy="835.16" r="41.79"/><path class="cls-13" d="M1581.94,373.94c28.77-3.23,36.79-35.29,38.49-67.78a1.15,1.15,0,0,1,1.15-1h0a1.15,1.15,0,0,1,1.16,1c1.56,28.65,6.79,60.71,38.5,67.78a.87.87,0,0,1,0,1.7c-30.67,6.22-36.24,37.23-38.49,67.79a1.15,1.15,0,0,1-1.16,1h0a1.14,1.14,0,0,1-1.15-1c-.67-27.42-7.29-61.23-38.5-67.79A.87.87,0,0,1,1581.94,373.94Z" transform="translate(0 33.89)"/><path class="cls-13" d="M2257.15,1733.31c19-2.13,24.24-23.26,25.36-44.67a.76.76,0,0,1,.76-.68h0a.76.76,0,0,1,.77.68c1,18.89,4.47,40,25.37,44.67a.58.58,0,0,1,0,1.12c-20.21,4.1-23.89,24.54-25.37,44.68a.76.76,0,0,1-.76.68h0a.76.76,0,0,1-.76-.68c-.44-18.08-4.8-40.35-25.37-44.68A.57.57,0,0,1,2257.15,1733.31Z" transform="translate(0 33.89)"/><path class="cls-10" d="M1512.7,1603.55c19-2.14,24.25-23.27,25.37-44.68a.76.76,0,0,1,.76-.68h0a.75.75,0,0,1,.76.68c1,18.89,4.48,40,25.37,44.68a.57.57,0,0,1,0,1.11c-20.21,4.1-23.88,24.54-25.36,44.68a.76.76,0,0,1-.76.68h0a.76.76,0,0,1-.77-.68c-.43-18.08-4.8-40.35-25.37-44.68C1512.11,1604.54,1512.11,1603.61,1512.7,1603.55Z" transform="translate(0 33.89)"/><path class="cls-10" d="M2109.21,1238c17.06-1.92,21.81-20.92,22.81-40.18a.7.7,0,0,1,.69-.62h0a.7.7,0,0,1,.69.62c.92,17,4,36,22.81,40.18a.51.51,0,0,1,0,1c-18.17,3.68-21.48,22.06-22.81,40.18a.69.69,0,0,1-.69.61h0a.68.68,0,0,1-.68-.61c-.39-16.26-4.32-36.29-22.82-40.18A.51.51,0,0,1,2109.21,1238Z" transform="translate(0 33.89)"/><path class="cls-4" d="M2382.61,1396c48.69-3.59,62.26-39.15,65.14-75.19.1-.66.94-1.15,1.95-1.15h0c1,0,1.86.49,2,1.15,2.64,31.79,11.49,67.35,65.15,75.19,1.51.22,1.51,1.68,0,1.89-51.89,6.89-61.33,41.29-65.14,75.19-.1.66-.94,1.15-2,1.15h0c-1,0-1.86-.49-2-1.15-1.12-30.42-12.33-67.92-65.15-75.19C2381.1,1397.71,2381.08,1396.14,2382.61,1396Z" transform="translate(0 33.89)"/><path class="cls-1" d="M2851.67,1175.46c37-2.73,47.26-29.72,49.45-57.08.07-.5.71-.88,1.48-.88h0c.77,0,1.41.38,1.49.88,2,24.13,8.72,51.12,49.45,57.08,1.15.17,1.15,1.28,0,1.43-39.39,5.23-46.55,31.34-49.44,57.08-.08.5-.72.87-1.49.87h0c-.77,0-1.41-.37-1.48-.87-.86-23.1-9.36-51.56-49.46-57.08C2850.52,1176.73,2850.51,1175.55,2851.67,1175.46Z" transform="translate(0 33.89)"/><path class="cls-11" d="M1956.77,111.29c37-2.72,47.26-29.72,49.45-57.08.07-.5.71-.87,1.48-.87h0c.77,0,1.41.37,1.49.87,2,24.13,8.72,51.13,49.45,57.08,1.15.17,1.15,1.28,0,1.43-39.39,5.23-46.55,31.35-49.45,57.08-.07.5-.71.88-1.48.88h0c-.77,0-1.41-.38-1.49-.88-.85-23.09-9.35-51.55-49.45-57.08C1955.62,112.57,1955.6,111.38,1956.77,111.29Z" transform="translate(0 33.89)"/><path class="cls-11" d="M887.06,1418.42c29.87-2.2,38.18-24,40-46.12.06-.41.58-.71,1.2-.71h0c.62,0,1.14.3,1.2.71,1.62,19.5,7.05,41.31,40,46.12.93.13.93,1,0,1.15-31.83,4.23-37.61,25.33-40,46.12-.06.41-.58.71-1.2.71h0c-.62,0-1.14-.3-1.2-.71-.69-18.66-7.56-41.65-40-46.12C886.13,1419.45,886.12,1418.49,887.06,1418.42Z" transform="translate(0 33.89)"/><path class="cls-12" d="M2651.56,1011.75c25-1.85,31.92-20.08,33.4-38.55.05-.34.48-.59,1-.59h0c.52,0,.95.25,1,.59,1.36,16.29,5.89,34.52,33.4,38.55.77.11.78.86,0,1-26.6,3.53-31.44,21.17-33.39,38.55,0,.34-.49.59-1,.59h0c-.52,0-1-.25-1-.59-.57-15.6-6.32-34.82-33.4-38.55C2650.79,1012.6,2650.78,1011.8,2651.56,1011.75Z" transform="translate(0 33.89)"/><path class="cls-12" d="M880.45,471.5c22.6-1.67,28.9-18.17,30.23-34.9.05-.3.44-.53.91-.53h0c.47,0,.86.23.91.53,1.22,14.75,5.33,31.26,30.23,34.9.7.1.7.78,0,.87-24.08,3.2-28.46,19.16-30.23,34.89,0,.31-.43.54-.9.54h0c-.47,0-.87-.23-.91-.54-.52-14.11-5.72-31.51-30.24-34.89C879.75,472.27,879.74,471.55,880.45,471.5Z" transform="translate(0 33.89)"/><path class="cls-4" d="M2249.39,839.23c11.33-1.28,14.49-13.91,15.16-26.7a.45.45,0,0,1,.46-.41h0a.45.45,0,0,1,.45.41c.62,11.29,2.67,23.91,15.16,26.7a.34.34,0,0,1,0,.67c-12.07,2.44-14.27,14.66-15.16,26.69a.45.45,0,0,1-.45.41h0a.46.46,0,0,1-.46-.41c-.26-10.8-2.87-24.11-15.16-26.69C2249,839.82,2249,839.27,2249.39,839.23Z" transform="translate(0 33.89)"/><path class="cls-4" d="M790.32,362.25c11.33-1.28,14.49-13.9,15.16-26.7a.46.46,0,0,1,.46-.41h0a.46.46,0,0,1,.45.41c.62,11.29,2.68,23.91,15.16,26.7a.34.34,0,0,1,0,.67c-12.07,2.44-14.27,14.66-15.16,26.7a.45.45,0,0,1-.45.41h0a.46.46,0,0,1-.46-.41c-.26-10.81-2.86-24.12-15.16-26.7C790,362.84,790,362.29,790.32,362.25Z" transform="translate(0 33.89)"/><path class="cls-10" d="M1282.88,714.75c11.33-1.27,14.49-13.9,15.16-26.69a.45.45,0,0,1,.45-.41h0a.46.46,0,0,1,.46.41c.61,11.28,2.67,23.91,15.16,26.69a.35.35,0,0,1,0,.67c-12.08,2.45-14.27,14.66-15.16,26.7a.46.46,0,0,1-.46.41h0a.46.46,0,0,1-.45-.41c-.26-10.8-2.87-24.11-15.16-26.7C1282.53,715.35,1282.52,714.79,1282.88,714.75Z" transform="translate(0 33.89)"/><path class="cls-10" d="M2364.22,392.05c11.33-1.27,14.49-13.9,15.16-26.69a.45.45,0,0,1,.45-.41h0a.46.46,0,0,1,.46.41c.61,11.28,2.67,23.91,15.16,26.69a.35.35,0,0,1,0,.67c-12.08,2.45-14.27,14.66-15.16,26.7a.45.45,0,0,1-.46.41h0a.45.45,0,0,1-.45-.41c-.26-10.8-2.87-24.11-15.16-26.7C2363.87,392.65,2363.86,392.09,2364.22,392.05Z" transform="translate(0 33.89)"/><path class="cls-4" d="M2820.32,1324c11.33-1.27,14.48-13.9,15.16-26.69a.44.44,0,0,1,.45-.41h0a.46.46,0,0,1,.46.41c.61,11.28,2.67,23.91,15.16,26.69a.35.35,0,0,1,0,.67c-12.08,2.45-14.28,14.66-15.16,26.7a.45.45,0,0,1-.46.41h0a.45.45,0,0,1-.45-.41c-.26-10.8-2.87-24.11-15.16-26.7A.34.34,0,0,1,2820.32,1324Z" transform="translate(0 33.89)"/><path class="cls-1" d="M1188.29,445.81c16.88-1.27,21.59-13.9,22.58-26.69,0-.24.33-.41.68-.41h0c.35,0,.65.17.68.41.92,11.28,4,23.91,22.59,26.69.52.08.53.6,0,.67-18,2.45-21.26,14.66-22.59,26.7,0,.23-.32.41-.67.41h0c-.35,0-.65-.18-.68-.41-.39-10.8-4.28-24.11-22.59-26.7C1187.76,446.41,1187.75,445.85,1188.29,445.81Z" transform="translate(0 33.89)"/><path class="cls-15" d="M1607.74,1685.94c11.33-1.28,14.49-13.91,15.16-26.7a.46.46,0,0,1,.46-.41h0a.45.45,0,0,1,.45.41c.62,11.29,2.68,23.91,15.17,26.7a.34.34,0,0,1,0,.66c-12.08,2.45-14.28,14.67-15.16,26.7a.46.46,0,0,1-.46.41h0a.46.46,0,0,1-.46-.41c-.26-10.8-2.86-24.11-15.16-26.7A.34.34,0,0,1,1607.74,1685.94Z" transform="translate(0 33.89)"/><path class="cls-15" d="M872.51,1135.49c11.33-1.28,14.49-13.9,15.16-26.7a.46.46,0,0,1,.46-.41h0a.46.46,0,0,1,.45.41c.62,11.29,2.67,23.91,15.16,26.7a.34.34,0,0,1,0,.67c-12.07,2.44-14.27,14.66-15.16,26.7a.45.45,0,0,1-.45.4h0a.46.46,0,0,1-.46-.4c-.26-10.81-2.87-24.12-15.16-26.7C872.16,1136.08,872.15,1135.53,872.51,1135.49Z" transform="translate(0 33.89)"/><path class="cls-13" d="M1702.23,1013.49c11.33-1.28,14.49-13.9,15.16-26.7a.46.46,0,0,1,.45-.41h0a.46.46,0,0,1,.46.41c.61,11.29,2.67,23.91,15.16,26.7a.35.35,0,0,1,0,.67c-12.08,2.45-14.27,14.66-15.16,26.7a.46.46,0,0,1-.45.41h0a.46.46,0,0,1-.46-.41c-.26-10.8-2.87-24.12-15.16-26.7C1701.88,1014.09,1701.87,1013.53,1702.23,1013.49Z" transform="translate(0 33.89)"/><path class="cls-12" d="M1997.65,1078c22.77-2.57,29.11-27.93,30.46-53.64a.91.91,0,0,1,.91-.83h0a.92.92,0,0,1,.92.83c1.23,22.67,5.37,48,30.46,53.64a.69.69,0,0,1,0,1.34c-24.27,4.92-28.68,29.46-30.46,53.64a.91.91,0,0,1-.91.82h0a.91.91,0,0,1-.92-.82c-.52-21.7-5.76-48.45-30.46-53.64C1996.94,1079.18,1996.93,1078.07,1997.65,1078Z" transform="translate(0 33.89)"/><path class="cls-13" d="M3015.25,543.47c-47.33-41.83-85-59.22-187.53-60,41.7-6.7,124-29.36,197.7,3.38-8.64,1-20.89,3-29.64,4,29.11,12.37,50.12,29,63.32,43.13a166.4,166.4,0,0,0-45.9-12.85A205.2,205.2,0,0,1,3015.25,543.47Z" transform="translate(0 33.89)"/><circle class="cls-12" cx="1834.16" cy="810.81" r="82.02" transform="translate(312.83 2151.25) rotate(-64.51)"/><path class="cls-13" d="M1682.9,867.75c7.62,20.25,81.52,11.17,165.06-20.27s145.08-73.37,137.46-93.62-81.53-11.17-165.07,20.28S1675.27,847.5,1682.9,867.75Z" transform="translate(0 33.89)"/><path class="cls-12" d="M1841.16,829.42c42.22-15.89,73.35-37,69.81-47.38a82,82,0,1,0-153.55,57.76C1761.46,850,1798.88,845.34,1841.16,829.42Z" transform="translate(0 33.89)"/><path class="cls-4" d="M2348.2,999.71a35.83,35.83,0,1,0,44.43-24.36A35.83,35.83,0,0,0,2348.2,999.71Z" transform="translate(0 33.89)"/><path class="cls-1" d="M2441.55,1048.6c-5.2,7.89-32.44,2.12-69.74-22.47s-53.38-47.34-48.18-55.23,32.45-2.1,69.76,22.48S2446.76,1040.71,2441.55,1048.6Z" transform="translate(0 33.89)"/><path class="cls-4" d="M2377.81,1017c-16.46-10.85-27.68-22.86-25.17-26.92a35.83,35.83,0,1,1,59.86,39.41C2409.79,1033.44,2394.3,1027.87,2377.81,1017Z" transform="translate(0 33.89)"/><circle class="cls-12" cx="1225.95" cy="1686" r="56.46" transform="translate(-696.61 2525.68) rotate(-76.72)"/><path class="cls-4" d="M2849.32,1831.71a4.18,4.18,0,1,1,4.17,4.18A4.18,4.18,0,0,1,2849.32,1831.71Z" transform="translate(0 33.89)"/><path class="cls-4" d="M1331.92,891.7c52.45-31.82,123.9-14.77,146.36,20.81-7.47-15.59-20-28.89-39.34-40.26A128.26,128.26,0,0,0,1403,858.49c-41.25-10.58-85.07-5.19-136.79-10.31-4.52,57-45.65,122.63-52,184.89,4.84-.12,9.75-.28,14.79-.52C1251.11,986.87,1277,925,1331.92,891.7Z" transform="translate(0 33.89)"/></svg>