<?xml version="1.0" encoding="utf-8"?>
<!-- Generator: Adobe Illustrator 25.2.3, SVG Export Plug-In . SVG Version: 6.00 Build 0)  -->
<svg version="1.1" id="Layer_1" xmlns="http://www.w3.org/2000/svg" xmlns:xlink="http://www.w3.org/1999/xlink" x="0px" y="0px"
	 viewBox="0 0 2434.7 1684.5" style="enable-background:new 0 0 2434.7 1684.5;" xml:space="preserve">
<style type="text/css">
	.st0{fill:#240E54;}
	.st1{fill:#0C1135;}
	.st2{fill:#8927D4;}
	.st3{fill:#5F70FA;}
	.st4{fill:#FFFFFF;}
	.st5{fill:#EB3834;}
	.st6{fill:#FF5653;}
	.st7{fill:#FF6C5C;}
	.st8{fill:#F54743;}
	.st9{fill:#FFB033;}
	.st10{fill:#FFB2C6;}
	.st11{fill:#85DEFF;}
	.st12{fill:#F74945;}
	.st13{fill:#FFD22F;}
	.st14{fill:#F74944;}
</style>
<path class="st0" d="M0-1.3c184.8,1.5,317.6,47.7,411.8,98.9c72.3,39.3,105.6,96.4,201.9,123.3c72.4,20.2,139.7,16.6,233.7,11.6
	c76.2-4.1,134-13.2,191.9-22.5c176.1-28.3,198.2-50,280.8-41.2c40.5,4.3,99.9,10.6,160.8,48.4c55.5,34.4,73,62.4,152.5,117.4
	c19.6,13.6,44,26.7,77.9,39.1c81.5,29.9,102.8,38.1,273.4,57.9c100.1,11.6,156.8,51.6,190.4,94.9c51.1,66-17.6,154.5-69.6,99.8
	c0,0-19.2,256.9-38.8,350.1c-25.2,120.1-94,63.6-139.8,116c-40.2,45.9,29.1,142,3.8,228.2c-29.4,100.3-85,109.5-101.4,151.5
	c-4.9,12.7-4.6,23.5-4.7,26.5c-1.7,59.9,57.6,80.8,64.8,144.3c1,8.8,1.5,23.2-3.1,41.6c-632.2-0.1-1264.3-0.1-1896.5-0.2
	C-6.7,1122.4-3.4,560.6,0-1.3z"/>
<path class="st1" d="M-128.4,1772.4"/>
<path class="st1" d="M132.2,1967.3"/>
<path class="st1" d="M-146,1779.8"/>
<ellipse class="st2" cx="100.6" cy="1270" rx="79.5" ry="79.5"/>
<path class="st3" d="M158.7,1663.3c0,11.8,9.6,21.4,21.4,21.4c11.8,0,21.4-9.6,21.4-21.4s-9.6-21.4-21.4-21.4
	S158.7,1651.5,158.7,1663.3L158.7,1663.3z"/>
<circle class="st2" cx="1305.3" cy="1637.2" r="39"/>
<path class="st1" d="M1795.2,47.6"/>
<path class="st4" d="M2204.4,480.8c96.6,62.8,96.9,122.5,133.2,154.8s74.3,44.4,87.4,45.4s13.1,23.2-2,27.2s-41.2,1.6-75.5,49
	s-23.4,66-81.9,121.5s-61.1,47.3-89.8,85.8c-34.8,46.7-33.9,56.6-35.6,66.8c-1.9,11.1-22,12.2-24-0.9s-17-39.6-62.4-63.8
	c-45.4-24.2-95.8-33.3-138.2-71.6s-117.7-168.8-153.3-206c-26.9-28-56.9-34.2-68.6-36.9c-5.9-1.4-9.2-18.7-1.1-21.7
	s59.6,2.1,107-63.5s88.6-116.1,122.6-143.3c22.8-18.3,31.9-43.9,41.9-75.6c3.1-10,19.8-7.2,24.2,0
	C2026.8,411.1,2115.9,423.2,2204.4,480.8z"/>
<path class="st5" d="M1185,1168.1c3.4-6.8,10.5-20.7,27.7-26.6s42.4-16.3,61.3-34s15.3-28.7,37.6-38.3c13.9-6,26.9,5.2,36.5,19.2
	c10.4,15.2,29.2,22.7,95,22.4c60.2-0.2,87.8-20.2,120.9,2.1c9.8,6.6-47.8-28-109-83.2c-49.5-44.6-59.3-97.5-29.2-132.6
	c22-25.7,67.6-43.3,113-17.3c64,36.6,201.8,193.5,248.8,277.6c26,46.4-18.9,82.6-60.4,74.9c-48.6-9-297.2-59.9-336.5-69.9
	c-59.7-15.2-63.2-4-103.4,3.8c-30.1,5.8-42.6,2.4-55.7,2.8s-28,8.6-34.1,11.4c-3.7,1.7-7.4,2.3-10.9,0.3
	C1180.6,1177,1182.9,1172.4,1185,1168.1z"/>
<path class="st6" d="M1680.4,831.7c41.8-21.1,66-33.5,101.6-84.3c22.5-32.1,36.6-50.9,57.2-62.4c33.2-18.4,47.9-13.6,71.4-18.1
	c15.2-2.9,21.3-2.3,46.6-25.1c6.5-5.7,12-12.5,16.4-20c10.8,1.7,22.5-0.1,34.4-7.6c11.7-7.4,8.9-15.3,27.3-14.2
	c13,0.8,15.1,15.3,24.7,28.7c8.9,12.5,22.2,11.4,32.8,6.8c14.2-6,21.3-12.4,33.3-2.5c3.4,2.8,5.8,6.5,8.1,10.4
	c-1.2,0.8-2.6,1.9-4.4,3.4c-12.7,10.3-21.2,29.1-18.9,41.9c1.5,8.2-5.5,12.7-10.9,9.7c-4.3-2.4-10.4-8.5-15.5-2.7
	c-4.6,5.2,1.4,9.2-4,13.1c-5.9,4.3-8.2-5.5-13.9-1.5c-4.8,3.3,3.8,7.5-2.4,12.6c-5.1,4.1-9.1-2.3-13.3,0.3
	c-7.2,4.5-5.1,12.4-16.4,13.1c-9.9,0.6-23.4-18.4-30.9-25.7c-5.6-5.5-14.4-9-19.5-5.6c-21.3,14.3-43,25.9-44.9,69.9
	c-0.7,16.9-6.4,30-5.7,67.9c0.6,29.5,7.1,70-12.8,86.2c-38.1,30.9-85.5,7.7-107.3,20.1c-87.9,50-133.7,62.6-213.7,57.2
	c-21-41.9-156.2-76.1-150.9-124.5C1511.8,845.7,1577.7,883.6,1680.4,831.7z"/>
<path class="st7" d="M1449.1,878.6c62.6-32.9,128.6,4.9,231.3-47c20.5-10.3,36.7-18.6,52.1-30.3c9.2,24,21.6,46.7,36.7,67.5
	c10.3,15.5,31,25.8,46.5,31c31,5.2,67.1,0,67.1-31c9-67.1,6.2-134.3-4.7-198c10.9-1.7,20.6-1.6,32.4-3.9
	c15.2-2.9,21.3-2.3,46.6-25.1c6.5-5.7,12-12.5,16.4-20c10.8,1.7,22.5-0.1,34.4-7.6c11.7-7.4,8.9-15.3,27.3-14.2
	c13,0.8,15.1,15.3,24.7,28.7c8.9,12.5,22.2,11.4,32.8,6.8c14.2-6,21.3-12.4,33.3-2.5c3.4,2.8,5.8,6.5,8.1,10.4
	c-1.2,0.8-2.6,1.9-4.4,3.4c-12.7,10.3-21.2,29.1-18.9,41.9c1.5,8.2-5.5,12.7-10.9,9.7c-4.3-2.4-10.4-8.5-15.5-2.7
	c-4.6,5.2,1.4,9.2-4,13.1c-5.9,4.4-8.2-5.5-13.9-1.5c-4.8,3.3,3.8,7.5-2.4,12.6c-5.1,4.1-9.1-2.3-13.3,0.3
	c-7.2,4.5-5.1,12.4-16.4,13.1c-9.9,0.6-23.4-18.4-30.9-25.7c-5.6-5.5-14.4-9-19.5-5.6c-21.3,14.3-43,25.9-44.9,69.9
	c-0.7,16.9-6.4,30-5.7,67.9c0.6,29.5,7.1,70-12.8,86.2c-38.1,30.9-85.5,7.7-107.3,20.1c-87.9,50-133.7,62.6-213.7,57.2
	C1579.1,961.3,1443.9,927.1,1449.1,878.6z"/>
<path class="st7" d="M1882.9,868.8c0,31-36.2,36.2-67.1,31c-15.5-5.2-36.2-15.5-46.5-31c-15.2-20.8-27.5-43.4-36.7-67.5
	c16.1-12.2,31.3-28.1,49.5-54c22.5-32.1,36.6-50.9,57.2-62.4c16.4-9.1,28.3-12.5,39-14.2C1889.2,734.5,1891.9,801.7,1882.9,868.8z"
	/>
<path class="st8" d="M1899.1,674.9c0-3.1-8.3-7-28.6-2.6c14.4-3.4,25.6-2.6,40.2-5.4c15.2-2.9,22.9,2.5,48.2-20.3
	c7.6-6.9,8.3-21.7,14.8-24.8c9.9-4.7,22.5-0.1,34.4-7.6c11.7-7.4,8.9-15.3,27.3-14.2c13,0.8,15.1,15.3,24.7,28.7
	c8.9,12.5,22.2,11.4,32.8,6.8c14.2-6,21.3-12.4,33.3-2.5c3.4,2.8,5.8,6.5,8.1,10.4c-1.2,0.8-2.6,1.9-4.4,3.4
	c-12.7,10.3-21.2,29.1-18.9,41.9c1.5,8.2-5.5,12.7-10.9,9.7c-4.3-2.4-10.4-8.5-15.5-2.7c-4.6,5.2,1.4,9.2-4,13.1
	c-5.9,4.4-8.2-5.5-13.9-1.5c-4.8,3.3,3.8,7.5-2.4,12.6c-5.1,4.1-9.1-2.3-13.3,0.3c-7.2,4.5-5.1,12.4-16.4,13.1
	c-9.9,0.6-23.4-18.4-30.9-25.7c-5.6-5.5-14.4-9-19.5-5.6c-20.8,14-41.8,25.4-44.6,66.7C1918.5,741.1,1909.1,711.6,1899.1,674.9z"/>
<path class="st6" d="M2032.1,682.3c10.8,3.9,22.7-1.7,26.6-12.5s-1.7-22.7-12.5-26.6c-10.8-3.9-22.7,1.7-26.6,12.5l0,0l0,0
	C2015.7,666.5,2021.3,678.4,2032.1,682.3L2032.1,682.3L2032.1,682.3L2032.1,682.3z"/>
<path class="st9" d="M1895.3,833.1C1895.2,832,1895.6,832.1,1895.3,833.1z"/>
<path class="st9" d="M1680.4,831.7c41.8-21.1,66-33.5,101.6-84.3c22.1-31.5,36.2-50.3,56.2-61.8c-32,27.5-37,100-10,135.5
	c17.4,23,35,22.2,51.9,19.4c11.8-1.9,14.7-5.7,15.2-7.4c0.1,1.8,1.2,6.6,7.2,17.1c5.6,9.7,10.2,56.3,9,82.2
	c-36.2,20.8-77.7,2.2-97.8,13.6c-45,25.6-79,41.4-112.2,49.9c-0.1-39-74-87.9-94-139.3C1632.9,851.9,1657.5,843.4,1680.4,831.7z"/>
<path class="st7" d="M1085.2,1413c-2.8-13-0.7-26.5,5.9-38c18.1-31.9,34.4-20.9,60.2-49.2c17.4-19.2,19.2-40,36.2-47.1
	c15.3-6.4,24.8-1.2,44.8,16.7c13.8,12.3,33.7,19,95.5-4c73.1-27.2,91.8-62.5,152.8-76c21-4.6,58.6,0.3,71.9,2.8
	c6,1.1,9.9-3.1,5.7-9.4c-5.5-8.1-8.7-12.1-17.5-24.8c-23.2-33.6-79.9-99.2-114.9-173.8c-28.3-60.3-22.8-104.2,23.5-131.5
	c29.2-17.2,79.2-20.4,110.9,21.2c44.8,58.5,103.4,261.3,114,307.9c16.1,71.5-30.9,103.6-72.9,108.2s-292.4,33.2-332.9,36.4
	c-49.9,4-49.1,17.4-99.1,28.2c-21.9,4.7-38.7,2.1-48.8,10.3s-14.7,18.4-17.8,24.4c-1.9,3.6-4.5,6.4-8.5,6.8
	C1087.1,1422.8,1086.1,1417.8,1085.2,1413z"/>
<path class="st7" d="M1878.5,671c33.2-5.4,55.4,19.4,59,56.9c3.2,33.3,7.8,158,8.8,185.5c0,1.5,1.3,2.7,2.8,2.7l0,0l0,0
	c0.6,0,1.2-0.2,1.6-0.6c21.2-16.3,114.1-88.1,120.2-97.1c6.9-10.2,21.3-24.3,31.2-33.5s20.6-16.7,27.3-25.9s11.8-22.8,15-30.2
	s11.2-3.5,10.5,4.3s-6.1,21.6-8.6,27.3c-0.9,2-2.7,8.9-1.1,10.3c1.2,1,6.5-2.6,8.1-4.2c11.2-11.1,26.5-19.3,34.5-24
	s20.9-11,29.4-15.4s11.3,5.2,6.1,9c-3.6,2.6-12.1,9.6-21.1,15.2s-22.8,16.5-23.8,20.2c-1.1,4,18.7-5.5,30.4-10.3
	c9.5-4,19.3-7.4,29.2-10c6.9-1.6,8.7,8.5,2.7,11.2s-13.8,7-28.1,12.2c-25.6,9.4-29.7,12.3-28.9,18c0.6,3.6,7.8,2.1,14.2,0.5
	s27.1-5.4,35.2-4.8s6.8,11-0.4,11.5s-26.4,4.7-37.6,8.5c-8.2,2.7-11.2,5.3-12.2,7.7c-0.9,2,4.3,1.3,12.2,0.7c7-0.6,17.7-2,25.1-0.3
	s4.1,11.1-2,10.8s-11.9,0.1-26.2,1.1s-20.5,8-40.9,13.1c-17.6,4.4-27.7,7.8-38.8,7s-20,4.1-33.1,19.3
	c-19.2,22.2-91.3,99.9-118.4,132.4c-8.1,9.8-25.7,25.8-46.9,21.4c-17-3.5-22.4-11.6-28.9-45.1c-6.6-34.6-39.8-203.5-43-233
	C1837.7,704.4,1846.5,676.1,1878.5,671z"/>
<path class="st0" d="M2134.4,643.4c-2.7-3.6-4.7-7.6-8.1-10.4c-12.1-9.9-19.2-3.6-33.3,2.5c-10.6,4.5-23.9,5.6-32.8-6.8
	c-9.6-13.3-14.2-26.5-27.2-25.6c-12.4,0.9-14.2,7.6-19.6,24.1c-5.7,17.4-16.5,31.1-34,36c-22.4,6.3-54.7,3-70,5
	c-23.2,3.1-38.2-0.9-70,16.8l-1,0.6l0,0c-17.5,10-30.4,25.6-48.2,50.5c-2.5,3.6-5.2,7.3-8,11.3c-6.7,9.5-13,17.7-19,24.8
	c-2.1,2.4-4.1,4.7-6.1,6.9l-186.6-88.2l167.6-300c40.2,40,111.2,17.7,184.8,12.3c34.3-2.5,68.2,0.8,108.8,46
	c41.4,46,108.6-0.5,150.9,48.4c33.1,38.2-1.5,66.4,17.6,81.9c20.4,16.5,30.6,47.3,8.3,71C2190.9,668.8,2157.2,673.8,2134.4,643.4z"
	/>
<circle class="st10" cx="1342.1" cy="709.4" r="21.1"/>
<path class="st3" d="M862.9,1358.3c0,16.3,13.2,29.5,29.5,29.5s29.5-13.2,29.5-29.5s-13.2-29.5-29.5-29.5
	C876.2,1328.8,862.9,1342,862.9,1358.3L862.9,1358.3z"/>
<circle class="st9" cx="645.8" cy="1139.7" r="9.8"/>
<circle class="st11" cx="1754.6" cy="1380.8" r="9.8"/>
<path class="st6" d="M1185.5,1463.1c0,2.7,2.2,4.9,4.9,4.9s4.9-2.2,4.9-4.9s-2.2-4.9-4.9-4.9l0,0
	C1187.7,1458.2,1185.5,1460.4,1185.5,1463.1L1185.5,1463.1L1185.5,1463.1L1185.5,1463.1z"/>
<path class="st3" d="M709.6,1492.1c0,2.7,2.2,4.9,4.9,4.9s4.9-2.2,4.9-4.9c0-2.7-2.2-4.9-4.9-4.9l0,0
	C711.8,1487.2,709.6,1489.4,709.6,1492.1L709.6,1492.1z"/>
<path class="st6" d="M1704.8,1532c0,2.7,2.2,4.9,4.9,4.9s4.9-2.2,4.9-4.9s-2.2-4.9-4.9-4.9l0,0
	C1707,1527.1,1704.8,1529.2,1704.8,1532L1704.8,1532z"/>
<path class="st6" d="M237,929.7c0,2.7,2.2,4.9,4.9,4.9s4.9-2.2,4.9-4.9s-2.2-4.9-4.9-4.9S237,927,237,929.7L237,929.7z"/>
<path class="st10" d="M263.8,684c0,1.8,1.5,3.2,3.2,3.2s3.2-1.5,3.2-3.2s-1.5-3.2-3.2-3.2l0,0C265.3,680.8,263.8,682.2,263.8,684
	L263.8,684z"/>
<path class="st10" d="M144.2,475.1c0,1.8,1.5,3.2,3.2,3.2s3.2-1.5,3.2-3.2s-1.5-3.2-3.2-3.2l0,0l0,0
	C145.7,471.8,144.2,473.3,144.2,475.1L144.2,475.1L144.2,475.1z"/>
<path class="st9" d="M143.7,784.8c0,1.8,1.5,3.2,3.2,3.2s3.2-1.5,3.2-3.2s-1.5-3.2-3.2-3.2l0,0C145.2,781.5,143.8,783,143.7,784.8
	L143.7,784.8L143.7,784.8L143.7,784.8z"/>
<path class="st10" d="M371.9,738.6c0,1.8,1.5,3.2,3.2,3.2s3.2-1.5,3.2-3.2s-1.5-3.2-3.2-3.2l0,0
	C373.4,735.4,371.9,736.8,371.9,738.6z"/>
<path class="st10" d="M1151.2,711.3c0,1.8,1.5,3.2,3.2,3.2s3.2-1.5,3.2-3.2s-1.5-3.2-3.2-3.2l0,0l0,0
	C1152.6,708.1,1151.2,709.5,1151.2,711.3L1151.2,711.3L1151.2,711.3z"/>
<path class="st10" d="M213.9,1192.7c0,1.8,1.5,3.2,3.2,3.2s3.2-1.5,3.2-3.2s-1.5-3.2-3.2-3.2l0,0
	C215.4,1189.5,213.9,1190.9,213.9,1192.7L213.9,1192.7z"/>
<path class="st10" d="M368.4,346.4c0,1.8,1.5,3.2,3.2,3.2s3.2-1.5,3.2-3.2s-1.5-3.2-3.2-3.2l0,0
	C369.8,343.2,368.4,344.6,368.4,346.4L368.4,346.4L368.4,346.4z"/>
<path class="st12" d="M221.2,1559.3c0,1.8,1.5,3.2,3.2,3.2s3.2-1.5,3.2-3.2s-1.5-3.2-3.2-3.2l0,0
	C222.6,1556,221.2,1557.5,221.2,1559.3L221.2,1559.3z"/>
<path class="st10" d="M586.4,1401c0,1.8,1.5,3.2,3.2,3.2s3.2-1.5,3.2-3.2s-1.5-3.2-3.2-3.2C587.8,1397.8,586.4,1399.2,586.4,1401
	L586.4,1401z"/>
<path class="st12" d="M609.6,249.5c0,1.8,1.5,3.2,3.2,3.2s3.2-1.5,3.2-3.2s-1.5-3.2-3.2-3.2l0,0l0,0
	C611.1,246.2,609.6,247.7,609.6,249.5z"/>
<path class="st10" d="M698.9,715c0,1.8,1.5,3.2,3.2,3.2s3.2-1.5,3.2-3.2s-1.5-3.2-3.2-3.2l0,0l0,0
	C700.4,711.7,698.9,713.2,698.9,715L698.9,715L698.9,715z"/>
<path class="st10" d="M415,348.4c0,1.8,1.5,3.2,3.2,3.2s3.2-1.5,3.2-3.2s-1.5-3.2-3.2-3.2l0,0C416.5,345.1,415.1,346.6,415,348.4
	L415,348.4L415,348.4L415,348.4z"/>
<circle class="st9" cx="543.8" cy="836.8" r="3.2"/>
<path class="st10" d="M1061,954.8c0,1.8,1.5,3.2,3.2,3.2s3.2-1.5,3.2-3.2s-1.5-3.2-3.2-3.2l0,0l0,0
	C1062.5,951.6,1061,953,1061,954.8z"/>
<circle class="st10" cx="1001.9" cy="417.1" r="3.2"/>
<path class="st2" d="M1119.4,585.5c0,1.8,1.5,3.2,3.2,3.2s3.2-1.5,3.2-3.2s-1.5-3.2-3.2-3.2l0,0l0,0
	C1120.9,582.2,1119.5,583.7,1119.4,585.5L1119.4,585.5L1119.4,585.5z"/>
<path class="st10" d="M148.8,1428.8c0,1.8,1.5,3.2,3.2,3.2s3.2-1.5,3.2-3.2s-1.5-3.2-3.2-3.2l0,0
	C150.3,1425.5,148.8,1427,148.8,1428.8L148.8,1428.8z"/>
<path class="st10" d="M73.4,1666.5c0,1.8,1.5,3.2,3.2,3.2c1.8,0,3.2-1.5,3.2-3.2s-1.5-3.2-3.2-3.2
	C74.8,1663.3,73.4,1664.7,73.4,1666.5L73.4,1666.5z"/>
<path class="st10" d="M1330.6,812.3c0,1.8,1.5,3.2,3.2,3.2s3.2-1.5,3.2-3.2s-1.5-3.2-3.2-3.2C1332.1,809,1330.6,810.5,1330.6,812.3
	C1330.6,812.2,1330.6,812.3,1330.6,812.3z"/>
<path class="st10" d="M97.2,284.5c0,1.8,1.5,3.2,3.2,3.2s3.2-1.5,3.2-3.2s-1.5-3.2-3.2-3.2l0,0l0,0
	C98.7,281.2,97.2,282.7,97.2,284.5L97.2,284.5L97.2,284.5z"/>
<path class="st12" d="M857.5,1001.9c0,1.8,1.5,3.2,3.2,3.2s3.2-1.5,3.2-3.2s-1.5-3.2-3.2-3.2l0,0
	C859,998.7,857.5,1000.1,857.5,1001.9L857.5,1001.9L857.5,1001.9z"/>
<circle class="st10" cx="605.5" cy="1212.8" r="3.2"/>
<circle class="st10" cx="958" cy="1511" r="3.2"/>
<path class="st12" d="M1738.1,446.8c0,1.8,1.5,3.2,3.2,3.2s3.2-1.5,3.2-3.2s-1.5-3.2-3.2-3.2l0,0
	C1739.6,443.5,1738.1,445,1738.1,446.8L1738.1,446.8z"/>
<path class="st10" d="M766.4,1183.3c0,1.8,1.4,3.3,3.2,3.3s3.3-1.4,3.3-3.2c0-1.8-1.4-3.3-3.2-3.3c0,0,0,0-0.1,0
	C767.8,1180.1,766.4,1181.6,766.4,1183.3C766.3,1183.4,766.3,1183.4,766.4,1183.3L766.4,1183.3z"/>
<path class="st13" d="M1486.2,1470.6c0,1.8,1.5,3.2,3.2,3.2s3.2-1.5,3.2-3.2s-1.5-3.2-3.2-3.2l0,0
	C1487.7,1467.4,1486.2,1468.8,1486.2,1470.6L1486.2,1470.6z"/>
<path class="st10" d="M861.4,344.9c0,1.8,1.5,3.2,3.2,3.2s3.2-1.5,3.2-3.2s-1.5-3.2-3.2-3.2l0,0l0,0
	C862.8,341.6,861.4,343,861.4,344.9C861.4,344.8,861.4,344.8,861.4,344.9L861.4,344.9L861.4,344.9z"/>
<path class="st10" d="M1023.6,1640.7c0,1.8,1.5,3.2,3.2,3.2s3.2-1.5,3.2-3.2s-1.5-3.2-3.2-3.2l0,0
	C1025.1,1637.4,1023.6,1638.8,1023.6,1640.7C1023.6,1640.6,1023.6,1640.6,1023.6,1640.7z"/>
<path class="st10" d="M1742.2,1644.7c0,1.8,1.5,3.2,3.2,3.2s3.2-1.5,3.2-3.2s-1.5-3.2-3.2-3.2l0,0
	C1743.6,1641.4,1742.2,1642.8,1742.2,1644.7C1742.2,1644.6,1742.2,1644.6,1742.2,1644.7L1742.2,1644.7z"/>
<circle class="st3" cx="1354.8" cy="1004.5" r="3.2"/>
<circle class="st10" cx="1432.3" cy="705.8" r="3.2"/>
<path class="st2" d="M1580.2,661c0,1.8,1.5,3.2,3.2,3.2s3.2-1.5,3.2-3.2s-1.5-3.2-3.2-3.2l0,0l0,0
	C1581.7,657.8,1580.3,659.2,1580.2,661L1580.2,661z"/>
<path class="st12" d="M1159.9,476.1c0,1.8,1.5,3.2,3.2,3.2s3.2-1.5,3.2-3.2s-1.5-3.2-3.2-3.2l0,0l0,0
	C1161.4,472.8,1159.9,474.3,1159.9,476.1L1159.9,476.1L1159.9,476.1z"/>
<circle class="st10" cx="1468.4" cy="353.9" r="3.2"/>
<path class="st10" d="M1961.6,555.3c0,1.8,1.5,3.2,3.2,3.2s3.2-1.5,3.2-3.2s-1.5-3.2-3.2-3.2l0,0
	C1963.1,552.1,1961.6,553.5,1961.6,555.3L1961.6,555.3z"/>
<circle class="st12" cx="1498.7" cy="1397.4" r="3.2"/>
<path class="st3" d="M1200.6,1432.3c0,1.8,1.5,3.2,3.2,3.2s3.2-1.5,3.2-3.2s-1.5-3.2-3.2-3.2l0,0
	C1202.1,1429,1200.6,1430.5,1200.6,1432.3C1200.6,1432.2,1200.6,1432.3,1200.6,1432.3z"/>
<path class="st10" d="M1026.2,1290c0,1.8,1.5,3.2,3.2,3.2s3.2-1.5,3.2-3.2s-1.5-3.2-3.2-3.2l0,0l0,0
	C1027.7,1286.8,1026.2,1288.2,1026.2,1290L1026.2,1290L1026.2,1290z"/>
<path class="st3" d="M1114.1,1568.5c0,1.8,1.5,3.2,3.2,3.2s3.2-1.5,3.2-3.2s-1.5-3.2-3.2-3.2S1114.1,1566.7,1114.1,1568.5
	L1114.1,1568.5z"/>
<path class="st9" d="M1023.2,1183.8c1.8,0,3.2,1.5,3.2,3.2s-1.5,3.2-3.2,3.2c-1.8,0-3.2-1.5-3.2-3.2S1021.4,1183.8,1023.2,1183.8z"
	/>
<path class="st10" d="M1787.8,1045.3c0,1.8,1.5,3.2,3.2,3.2s3.2-1.5,3.2-3.2s-1.5-3.2-3.2-3.2l0,0
	C1789.2,1042.1,1787.8,1043.5,1787.8,1045.3L1787.8,1045.3L1787.8,1045.3z"/>
<path class="st11" d="M707.5,823.1c0-1.8-1.5-3.2-3.2-3.2s-3.2,1.5-3.2,3.2s1.5,3.2,3.2,3.2l0,0l0,0
	C706,826.4,707.5,824.9,707.5,823.1z"/>
<path class="st11" d="M811.3,1259.5c0-1.8-1.5-3.2-3.2-3.2s-3.2,1.5-3.2,3.2s1.5,3.2,3.2,3.2S811.3,1261.3,811.3,1259.5z"/>
<path class="st12" d="M977.4,1302.5c0-1.8-1.5-3.2-3.2-3.2s-3.2,1.5-3.2,3.2s1.5,3.2,3.2,3.2l0,0
	C976,1305.8,977.4,1304.3,977.4,1302.5z"/>
<circle class="st11" cx="781" cy="1059.9" r="3.2"/>
<path class="st12" d="M372,1140c0-1.8-1.5-3.2-3.2-3.2s-3.2,1.5-3.2,3.2s1.5,3.2,3.2,3.2l0,0l0,0C370.5,1143.2,372,1141.8,372,1140
	L372,1140z"/>
<path class="st11" d="M1121.2,522.3c0-1.8-1.5-3.2-3.2-3.2s-3.2,1.5-3.2,3.2s1.5,3.2,3.2,3.2l0,0
	C1119.7,525.6,1121.2,524.1,1121.2,522.3z"/>
<path class="st11" d="M1091.6,630.3c0-1.8-1.5-3.2-3.2-3.2s-3.2,1.5-3.2,3.2s1.5,3.2,3.2,3.2l0,0l0,0
	C1090.1,633.6,1091.6,632.1,1091.6,630.3z"/>
<circle class="st11" cx="956.6" cy="429.9" r="3.2"/>
<path class="st11" d="M239.2,1355.5c0-1.8-1.5-3.2-3.2-3.2s-3.2,1.5-3.2,3.2s1.5,3.2,3.2,3.2
	C237.8,1358.7,239.2,1357.3,239.2,1355.5z"/>
<path class="st11" d="M602.5,614.7c0-1.8-1.5-3.2-3.2-3.2s-3.2,1.5-3.2,3.2s1.5,3.2,3.2,3.2l0,0C601,617.9,602.5,616.5,602.5,614.7z
	"/>
<path class="st11" d="M943.7,731.2c0-1.8-1.5-3.2-3.2-3.2s-3.2,1.5-3.2,3.2s1.5,3.2,3.2,3.2l0,0C942.2,734.5,943.7,733,943.7,731.2z
	"/>
<path class="st11" d="M485.3,636.3c0-1.8-1.5-3.2-3.2-3.2s-3.2,1.5-3.2,3.2s1.5,3.2,3.2,3.2l0,0l0,0
	C483.9,639.6,485.3,638.1,485.3,636.3z"/>
<circle class="st11" cx="601.9" cy="943.1" r="3.2"/>
<path class="st11" d="M320.8,961.1c0-1.8-1.5-3.2-3.2-3.2s-3.2,1.5-3.2,3.2s1.5,3.2,3.2,3.2C319.3,964.4,320.8,962.9,320.8,961.1z"
	/>
<path class="st2" d="M169.6,1456.3c0-1.8-1.4-3.3-3.2-3.3s-3.3,1.4-3.3,3.2s1.4,3.3,3.2,3.3l0,0
	C168.1,1459.6,169.6,1458.1,169.6,1456.3L169.6,1456.3z"/>
<path class="st11" d="M925.8,1580.8c0-1.8-1.5-3.2-3.2-3.2s-3.2,1.5-3.2,3.2s1.5,3.2,3.2,3.2l0,0
	C924.3,1584,925.8,1582.5,925.8,1580.8z"/>
<path class="st11" d="M407.9,1050.2c0-1.8-1.4-3.3-3.2-3.3s-3.3,1.4-3.3,3.2s1.4,3.3,3.2,3.3l0,0
	C406.5,1053.5,407.9,1052,407.9,1050.2L407.9,1050.2z"/>
<path class="st12" d="M1170.4,1038.8c0-1.8-1.5-3.2-3.2-3.2s-3.2,1.5-3.2,3.2s1.5,3.2,3.2,3.2l0,0
	C1168.9,1042.1,1170.4,1040.6,1170.4,1038.8z"/>
<path class="st11" d="M416.1,226c0-1.8-1.5-3.2-3.2-3.2s-3.2,1.5-3.2,3.2s1.5,3.2,3.2,3.2l0,0l0,0C414.6,229.2,416,227.8,416.1,226z
	"/>
<path class="st11" d="M1607.4,818.8c0-1.8-1.5-3.2-3.2-3.2s-3.2,1.5-3.2,3.2s1.5,3.2,3.2,3.2l0,0
	C1605.9,822,1607.4,820.6,1607.4,818.8z"/>
<path class="st2" d="M1414,804.7c0-1.8-1.5-3.2-3.2-3.2s-3.2,1.5-3.2,3.2s1.5,3.2,3.2,3.2l0,0l0,0
	C1412.6,807.9,1414,806.5,1414,804.7z"/>
<circle class="st11" cx="1288.3" cy="1251.1" r="3.2"/>
<path class="st12" d="M1999.4,1032.1c0-1.8-1.5-3.2-3.2-3.2s-3.2,1.5-3.2,3.2s1.5,3.2,3.2,3.2l0,0
	C1997.9,1035.3,1999.4,1033.9,1999.4,1032.1z"/>
<circle class="st11" cx="1676.4" cy="1416.8" r="3.2"/>
<circle class="st11" cx="1805.6" cy="1574.9" r="3.2"/>
<path class="st3" d="M2054.4,511.7c0-1.8-1.5-3.2-3.2-3.2s-3.2,1.5-3.2,3.2c0,1.8,1.5,3.2,3.2,3.2l0,0l0,0
	C2053,515,2054.4,513.5,2054.4,511.7z"/>
<path class="st11" d="M1892.4,1198.4c0-1.8-1.5-3.2-3.2-3.2s-3.2,1.5-3.2,3.2s1.5,3.2,3.2,3.2l0,0
	C1891,1201.7,1892.4,1200.2,1892.4,1198.4L1892.4,1198.4z"/>
<path class="st11" d="M365.7,446.8c0-1.8-1.5-3.2-3.2-3.2s-3.2,1.5-3.2,3.2s1.5,3.2,3.2,3.2l0,0l0,0
	C364.2,450.1,365.6,448.6,365.7,446.8L365.7,446.8z"/>
<path class="st11" d="M872.2,323.1c0-1.8-1.5-3.2-3.2-3.2s-3.2,1.5-3.2,3.2s1.5,3.2,3.2,3.2l0,0
	C870.8,326.4,872.2,324.9,872.2,323.1L872.2,323.1z"/>
<path class="st9" d="M1103,226.6c0-1.8-1.5-3.2-3.2-3.2s-3.2,1.5-3.2,3.2s1.5,3.2,3.2,3.2l0,0l0,0
	C1101.5,229.8,1103,228.4,1103,226.6z"/>
<path class="st9" d="M926.4,363.6c0-1.8-1.5-3.2-3.2-3.2s-3.2,1.5-3.2,3.2s1.5,3.2,3.2,3.2l0,0l0,0
	C925,366.9,926.4,365.4,926.4,363.6L926.4,363.6z"/>
<path class="st11" d="M686.9,387.3c0-1.8-1.5-3.2-3.2-3.2s-3.2,1.5-3.2,3.2s1.5,3.2,3.2,3.2l0,0
	C685.5,390.6,686.9,389.1,686.9,387.3z"/>
<path class="st11" d="M2156.7,608.6c0-1.8-1.5-3.2-3.2-3.2s-3.2,1.5-3.2,3.2s1.5,3.2,3.2,3.2l0,0
	C2155.3,611.9,2156.7,610.4,2156.7,608.6z"/>
<path class="st11" d="M141.9,1094.3c0-1.8-1.5-3.2-3.2-3.2s-3.2,1.5-3.2,3.2s1.5,3.2,3.2,3.2
	C140.5,1097.6,141.9,1096.1,141.9,1094.3z"/>
<path class="st9" d="M251.2,383.7c0-1.8-1.5-3.2-3.2-3.2s-3.2,1.5-3.2,3.2s1.5,3.2,3.2,3.2l0,0l0,0
	C249.7,386.9,251.2,385.5,251.2,383.7L251.2,383.7z"/>
<circle class="st11" cx="987.3" cy="1391.7" r="3.2"/>
<path class="st11" d="M306.3,1535.9c0-1.8-1.5-3.2-3.2-3.2s-3.2,1.5-3.2,3.2s1.5,3.2,3.2,3.2l0,0
	C304.9,1539.2,306.3,1537.7,306.3,1535.9L306.3,1535.9z"/>
<path class="st11" d="M77.1,1549.3c0-1.8-1.5-3.2-3.2-3.2c-1.8,0-3.2,1.5-3.2,3.2s1.5,3.2,3.2,3.2l0,0
	C75.6,1552.5,77,1551.1,77.1,1549.3L77.1,1549.3z"/>
<path class="st2" d="M352.8,1088.1c0-1.8-1.5-3.2-3.2-3.2s-3.2,1.5-3.2,3.2s1.5,3.2,3.2,3.2l0,0l0,0
	C351.3,1091.4,352.8,1089.9,352.8,1088.1z"/>
<path class="st9" d="M1258.3,380.9c0-1.8-1.5-3.2-3.2-3.2s-3.2,1.5-3.2,3.2s1.5,3.2,3.2,3.2l0,0
	C1256.8,384.2,1258.3,382.7,1258.3,380.9z"/>
<path class="st11" d="M1313.1,602.3c0-1.8-1.5-3.2-3.2-3.2s-3.2,1.5-3.2,3.2s1.5,3.2,3.2,3.2l0,0l0,0
	C1311.7,605.5,1313.1,604.1,1313.1,602.3z"/>
<path class="st9" d="M1730.6,541.1c0-1.8-1.5-3.2-3.2-3.2s-3.2,1.5-3.2,3.2s1.5,3.2,3.2,3.2l0,0
	C1729.1,544.4,1730.6,542.9,1730.6,541.1z"/>
<path class="st9" d="M428.1,1172.7c0-1.8-1.5-3.2-3.2-3.2s-3.2,1.5-3.2,3.2s1.5,3.2,3.2,3.2l0,0
	C426.7,1175.9,428.1,1174.5,428.1,1172.7L428.1,1172.7z"/>
<path class="st2" d="M1133.6,338.3c0-1.8-1.5-3.2-3.2-3.2s-3.2,1.5-3.2,3.2s1.5,3.2,3.2,3.2l0,0
	C1132.1,341.5,1133.6,340.1,1133.6,338.3z"/>
<path class="st11" d="M1432.2,653.3c0-1.8-1.5-3.2-3.2-3.2s-3.2,1.5-3.2,3.2s1.5,3.2,3.2,3.2l0,0
	C1430.8,656.6,1432.2,655.1,1432.2,653.3z"/>
<path class="st11" d="M565.8,1592.4c0-1.8-1.5-3.2-3.2-3.2s-3.2,1.5-3.2,3.2s1.5,3.2,3.2,3.2l0,0
	C564.3,1595.7,565.8,1594.2,565.8,1592.4L565.8,1592.4z"/>
<circle class="st11" cx="1488.4" cy="575.7" r="3.2"/>
<path class="st11" d="M1724.6,654.5c0-1.8-1.5-3.2-3.2-3.2s-3.2,1.5-3.2,3.2s1.5,3.2,3.2,3.2l0,0l0,0
	C1723.1,657.8,1724.6,656.3,1724.6,654.5z"/>
<path class="st11" d="M1402.9,464.1c0-1.8-1.5-3.2-3.2-3.2s-3.2,1.5-3.2,3.2s1.5,3.2,3.2,3.2l0,0
	C1401.5,467.4,1402.9,465.9,1402.9,464.1z"/>
<path class="st11" d="M1777.8,531.4c0-1.8-1.5-3.2-3.2-3.2s-3.2,1.5-3.2,3.2s1.5,3.2,3.2,3.2l0,0l0,0
	C1776.3,534.6,1777.8,533.2,1777.8,531.4z"/>
<path class="st6" d="M648.4,436.1c0,2.7,2.2,4.9,4.9,4.9s4.9-2.2,4.9-4.9c0-2.7-2.2-4.9-4.9-4.9S648.4,433.4,648.4,436.1
	L648.4,436.1z"/>
<path class="st11" d="M1193.7,245.6c0,2.7,2.2,4.9,4.9,4.9s4.9-2.2,4.9-4.9s-2.2-4.9-4.9-4.9S1193.7,242.9,1193.7,245.6
	L1193.7,245.6z"/>
<path class="st12" d="M729.6,1422.4c0,2.7,2.2,4.9,4.9,4.9s4.9-2.2,4.9-4.9c0-2.7-2.2-4.9-4.9-4.9S729.6,1419.7,729.6,1422.4
	L729.6,1422.4z"/>
<path class="st9" d="M1486.5,1569.7c0,6.1,5,11.1,11.1,11.1s11.1-5,11.1-11.1s-5-11.1-11.1-11.1l0,0l0,0
	C1491.5,1558.7,1486.5,1563.6,1486.5,1569.7L1486.5,1569.7L1486.5,1569.7z"/>
<ellipse transform="matrix(0.5483 -0.8363 0.8363 0.5483 -1018.925 947.8009)" class="st12" cx="367.9" cy="1417.1" rx="40.2" ry="40.2"/>
<ellipse transform="matrix(0.9786 -0.2059 0.2059 0.9786 -283.9145 106.1376)" class="st2" cx="368" cy="1417.2" rx="79.2" ry="19.2"/>
<path class="st12" d="M369.9,1426.7c21.6-4.6,38.3-12.5,37.3-17.7c-4.5-21.7-25.8-35.7-47.5-31.1c-17.3,3.6-30.2,18.1-31.8,35.7
	c-0.4,4-0.1,8.1,0.7,12C329.8,1430.7,348.3,1431.2,369.9,1426.7z"/>
<circle class="st3" cx="220.3" cy="830.4" r="58.3"/>
<path class="st11" d="M815.6,1309.2c0,6.1,5,11.1,11.1,11.1s11.1-5,11.1-11.1s-5-11.1-11.1-11.1l0,0
	C820.6,1298.1,815.6,1303,815.6,1309.2C815.6,1309.1,815.6,1309.1,815.6,1309.2L815.6,1309.2z"/>
<circle class="st9" cx="583.4" cy="683.7" r="24.3"/>
<circle class="st9" cx="1363.5" cy="803.1" r="24.3"/>
<path class="st9" d="M609.6,1534.1c0,13.4,10.9,24.3,24.3,24.3c13.4,0,24.3-10.9,24.3-24.3s-10.9-24.3-24.3-24.3
	C620.5,1509.9,609.6,1520.7,609.6,1534.1L609.6,1534.1z"/>
<circle class="st11" cx="223.8" cy="300.1" r="24.3"/>
<circle class="st12" cx="957.1" cy="647.1" r="11.9"/>
<path class="st9" d="M1819.7,1429.6c0,8.2,6.6,14.8,14.8,14.8c8.2,0,14.8-6.6,14.8-14.8c0-8.2-6.6-14.8-14.8-14.8
	C1826.4,1414.8,1819.7,1421.4,1819.7,1429.6L1819.7,1429.6z"/>
<ellipse transform="matrix(0.3162 -0.9487 0.9487 0.3162 11.2261 784.1754)" class="st2" cx="549.6" cy="384.3" rx="39.4" ry="39.4"/>
<path class="st10" d="M913.2,583.3c-33.8,0.5-61.6-26.6-62.1-60.4c-0.5-33.8,26.6-61.6,60.4-62.1l0,0h1.7c1.4,0,2.8,0.1,4.2,0.2
	c-34.8-24.7-83.1-16.5-107.8,18.4s-16.5,83.1,18.4,107.8c29.1,20.6,68.6,18.7,95.5-4.8C920,583,916.6,583.3,913.2,583.3z"/>
<path class="st2" d="M1083.1,1046.6c0,5.4,4.4,9.8,9.8,9.8s9.8-4.4,9.8-9.8s-4.4-9.8-9.8-9.8S1083.1,1041.2,1083.1,1046.6
	L1083.1,1046.6z"/>
<path class="st11" d="M837.7,919.3c0,6.1,5,11.1,11.1,11.1s11.1-5,11.1-11.1s-5-11.1-11.1-11.1l0,0
	C842.7,908.2,837.8,913.2,837.7,919.3L837.7,919.3z"/>
<circle class="st9" cx="1551.3" cy="446.9" r="45.9"/>
<circle class="st12" cx="462.7" cy="823.9" r="32.5"/>
<path class="st12" d="M1336.2,491.5c-22.4-2.5-28.6-27.5-29.9-52.7c0-0.5-0.4-0.8-0.9-0.8l0,0c-0.5,0-0.9,0.3-0.9,0.8
	c-1.2,22.3-5.3,47.2-30,52.7c-0.4,0.1-0.6,0.5-0.5,0.8l0,0c0.1,0.2,0.3,0.4,0.5,0.5c23.8,4.8,28.2,29,29.9,52.7
	c0,0.5,0.4,0.8,0.9,0.8l0,0c0.5,0,0.8-0.4,0.9-0.8c0.5-21.3,5.7-47.6,29.9-52.7c0.4-0.1,0.6-0.5,0.5-0.8S1336.4,491.6,1336.2,491.5
	L1336.2,491.5z"/>
<path class="st12" d="M831.8,1548.8c-14.8-1.7-18.9-18.1-19.7-34.7c0-0.3-0.3-0.5-0.6-0.5l0,0c-0.3,0-0.6,0.2-0.6,0.5
	c-0.8,14.7-3.5,31.1-19.7,34.7c-0.2,0.1-0.4,0.3-0.3,0.5c0,0.2,0.2,0.3,0.3,0.3c15.7,3.2,18.6,19.1,19.7,34.7c0,0.3,0.3,0.5,0.6,0.5
	l0,0c0.3,0,0.6-0.2,0.6-0.5c0.3-14.1,3.7-31.4,19.7-34.7C832.2,1549.6,832.2,1548.9,831.8,1548.8z"/>
<path class="st9" d="M1390,1447.9c-14.8-1.7-18.9-18.1-19.7-34.8c0-0.3-0.3-0.5-0.6-0.5l0,0c-0.3,0-0.6,0.2-0.6,0.5
	c-0.8,14.7-3.5,31.1-19.7,34.8c-0.2,0.1-0.4,0.3-0.3,0.6c0,0.2,0.2,0.3,0.3,0.3c15.7,3.2,18.6,19.1,19.7,34.8c0,0.3,0.3,0.5,0.6,0.5
	l0,0c0.3,0,0.6-0.2,0.6-0.5c0.3-14.1,3.7-31.4,19.7-34.8C1390.5,1448.7,1390.5,1447.9,1390,1447.9z"/>
<path class="st9" d="M926,1163.6c-13.3-1.5-17-16.3-17.7-31.2c0-0.3-0.3-0.5-0.5-0.5l0,0c-0.3,0-0.5,0.2-0.5,0.5
	c-0.7,13.2-3.1,28-17.7,31.2c-0.2,0-0.3,0.2-0.3,0.5l0,0c0,0.2,0.1,0.3,0.3,0.3c14.1,2.9,16.7,17.2,17.7,31.2c0,0.3,0.3,0.5,0.5,0.5
	l0,0c0.3,0,0.5-0.2,0.5-0.5c0.3-12.6,3.3-28.2,17.7-31.2c0.2,0,0.3-0.3,0.3-0.5l0,0l0,0C926.3,1163.7,926.2,1163.6,926,1163.6z"/>
<path class="st2" d="M713.4,1286.5c-37.9-2.8-48.4-30.4-50.7-58.5c-0.1-0.5-0.7-0.9-1.5-0.9l0,0c-0.8,0-1.4,0.4-1.5,0.9
	c-2,24.7-8.9,52.4-50.7,58.5c-1.2,0.2-1.2,1.3,0,1.5c40.4,5.4,47.7,32.1,50.7,58.5c0.1,0.5,0.7,0.9,1.5,0.9l0,0
	c0.8,0,1.4-0.4,1.5-0.9c0.9-23.7,9.6-52.8,50.7-58.5C714.6,1287.8,714.6,1286.6,713.4,1286.5z"/>
<path class="st3" d="M348.6,1114.9c-28.8-2.1-36.8-23.1-38.5-44.4c-0.1-0.4-0.6-0.7-1.2-0.7l0,0c-0.6,0-1.1,0.3-1.1,0.7
	c-1.6,18.8-6.8,39.8-38.5,44.4c-0.9,0.1-0.9,1,0,1.1c30.6,4.1,36.2,24.4,38.5,44.4c0.1,0.4,0.6,0.7,1.2,0.7l0,0
	c0.6,0,1.1-0.3,1.1-0.7c0.7-18,7.3-40.1,38.5-44.4C349.4,1115.9,349.5,1115,348.6,1114.9z"/>
<path class="st10" d="M1044.6,287.1c-28.8-2.1-36.8-23.1-38.5-44.4c0-0.4-0.5-0.7-1.2-0.7l0,0c-0.6,0-1.1,0.3-1.2,0.7
	c-1.5,18.8-6.8,39.8-38.5,44.4c-0.9,0.1-0.9,1,0,1.1c30.6,4.1,36.2,24.4,38.5,44.4c0.1,0.4,0.5,0.7,1.2,0.7l0,0
	c0.6,0,1.1-0.3,1.2-0.7c0.7-18,7.3-40.1,38.5-44.4C1045.5,288.1,1045.5,287.3,1044.6,287.1z"/>
<path class="st10" d="M1876.7,1303.9c-23.2-1.7-29.7-18.7-31.1-35.9c0-0.3-0.4-0.6-0.9-0.6l0,0c-0.5,0-0.9,0.2-0.9,0.6
	c-1.3,15.2-5.5,32.1-31.1,35.9c-0.7,0.1-0.7,0.8,0,0.9c24.8,3.3,29.2,19.7,31.1,35.9c0,0.3,0.4,0.6,0.9,0.6l0,0
	c0.5,0,0.9-0.2,0.9-0.6c0.5-14.5,5.9-32.4,31.1-35.9C1877.4,1304.7,1877.4,1304,1876.7,1303.9z"/>
<path class="st11" d="M504.2,987.6c-19.4-1.4-24.8-15.6-26-30c0-0.3-0.4-0.5-0.8-0.5s-0.7,0.2-0.8,0.5c-1,12.7-4.6,26.8-26,30
	c-0.6,0.1-0.6,0.7,0,0.8c20.7,2.8,24.5,16.5,26,30c0,0.3,0.4,0.5,0.8,0.5s0.7-0.2,0.8-0.5c2.6-7.2,5.3-14.5,7.9-21.7
	c6-2.8,12-5.5,18.1-8.3C504.8,988.2,504.8,987.6,504.2,987.6z"/>
<path class="st11" d="M1881.8,567.3c-17.6-1.3-22.5-14.1-23.5-27.1c0-0.2-0.3-0.4-0.7-0.4l0,0c-0.4,0-0.7,0.2-0.7,0.4
	c-1,11.5-4.1,24.3-23.5,27.1c-0.6,0.1-0.6,0.6,0,0.7c18.7,2.5,22.1,14.9,23.5,27.1c0,0.2,0.3,0.4,0.7,0.4l0,0c0.4,0,0.7-0.2,0.7-0.4
	c0.4-11,4.4-24.5,23.5-27.1C1882.4,568,1882.4,567.4,1881.8,567.3z"/>
<path class="st2" d="M817,853.4c-8.8-1-11.3-10.8-11.8-20.8c0-0.2-0.2-0.3-0.4-0.3l0,0c-0.2,0-0.3,0.1-0.3,0.3
	c-0.5,8.8-2.1,18.6-11.8,20.8c-0.1,0-0.2,0.2-0.2,0.3s0.1,0.2,0.2,0.2c9.4,1.9,11.1,11.4,11.8,20.8c0,0.2,0.2,0.3,0.3,0.3l0,0
	c0.2,0,0.3-0.1,0.4-0.3c0.2-8.4,2.2-18.8,11.8-20.8C817.3,853.9,817.3,853.4,817,853.4z"/>
<path class="st2" d="M1951.9,482.4c-8.8-1-11.3-10.8-11.8-20.8c0-0.2-0.2-0.3-0.3-0.3l0,0c-0.2,0-0.3,0.1-0.4,0.3l0,0l0,0
	c-0.5,8.8-2.1,18.6-11.8,20.8c-0.1,0-0.2,0.2-0.2,0.3c0,0.1,0.1,0.2,0.2,0.2c9.4,1.9,11.1,11.4,11.8,20.8c0,0.2,0.2,0.3,0.3,0.3l0,0
	c0.2,0,0.3-0.1,0.4-0.3c0.2-8.4,2.2-18.8,11.8-20.8c0.1,0,0.2-0.2,0.2-0.3C1952.1,482.5,1952,482.4,1951.9,482.4z"/>
<path class="st9" d="M1568.8,756.6c-8.8-1-11.3-10.8-11.8-20.8c0-0.2-0.2-0.3-0.4-0.3l0,0c-0.2,0-0.3,0.1-0.3,0.3
	c-0.5,8.8-2.1,18.6-11.8,20.8c-0.1,0-0.2,0.2-0.2,0.3s0.1,0.2,0.2,0.2c9.4,1.9,11.1,11.4,11.8,20.8c0,0.2,0.2,0.3,0.3,0.3l0,0
	c0.2,0,0.3-0.1,0.3-0.3c0.2-8.4,2.2-18.8,11.8-20.8C1569,757,1569,756.6,1568.8,756.6z"/>
<path class="st9" d="M727.7,505.6c-8.8-1-11.3-10.8-11.8-20.8c0-0.2-0.2-0.3-0.4-0.3l0,0c-0.2,0-0.3,0.1-0.3,0.3
	c-0.5,8.8-2.1,18.6-11.8,20.8c-0.1,0-0.2,0.2-0.2,0.3c0,0.1,0.1,0.2,0.2,0.2c9.4,1.9,11.1,11.4,11.8,20.8c0,0.2,0.2,0.3,0.3,0.3l0,0
	c0.2,0,0.3-0.1,0.3-0.3c0.2-8.4,2.2-18.8,11.8-20.8C727.9,506,727.9,505.6,727.7,505.6z"/>
<path class="st2" d="M372.9,1230.4c-8.8-1-11.3-10.8-11.8-20.8c0-0.2-0.2-0.3-0.4-0.3l0,0c-0.2,0-0.3,0.1-0.4,0.3
	c-0.5,8.8-2.1,18.6-11.8,20.8c-0.1,0-0.2,0.2-0.2,0.3c0,0.1,0.1,0.2,0.2,0.2c9.4,1.9,11.1,11.4,11.8,20.8c0,0.2,0.2,0.3,0.4,0.3l0,0
	c0.2,0,0.3-0.1,0.4-0.3c0.2-8.4,2.2-18.8,11.8-20.8c0.1,0,0.2-0.2,0.2-0.3C373.1,1230.5,373,1230.5,372.9,1230.4z"/>
<path class="st3" d="M1642.4,547.4c-13.1-1-16.8-10.8-17.6-20.8c0-0.2-0.2-0.3-0.5-0.3l0,0c-0.3,0-0.5,0.1-0.5,0.3
	c-0.7,8.8-3.1,18.6-17.6,20.8c-0.4,0.1-0.4,0.5,0,0.5c14,1.9,16.6,11.4,17.6,20.8c0,0.2,0.3,0.3,0.5,0.3l0,0c0.3,0,0.5-0.1,0.5-0.3
	c0.3-8.4,3.3-18.8,17.6-20.8C1642.8,547.9,1642.8,547.4,1642.4,547.4z"/>
<path class="st14" d="M1336.9,1512c-8.8-1-11.3-10.8-11.8-20.8c0-0.2-0.2-0.3-0.3-0.3l0,0c-0.2,0-0.3,0.1-0.4,0.3l0,0l0,0
	c-0.5,8.8-2.1,18.6-11.8,20.8c-0.1,0-0.2,0.2-0.2,0.3c0,0.1,0.1,0.2,0.2,0.2c9.4,1.9,11.1,11.4,11.8,20.8c0,0.2,0.2,0.3,0.3,0.3l0,0
	c0.2,0,0.3-0.1,0.4-0.3c0.2-8.4,2.2-18.8,11.8-20.8c0.1,0,0.2-0.2,0.2-0.3C1337,1512.1,1337,1512,1336.9,1512z"/>
<path class="st14" d="M1887.9,1083.8c-8.8-1-11.3-10.8-11.8-20.8c0-0.2-0.2-0.3-0.3-0.3l0,0c-0.2,0-0.3,0.1-0.3,0.3
	c-0.5,8.8-2.1,18.6-11.8,20.8c-0.1,0-0.2,0.2-0.2,0.3c0,0.1,0.1,0.2,0.2,0.2c9.4,1.9,11.1,11.4,11.8,20.8c0,0.2,0.2,0.3,0.4,0.3l0,0
	l0,0c0.2,0,0.3-0.1,0.3-0.3c0.2-8.4,2.2-18.8,11.8-20.8C1888.2,1084.3,1888.2,1083.9,1887.9,1083.8z"/>
<path class="st12" d="M1242.6,988.9c-8.8-1-11.3-10.8-11.8-20.8c0-0.2-0.2-0.3-0.4-0.3l0,0c-0.2,0-0.3,0.1-0.3,0.3
	c-0.5,8.8-2.1,18.6-11.8,20.8c-0.1,0-0.2,0.2-0.2,0.3s0.1,0.2,0.2,0.2c9.4,1.9,11.1,11.4,11.8,20.8c0,0.2,0.2,0.3,0.3,0.3l0,0
	c0.2,0,0.3-0.1,0.4-0.3c0.2-8.4,2.2-18.8,11.8-20.8C1242.9,989.4,1242.9,989,1242.6,988.9z"/>
<path class="st11" d="M1012.8,1039.1c-17.7-2-22.6-21.7-23.7-41.7c0-0.4-0.3-0.6-0.7-0.6l0,0c-0.4,0-0.7,0.3-0.7,0.6
	c-1,17.6-4.2,37.4-23.7,41.7c-0.3,0.1-0.4,0.4-0.3,0.7c0.1,0.1,0.2,0.2,0.3,0.3c18.9,3.8,22.3,22.9,23.7,41.7c0,0.4,0.3,0.6,0.7,0.6
	l0,0c0.4,0,0.7-0.3,0.7-0.6c0.4-16.9,4.5-37.7,23.7-41.7c0.3-0.1,0.4-0.4,0.3-0.7l0,0C1013.1,1039.3,1013,1039.2,1012.8,1039.1z"/>
<path class="st12" d="M221.3,623.3c36.8-32.5,66.1-46.1,145.9-46.6c-32.4-5.2-96.5-22.8-153.8,2.6c6.7,0.7,16.2,2.4,23.1,3.1
	c-22.6,9.6-39,22.6-49.2,33.5c11.4-5,23.4-8.4,35.7-10C222.1,611.7,221.5,617.5,221.3,623.3z"/>
<circle class="st11" cx="1139.9" cy="831.4" r="63.8"/>
<path class="st12" d="M1257.6,875.6c-5.9,15.8-63.4,8.7-128.4-15.8s-112.9-57.1-106.9-72.8s63.4-8.7,128.4,15.8
	S1263.6,859.8,1257.6,875.6z"/>
<path class="st11" d="M1134.5,845.8c-32.8-12.4-57-28.8-54.3-36.9c12.2-33.1,49-49.9,82-37.7c33.1,12.2,49.9,49,37.7,82l-0.2,0.6
	C1196.5,861.7,1167.4,858.1,1134.5,845.8z"/>
<path class="st2" d="M740.2,978.2c4.3,14.8-4.2,30.2-19,34.5s-30.2-4.2-34.5-19s4.2-30.2,19-34.5
	C720.4,954.9,735.9,963.4,740.2,978.2L740.2,978.2z"/>
<path class="st3" d="M667.5,1016.2c4,6.2,25.2,1.7,54.2-17.5s41.5-36.8,37.5-43s-25.2-1.6-54.2,17.5S663.5,1010.1,667.5,1016.2z"/>
<path class="st2" d="M717.1,991.7c12.8-8.4,21.5-17.8,19.6-20.9c-8.5-12.9-25.8-16.4-38.6-8s-16.4,25.8-8,38.6l0,0
	C692.2,1004.5,704.3,1000.1,717.1,991.7z"/>
<circle class="st11" cx="1633.8" cy="1512.1" r="43.9"/>
<path class="st2" d="M394.8,1637.2c0-1.8-1.5-3.2-3.2-3.2s-3.2,1.5-3.2,3.2s1.5,3.2,3.2,3.2l0,0l0,0
	C393.4,1640.5,394.8,1639,394.8,1637.2z"/>
<circle class="st11" cx="378.5" cy="153.3" r="24.3"/>
<path class="st12" d="M253.1,152.9c-14.7-1.7-18.9-18.1-19.7-34.8c0-0.3-0.3-0.5-0.6-0.5l0,0c-0.3,0-0.6,0.2-0.6,0.5
	c-0.8,14.7-3.5,31.1-19.7,34.8c-0.2,0.1-0.4,0.3-0.3,0.6c0,0.2,0.2,0.3,0.3,0.3c15.7,3.2,18.6,19.1,19.7,34.8c0,0.3,0.3,0.5,0.6,0.5
	l0,0c0.3,0,0.6-0.2,0.6-0.5c0.3-14.1,3.7-31.4,19.7-34.8C253.5,153.6,253.5,152.9,253.1,152.9z"/>
<path class="st9" d="M89.2,551.9c-8.8-1-11.3-10.8-11.8-20.8c0-0.2-0.2-0.3-0.3-0.3l0,0c-0.2,0-0.3,0.1-0.4,0.3
	c-0.5,8.8-2.1,18.6-11.8,20.8c-0.1,0-0.2,0.2-0.2,0.3s0.1,0.2,0.2,0.2c9.4,1.9,11.1,11.4,11.8,20.8c0,0.2,0.2,0.3,0.3,0.3l0,0
	c0.2,0,0.3-0.1,0.4-0.3c0.2-8.4,2.2-18.8,11.8-20.8c0.1,0,0.2-0.2,0.2-0.3C89.4,552,89.3,551.9,89.2,551.9z"/>
<circle class="st10" cx="77.1" cy="420.4" r="3.2"/>
<path class="st2" d="M1530.6,894.1c-40.8-24.8-96.4-11.5-113.8,16.2c5.8-12.1,15.6-22.5,30.6-31.3c8.7-4.9,18.2-8.5,28-10.7
	c32.1-8.2,66.2-4,106.4-8c3.5,44.3,35.5,95.4,40.5,143.8c-3.8-0.1-7.6-0.2-11.5-0.4C1593.5,968.2,1573.4,920.1,1530.6,894.1z"/>
<path class="st1" d="M3423.7,1343.9"/>
<path class="st11" d="M1700.3,742.5c-17.7-2-22.6-21.7-23.7-41.7c0-0.4-0.3-0.6-0.7-0.6l0,0c-0.4,0-0.7,0.3-0.7,0.6
	c-1,17.6-4.2,37.4-23.7,41.7c-0.3,0.1-0.4,0.4-0.3,0.7l0,0c0.1,0.1,0.2,0.2,0.3,0.3c18.9,3.8,22.3,22.9,23.7,41.7
	c0,0.4,0.3,0.6,0.7,0.6l0,0c0.4,0,0.7-0.3,0.7-0.6c0.4-16.9,4.5-37.7,23.7-41.7c0.3-0.1,0.4-0.4,0.3-0.7l0,0
	C1700.5,742.6,1700.4,742.5,1700.3,742.5z"/>
<circle class="st10" cx="21.1" cy="943.1" r="21.1"/>
<path class="st0" d="M1921.5,1806.5"/>
<path class="st11" d="M1396.2,215c-19.4-1.4-24.8-15.6-26-30c0-0.3-0.4-0.5-0.8-0.5s-0.7,0.2-0.8,0.5c-1,12.7-4.6,26.8-26,30
	c-0.6,0.1-0.6,0.7,0,0.8c20.7,2.8,24.5,16.5,26,30c0,0.3,0.4,0.5,0.8,0.5s0.7-0.2,0.8-0.5c2.6-7.2,5.3-14.5,7.9-21.7
	c6-2.8,12-5.5,18.1-8.3C1396.8,215.6,1396.8,215,1396.2,215z"/>
<circle class="st10" cx="1380.7" cy="300.1" r="3.2"/>
<path class="st12" d="M1583.4,323.1c0-1.8-1.5-3.2-3.2-3.2s-3.2,1.5-3.2,3.2s1.5,3.2,3.2,3.2l0,0
	C1582,326.4,1583.4,324.9,1583.4,323.1z"/>
<path class="st10" d="M21.1,44.4c0,1.8,1.5,3.2,3.2,3.2s3.2-1.5,3.2-3.2s-1.5-3.2-3.2-3.2l0,0l0,0C22.6,41.1,21.1,42.6,21.1,44.4
	L21.1,44.4L21.1,44.4z"/>
<path class="st12" d="M138.7,89.3c0-1.8-1.5-3.2-3.2-3.2s-3.2,1.5-3.2,3.2s1.5,3.2,3.2,3.2l0,0C137.3,92.6,138.7,91.1,138.7,89.3z"
	/>
<path class="st9" d="M27.5,156.6c0-1.8-1.5-3.2-3.2-3.2s-3.2,1.5-3.2,3.2s1.5,3.2,3.2,3.2l0,0C26,159.9,27.5,158.4,27.5,156.6z"/>
<path class="st11" d="M3.2,690.7c0-1.8-1.5-3.2-3.2-3.2s-3.2,1.5-3.2,3.2s1.5,3.2,3.2,3.2l0,0l0,0C1.7,694,3.1,692.5,3.2,690.7
	L3.2,690.7z"/>
</svg>
