<?xml version="1.0" encoding="utf-8"?>
<!-- Generator: Adobe Illustrator 25.2.3, SVG Export Plug-In . SVG Version: 6.00 Build 0)  -->
<svg version="1.1" id="_Layer_" xmlns="http://www.w3.org/2000/svg" xmlns:xlink="http://www.w3.org/1999/xlink" x="0px" y="0px"
	 viewBox="0 0 2090.2 1983.2" style="enable-background:new 0 0 2090.2 1983.2;" xml:space="preserve">
<style type="text/css">
	.st0{fill:#FFDAD2;}
	.st1{fill:#6D72A0;}
	.st2{fill:#000543;}
	.st3{fill:#27317A;}
	.st4{fill:#C3D0ED;}
	.st5{fill:#FFFFFF;}
	.st6{fill:#693523;}
	.st7{fill:#FFB288;}
	.st8{fill:#3341A3;}
	.st9{fill:#6E5082;}
	.st10{fill:#FF9985;}
	.st11{fill:#F75B37;}
	.st12{fill:#FFD878;}
	.st13{fill:#000544;}
	.st14{fill:#FA694F;}
	.st15{fill:#DCE4F9;}
	.st16{fill:#8BB5D8;}
	.st17{fill:#FCB16D;}
	.st18{fill:#99C7E0;}
	.st19{fill:#6798BA;}
	.st20{fill:#727BA0;}
	.st21{fill:#4F567F;}
	.st22{fill:#FC8663;}
	.st23{fill:#CD603F;}
	.st24{fill:#99432E;}
	.st25{fill:#9E86B2;}
	.st26{fill:#FCE8D0;}
	.st27{fill:#E5AD88;}
	.st28{fill:#67BCF4;}
	.st29{fill:#4495D8;}
	.st30{fill:#C64B26;}
	.st31{fill:#FC6D3A;}
	.st32{fill:#E0E5FC;}
	.st33{fill:#5846B2;}
	.st34{fill:#91B4DE;}
	.st35{fill:#5C8AB7;}
	.st36{fill:#FFC269;}
	.st37{fill:#FFEB9A;}
</style>
<path class="st0" d="M228.5,1981.4c-79.2,0.3-144.8-63.6-145.3-143.5c0-0.5,0-1,0-1.5c0.2-148.8,198.3-270.9,162.6-500.2
	c-23.5-150.8-129.6-272.3-158.3-421.8c-33-171.6,14.6-369.3,135.7-492.1c48.2-48.9,113.3-76.8,181.6-81.2
	c44.5-2.8,95.8-10.2,143.2-35.9c79.2-44,138.3-114.7,211.9-176.4C863.5,41.7,989.2,24.9,1111.3,9.4c253.6-31,515.5,13.8,764.4,153.3
	c131.8,72.9,219,200.9,171.5,409c-42.5,186.3-207.7,377.8-134.4,594.2c64,188.9,73.2,134.1,147.2,295.8
	c39,85.2,39.3,211.8,6.3,326.9s-170.1,194.3-292.6,194C1773.7,1982.6,289.7,1981.1,228.5,1981.4z"/>
<polygon class="st1" points="1636.9,1131.3 1706.4,1983 1692.5,1983 1623,1131.3 "/>
<path class="st2" d="M1530.4,1979.3c0.3-1.4,0.6-2.9,0.7-4.4l52-448c3.4-29-17.6-52.7-46.6-52.7h-264.2c-29,0-49.3,6.4-52.7,35.3
	l-58.2,465.3c-0.2,1.5-0.2,2.9-0.3,4.4L1530.4,1979.3z"/>
<path class="st3" d="M1567,1979.3c0.3-1.4,0.6-2.9,0.7-4.4l52-448c3.4-29-17.6-52.7-46.6-52.7H1538c-29,0-55.5,23.7-58.8,52.7
	c0,0-52.2,450.9-52.3,452.4H1567z"/>
<path class="st2" d="M1155.3,1968.2h428.5c3.1,0,5.6,2.5,5.6,5.6v3.7c0,3.1-2.5,5.6-5.6,5.6h-428.5c-3.1,0-5.6-2.5-5.6-5.6v-3.7
	C1149.7,1970.7,1152.2,1968.2,1155.3,1968.2z"/>
<path class="st2" d="M1549.4,1913.1c0,9.8-7.9,17.7-17.7,17.7s-17.7-7.9-17.7-17.7c0-9.8,7.9-17.7,17.7-17.7l0,0
	C1541.5,1895.4,1549.4,1903.3,1549.4,1913.1z"/>
<polygon class="st4" points="785.5,892.8 449.2,892.8 587.2,1474.5 972,1474.5 "/>
<polygon class="st2" points="882.7,1507.1 854.2,1190.9 867.3,1189.6 895.8,1505.8 "/>
<path class="st5" d="M800.4,892.8H449.7l15.2,12.2c12.8,10.3,22.1,24.3,26.5,40.2l135.8,510.9c2.8,10.7,12.8,19,22.8,19h367
	L851.6,959.9C842.6,932.4,824.6,908.8,800.4,892.8z"/>
<path class="st5" d="M811.4,1474.1l10.7,51c4.8,1.2,9.8,1.9,14.8,1.9h215.8l-11.1-52.9H811.4z"/>
<path class="st5" d="M1156,1474.1H995.5l11.1,52.8h209.7C1210.2,1497.8,1183.2,1474.1,1156,1474.1z"/>
<path class="st4" d="M801.5,1474.1H587.1c9.4,29.7,34.3,53,64,53h210.8C855.8,1497.8,828.7,1474.1,801.5,1474.1z"/>
<path class="st6" d="M380.4,1039.3c0,0.1,0.1,0.3,0.1,0.4C380.5,1039.5,380.5,1039.4,380.4,1039.3z"/>
<path class="st7" d="M0,1281.4c1.3,0.5,2.7,1,4.1,1.4C1.5,1281.9,0,1281.4,0,1281.4z"/>
<path class="st2" d="M220.1,1091.7H236c8.2,0,14.8-6.7,14.9-14.8V967.6c0-12.6-10.2-22.8-22.8-22.8s-22.8,10.2-22.8,22.8v109.3
	C205.3,1085.1,211.9,1091.7,220.1,1091.7z"/>
<path class="st2" d="M224.6,964.2l8.4-1.2l-40.6-287.3c-1.3-9.2,3.8-18.2,12.4-21.7l211.6-87.3l-3.2-7.8l-211.6,87.3
	c-12.2,5-19.4,17.7-17.6,30.8L224.6,964.2z"/>
<path class="st8" d="M216.9,966.5c0,5.6,4.6,10.2,10.2,10.2c5.6,0,10.2-4.6,10.2-10.2c0-5.6-4.6-10.2-10.2-10.2l0,0
	C221.4,956.3,216.9,960.9,216.9,966.5L216.9,966.5z"/>
<rect x="386.2" y="584.9" transform="matrix(0.9245 -0.3811 0.3811 0.9245 -194.9891 204.5287)" class="st8" width="65.5" height="19.4"/>
<path class="st2" d="M392.5,630.3l-19.7-47.7c-7.6-18.5-0.5-40.3,17.2-49.7c18.9-10,42.4-2.8,52.4,16.1c0.6,1.1,1.1,2.1,1.5,3.3
	l20,48.5c1.3,3.1-0.2,6.7-3.3,8l-60.1,24.8C397.4,634.9,393.8,633.4,392.5,630.3z"/>
<path class="st2" d="M526.3,638.7l-19.2-21.6c-28.6-32.3-78.1-35.3-110.4-6.7c-17.9,15.9-27.6,39.1-26.2,63l1.7,28.9
	c0.1,2.2,2,3.9,4.2,3.8c0.5,0,0.9-0.1,1.4-0.3l147-60.6c2-0.8,3-3.2,2.2-5.2C526.8,639.4,526.6,639,526.3,638.7z"/>
<path class="st9" d="M1124.1,1474.7c-86.1,0.7-250.7,3.1-333.5-4.3c-96.8-8.7-87.2-191.4-57.6-191.4c194.1,0,424.9,18.4,507.5,66.6
	c43.4,25.3,36.6,110.4-10.6,122.7C1202.4,1475.4,1176.7,1474.3,1124.1,1474.7z"/>
<path class="st10" d="M1121,1403.6c-12.4-39.9-77.1-45.4-102.4-9.8c-16.9,23.8-16.3,27.2-21.5,70.3
	c-16.1,134.8-49.1,222.2-94.8,463.3l44,13.8c8.9-16.7,152-414.9,164.6-470.1C1116.3,1447.8,1127.8,1425.4,1121,1403.6z"/>
<path class="st10" d="M1258.6,1389.6c-16.6-36.5-65.9-32-87.5,8l-9.3,17.3c-9.6,17.9-11.3,34.5-11.6,54
	c-2.1,132.5-19.8,313.8-53.9,468.8c-1.1,5,1.9,9.4,6.4,9.5l30,0.5c0,0,92.2-321.5,122.9-489.9
	C1259.9,1433.9,1267.7,1409.5,1258.6,1389.6z"/>
<path class="st11" d="M1194.3,1956l-11.7-3.9c-42.5,20.2-72.3,7.4-88.6-5l-5.9,29.8c-0.5,2.7,3,5.2,7.3,5.3l90.7,1
	C1210,1983.4,1216.1,1963.2,1194.3,1956z"/>
<path class="st10" d="M1182.6,1952.1l-75.4-24.9c-4.3-1.4-9.2,0.1-9.8,3l-3.3,16.8C1110.3,1959.5,1140.1,1972.3,1182.6,1952.1z"/>
<path class="st11" d="M998.3,1955.5l-11.7-3.9c-42.7,20.2-72.6,7.4-89-5.1l-5.9,29.8c-0.5,2.7,3,5.2,7.4,5.3l91.2,1
	C1014.1,1982.9,1020.1,1962.7,998.3,1955.5z"/>
<path class="st10" d="M986.5,1951.6l-75.8-24.9c-4.3-1.4-9.3,0.1-9.9,3l-3.3,16.8C913.9,1959,943.8,1971.8,986.5,1951.6z"/>
<path class="st12" d="M1087.2,985.5c1.9-17.3,2.9-27.4,12.6-52.5c13.6-35.1,33.3-113.9,31.5-131.2c-2.3-22.7-13.6-39.2-27.4-54.3
	c-35.8-39-77.1-37.7-105.4-29.7c-19.2,5.4-45.7,12.9-63.2,25c-121.4,84.3-68,104-68,104c-5,44-2.5,106.2-11.7,150.3
	C930.4,997.1,1008.9,1007,1087.2,985.5z"/>
<path class="st12" d="M1079.4,1044.1c0.9-7.6,1.6-14.7,2.6-21.2c2.6-16.8,4.2-28,5.2-37.2c-78.3,21.5-156.7,11.5-231.5,11.7
	c-0.6,2.9-1.1,5.8-1.8,8.7c-3,13.1-7.1,25.9-12.2,38.3C914.6,1065.5,995.2,1063.1,1079.4,1044.1z"/>
<path class="st12" d="M841.6,1044.2c-23.5,57.4-64,97.4-95.1,153.3c-16.9,30.4-58.8,107.8-19.6,105c39.9-2.9,75.6,13.9,138.5,6.1
	c70.9-8.7,90.9,9,134.2-1c15.1-3.5,31.9-19.5,36.1-34c29.4-101.2,37.7-178.1,43.7-229.5C995.2,1063.1,914.6,1065.5,841.6,1044.2z"/>
<path class="st13" d="M1178.1,598.8c-4.5,44.6-54.7,78.4-100.7,65.7s-73.5-58-61.6-101.3c12-43.3-1.1-66.4,46.4-70.9
	C1144.8,484.5,1183.1,549.1,1178.1,598.8z"/>
<path class="st13" d="M1136.4,461.8c-7.3-3.1-15.6-4.8-21.5-9.7c-5-4.3-7.7-10.5-12.4-15.2s-12.9-7.4-18.8-3.2
	c-2.8,2-4.6,5.2-7.4,7.2c-8,5.6-17.6-1-26.3-3.7c-9.8-3-21.8-0.3-30.2,6.7c-6,5.1-11.1,12.6-18.7,13.3c-6,0.6-11.7-3.6-17.5-1.5
	c-8.5,3.1-7.7,15.3-14.3,21.5c-4.7,4.4-11.7,4.6-17.8,6.4c-11.4,3.3-20.9,13.3-23.2,24.2c-1.2,5.8-0.5,12-3.6,17.4
	c-4,6.9-13.3,10.7-16.1,18c-5.9,15.2,12.7,19.5,21.6,30.3c11.2,13.6,6.4,39,23.5,45.4c4,1.5,9,1.8,11.6,5s1.6,8.4,3.7,11.9
	c4.1,6.7,16,4.3,23.1,7.4c1.5,1.1,2.9,2.2,4.3,3.5c37.6,28.3,85.8,34.2,119.8,10.6c28.2-19.6,39.9-54.9,34.4-91.5
	c0.3-0.3,0.7-0.5,1-0.8c8.1-7.7,11.1-17.4,11.8-27.7c1.1-18.8-16-25.3-17.4-40.9c-0.5-6,4.2-11.9,4.4-18
	C1150.7,470.6,1143.7,464.9,1136.4,461.8z"/>
<path class="st10" d="M828.8,906.1l-39.7,120.8c-3.6,11-2.6,38.5,8.7,42.6c24.9,7.2,51.5-4.2,62.2-26.9l52-110.3L828.8,906.1z"/>
<path class="st12" d="M1213.7,962.2c-45.5-63-69.2-150.6-89.5-185.6c-36.4-62.6-90.2,108.3-56,174.7c30.7,59.7,40.2,76,63,100.9
	c25,27.4,63.2,26.8,88.8-1.6l3.1-3.4C1239.6,1028.9,1228,982.1,1213.7,962.2z"/>
<ellipse class="st10" cx="1028.8" cy="754.4" rx="55.2" ry="29.2"/>
<path class="st10" d="M1052.6,1045.5c-6-0.1-11.6,0.9-13.9,0.8c-51-2.6-98.9-7.6-158.9-13.7c-21.3-6-67.5-12-83.9-14.1
	c0,0-1.1-1.7-7.5,11.4c-12.6,26-5.5,42.7,5.1,47.2c56.4,24.2,193.6,7.4,259.7-2.6L1052.6,1045.5z"/>
<path class="st12" d="M859.8,815.3c-38.7,73-45.4,78.2-72.9,143.1c-3.5,8.2,2.4,17.4,11.2,20.2l87.3,27.3c8.5,2.7,17.8-1.2,21.3-9
	c24.9-54.3,42-111.8,59-148.8C993.1,788.7,891,756.4,859.8,815.3z"/>
<path class="st10" d="M1142.2,738.5c1.2,7,3.7,13.3,4,16c8.2,60.2,12.9,117.3,18.8,188.9c-2.2,23.5-1.1,71.5-0.1,95.7
	c0.3,7.5,2.2,14.8,6,20.7c18.1,27.5,58.8,4.4,65.4-23.7c16.9-72-34.7-241-61.6-315.5L1142.2,738.5z"/>
<path class="st10" d="M1054.5,580.5c-19.8,12.7-26.7-16.4-32,10.9l-7.5,37.7c-9.3,47.2,15.5,83.7,55,90.9s79.4-17.7,88.8-64.9
	l8.7-44.6c4.4-22.5-3.6-41.6-21.2-49.3c-8.3-3.6-17.8-3.5-26.5-0.8L1054.5,580.5z"/>
<path class="st13" d="M1045.1,495.5c0,0-24.6,7.3-41.2,30.5c-16.2,22.7-20.7,52.8-14.2,79.9c0,0,14.7,44.1,20.2,65.1
	c0.8,3,11.7,20,11.4,16.8c-9-95.7,48.9-61.1,37.3-122.7L1045.1,495.5z"/>
<path class="st10" d="M1037.4,598.1c12.2,2.2,19.7,16.8,16.6,32.6s-15.5,26.8-27.8,24.6c-12.2-2.2-19.6-16.8-16.5-32.6
	S1025.1,595.8,1037.4,598.1z"/>
<path class="st10" d="M1068.5,638.3l-35.4-6.3c-4.9-0.9-10,4.6-11.5,12.1L1002,745.7c-4,21,5.8,34,20.4,36.9
	c14.6,2.9,28.4-5.4,32.4-26.2l19.8-102.8C1076.1,646.1,1073.3,639.2,1068.5,638.3z"/>
<path class="st13" d="M1169.5,606.4l-17.3-3.5c-2.5-0.4-5,1.3-5.4,3.8c-0.4,2.4,1.1,4.8,3.5,5.3l17.2,3.5c2.5,0.4,5-1.3,5.4-3.8
	C1173.4,609.3,1171.8,607,1169.5,606.4L1169.5,606.4z"/>
<path class="st13" d="M1097.6,592l-17.2-3.5c-2.5-0.5-5,1.1-5.5,3.7c-0.5,2.5,1.1,5,3.7,5.5l17.2,3.5c2.5,0.5,5-1.1,5.5-3.7
	C1101.8,595,1100.1,592.5,1097.6,592z"/>
<path class="st14" d="M1125.9,651.1l-0.3-1.3c-1,2.8-3.5,4.8-6.4,5l-7.6,0.5c-2.4,0.2-4.6-1.2-5.6-3.5l-0.3,0.7
	c-1.3,2.9,0.1,6.4,3,7.6c0.9,0.4,1.8,0.5,2.8,0.5l7.6-0.5c4.1-0.3,7.2-4,6.9-8.1C1126,651.7,1126,651.4,1125.9,651.1z"/>
<path class="st5" d="M1089.4,672.9c0.2,4.1,2.4,9.3,12.9,12.1c10.7,1.1,14.7-3,16.3-6.8L1089.4,672.9z"/>
<path class="st13" d="M1163.1,626.9l-7.6-0.7c-0.2,0.1-0.5-0.2-0.9-0.2c-2.6-0.5-5.4,2.3-6.2,6.4s0.7,7.8,3.3,8.3s5.4-2.3,6.2-6.4
	c0.2-1.2,0.3-2.4,0.1-3.5L1163.1,626.9z"/>
<path class="st13" d="M1087.7,613.1c0.4,0.2,7.9,1.1,7.9,1.1l-4.6,3.2c0.3,1.3,0.3,2.6,0,3.9c-0.8,4-3.6,6.9-6.2,6.4
	s-4.1-4.2-3.3-8.2S1085.1,612.6,1087.7,613.1z"/>
<path class="st10" d="M1116.4,667.3c-2.4,1.9-2.2,5.8,0.3,8.5l22.9,24.6c2.6,2.7,6.6,3.4,8.9,1.4s2.2-5.8-0.3-8.5l-22.9-24.6
	C1122.8,666.1,1118.8,665.4,1116.4,667.3z"/>
<path class="st10" d="M1117.1,737.1c-4.9-2.6-9.7-5.6-12.2-9.3c-1.6-2.6-2.5-5.6-2.5-8.7c-0.4-7.2,0.4-14.5,2.4-21.5
	c1.9-6.3,6-13,15.6-13.8c9.3-0.8,19.2,3,26.7,8.5c14.3,10.2,22,15.2,27.9,27.8c7.4,15.8,0.4,26-23.3,23.5
	C1139.7,742.2,1127.8,742.6,1117.1,737.1z"/>
<path class="st10" d="M1121.5,694.9l-46.1-4.3c-3.2-0.3-5.7-2.8-6-6c-0.2-2.6,1.8-4.8,4.3-5c0.3,0,0.7,0,1,0l46.1,4.3
	c3.2,0.3,5.7,2.8,6,6c0.2,2.6-1.8,4.8-4.4,5C1122.2,695,1121.8,694.9,1121.5,694.9z"/>
<path class="st10" d="M1117.8,709.2l-46.1-4.3c-3.2-0.3-5.7-2.8-6-6c-0.2-2.6,1.8-4.8,4.4-5c0.3,0,0.7,0,1,0l46.1,4.3
	c3.2,0.3,5.7,2.8,6,6c0.2,2.6-1.8,4.8-4.4,4.9C1118.4,709.2,1118.1,709.2,1117.8,709.2z"/>
<path class="st10" d="M1124.6,724.9l-46.1-4.3c-3.2-0.3-5.7-2.8-6-6c-0.2-2.6,1.8-4.8,4.4-5c0.3,0,0.7,0,1,0l46.1,4.3
	c3.2,0.3,5.7,2.8,6,6c0.2,2.6-1.8,4.8-4.4,4.9C1125.3,725,1124.9,725,1124.6,724.9z"/>
<path class="st10" d="M1137.4,739.9l-46.1-4.3c-3.2-0.3-5.7-2.8-6-6c-0.2-2.6,1.8-4.8,4.3-5c0.3,0,0.7,0,1,0l46.1,4.3
	c3.2,0.3,5.7,2.8,6,6c0.2,2.6-1.8,4.8-4.4,4.9C1138,740,1137.7,739.9,1137.4,739.9z"/>
<path class="st14" d="M1148.8,695.9c-0.5,0-1-0.2-1.4-0.6l-23.2-24.8c-1.9-2-4.8-2.6-6.4-1.3c-0.6,0.5-1,1.3-1,2.1
	c0,1.4,0.5,2.8,1.5,3.8l8.2,8.8c0.7,0.7,0.6,1.9-0.1,2.6c-0.7,0.7-1.9,0.6-2.6-0.1l-8.2-8.8c-1.7-1.7-2.6-4.1-2.5-6.5
	c0.1-1.8,0.9-3.5,2.3-4.6c3.1-2.5,8.2-1.8,11.4,1.6c0,0,23.2,24.8,23.2,25c0.7,0.8,0.6,1.9-0.2,2.6
	C1149.6,695.8,1149.2,695.9,1148.8,695.9L1148.8,695.9z"/>
<path class="st14" d="M1151.6,746.1h-0.2c-2.5-0.3-5-0.5-7.5-0.7c-9.5-0.7-18.4-1.4-27-5.7l-25.8-2.4c-4-0.4-7.2-3.6-7.6-7.7
	c-0.1-1.9,0.6-3.7,1.9-5c0.7-0.6,1.5-1.1,2.3-1.4l-9.4-0.9c-4-0.4-7.2-3.6-7.6-7.7c-0.1-1.9,0.6-3.7,1.9-5c1.5-1.4,3.5-2,5.4-1.8
	l22.6,2.1c0.1,0,0.3-0.1,0.3-0.3s-0.1-0.3-0.2-0.4l-29.2-2.7c-4-0.4-7.2-3.6-7.6-7.7c-0.1-1.9,0.6-3.7,1.9-5c1.5-1.4,3.5-2,5.4-1.8
	l32.8,3.1v-0.2l-28.8-2.8c-4-0.4-7.2-3.6-7.6-7.7c-0.1-1.9,0.6-3.7,1.9-5c1.5-1.4,3.4-2,5.4-1.8l46.1,4.3c0.8,0.1,1.5,0.3,2.3,0.6
	c0.6,0,1.2,0,1.8,0.1c1,0.1,1.8,0.9,1.7,1.9c-0.1,1-0.9,1.7-1.9,1.7l0,0c-0.6,0-1.3,0-1.9,0c-0.3,0-0.5-0.1-0.8-0.2
	c-0.5-0.2-1-0.4-1.5-0.4l-46.1-4.3c-0.9-0.1-1.9,0.2-2.6,0.8c-0.6,0.6-0.9,1.4-0.8,2.2c0.3,2.3,2.1,4,4.3,4.3l28.8,2.7
	c1.2,0.1,2.2,0.8,2.8,1.8c0.6,1,0.7,2.2,0.3,3.3v0.1c-0.6,1.5-2.1,2.4-3.7,2.2l-32.9-3.1c-0.9-0.1-1.9,0.2-2.6,0.8
	c-0.6,0.6-0.9,1.4-0.8,2.2c0.3,2.3,2.1,4,4.3,4.3l29.2,2.7c1,0.1,2,0.6,2.7,1.4c1.3,1.7,1.1,4.1-0.5,5.5c-0.8,0.7-1.8,1-2.9,0.9
	l-22.6-2.1c-0.9-0.1-1.9,0.2-2.6,0.8c-0.6,0.6-0.9,1.4-0.8,2.2c0.3,2.3,2.1,4,4.3,4.3l23.2,2.2c1.4,0.1,2.5,1.2,2.8,2.5
	c0.3,1.1,0,2.2-0.7,3s-1.7,1.2-2.7,1.1l-10.9-1c-0.9-0.1-1.9,0.2-2.6,0.8c-0.6,0.6-0.9,1.4-0.8,2.2c0.3,2.3,2.1,4,4.3,4.3l26.2,2.4
	c0.2,0,0.4,0.1,0.7,0.2c8,4,16.7,4.7,25.9,5.4c2.5,0.2,5,0.4,7.6,0.7c1,0.1,1.8,0.9,1.7,1.9C1153.4,745.5,1152.6,746.3,1151.6,746.1
	L1151.6,746.1z"/>
<ellipse class="st2" cx="1113.4" cy="1073.4" rx="50.6" ry="36"/>
<path class="st10" d="M1098,1035.1c1.1,2.4-0.6,5.2-3.7,6.2l-28.1,9.2c-3.1,1-6.5-0.1-7.6-2.5s0.6-5.2,3.7-6.2l28.1-9.2
	C1093.5,1031.6,1097,1032.7,1098,1035.1z"/>
<path class="st10" d="M1068.9,1087.4c4.9,0.1,9.9-0.3,13.4-2c2.3-1.3,4.2-3.2,5.5-5.5c3.3-5.2,5.5-11,6.8-17
	c1.1-5.4,0.6-12.1-6.7-16.5c-7.1-4.3-16.4-5.3-24.5-4.3c-15.4,1.9-20.9,2.7-30.7,9.8c-12.2,8.8-13.4,19.1,6.3,26.6
	C1049,1082.3,1058.2,1087.3,1068.9,1087.4z"/>
<path class="st10" d="M1082.9,1053.6l38.2,15.1c2.6,1.1,5.5,0.2,7.2-2.1c1.3-2.2,0.3-4.8-2.3-5.8l-38.2-15.1c-2.6-1-5.5-0.2-7.2,2.1
	C1079.3,1050,1080.3,1052.6,1082.9,1053.6z"/>
<path class="st10" d="M1080,1065.8l38.2,15.1c2.6,1.1,5.5,0.2,7.2-2.1c1.3-2.2,0.3-4.8-2.2-5.8l-38.2-15.1c-2.6-1.1-5.5-0.2-7.2,2.1
	C1076.4,1062.1,1077.4,1064.8,1080,1065.8z"/>
<path class="st10" d="M1068.2,1074.8l38.2,15.1c2.6,1,5.5,0.2,7.1-2.1c1.3-2.2,0.3-4.8-2.2-5.8l-38.1-15.1c-2.6-1.1-5.5-0.2-7.2,2.1
	C1064.6,1071.1,1065.7,1073.8,1068.2,1074.8z"/>
<path class="st10" d="M1052.1,1080.9l38.2,15.1c2.6,1,5.5,0.2,7.2-2.1c1.3-2.2,0.3-4.8-2.3-5.8L1057,1073c-2.6-1-5.5-0.2-7.2,2.1
	C1048.5,1077.2,1049.5,1079.8,1052.1,1080.9z"/>
<polygon class="st1" points="94.6,1131.3 25.1,1983 39.1,1983 108.6,1131.3 "/>
<polygon class="st1" points="599.5,1131.3 530,1983 544,1983 613.5,1131.3 "/>
<path class="st5" d="M1635.1,1071.6H593.9c-15.9,0-28.8,11-28.8,24.6v42.3c0,13.6,12.9,24.6,28.8,24.6h1041.2
	c15.9,0,28.8-11,28.8-24.6v-42.3C1663.9,1082.6,1651,1071.6,1635.1,1071.6z"/>
<path class="st15" d="M72.9,1088.9v56.9c0,9.6,5.9,17.3,13.2,17.3h538.7c7.3,0,13.2-7.8,13.2-17.3v-56.9c0-9.6-5.9-17.3-13.2-17.3
	H86.1C78.8,1071.6,72.9,1079.4,72.9,1088.9z"/>
<path class="st16" d="M899.3,1527h-22.5l-43.1,422.8c-0.6,5.5-5.2,9.7-10.8,9.7H615.7c-6.4-0.3-11.7,4.7-12,11
	c-0.3,6.4,4.7,11.7,11,12c0.3,0,0.6,0,1,0h215.5c12.3-0.1,22.5-9.4,23.8-21.6L899.3,1527z"/>
<path class="st17" d="M884.1,1006.1c-2.4,0-4.7-0.3-7-0.9l-21.9-5.9c-1.1-0.3-1.7-1.3-1.5-2.4v-0.1c0.3-1.1,1.4-1.7,2.5-1.4l22,5.9
	c10.8,2.9,22.1-2.4,26.8-12.6l41.3-90c0.5-1,1.7-1.5,2.7-1s1.5,1.7,1,2.7l-41.3,90C904.3,999.9,894.7,1006.1,884.1,1006.1z"/>
<path class="st15" d="M1644.3,1075.3c8.6,0,15.6,7,15.6,15.6v50.1c0,10-8.1,18.1-18.2,18.1H610.3v-83.8L1644.3,1075.3L1644.3,1075.3
	z M1644.3,1071.2H606.2v92h1035.5c12.3,0,22.2-10,22.2-22.2v-50.1C1663.9,1080,1655.1,1071.2,1644.3,1071.2z"/>
<path class="st12" d="M1764.1,283.2h151.2c4.9,0,8.8,4,8.8,8.9v237.4c0,4.9-4,8.8-8.8,8.8h-151.2c-4.9,0-8.8-4-8.8-8.8V292.1
	C1755.2,287.2,1759.2,283.2,1764.1,283.2z"/>
<path class="st17" d="M1740,283.2h151.2c4.9,0,8.8,4,8.8,8.9v237.4c0,4.9-4,8.8-8.8,8.8H1740c-4.9,0-8.8-4-8.8-8.8V292.1
	C1731.2,287.2,1735.1,283.2,1740,283.2z"/>
<path class="st18" d="M1700.3,337.5H1838c4.9,0,8.8,4,8.8,8.9v183.1c0,4.9-4,8.8-8.8,8.8h-137.7c-4.9,0-8.8-4-8.8-8.8V346.3
	C1691.5,341.4,1695.4,337.5,1700.3,337.5z"/>
<path class="st19" d="M1678.2,337.5h137.7c4.9,0,8.8,4,8.8,8.9v183.1c0,4.9-4,8.8-8.8,8.8h-137.7c-4.9,0-8.8-4-8.8-8.8V346.3
	C1669.3,341.4,1673.3,337.5,1678.2,337.5z"/>
<path class="st20" d="M1633.3,259.2h151.1c4.9,0,8.8,4,8.8,8.9v261.4c0,4.9-4,8.8-8.8,8.8h-151.1c-4.9,0-8.8-4-8.8-8.8V268
	C1624.4,263.1,1628.4,259.2,1633.3,259.2z"/>
<path class="st21" d="M1609.2,259.2h151.1c4.9,0,8.8,4,8.8,8.9v261.4c0,4.9-4,8.8-8.8,8.8h-151.1c-4.9,0-8.8-4-8.8-8.8V268
	C1600.4,263.1,1604.4,259.2,1609.2,259.2z"/>
<path class="st17" d="M1561.7,346.3h168.4c4.9,0,8.8,4,8.8,8.9v174.3c0,4.9-4,8.8-8.8,8.8h-168.4c-4.9,0-8.8-4-8.8-8.8V355.2
	C1552.9,350.3,1556.8,346.3,1561.7,346.3z"/>
<path class="st22" d="M1535.2,346.3h168.4c4.9,0,8.8,4,8.8,8.9v174.3c0,4.9-4,8.8-8.8,8.8h-168.4c-4.9,0-8.8-4-8.8-8.8V355.2
	C1526.4,350.3,1530.3,346.3,1535.2,346.3z"/>
<path class="st23" d="M1513.5,293.3h137.7c4.9,0,8.8,4,8.8,8.9v227.3c0,4.9-4,8.8-8.8,8.8h-137.7c-4.9,0-8.8-4-8.8-8.8V302.2
	C1504.7,297.3,1508.7,293.3,1513.5,293.3z"/>
<path class="st24" d="M1491.4,293.3h137.7c4.9,0,8.8,4,8.8,8.9v227.3c0,4.9-4,8.8-8.8,8.8h-137.7c-4.9,0-8.8-4-8.8-8.8V302.2
	C1482.6,297.3,1486.5,293.3,1491.4,293.3z"/>
<path class="st25" d="M1450.7,337.5h137.7c4.9,0,8.8,4,8.8,8.9v183.1c0,4.9-4,8.8-8.8,8.8h-137.7c-4.9,0-8.8-4-8.8-8.8V346.3
	C1441.8,341.4,1445.8,337.5,1450.7,337.5z"/>
<path class="st9" d="M1406.7,337.5h137.7c4.9,0,8.8,4,8.8,8.9v183.1c0,4.9-4,8.8-8.8,8.8h-137.7c-4.9,0-8.8-4-8.8-8.8V346.3
	C1397.8,341.4,1401.8,337.5,1406.7,337.5z"/>
<path class="st26" d="M1362.2,248.5h137.7c4.9,0,8.8,4,8.8,8.9v272.1c0,4.9-4,8.8-8.8,8.8h-137.7c-4.9,0-8.8-4-8.8-8.8V257.4
	C1353.3,252.5,1357.3,248.5,1362.2,248.5z"/>
<path class="st27" d="M1340.1,248.5h137.7c4.9,0,8.8,4,8.8,8.9v272.1c0,4.9-4,8.8-8.8,8.8h-137.7c-4.9,0-8.8-4-8.8-8.8V257.4
	C1331.2,252.5,1335.2,248.5,1340.1,248.5z"/>
<path class="st28" d="M1303.8,337.5h137.7c4.9,0,8.8,4,8.8,8.9v183.1c0,4.9-4,8.8-8.8,8.8h-137.7c-4.9,0-8.8-4-8.8-8.8V346.3
	C1295,341.4,1298.9,337.5,1303.8,337.5z"/>
<path class="st29" d="M1281.7,337.5h137.7c4.9,0,8.8,4,8.8,8.9v183.1c0,4.9-4,8.8-8.8,8.8h-137.7c-4.9,0-8.8-4-8.8-8.8V346.3
	C1272.8,341.4,1276.8,337.5,1281.7,337.5z"/>
<path class="st5" d="M1232,537.6h730.6c6.4,0,11.5,5.1,11.5,11.5v26.1c0,6.4-5.1,11.5-11.5,11.5H1232c-6.4,0-11.5-5.1-11.5-11.5
	v-26.1C1220.5,542.8,1225.7,537.6,1232,537.6z"/>
<path class="st2" d="M1190.6,673.7h38.6c-18.8,0-36.2,13.8-39,30.7l-49,297c-2.8,17,10.2,30.7,28.9,30.7h-38.5
	c-18.8,0-31.7-13.8-28.9-30.7l49-297C1154.4,687.4,1171.9,673.7,1190.6,673.7z"/>
<path class="st3" d="M1122.2,1001.4l48.9-297c2.8-17,20.3-30.7,39-30.7h405.3c18.8,0,31.7,13.8,28.9,30.7l-49,297
	c-2.8,17-20.3,30.7-39,30.7H1151C1132.4,1032.2,1119.4,1018.4,1122.2,1001.4z"/>
<path class="st2" d="M1548.7,1022.5h-382.1c-9.6,0-18.2-3.7-23.7-10.1c-4.9-5.9-7-13.6-5.6-21.1l46.1-279
	c2.8-16.9,20.2-30.6,38.8-30.6h382.1c9.6,0,18.2,3.7,23.7,10.1c4.9,5.9,7,13.6,5.6,21.1l-46.1,279
	C1584.7,1008.8,1567.3,1022.5,1548.7,1022.5z M1141.4,991.9c-1.2,6.3,0.6,12.9,4.7,17.8c4.7,5.5,12.2,8.7,20.5,8.7h382.1
	c16.7,0,32.3-12.2,34.8-27.2l46.1-279c1.2-6.3-0.5-12.9-4.7-17.8c-4.7-5.5-12.2-8.7-20.5-8.7h-382.1c-16.7,0-32.3,12.2-34.8,27.2
	L1141.4,991.9z"/>
<path class="st2" d="M1519.5,1059.9H1327c-3.1,0-5.7,2.5-5.7,5.7c0,3.1,2.5,5.7,5.7,5.7l0,0h192.5c3.1,0,5.7-2.6,5.7-5.7
	C1525.2,1062.4,1522.7,1059.9,1519.5,1059.9L1519.5,1059.9z"/>
<path class="st2" d="M1430.1,847.8c-1.2-5.4-5.8-9.2-11.3-9.4h-56.1c-5-0.2-9.3,3.7-9.5,8.7c0,0.8,0,1.6,0.2,2.4l40.1,218.6h77
	L1430.1,847.8z M1412.1,946.3c-9.3,0-19.4-13.3-22.6-29.8s1.8-29.8,11.1-29.8s19.4,13.3,22.6,29.8S1421.5,946.3,1412.1,946.3
	L1412.1,946.3z"/>
<rect x="590.2" y="1019.9" class="st30" width="35.4" height="51.6"/>
<path class="st31" d="M497.5,1019.9L497.5,1019.9l60.5,0.1c0.8,0,1.5,0.1,2.2,0.2c4.1,0.8,7.1,3.9,7.1,7.6v36.3
	c0,3.3-2.5,6.2-6.1,7.3h28.9v-51.6L497.5,1019.9L497.5,1019.9z"/>
<path class="st31" d="M739.8,1020h-96.5c-0.4,0-0.8,0-1.2-0.1h-16.5v51.6H741c5.4-1.2,9.3-5.7,9.3-11v-29.3
	C750.3,1025.5,745.7,1020.8,739.8,1020z"/>
<rect x="378" y="1044.2" class="st5" width="181.5" height="2.6"/>
<rect x="378" y="1029.7" class="st5" width="181.5" height="4.7"/>
<path class="st5" d="M559.3,1064.9c-0.3,0.6-1,1-1.7,1H378v-1H559.3z"/>
<polygon class="st5" points="559.5,1026.8 559.5,1026.9 559.5,1028.6 378,1028.6 378,1026.8 "/>
<rect x="378" y="1036.8" class="st5" width="181.5" height="5.9"/>
<rect x="378" y="1054" class="st5" width="181.5" height="5.1"/>
<rect x="378" y="1048" class="st5" width="181.5" height="5.4"/>
<path class="st5" d="M557.6,1025.2c0.7,0,1.3,0.4,1.7,1H378v-1H557.6z"/>
<rect x="378" y="1061.6" class="st5" width="181.5" height="2.3"/>
<rect x="378" y="1028.6" class="st32" width="181.5" height="1.1"/>
<rect x="378" y="1042.7" class="st32" width="181.5" height="1.5"/>
<rect x="378" y="1034.3" class="st32" width="181.5" height="2.4"/>
<path class="st32" d="M559.3,1026.2c0.1,0.2,0.1,0.4,0.2,0.6H378v-0.6H559.3z"/>
<path class="st32" d="M559.5,1063.8v0.4c0,0.3-0.1,0.5-0.2,0.7H378v-1.1H559.5z"/>
<rect x="378" y="1059.2" class="st32" width="181.5" height="2.4"/>
<rect x="378" y="1053.4" class="st32" width="181.5" height="0.6"/>
<rect x="378" y="1046.8" class="st32" width="181.5" height="1.2"/>
<path class="st30" d="M378,1065.9h179.7c0.7,0,1.3-0.4,1.7-1c0.1-0.2,0.2-0.5,0.2-0.7v-37.3v-0.1c0-0.2-0.1-0.4-0.2-0.6
	c-0.3-0.6-1-1-1.7-1H373.3c1.3-3.1,4.8-5.2,8.8-5.2H558c0.8,0,1.5,0.1,2.2,0.2c4.1,0.8,7.1,3.9,7.1,7.6v36.3c0,3.4-2.5,6.2-6.1,7.4
	H554c-1.1,0-2.2,0.1-3.3,0.4H391.9c-0.6,0-1.1,0-1.7,0.1h-8.1c-4.1,0-7.6-2.2-8.8-5.3v-0.8H378z"/>
<path class="st33" d="M577.4,962.7L577.4,962.7z"/>
<path class="st34" d="M587.4,960.3V911c0.1-4.7-2.9-8.9-7.3-10.3c-0.7-0.2-1.5-0.3-2.3-0.3h-99.7v-0.1H726c7,0,12.7,5.1,12.7,11.3
	v47.9c0,6.3-5.7,11.4-12.7,11.4H579.8C584.1,969.7,587.4,965.4,587.4,960.3z"/>
<rect x="392.1" y="938.3" class="st5" width="187.1" height="7.4"/>
<rect x="392.1" y="923.1" class="st5" width="187.1" height="8"/>
<rect x="392.1" y="946.5" class="st5" width="187.1" height="7"/>
<path class="st5" d="M577.4,907.4c0.8,0,1.5,0.6,1.7,1.3H392.2v-1.3H577.4z"/>
<rect x="392.1" y="913.5" class="st5" width="187.1" height="6.3"/>
<rect x="392.1" y="933.2" class="st5" width="187.1" height="3.5"/>
<path class="st5" d="M579.1,961.4c-0.2,0.7-0.9,1.3-1.7,1.3H392.2v-1.3H579.1z"/>
<path class="st5" d="M579.3,909.5L579.3,909.5v2.4H392.2v-2.5L579.3,909.5L579.3,909.5L579.3,909.5z"/>
<rect x="392.1" y="956.8" class="st5" width="187.1" height="3.1"/>
<rect x="392.1" y="912" class="st32" width="187.1" height="1.5"/>
<rect x="392.1" y="931.1" class="st32" width="187.1" height="2.1"/>
<rect x="392.1" y="919.8" class="st32" width="187.1" height="3.3"/>
<path class="st32" d="M579.1,908.7c0.1,0.3,0.2,0.5,0.2,0.8H392.2v-0.8H579.1z"/>
<path class="st32" d="M579.3,959.9v0.5c0,0.3-0.1,0.7-0.2,1H392.2v-1.5H579.3z"/>
<rect x="392.1" y="953.5" class="st32" width="187.1" height="3.3"/>
<rect x="392.1" y="945.7" class="st32" width="187.1" height="0.8"/>
<rect x="392.1" y="936.7" class="st32" width="187.1" height="1.6"/>
<path class="st35" d="M422.6,971h-26.2c-4.3-0.2-8-3.1-9.1-7.2v-1.1h190c0.8,0,1.5-0.6,1.7-1.3c0.1-0.3,0.2-0.7,0.2-1v-50.7v-0.1
	c0-0.3-0.1-0.6-0.2-0.8c-0.2-0.8-0.9-1.3-1.7-1.3h-190c1.2-4.1,4.8-7,9.1-7.1h181.4c0.8,0,1.6,0.1,2.3,0.3c4.5,1.4,7.5,5.6,7.3,10.3
	v49.3c0,5.1-3.3,9.4-7.7,10.5H425.2C424.3,970.7,423.5,970.8,422.6,971z"/>
<path class="st36" d="M425.2,970.7c-0.9,0-1.7,0.1-2.5,0.2c-5.8,1-10.1,5.6-10.1,11.1v26.4c0,6.3,5.7,11.3,12.7,11.3h93.5v-49.1
	L425.2,970.7L425.2,970.7z"/>
<rect x="518.7" y="970.7" class="st31" width="11.9" height="49.1"/>
<polygon class="st36" points="530.5,970.7 530.5,1019.8 539.4,1019.8 538.8,970.7 "/>
<polygon class="st31" points="538.8,970.7 539.4,1019.8 550.3,1019.8 550.3,970.7 "/>
<path class="st36" d="M579.8,970.7h-29.5v49.1h88.3c-3.2-0.9-5.4-3.9-5.3-7.3v-34.3c-0.1-3.3,2-6.2,5.1-7.2c0.5-0.2,1.1-0.2,1.6-0.2
	h43.4v-0.1H579.8z"/>
<path class="st33" d="M640.3,1014.2L640.3,1014.2z"/>
<path class="st5" d="M639.1,1013.3h130v0.9H640.3C639.7,1014.2,639.3,1013.8,639.1,1013.3z"/>
<rect x="639" y="993.7" class="st5" width="130.1" height="2.4"/>
<rect x="639" y="986.7" class="st5" width="130.1" height="5.6"/>
<path class="st5" d="M639.1,976.7c0.2-0.5,0.6-0.9,1.2-0.9h128.8v0.9H639.1z"/>
<rect x="639" y="980" class="st5" width="130.1" height="4.4"/>
<rect x="639" y="997.3" class="st5" width="130.1" height="5.2"/>
<rect x="639" y="1010.2" class="st5" width="130.1" height="2.1"/>
<rect x="639" y="1003" class="st5" width="130.1" height="4.9"/>
<polygon class="st5" points="639,979 639,977.4 639,977.3 769.1,977.3 769.1,979 "/>
<rect x="639" y="979" class="st32" width="130.1" height="1"/>
<rect x="639" y="992.3" class="st32" width="130.1" height="1.4"/>
<rect x="639" y="984.4" class="st32" width="130.1" height="2.3"/>
<path class="st32" d="M639,977.3c0-0.2,0-0.4,0.1-0.6h130v0.6H639z"/>
<path class="st32" d="M639.1,1013.3c-0.1-0.2-0.1-0.5-0.1-0.7v-0.3h130.1v1H639.1z"/>
<rect x="639" y="1007.9" class="st32" width="130.1" height="2.3"/>
<rect x="639" y="1002.4" class="st32" width="130.1" height="0.6"/>
<rect x="639" y="996.2" class="st32" width="130.1" height="1.1"/>
<path class="st37" d="M638.7,1019.9L638.7,1019.9c-3.3-0.9-5.5-3.9-5.4-7.3v-34.3c-0.1-3.3,2-6.2,5.1-7.2c0.5-0.2,1.1-0.2,1.6-0.2
	h126.1c3,0.1,5.5,2.1,6.3,5H640.3c-0.6,0-1,0.4-1.2,0.9c-0.1,0.2-0.1,0.4-0.1,0.6v0.1v35.3c0,0.2,0.1,0.5,0.1,0.7
	c0.2,0.5,0.6,0.9,1.2,0.9h132.1v0.8c-0.8,2.9-3.3,4.9-6.3,5H640C639.6,1020,639.1,1020,638.7,1019.9z"/>
</svg>
