<?xml version="1.0" encoding="utf-8"?>
<!-- Generator: Adobe Illustrator 25.2.3, SVG Export Plug-In . SVG Version: 6.00 Build 0)  -->
<svg version="1.1" id="_Layer_" xmlns="http://www.w3.org/2000/svg" xmlns:xlink="http://www.w3.org/1999/xlink" x="0px" y="0px"
	 viewBox="0 0 2090.2 1983.2" style="enable-background:new 0 0 2090.2 1983.2;" xml:space="preserve">
<style type="text/css">
	.st0{fill:#6D72A0;}
	.st1{fill:#000543;}
	.st2{fill:#27317A;}
	.st3{fill:#C3D0ED;}
	.st4{fill:#FFFFFF;}
	.st5{fill:#693523;}
	.st6{fill:#FFB288;}
	.st7{fill:#3341A3;}
	.st8{fill:#6E5082;}
	.st9{fill:#FF9985;}
	.st10{fill:#F75B37;}
	.st11{fill:#FFD878;}
	.st12{fill:#000544;}
	.st13{fill:#FA694F;}
	.st14{fill:#DCE4F9;}
	.st15{fill:#8BB5D8;}
	.st16{fill:#FCB16D;}
	.st17{fill:#99C7E0;}
	.st18{fill:#6798BA;}
	.st19{fill:#727BA0;}
	.st20{fill:#4F567F;}
	.st21{fill:#FC8663;}
	.st22{fill:#CD603F;}
	.st23{fill:#99432E;}
	.st24{fill:#9E86B2;}
	.st25{fill:#FCE8D0;}
	.st26{fill:#E5AD88;}
	.st27{fill:#67BCF4;}
	.st28{fill:#4495D8;}
	.st29{fill:#C64B26;}
	.st30{fill:#FC6D3A;}
	.st31{fill:#E0E5FC;}
	.st32{fill:#5846B2;}
	.st33{fill:#91B4DE;}
	.st34{fill:#5C8AB7;}
	.st35{fill:#FFC269;}
	.st36{fill:#FFEB9A;}
</style>
<polygon class="st0" points="1555.4,1075.2 1621.4,1884.5 1608.2,1884.5 1542.1,1075.2 "/>
<path class="st1" d="M1454.2,1881c0.3-1.4,0.5-2.8,0.7-4.2l49.4-425.7c3.2-27.6-16.7-50.1-44.3-50.1h-251.1c-27.6,0-46.8,6-50,33.6
	l-55.3,442.2c-0.2,1.4-0.2,2.8-0.3,4.2H1454.2z"/>
<path class="st2" d="M1488.9,1881c0.3-1.4,0.5-2.8,0.7-4.2l49.4-425.7c3.2-27.6-16.7-50.1-44.3-50.1h-33.4
	c-27.6,0-52.7,22.5-55.9,50.1c0,0-49.6,428.5-49.7,429.8L1488.9,1881z"/>
<path class="st1" d="M1097.8,1870.4h407.1c3,0,5.3,2.4,5.3,5.3v3.5c0,3-2.4,5.3-5.3,5.3h-407.1c-3,0-5.3-2.4-5.3-5.3v-3.5
	C1092.4,1872.8,1094.8,1870.4,1097.8,1870.4z"/>
<path class="st1" d="M1472.3,1818c0,9.3-7.5,16.8-16.8,16.8s-16.8-7.5-16.8-16.8s7.5-16.8,16.8-16.8l0,0
	C1464.8,1801.3,1472.3,1808.8,1472.3,1818z"/>
<polygon class="st3" points="746.4,848.6 426.8,848.6 558,1401.3 923.6,1401.3 "/>
<polygon class="st1" points="838.8,1432.3 811.7,1131.9 824.1,1130.6 851.2,1431 "/>
<path class="st4" d="M760.6,848.6H427.3l14.5,11.6c12.2,9.8,21,23.1,25.2,38.2l129,485.4c2.7,10.1,12.2,18.1,21.6,18.1h348.8
	L809.2,912.4C800.6,886.2,783.5,863.8,760.6,848.6z"/>
<path class="st4" d="M771,1400.9l10.1,48.5c4.6,1.2,9.3,1.8,14.1,1.8h205.1l-10.5-50.3H771z"/>
<path class="st4" d="M1098.4,1400.9H945.9l10.5,50.2h199.3C1149.9,1423.4,1124.3,1400.9,1098.4,1400.9z"/>
<path class="st3" d="M761.6,1400.9H557.8c9,28.2,32.6,50.4,60.8,50.4H819C813.2,1423.5,787.5,1400.9,761.6,1400.9z"/>
<path class="st5" d="M361.5,987.8c0,0.1,0.1,0.3,0.1,0.4C361.6,988,361.5,987.9,361.5,987.8z"/>
<path class="st6" d="M0,1217.8c1.2,0.5,2.6,1,3.9,1.3C1.4,1218.3,0,1217.8,0,1217.8z"/>
<path class="st1" d="M209.2,1037.6h15.1c7.8,0,14.1-6.3,14.1-14.1V919.7c0-12-9.7-21.7-21.7-21.7s-21.7,9.7-21.7,21.7v103.8
	C195.1,1031.3,201.4,1037.6,209.2,1037.6z"/>
<path class="st1" d="M213.4,916.4l8-1.1l-38.6-273c-1.2-8.8,3.6-17.3,11.8-20.6l201.1-83l-3.1-7.5l-201.1,83
	c-11.6,4.8-18.5,16.8-16.7,29.2L213.4,916.4z"/>
<path class="st7" d="M206.1,918.6c0,5.4,4.3,9.7,9.7,9.7s9.7-4.3,9.7-9.7s-4.3-9.7-9.7-9.7l0,0C210.4,908.9,206.1,913.3,206.1,918.6
	L206.1,918.6z"/>
<rect x="366.9" y="556.1" transform="matrix(0.9245 -0.3811 0.3811 0.9245 -185.3991 194.3417)" class="st7" width="62.2" height="18.4"/>
<path class="st1" d="M373,599.1l-18.7-45.3c-7.2-17.6-0.5-38.3,16.4-47.2c18-9.5,40.3-2.7,49.8,15.3c0.5,1,1,2,1.5,3.1l19,46.1
	c1.2,3-0.2,6.4-3.2,7.6l-57.1,23.5C377.6,603.5,374.2,602.1,373,599.1z"/>
<path class="st1" d="M500.1,607.1l-18.2-20.5c-27.2-30.7-74.2-33.5-104.9-6.3c-17,15.1-26.2,37.1-24.9,59.8l1.6,27.4
	c0.1,2.1,1.9,3.7,4,3.6c0.4,0,0.9-0.1,1.3-0.3l139.7-57.6c1.9-0.8,2.9-3,2.1-4.9C500.6,607.8,500.4,607.5,500.1,607.1z"/>
<path class="st8" d="M1068.1,1401.5c-81.8,0.7-238.3,3-316.9-4.1c-92-8.3-82.9-181.8-54.7-181.8c184.4,0,403.7,17.5,482.2,63.2
	c41.3,24,34.8,104.9-10.1,116.6C1142.5,1402.2,1118.1,1401.1,1068.1,1401.5z"/>
<path class="st9" d="M1065.2,1334c-11.8-37.9-73.3-43.2-97.3-9.3c-16.1,22.6-15.5,25.9-20.4,66.8c-15.3,128-46.6,211.1-90.1,440.3
	l41.8,13.1c8.4-15.9,144.4-394.2,156.4-446.7C1060.7,1376,1071.6,1354.7,1065.2,1334z"/>
<path class="st9" d="M1195.9,1320.6c-15.7-34.7-62.6-30.4-83.1,7.6l-8.9,16.4c-9.2,17-10.7,32.8-11,51.3
	c-2,125.9-18.8,298.2-51.2,445.5c-1,4.8,1.8,9,6.1,9l28.5,0.5c0,0,87.6-305.5,116.8-465.5
	C1197.2,1362.7,1204.5,1339.6,1195.9,1320.6z"/>
<path class="st10" d="M1134.8,1858.8l-11.1-3.7c-40.4,19.2-68.7,7-84.1-4.8l-5.6,28.3c-0.5,2.6,2.9,5,7,5l86.2,1
	C1149.8,1884.9,1155.5,1865.6,1134.8,1858.8z"/>
<path class="st9" d="M1123.7,1855.2l-71.7-23.7c-4.1-1.3-8.8,0.1-9.3,2.9l-3.2,16C1055,1862.1,1083.3,1874.3,1123.7,1855.2z"/>
<path class="st10" d="M948.5,1858.3l-11.1-3.7c-40.6,19.2-69,7-84.6-4.8l-5.6,28.3c-0.5,2.6,2.9,5,7,5l86.6,1
	C963.6,1884.4,969.3,1865.2,948.5,1858.3z"/>
<path class="st9" d="M937.4,1854.7l-72-23.7c-4.1-1.3-8.8,0.1-9.4,2.9l-3.2,16C868.4,1861.7,896.8,1873.9,937.4,1854.7z"/>
<path class="st11" d="M1033,936.7c1.8-16.4,2.8-26.1,12-49.9c12.9-33.4,31.6-108.2,30-124.6c-2.2-21.6-12.9-37.3-26.1-51.6
	c-34-37.1-73.3-35.8-100.1-28.2c-18.3,5.1-43.4,12.2-60.1,23.8c-115.4,80.1-64.6,98.8-64.6,98.8c-4.8,41.8-2.4,100.9-11.1,142.8
	C884.1,947.7,958.6,957.1,1033,936.7z"/>
<path class="st11" d="M1025.6,992.3c0.9-7.2,1.5-14,2.5-20.2c2.5-16,4-26.6,4.9-35.4c-74.4,20.4-148.9,10.9-220,11.1
	c-0.6,2.8-1.1,5.5-1.7,8.3c-2.9,12.4-6.8,24.6-11.6,36.4C869,1012.7,945.6,1010.4,1025.6,992.3z"/>
<path class="st11" d="M799.6,992.5c-22.3,54.5-60.8,92.6-90.3,145.6c-16.1,28.9-55.8,102.5-18.6,99.8c37.9-2.8,71.8,13.2,131.6,5.8
	c67.4-8.3,86.3,8.6,127.5-1c14.4-3.3,30.3-18.5,34.3-32.3c27.9-96.2,35.8-169.2,41.6-218.1C945.6,1010.4,869,1012.7,799.6,992.5z"/>
<path class="st12" d="M1119.4,569.2c-4.3,42.4-52,74.5-95.6,62.4c-43.7-12.1-69.9-55.1-58.5-96.2s-1-63.1,44.1-67.3
	C1087.8,460.7,1124.2,522,1119.4,569.2z"/>
<path class="st12" d="M1079.8,439.1c-6.9-2.9-14.8-4.5-20.4-9.2c-4.8-4.1-7.4-10-11.7-14.4c-4.4-4.4-12.2-7.1-17.9-3.1
	c-2.7,1.9-4.4,4.9-7,6.8c-7.6,5.3-16.7-1-25-3.5c-9.3-2.9-20.8-0.3-28.7,6.4c-5.7,4.8-10.5,12-17.8,12.7c-5.7,0.5-11.1-3.4-16.7-1.4
	c-8.1,3-7.3,14.6-13.6,20.4c-4.4,4.1-11.1,4.4-16.9,6.1c-10.8,3.1-19.9,12.6-22,23c-1.1,5.5-0.5,11.4-3.4,16.5
	c-3.8,6.6-12.6,10.2-15.3,17.1c-5.6,14.4,12.1,18.5,20.5,28.8c10.6,12.9,6,37.1,22.3,43.2c3.8,1.5,8.6,1.7,11,4.8
	c2.5,3,1.5,8,3.6,11.3c3.9,6.3,15.2,4.1,22,7.1c1.4,1,2.8,2.1,4.1,3.3c35.7,26.9,81.5,32.5,113.9,10c26.8-18.7,37.9-52.1,32.7-86.9
	c0.3-0.3,0.7-0.5,1-0.8c7.7-7.3,10.6-16.6,11.2-26.3c1.1-17.9-15.2-24-16.5-38.9c-0.5-5.7,4-11.3,4.2-17.1
	C1093.4,447.4,1086.7,442,1079.8,439.1z"/>
<path class="st9" d="M787.5,861.2l-37.7,114.7c-3.4,10.5-2.4,36.6,8.3,40.5c23.7,6.9,48.9-4,59.1-25.5L866.7,886L787.5,861.2z"/>
<path class="st11" d="M1153.2,914.6c-43.3-59.9-65.7-143.1-85-176.4c-34.6-59.5-85.7,103-53.2,166c29.2,56.7,38.2,72.2,59.9,95.9
	c23.8,26.1,60,25.5,84.4-1.5l3-3.3C1177.8,977.9,1166.9,933.5,1153.2,914.6z"/>
<ellipse class="st9" cx="977.6" cy="717.1" rx="52.4" ry="27.8"/>
<path class="st9" d="M1000.2,993.6c-5.7-0.1-11,0.8-13.2,0.7c-48.5-2.5-93.9-7.2-150.9-13.1c-20.3-5.7-64.1-11.4-79.7-13.4
	c0,0-1.1-1.6-7.1,10.8c-12,24.7-5.2,40.6,4.9,44.9c53.6,23,183.9,7,246.7-2.5L1000.2,993.6z"/>
<path class="st11" d="M817,774.9c-36.8,69.4-43.1,74.3-69.2,136c-3.3,7.7,2.3,16.5,10.6,19.1l82.9,25.9c8.1,2.5,16.9-1.2,20.3-8.6
	c23.7-51.6,39.9-106.3,56.1-141.3C943.7,749.7,846.7,718.9,817,774.9z"/>
<path class="st9" d="M1085.3,701.9c1.2,6.7,3.5,12.6,3.8,15.2c7.8,57.2,12.2,111.5,17.8,179.5c-2.1,22.3-1,67.9-0.1,90.9
	c0.3,7.1,2.1,14.1,5.7,19.6c17.2,26.2,55.9,4.1,62.1-22.5c16.1-68.4-32.9-229-58.6-299.8L1085.3,701.9z"/>
<path class="st9" d="M1002,551.8c-18.8,12.1-25.3-15.6-30.4,10.3l-7.1,35.9c-8.8,44.9,14.7,79.6,52.3,86.4
	c37.6,6.8,75.5-16.8,84.3-61.7l8.3-42.4c4.2-21.4-3.4-39.5-20.2-46.8c-7.9-3.4-16.9-3.3-25.2-0.7L1002,551.8z"/>
<path class="st12" d="M993,471.1c0,0-23.4,7-39.1,29c-15.4,21.5-19.7,50.2-13.5,75.9c0,0,13.9,41.9,19.2,61.9
	c0.7,2.9,11.1,19,10.8,16c-8.6-90.9,46.5-58,35.5-116.6L993,471.1z"/>
<path class="st9" d="M985.7,568.5c11.6,2.1,18.7,16,15.7,30.9c-2.9,15-14.8,25.4-26.4,23.3c-11.6-2.1-18.7-16-15.7-30.9
	S974.1,566.4,985.7,568.5z"/>
<path class="st9" d="M1015.3,606.7l-33.6-6c-4.6-0.8-9.5,4.4-10.9,11.5l-18.6,96.5c-3.8,20,5.5,32.3,19.4,35.1s27-5.1,30.8-24.9
	l18.8-97.7C1022.5,614.1,1019.9,607.6,1015.3,606.7z"/>
<path class="st12" d="M1111.2,576.5l-16.4-3.3c-2.4-0.4-4.7,1.2-5.1,3.7c-0.4,2.3,1.1,4.5,3.4,5.1l16.4,3.3c2.4,0.4,4.7-1.2,5.1-3.7
	C1114.9,579.2,1113.5,577,1111.2,576.5L1111.2,576.5z"/>
<path class="st12" d="M1042.9,562.8l-16.4-3.3c-2.4-0.5-4.7,1.1-5.2,3.5s1.1,4.7,3.5,5.2l16.4,3.3c2.4,0.5,4.7-1.1,5.2-3.5
	S1045.4,563.2,1042.9,562.8z"/>
<path class="st13" d="M1069.9,618.9l-0.3-1.3c-0.9,2.7-3.3,4.5-6.1,4.8l-7.2,0.5c-2.3,0.1-4.4-1.2-5.3-3.3l-0.3,0.6
	c-1.2,2.8,0.1,6,2.8,7.3c0.8,0.4,1.7,0.5,2.6,0.4l7.2-0.5c3.9-0.3,6.8-3.8,6.5-7.7C1070,619.5,1069.9,619.2,1069.9,618.9z"/>
<path class="st4" d="M1035.2,639.6c0.2,3.9,2.3,8.9,12.2,11.5c10.2,1,13.9-2.9,15.5-6.5L1035.2,639.6z"/>
<path class="st12" d="M1105.2,595.9l-7.2-0.7c-0.2,0.1-0.5-0.2-0.8-0.2c-2.5-0.5-5.1,2.2-5.9,6s0.6,7.4,3.1,7.9s5.1-2.2,5.9-6
	c0.2-1.1,0.2-2.2,0.1-3.4L1105.2,595.9z"/>
<path class="st12" d="M1033.5,582.8c0.3,0.2,7.5,1.1,7.5,1.1l-4.4,3c0.2,1.2,0.2,2.5,0,3.7c-0.7,3.8-3.4,6.6-5.9,6.1s-3.9-4-3.2-7.8
	S1031,582.3,1033.5,582.8z"/>
<path class="st9" d="M1060.8,634.3c-2.2,1.8-2.1,5.5,0.3,8.1l21.8,23.4c2.4,2.6,6.2,3.2,8.5,1.3c2.2-1.9,2.1-5.5-0.3-8.1l-21.8-23.4
	C1066.8,633.2,1063,632.5,1060.8,634.3z"/>
<path class="st9" d="M1061.5,700.6c-4.7-2.4-9.2-5.3-11.6-8.8c-1.5-2.5-2.4-5.3-2.3-8.3c-0.4-6.9,0.4-13.8,2.3-20.4
	c1.8-6,5.7-12.4,14.8-13.1c8.9-0.7,18.2,2.9,25.4,8c13.6,9.7,20.9,14.4,26.5,26.4c7,15,0.3,24.7-22.2,22.3
	C1082.9,705.5,1071.6,705.9,1061.5,700.6z"/>
<path class="st9" d="M1065.6,660.5l-43.8-4.1c-3-0.3-5.4-2.7-5.7-5.7c-0.2-2.4,1.7-4.5,4.1-4.7c0.3,0,0.7,0,1,0l43.8,4.1
	c3,0.3,5.4,2.7,5.7,5.7c0.2,2.4-1.7,4.6-4.1,4.7C1066.3,660.6,1066,660.6,1065.6,660.5z"/>
<path class="st9" d="M1062.1,674.1l-43.8-4.1c-3-0.3-5.4-2.7-5.7-5.7c-0.2-2.4,1.7-4.6,4.1-4.7c0.3,0,0.6,0,1,0l43.8,4.1
	c3,0.3,5.4,2.7,5.7,5.7c0.1,2.4-1.7,4.6-4.2,4.7C1062.7,674.2,1062.4,674.2,1062.1,674.1z"/>
<path class="st9" d="M1068.6,689.1l-43.8-4.1c-3-0.3-5.4-2.7-5.7-5.7c-0.2-2.4,1.7-4.6,4.1-4.7c0.3,0,0.6,0,1,0l43.8,4.1
	c3,0.3,5.4,2.7,5.7,5.7c0.1,2.4-1.7,4.6-4.2,4.7C1069.2,689.1,1068.9,689.1,1068.6,689.1z"/>
<path class="st9" d="M1080.7,703.3l-43.8-4.1c-3-0.3-5.4-2.7-5.7-5.7c-0.2-2.4,1.7-4.5,4.1-4.7c0.3,0,0.6,0,1,0l43.8,4.1
	c3,0.3,5.4,2.7,5.7,5.7c0.1,2.4-1.7,4.6-4.2,4.7C1081.4,703.4,1081,703.3,1080.7,703.3z"/>
<path class="st13" d="M1091.6,661.5c-0.5,0-1-0.2-1.3-0.6l-22-23.6c-1.8-1.9-4.6-2.5-6.1-1.2c-0.6,0.5-0.9,1.2-1,2
	c0,1.3,0.5,2.6,1.4,3.6l7.8,8.3c0.6,0.7,0.6,1.8-0.1,2.4c-0.7,0.6-1.8,0.6-2.4-0.1l-7.7-8.3c-1.6-1.6-2.5-3.9-2.4-6.2
	c0.1-1.7,0.9-3.3,2.2-4.4c2.9-2.4,7.8-1.7,10.8,1.5c0,0,22,23.6,22.1,23.8c0.6,0.7,0.6,1.8-0.2,2.4
	C1092.3,661.4,1091.9,661.5,1091.6,661.5L1091.6,661.5z"/>
<path class="st13" d="M1094.2,709.2h-0.2c-2.4-0.2-4.8-0.4-7.1-0.6c-9-0.7-17.5-1.4-25.7-5.4l-24.5-2.3c-3.8-0.4-6.9-3.4-7.2-7.3
	c-0.1-1.8,0.5-3.5,1.8-4.8c0.6-0.6,1.4-1.1,2.2-1.3l-8.9-0.8c-3.8-0.4-6.9-3.4-7.3-7.3c-0.1-1.8,0.5-3.5,1.8-4.8
	c1.4-1.3,3.3-1.9,5.2-1.7l21.5,2c0.1,0,0.2-0.1,0.3-0.2c0-0.2-0.1-0.3-0.2-0.4l-27.8-2.6c-3.8-0.4-6.9-3.4-7.3-7.3
	c-0.1-1.8,0.5-3.5,1.8-4.8c1.4-1.3,3.3-1.9,5.2-1.7l31.2,2.9v-0.2l-27.4-2.6c-3.8-0.4-6.9-3.4-7.3-7.3c-0.1-1.8,0.5-3.5,1.8-4.8
	c1.4-1.3,3.3-1.9,5.2-1.7l43.8,4.1c0.7,0.1,1.5,0.3,2.1,0.5c0.6,0,1.1,0,1.7,0.1c1,0.1,1.7,0.9,1.6,1.8c-0.1,0.9-0.9,1.7-1.8,1.6
	l0,0c-0.6,0-1.2,0-1.8,0c-0.2,0-0.5-0.1-0.7-0.2c-0.4-0.2-0.9-0.3-1.4-0.4l-43.8-4.1c-0.9-0.1-1.8,0.2-2.5,0.8
	c-0.5,0.5-0.8,1.3-0.8,2.1c0.3,2.1,2,3.8,4.1,4l27.4,2.6c1.1,0.1,2.1,0.7,2.7,1.7s0.7,2.1,0.3,3.2v0.1c-0.6,1.4-2,2.3-3.6,2.1
	l-31.2-2.9c-0.9-0.1-1.8,0.2-2.5,0.8c-0.6,0.5-0.8,1.3-0.8,2.1c0.3,2.1,2,3.8,4.1,4l27.8,2.6c1,0.1,1.9,0.6,2.5,1.3
	c1.3,1.6,1.1,3.9-0.5,5.3c-0.8,0.6-1.7,1-2.7,0.9l-21.5-2c-0.9-0.1-1.8,0.2-2.5,0.8c-0.5,0.5-0.8,1.3-0.8,2.1c0.3,2.1,2,3.8,4.1,4
	l22.1,2.1c1.3,0.1,2.4,1.1,2.7,2.4c0.3,1,0,2.1-0.6,2.9c-0.6,0.7-1.6,1.1-2.5,1l-10.4-1c-0.9-0.1-1.8,0.2-2.5,0.8
	c-0.5,0.6-0.8,1.3-0.8,2.1c0.3,2.1,2,3.8,4.1,4l24.9,2.3c0.2,0,0.4,0.1,0.6,0.2c7.6,3.8,15.8,4.5,24.6,5.2c2.4,0.2,4.8,0.4,7.2,0.6
	c0.9,0,1.7,0.9,1.6,1.8C1096,708.6,1095.2,709.4,1094.2,709.2L1094.2,709.2z"/>
<ellipse class="st1" cx="1058" cy="1020.2" rx="48.1" ry="34.2"/>
<path class="st9" d="M1043.4,983.8c1,2.3-0.6,4.9-3.5,5.9l-26.7,8.8c-3,1-6.2-0.1-7.2-2.4s0.6-4.9,3.5-5.9l26.7-8.8
	C1039.1,980.5,1042.3,981.5,1043.4,983.8z"/>
<path class="st9" d="M1015.7,1033.5c4.7,0,9.4-0.3,12.7-1.9c2.2-1.2,4-3,5.2-5.2c3.1-5,5.3-10.4,6.4-16.2c1-5.2,0.6-11.5-6.4-15.7
	c-6.7-4.1-15.6-5.1-23.3-4.1c-14.7,1.8-19.9,2.6-29.2,9.3c-11.6,8.4-12.7,18.1,6,25.3C996.8,1028.7,1005.5,1033.4,1015.7,1033.5z"/>
<path class="st9" d="M1028.9,1001.4l36.3,14.4c2.4,1,5.3,0.2,6.8-2c1.3-2.1,0.3-4.5-2.1-5.5l-36.3-14.4c-2.4-1-5.2-0.2-6.8,2
	C1025.5,997.9,1026.5,1000.4,1028.9,1001.4z"/>
<path class="st9" d="M1026.2,1012.9l36.3,14.4c2.4,1,5.3,0.2,6.8-2c1.3-2.1,0.3-4.5-2.1-5.5l-36.3-14.4c-2.4-1-5.3-0.2-6.8,2
	C1022.8,1009.5,1023.8,1012,1026.2,1012.9z"/>
<path class="st9" d="M1015,1021.5l36.3,14.4c2.4,1,5.2,0.2,6.8-2c1.3-2.1,0.3-4.5-2.1-5.5l-36.2-14.4c-2.4-1-5.3-0.2-6.8,2
	C1011.6,1018,1012.6,1020.5,1015,1021.5z"/>
<path class="st9" d="M999.7,1027.3l36.3,14.4c2.4,1,5.2,0.2,6.8-2c1.3-2.1,0.3-4.5-2.1-5.5l-36.3-14.4c-2.4-1-5.2-0.2-6.8,2
	C996.3,1023.8,997.2,1026.3,999.7,1027.3z"/>
<polygon class="st0" points="89.9,1075.2 23.9,1884.5 37.2,1884.5 103.2,1075.2 "/>
<polygon class="st0" points="569.7,1075.2 503.6,1884.5 516.9,1884.5 582.9,1075.2 "/>
<path class="st4" d="M1553.7,1018.5H564.3c-15.1,0-27.4,10.5-27.4,23.4v40.2c0,12.9,12.3,23.4,27.4,23.4h989.3
	c15.1,0,27.4-10.5,27.4-23.4v-40.2C1581.1,1029,1568.8,1018.5,1553.7,1018.5z"/>
<path class="st14" d="M69.3,1035v54c0,9.1,5.6,16.5,12.5,16.5h511.9c6.9,0,12.5-7.4,12.5-16.5v-54c0-9.1-5.6-16.5-12.5-16.5H81.8
	C74.9,1018.5,69.3,1025.9,69.3,1035z"/>
<path class="st15" d="M854.5,1451.2h-21.4l-41,401.7c-0.5,5.2-5,9.2-10.2,9.2H585c-6-0.3-11.1,4.4-11.4,10.5
	c-0.3,6,4.4,11.1,10.5,11.4c0.3,0,0.6,0,0.9,0h204.8c11.7,0,21.4-8.9,22.6-20.5L854.5,1451.2z"/>
<path class="st16" d="M840,956.2c-2.2,0-4.5-0.3-6.7-0.9l-20.9-5.6c-1-0.3-1.6-1.3-1.4-2.3c0,0,0,0,0-0.1c0.3-1,1.3-1.6,2.4-1.4
	l20.9,5.6c10.3,2.8,21-2.3,25.5-12L899,854c0.4-1,1.6-1.4,2.6-1s1.4,1.6,1,2.6l-39.3,85.5C859.2,950.4,850.1,956.2,840,956.2z"/>
<path class="st14" d="M1562.4,1022c8.2,0,14.8,6.6,14.8,14.8v47.6c0,9.5-7.7,17.2-17.2,17.2H579.9V1022H1562.4z M1562.4,1018.1H576
	v87.4h983.9c11.7,0,21.1-9.5,21.1-21.1v-47.6C1581.1,1026.5,1572.7,1018.1,1562.4,1018.1z"/>
<path class="st11" d="M1676.2,269.4h143.7c4.6,0,8.4,3.8,8.4,8.4v225.6c0,4.6-3.8,8.4-8.4,8.4h-143.7c-4.6,0-8.4-3.8-8.4-8.4V277.8
	C1667.8,273.1,1671.6,269.4,1676.2,269.4z"/>
<path class="st16" d="M1653.3,269.4H1797c4.6,0,8.4,3.8,8.4,8.4v225.6c0,4.6-3.8,8.4-8.4,8.4h-143.7c-4.6,0-8.4-3.8-8.4-8.4V277.8
	C1644.9,273.1,1648.7,269.4,1653.3,269.4z"/>
<path class="st17" d="M1615.6,320.9h130.8c4.6,0,8.4,3.8,8.4,8.4v174c0,4.6-3.8,8.4-8.4,8.4h-130.8c-4.6,0-8.4-3.8-8.4-8.4v-174
	C1607.2,324.7,1611,320.9,1615.6,320.9z"/>
<path class="st18" d="M1594.6,320.9h130.8c4.6,0,8.4,3.8,8.4,8.4v174c0,4.6-3.8,8.4-8.4,8.4h-130.8c-4.6,0-8.4-3.8-8.4-8.4v-174
	C1586.2,324.7,1590,320.9,1594.6,320.9z"/>
<path class="st19" d="M1551.9,246.5h143.5c4.6,0,8.4,3.8,8.4,8.4v248.4c0,4.6-3.8,8.4-8.4,8.4h-143.5c-4.6,0-8.4-3.8-8.4-8.4V254.9
	C1543.5,250.3,1547.3,246.5,1551.9,246.5z"/>
<path class="st20" d="M1529.1,246.5h143.5c4.6,0,8.4,3.8,8.4,8.4v248.4c0,4.6-3.8,8.4-8.4,8.4h-143.5c-4.6,0-8.4-3.8-8.4-8.4V254.9
	C1520.7,250.3,1524.5,246.5,1529.1,246.5z"/>
<path class="st16" d="M1483.9,329.3h160c4.6,0,8.4,3.8,8.4,8.4v165.6c0,4.6-3.8,8.4-8.4,8.4h-160c-4.6,0-8.4-3.8-8.4-8.4V337.7
	C1475.5,333.1,1479.3,329.3,1483.9,329.3z"/>
<path class="st21" d="M1458.8,329.3h160c4.6,0,8.4,3.8,8.4,8.4v165.6c0,4.6-3.8,8.4-8.4,8.4h-160c-4.6,0-8.4-3.8-8.4-8.4V337.7
	C1450.4,333.1,1454.1,329.3,1458.8,329.3z"/>
<path class="st22" d="M1438.2,279H1569c4.6,0,8.4,3.8,8.4,8.4v216c0,4.6-3.8,8.4-8.4,8.4h-130.8c-4.6,0-8.4-3.8-8.4-8.4v-216
	C1429.8,282.7,1433.5,279,1438.2,279z"/>
<path class="st23" d="M1417.1,279h130.8c4.6,0,8.4,3.8,8.4,8.4v216c0,4.6-3.8,8.4-8.4,8.4h-130.8c-4.6,0-8.4-3.8-8.4-8.4v-216
	C1408.7,282.7,1412.5,279,1417.1,279z"/>
<path class="st24" d="M1378.4,320.9h130.8c4.6,0,8.4,3.8,8.4,8.4v174c0,4.6-3.8,8.4-8.4,8.4h-130.8c-4.6,0-8.4-3.8-8.4-8.4v-174
	C1370,324.7,1373.8,320.9,1378.4,320.9z"/>
<path class="st8" d="M1336.6,320.9h130.8c4.6,0,8.4,3.8,8.4,8.4v174c0,4.6-3.8,8.4-8.4,8.4h-130.8c-4.6,0-8.4-3.8-8.4-8.4v-174
	C1328.2,324.7,1332,320.9,1336.6,320.9z"/>
<path class="st25" d="M1294.3,236.4h130.8c4.6,0,8.4,3.8,8.4,8.4v258.6c0,4.6-3.8,8.4-8.4,8.4h-130.8c-4.6,0-8.4-3.8-8.4-8.4V244.8
	C1285.9,240.1,1289.7,236.4,1294.3,236.4z"/>
<path class="st26" d="M1273.3,236.4h130.8c4.6,0,8.4,3.8,8.4,8.4v258.6c0,4.6-3.8,8.4-8.4,8.4h-130.8c-4.6,0-8.4-3.8-8.4-8.4V244.8
	C1264.9,240.1,1268.7,236.4,1273.3,236.4z"/>
<path class="st27" d="M1238.9,320.9h130.8c4.6,0,8.4,3.8,8.4,8.4v174c0,4.6-3.8,8.4-8.4,8.4h-130.8c-4.6,0-8.4-3.8-8.4-8.4v-174
	C1230.5,324.7,1234.2,320.9,1238.9,320.9z"/>
<path class="st28" d="M1217.9,320.9h130.8c4.6,0,8.4,3.8,8.4,8.4v174c0,4.6-3.8,8.4-8.4,8.4h-130.8c-4.6,0-8.4-3.8-8.4-8.4v-174
	C1209.4,324.7,1213.2,320.9,1217.9,320.9z"/>
<path class="st4" d="M1170.7,511.1h694.2c6,0,10.9,4.9,10.9,10.9v24.8c0,6-4.9,10.9-10.9,10.9h-694.2c-6,0-10.9-4.9-10.9-10.9V522
	C1159.7,516,1164.6,511.1,1170.7,511.1z"/>
<path class="st1" d="M1131.3,640.4h36.7c-17.8,0-34.4,13.1-37.1,29.2l-46.6,282.2c-2.7,16.2,9.6,29.2,27.5,29.2h-36.6
	c-17.8,0-30.1-13.1-27.5-29.2l46.6-282.2C1096.9,653.4,1113.5,640.4,1131.3,640.4z"/>
<path class="st2" d="M1066.3,951.8l46.5-282.2c2.7-16.2,19.3-29.2,37.1-29.2H1535c17.8,0,30.1,13.1,27.5,29.2l-46.6,282.2
	c-2.7,16.2-19.3,29.2-37.1,29.2h-385.1C1076,981,1063.7,967.9,1066.3,951.8z"/>
<path class="st1" d="M1471.6,971.8h-363.1c-9.1,0-17.3-3.5-22.5-9.6c-4.7-5.6-6.6-12.9-5.3-20.1l43.8-265.1
	c2.7-16,19.2-29.1,36.9-29.1h363.1c9.1,0,17.3,3.5,22.5,9.6c4.7,5.6,6.6,12.9,5.3,20.1l-43.8,265.1
	C1505.8,958.8,1489.3,971.8,1471.6,971.8z M1084.5,942.8c-1.1,6,0.5,12.2,4.5,16.9c4.4,5.2,11.6,8.2,19.5,8.2h363.1
	c15.9,0,30.7-11.6,33-25.8l43.8-265.1c1.1-6-0.5-12.2-4.5-16.9c-4.4-5.2-11.6-8.2-19.5-8.2h-363.1c-15.9,0-30.7,11.6-33.1,25.8
	L1084.5,942.8z"/>
<path class="st1" d="M1443.8,1007.4h-182.9c-3,0-5.4,2.4-5.4,5.4s2.4,5.4,5.4,5.4l0,0h182.9c3,0,5.4-2.4,5.4-5.4
	C1449.2,1009.8,1446.8,1007.4,1443.8,1007.4L1443.8,1007.4z"/>
<path class="st1" d="M1358.9,805.9c-1.1-5.1-5.5-8.8-10.7-9h-53.3c-4.8-0.2-8.8,3.5-9,8.3c0,0.8,0,1.5,0.2,2.3l38.1,207.7h73.2
	L1358.9,805.9z M1341.8,899.4c-8.8,0-18.5-12.7-21.5-28.3s1.7-28.3,10.5-28.3s18.5,12.7,21.5,28.3
	C1355.4,886.7,1350.7,899.4,1341.8,899.4L1341.8,899.4z"/>
<rect x="560.8" y="969.3" class="st29" width="33.6" height="49"/>
<path class="st30" d="M472.7,969.3L472.7,969.3l57.5,0.1c0.7,0,1.4,0.1,2.1,0.2c3.9,0.8,6.8,3.7,6.8,7.2v34.5c0,3.2-2.4,5.9-5.8,7
	h27.4v-49H472.7z"/>
<path class="st30" d="M702.9,969.4h-91.7c-0.4,0-0.8,0-1.1-0.1h-15.7v49H704c5.1-1.2,8.9-5.4,8.9-10.5V980
	C712.9,974.7,708.6,970.2,702.9,969.4z"/>
<rect x="359.1" y="992.4" class="st4" width="172.5" height="2.4"/>
<rect x="359.1" y="978.7" class="st4" width="172.5" height="4.4"/>
<path class="st4" d="M531.4,1012.1c-0.3,0.6-0.9,1-1.6,1H359.1v-1H531.4z"/>
<polygon class="st4" points="531.6,975.9 531.6,976 531.6,977.6 359.1,977.6 359.1,975.9 "/>
<rect x="359.1" y="985.4" class="st4" width="172.5" height="5.6"/>
<rect x="359.1" y="1001.8" class="st4" width="172.5" height="4.9"/>
<rect x="359.1" y="996" class="st4" width="172.5" height="5.2"/>
<path class="st4" d="M529.9,974.4c0.7,0,1.3,0.4,1.6,1H359.1v-1H529.9z"/>
<rect x="359.1" y="1009" class="st4" width="172.5" height="2.2"/>
<rect x="359.1" y="977.6" class="st31" width="172.5" height="1"/>
<rect x="359.1" y="991" class="st31" width="172.5" height="1.4"/>
<rect x="359.1" y="983.1" class="st31" width="172.5" height="2.3"/>
<path class="st31" d="M531.4,975.3c0.1,0.2,0.1,0.4,0.1,0.6H359.1v-0.6H531.4z"/>
<path class="st31" d="M531.6,1011.1v0.4c0,0.2-0.1,0.5-0.2,0.7H359.1v-1h172.5V1011.1z"/>
<rect x="359.1" y="1006.7" class="st31" width="172.5" height="2.3"/>
<rect x="359.1" y="1001.2" class="st31" width="172.5" height="0.6"/>
<rect x="359.1" y="994.9" class="st31" width="172.5" height="1.1"/>
<path class="st29" d="M359.1,1013.1h170.7c0.7,0,1.3-0.4,1.6-1c0.1-0.2,0.2-0.4,0.2-0.7V976v-0.1c0-0.2-0.1-0.4-0.1-0.6
	c-0.3-0.6-0.9-1-1.6-1H354.7c1.2-2.9,4.5-5,8.4-5h167.2c0.7,0,1.4,0.1,2.1,0.2c3.9,0.8,6.8,3.7,6.8,7.2v34.5c0,3.2-2.4,5.9-5.8,7h-7
	c-1,0-2.1,0.1-3.1,0.4H372.4c-0.5,0-1.1,0-1.6,0.1h-7.7c-3.9,0-7.2-2.1-8.4-5v-0.8L359.1,1013.1z"/>
<path class="st32" d="M548.6,915L548.6,915z"/>
<path class="st33" d="M558.2,912.7v-46.9c0.1-4.5-2.7-8.5-7-9.8c-0.7-0.2-1.4-0.3-2.2-0.3h-94.7v-0.1h235.5c6.7,0,12,4.8,12,10.8
	v45.5c0,6-5.4,10.8-12,10.8h-139C555,921.7,558.2,917.6,558.2,912.7z"/>
<rect x="372.6" y="891.8" class="st4" width="177.8" height="7"/>
<rect x="372.6" y="877.4" class="st4" width="177.8" height="7.6"/>
<rect x="372.6" y="899.7" class="st4" width="177.8" height="6.6"/>
<path class="st4" d="M548.6,862.4c0.8,0,1.4,0.6,1.6,1.3H372.7v-1.3H548.6z"/>
<rect x="372.6" y="868.2" class="st4" width="177.8" height="6"/>
<rect x="372.6" y="887" class="st4" width="177.8" height="3.3"/>
<path class="st4" d="M550.2,913.8c-0.2,0.7-0.9,1.2-1.6,1.3h-176v-1.3H550.2z"/>
<path class="st4" d="M550.4,864.5L550.4,864.5v2.3H372.7v-2.3H550.4z"/>
<rect x="372.6" y="909.4" class="st4" width="177.8" height="2.9"/>
<rect x="372.6" y="866.8" class="st31" width="177.8" height="1.4"/>
<rect x="372.6" y="885" class="st31" width="177.8" height="2"/>
<rect x="372.6" y="874.3" class="st31" width="177.8" height="3.1"/>
<path class="st31" d="M550.2,863.7c0.1,0.3,0.1,0.5,0.2,0.8H372.7v-0.8H550.2z"/>
<path class="st31" d="M550.4,912.3v0.5c0,0.3-0.1,0.6-0.2,1H372.7v-1.4L550.4,912.3z"/>
<rect x="372.6" y="906.3" class="st31" width="177.8" height="3.1"/>
<rect x="372.6" y="898.9" class="st31" width="177.8" height="0.8"/>
<rect x="372.6" y="890.3" class="st31" width="177.8" height="1.6"/>
<path class="st34" d="M401.6,922.9h-24.9c-4.1-0.1-7.6-2.9-8.6-6.8v-1h180.5c0.7,0,1.4-0.5,1.6-1.3c0.1-0.3,0.2-0.6,0.2-1v-48.2
	v-0.1c0-0.3-0.1-0.5-0.2-0.8c-0.2-0.7-0.9-1.2-1.6-1.3H368.1c1.1-3.9,4.6-6.6,8.6-6.8H549c0.7,0,1.5,0.1,2.2,0.3
	c4.3,1.4,7.1,5.4,7,9.8v46.9c0,4.9-3.1,9-7.3,9.9H404C403.2,922.6,402.4,922.7,401.6,922.9z"/>
<path class="st35" d="M404,922.6c-0.8,0-1.6,0.1-2.4,0.2c-5.5,1-9.6,5.3-9.6,10.6v25.1c0,6,5.4,10.8,12,10.8h88.8v-46.6L404,922.6
	L404,922.6z"/>
<rect x="492.8" y="922.6" class="st30" width="11.3" height="46.7"/>
<polygon class="st35" points="504.1,922.6 504.1,969.3 512.5,969.3 511.9,922.6 "/>
<polygon class="st30" points="511.9,922.6 512.5,969.3 522.9,969.3 522.9,922.6 "/>
<path class="st35" d="M550.9,922.6h-28v46.6h83.9c-3.1-0.9-5.2-3.7-5.1-6.9v-32.6c-0.1-3.1,1.9-5.9,4.8-6.8c0.5-0.1,1-0.2,1.5-0.2
	h41.2v-0.1H550.9z"/>
<path class="st32" d="M608.4,964L608.4,964z"/>
<path class="st4" d="M607.3,963.1h123.5v0.9H608.4C607.9,964,607.4,963.6,607.3,963.1z"/>
<rect x="607.1" y="944.5" class="st4" width="123.6" height="2.3"/>
<rect x="607.1" y="937.8" class="st4" width="123.6" height="5.3"/>
<path class="st4" d="M607.3,928.3c0.2-0.5,0.6-0.9,1.1-0.9h122.4v0.9H607.3z"/>
<rect x="607.1" y="931.5" class="st4" width="123.6" height="4.2"/>
<rect x="607.1" y="947.9" class="st4" width="123.6" height="4.9"/>
<rect x="607.1" y="960.1" class="st4" width="123.6" height="2"/>
<rect x="607.1" y="953.3" class="st4" width="123.6" height="4.6"/>
<polygon class="st4" points="607.1,930.5 607.1,929 607.2,928.9 730.8,928.9 730.8,930.5 "/>
<rect x="607.1" y="930.5" class="st31" width="123.6" height="1"/>
<rect x="607.1" y="943.1" class="st31" width="123.6" height="1.4"/>
<rect x="607.1" y="935.7" class="st31" width="123.6" height="2.2"/>
<path class="st31" d="M607.2,928.9c0-0.2,0-0.4,0.1-0.5h123.5v0.5H607.2z"/>
<path class="st31" d="M607.3,963.1c-0.1-0.2-0.1-0.4-0.1-0.7v-0.3h123.6v1H607.3z"/>
<rect x="607.1" y="957.9" class="st31" width="123.6" height="2.2"/>
<rect x="607.1" y="952.8" class="st31" width="123.6" height="0.5"/>
<rect x="607.1" y="946.8" class="st31" width="123.6" height="1.1"/>
<path class="st36" d="M606.9,969.3L606.9,969.3c-3.2-0.9-5.3-3.7-5.2-6.9v-32.6c-0.1-3.1,1.9-5.9,4.8-6.8c0.5-0.1,1-0.2,1.5-0.2
	h119.8c2.8,0.1,5.2,2,6,4.8H608.4c-0.5,0-1,0.4-1.1,0.9c-0.1,0.2-0.1,0.4-0.1,0.5v0.1v33.5c0,0.2,0,0.4,0.1,0.7
	c0.2,0.5,0.6,0.8,1.1,0.9H734v0.7c-0.7,2.7-3.2,4.6-6,4.8H608.1C607.7,969.5,607.3,969.4,606.9,969.3z"/>
</svg>
