<svg id="_Layer_" data-name="&lt;Layer&gt;" xmlns="http://www.w3.org/2000/svg" viewBox="0 0 2090.21 1983.16"><defs><style>.cls-1{fill:#f7ebeb;}.cls-2{fill:#6d72a0;}.cls-3{fill:#000543;}.cls-4{fill:#27317a;}.cls-5{fill:#c3d0ed;}.cls-6{fill:#fff;}.cls-7{fill:#693523;}.cls-8{fill:#ffb288;}.cls-9{fill:#3341a3;}.cls-10{fill:#6e5082;}.cls-11{fill:#ff9985;}.cls-12{fill:#f75b37;}.cls-13{fill:#ffd878;}.cls-14{fill:#000544;}.cls-15{fill:#fa694f;}.cls-16{fill:#dce4f9;}.cls-17{fill:#8bb5d8;}.cls-18{fill:#fcb16d;}.cls-19{fill:#99c7e0;}.cls-20{fill:#6798ba;}.cls-21{fill:#727ba0;}.cls-22{fill:#4f567f;}.cls-23{fill:#fc8663;}.cls-24{fill:#cd603f;}.cls-25{fill:#99432e;}.cls-26{fill:#9e86b2;}.cls-27{fill:#fce8d0;}.cls-28{fill:#e5ad88;}.cls-29{fill:#67bcf4;}.cls-30{fill:#4495d8;}.cls-31{fill:#c64b26;}.cls-32{fill:#fc6d3a;}.cls-33{fill:#e0e5fc;}.cls-34{fill:#5846b2;}.cls-35{fill:#91b4de;}.cls-36{fill:#5c8ab7;}.cls-37{fill:#ffc269;}.cls-38{fill:#ffeb9a;}</style></defs><path class="cls-1" d="M480.33,2157.29c-79.2.34-144.8-63.64-145.27-143.54,0-.51,0-1,0-1.53.18-148.83,198.27-270.93,162.6-500.15-23.46-150.81-129.57-272.26-158.3-421.85C306.39,918.6,354,720.93,475.07,598.11c48.22-48.91,113.31-76.82,181.55-81.2,44.45-2.85,95.77-10.25,143.15-35.94C879,436.92,938.08,366.28,1011.7,304.55,1115.33,217.66,1241,200.82,1363.07,185.3c253.58-31,515.47,13.75,764.4,153.27,131.83,72.94,219,200.85,171.49,409-42.47,186.33-207.69,377.77-134.41,594.16,64,188.86,73.2,134.13,147.24,295.81,39,85.2,39.29,211.85,6.33,326.92s-170.06,194.32-292.63,194C2025.49,2158.54,541.52,2157,480.33,2157.29Z" transform="translate(-251.8 -175.93)"/><polygon class="cls-2" points="1636.94 1131.29 1706.44 1983.01 1692.47 1983.01 1622.97 1131.29 1636.94 1131.29"/><path class="cls-3" d="M1782.19,2155.25c.29-1.45.56-2.91.73-4.39l52-448c3.36-29-17.6-52.7-46.59-52.7H1524.08c-29,0-49.28,6.36-52.65,35.35l-58.17,465.34c-.17,1.48-.24,2.94-.29,4.39Z" transform="translate(-251.8 -175.93)"/><path class="cls-4" d="M1818.79,2155.25c.29-1.45.56-2.91.73-4.39l52-448c3.36-29-17.6-52.7-46.59-52.7H1789.8c-29,0-55.46,23.72-58.83,52.7,0,0-52.23,450.93-52.28,452.38Z" transform="translate(-251.8 -175.93)"/><rect class="cls-3" x="1149.67" y="1968.17" width="439.75" height="14.99" rx="5.63"/><path class="cls-3" d="M1801.25,2089a17.66,17.66,0,1,1-17.66-17.66A17.66,17.66,0,0,1,1801.25,2089Z" transform="translate(-251.8 -175.93)"/><polygon class="cls-5" points="785.48 892.8 449.21 892.8 587.2 1474.51 972.01 1474.51 785.48 892.8"/><polygon class="cls-3" points="882.73 1507.13 854.25 1190.91 867.33 1189.56 895.81 1505.77 882.73 1507.13"/><path class="cls-6" d="M1052.24,1068.73H701.48l15.22,12.19a78.08,78.08,0,0,1,26.51,40.19L879,1632c2.83,10.66,12.8,19,22.75,19h367.09l-165.4-515.16A128.75,128.75,0,0,0,1052.24,1068.73Z" transform="translate(-251.8 -175.93)"/><path class="cls-6" d="M1063.22,1650l10.67,51a60.6,60.6,0,0,0,14.83,1.89h215.83L1293.49,1650Z" transform="translate(-251.8 -175.93)"/><path class="cls-6" d="M1407.78,1650H1247.29l11.06,52.85H1468.1C1462,1673.69,1435,1650,1407.78,1650Z" transform="translate(-251.8 -175.93)"/><path class="cls-5" d="M1053.27,1650H838.88c9.42,29.69,34.32,53,64,53h210.83C1107.6,1673.75,1080.53,1650,1053.27,1650Z" transform="translate(-251.8 -175.93)"/><path class="cls-7" d="M632.24,1215.19c0,.13.06.27.1.4A2.34,2.34,0,0,0,632.24,1215.19Z" transform="translate(-251.8 -175.93)"/><path class="cls-8" d="M251.8,1457.33c1.29.52,2.72,1,4.07,1.41C253.3,1457.86,251.8,1457.33,251.8,1457.33Z" transform="translate(-251.8 -175.93)"/><path class="cls-3" d="M471.93,1267.67h15.9a14.89,14.89,0,0,0,14.85-14.85V1143.53a22.8,22.8,0,0,0-45.6,0v109.29A14.89,14.89,0,0,0,471.93,1267.67Z" transform="translate(-251.8 -175.93)"/><path class="cls-3" d="M476.37,1140.13l8.41-1.19L444.16,851.65a20.41,20.41,0,0,1,12.42-21.72l211.59-87.3-3.24-7.85-211.59,87.3a28.9,28.9,0,0,0-17.59,30.75Z" transform="translate(-251.8 -175.93)"/><path class="cls-9" d="M468.67,1142.43a10.21,10.21,0,1,0,10.2-10.21A10.2,10.2,0,0,0,468.67,1142.43Z" transform="translate(-251.8 -175.93)"/><rect class="cls-9" x="637.93" y="760.96" width="65.47" height="19.38" transform="translate(1332.62 1051.62) rotate(157.6)"/><path class="cls-3" d="M644.34,806.21l-19.65-47.67c-7.63-18.53-.48-40.28,17.23-49.67a38.75,38.75,0,0,1,53.91,19.38l20,48.5a6.15,6.15,0,0,1-3.34,8l-60.11,24.77A6.15,6.15,0,0,1,644.34,806.21Z" transform="translate(-251.8 -175.93)"/><path class="cls-3" d="M778.07,814.62,758.9,793a78.19,78.19,0,0,0-136.58,56.3L624,878.15a4,4,0,0,0,5.55,3.49L776.59,821A4,4,0,0,0,778.07,814.62Z" transform="translate(-251.8 -175.93)"/><path class="cls-10" d="M1375.89,1650.64c-86.07.69-250.74,3.14-333.52-4.29-96.8-8.7-87.25-191.37-57.6-191.37,194.07,0,424.86,18.41,507.47,66.56,43.43,25.31,36.62,110.36-10.63,122.67C1454.17,1651.36,1428.53,1650.22,1375.89,1650.64Z" transform="translate(-251.8 -175.93)"/><path class="cls-11" d="M1372.8,1579.58c-12.44-39.9-77.1-45.45-102.41-9.84-16.9,23.78-16.31,27.24-21.47,70.35-16.14,134.76-49.08,222.19-94.82,463.34l44,13.79c8.87-16.69,152-414.86,164.64-470.09C1368.12,1623.74,1379.59,1601.36,1372.8,1579.58Z" transform="translate(-251.8 -175.93)"/><path class="cls-11" d="M1510.41,1565.53c-16.57-36.53-65.89-32-87.5,8l-9.34,17.28c-9.64,17.86-11.26,34.51-11.57,54-2.12,132.54-19.79,313.82-53.87,468.84-1.09,5,1.89,9.43,6.37,9.51l30,.51s92.21-321.47,122.89-489.88C1511.73,1609.83,1519.46,1585.47,1510.41,1565.53Z" transform="translate(-251.8 -175.93)"/><path class="cls-12" d="M1446.09,2131.91l-11.67-3.85c-42.51,20.2-72.29,7.36-88.56-5l-5.9,29.8c-.54,2.71,3,5.25,7.32,5.29l90.72,1C1461.83,2159.33,1467.86,2139.09,1446.09,2131.91Z" transform="translate(-251.8 -175.93)"/><path class="cls-11" d="M1434.42,2128.06,1359,2103.17c-4.29-1.42-9.23.11-9.81,3l-3.32,16.8C1362.13,2135.42,1391.91,2148.26,1434.42,2128.06Z" transform="translate(-251.8 -175.93)"/><path class="cls-12" d="M1250.05,2131.42l-11.73-3.85c-42.71,20.2-72.63,7.36-89-5.05l-5.92,29.8c-.54,2.71,3,5.25,7.36,5.3l91.15,1C1265.87,2158.85,1271.92,2138.6,1250.05,2131.42Z" transform="translate(-251.8 -175.93)"/><path class="cls-11" d="M1238.32,2127.57l-75.79-24.89c-4.32-1.42-9.27.12-9.86,3l-3.34,16.8C1165.69,2134.93,1195.61,2147.77,1238.32,2127.57Z" transform="translate(-251.8 -175.93)"/><path class="cls-13" d="M1339,1161.48c1.88-17.28,2.94-27.45,12.62-52.49,13.58-35.1,33.29-113.88,31.52-131.16-2.31-22.69-13.62-39.23-27.43-54.26-35.79-39-77.09-37.69-105.38-29.72-19.23,5.41-45.71,12.89-63.22,25-121.42,84.28-68,104-68,104-5,44-2.54,106.22-11.65,150.29C1182.24,1173,1260.67,1182.94,1339,1161.48Z" transform="translate(-251.8 -175.93)"/><path class="cls-13" d="M1331.18,1220c.9-7.63,1.62-14.74,2.61-21.23,2.58-16.8,4.16-28,5.16-37.24-78.28,21.46-156.71,11.49-231.54,11.71-.6,2.91-1.12,5.78-1.8,8.72a247.35,247.35,0,0,1-12.25,38.26C1166.4,1241.46,1247,1239,1331.18,1220Z" transform="translate(-251.8 -175.93)"/><path class="cls-13" d="M1093.36,1220.17c-23.49,57.38-64,97.43-95.08,153.27-16.93,30.41-58.77,107.84-19.58,105,39.89-2.93,75.6,13.88,138.5,6.13,70.9-8.74,90.86,9,134.15-1,15.12-3.49,31.87-19.48,36.09-34,29.4-101.21,37.67-178.08,43.74-229.54C1247,1239,1166.4,1241.46,1093.36,1220.17Z" transform="translate(-251.8 -175.93)"/><path class="cls-14" d="M1429.9,774.71c-4.51,44.61-54.68,78.37-100.65,65.66s-73.55-58-61.6-101.27-1.06-66.39,46.42-70.86C1396.57,660.47,1434.93,725,1429.9,774.71Z" transform="translate(-251.8 -175.93)"/><path class="cls-14" d="M1388.17,637.73c-7.31-3.07-15.62-4.75-21.52-9.73-5-4.27-7.74-10.53-12.36-15.19s-12.86-7.44-18.85-3.22c-2.85,2-4.58,5.19-7.41,7.19-8,5.63-17.58-1-26.31-3.7-9.78-3-21.84-.35-30.16,6.71-6,5.07-11.07,12.63-18.73,13.34-6,.56-11.72-3.62-17.53-1.51-8.53,3.11-7.7,15.32-14.3,21.52-4.65,4.36-11.65,4.61-17.75,6.38-11.4,3.31-20.93,13.26-23.17,24.18-1.19,5.84-.54,12-3.62,17.4-4,6.92-13.29,10.71-16.14,18-5.91,15.2,12.69,19.46,21.55,30.26,11.15,13.59,6.36,39,23.49,45.44,4,1.53,9,1.81,11.58,5s1.56,8.37,3.74,11.93c4.1,6.68,16,4.33,23.11,7.44a50,50,0,0,1,4.29,3.45c37.57,28.34,85.78,34.24,119.82,10.56,28.21-19.63,39.92-54.88,34.41-91.49.34-.31.71-.48,1-.81,8.12-7.7,11.14-17.44,11.75-27.7,1.13-18.82-16-25.31-17.39-40.93-.53-6,4.18-11.89,4.45-18C1402.54,646.51,1395.48,640.8,1388.17,637.73Z" transform="translate(-251.8 -175.93)"/><path class="cls-11" d="M1080.57,1082l-39.66,120.76c-3.6,11-2.57,38.52,8.7,42.65,24.9,7.25,51.48-4.25,62.17-26.88l52.07-110.35Z" transform="translate(-251.8 -175.93)"/><path class="cls-13" d="M1465.47,1138.17c-45.53-63-69.15-150.63-89.49-185.64-36.39-62.64-90.24,108.35-56,174.7,30.74,59.67,40.2,76,63,100.92,25,27.45,63.15,26.84,88.84-1.59l3.12-3.44C1491.39,1204.8,1479.84,1158.06,1465.47,1138.17Z" transform="translate(-251.8 -175.93)"/><ellipse class="cls-11" cx="1028.81" cy="754.43" rx="55.15" ry="29.25"/><path class="cls-11" d="M1304.4,1221.39c-6-.07-11.57.88-13.92.76-51-2.6-98.87-7.58-158.86-13.74-21.34-6-67.47-12-83.86-14.07,0,0-1.12-1.7-7.46,11.36-12.64,26-5.47,42.68,5.11,47.23,56.38,24.24,193.55,7.4,259.67-2.62Z" transform="translate(-251.8 -175.93)"/><path class="cls-13" d="M1111.6,991.22c-38.69,73-45.37,78.24-72.87,143.1-3.46,8.15,2.37,17.39,11.2,20.15l87.28,27.29c8.53,2.66,17.77-1.24,21.35-9,24.92-54.3,42-111.85,59-148.75C1244.92,964.66,1142.85,932.28,1111.6,991.22Z" transform="translate(-251.8 -175.93)"/><path class="cls-11" d="M1394,914.4c1.24,7,3.65,13.27,4,16,8.23,60.17,12.86,117.3,18.75,188.87-2.22,23.5-1.1,71.49-.06,95.68.33,7.47,2.16,14.82,6,20.66,18.08,27.54,58.82,4.36,65.4-23.65,16.94-72-34.65-241-61.63-315.48Z" transform="translate(-251.8 -175.93)"/><path class="cls-11" d="M1306.28,756.41c-19.8,12.74-26.67-16.37-32,10.86L1266.82,805c-9.31,47.23,15.49,83.74,55,90.9s79.45-17.66,88.75-64.89l8.73-44.61c4.39-22.48-3.62-41.61-21.25-49.29-8.33-3.62-17.83-3.45-26.52-.78Z" transform="translate(-251.8 -175.93)"/><path class="cls-14" d="M1296.88,671.41s-24.59,7.35-41.16,30.55c-16.18,22.66-20.73,52.79-14.18,79.86,0,0,14.68,44.1,20.21,65.1.77,3,11.67,20,11.38,16.85-9-95.7,48.95-61.06,37.31-122.7Z" transform="translate(-251.8 -175.93)"/><path class="cls-11" d="M1289.17,774c12.24,2.21,19.65,16.79,16.55,32.57s-15.53,26.77-27.78,24.57-19.65-16.79-16.55-32.56S1276.92,771.76,1289.17,774Z" transform="translate(-251.8 -175.93)"/><path class="cls-11" d="M1320.28,814.21l-35.38-6.28c-4.86-.87-10,4.59-11.48,12.12l-19.55,101.6c-4,21,5.78,34,20.43,36.9s28.39-5.4,32.4-26.24l19.79-102.82C1327.94,822,1325.14,815.08,1320.28,814.21Z" transform="translate(-251.8 -175.93)"/><path class="cls-14" d="M1421.26,782.34,1404,778.86a4.68,4.68,0,0,0-1.85,9.17l17.23,3.48a4.68,4.68,0,0,0,1.85-9.17Z" transform="translate(-251.8 -175.93)"/><path class="cls-14" d="M1349.42,767.91l-17.23-3.48a4.67,4.67,0,0,0-1.85,9.16l17.23,3.48a4.67,4.67,0,0,0,1.85-9.16Z" transform="translate(-251.8 -175.93)"/><path class="cls-15" d="M1377.74,827l-.27-1.33a7.42,7.42,0,0,1-6.42,5l-7.55.55a5.62,5.62,0,0,1-5.56-3.48l-.29.67a5.8,5.8,0,0,0,5.74,8.11L1371,836A7.5,7.5,0,0,0,1377.74,827Z" transform="translate(-251.8 -175.93)"/><path class="cls-6" d="M1341.24,848.81c.19,4.11,2.43,9.32,12.87,12.07,10.74,1.07,14.65-3,16.27-6.81Z" transform="translate(-251.8 -175.93)"/><path class="cls-14" d="M1414.9,802.84l-7.59-.72c-.23.08-.51-.18-.86-.25-2.62-.53-5.41,2.32-6.23,6.36s.65,7.75,3.27,8.28,5.41-2.32,6.23-6.36a10.33,10.33,0,0,0,.07-3.54Z" transform="translate(-251.8 -175.93)"/><path class="cls-14" d="M1339.51,789c.36.17,7.93,1.14,7.93,1.14l-4.64,3.2a10.22,10.22,0,0,1,0,3.91c-.78,4-3.55,6.92-6.18,6.41s-4.12-4.2-3.34-8.25S1336.88,788.5,1339.51,789Z" transform="translate(-251.8 -175.93)"/><path class="cls-11" d="M1368.19,843.26c-2.36,1.94-2.2,5.76.34,8.49l22.93,24.61c2.55,2.73,6.55,3.37,8.91,1.42s2.2-5.76-.34-8.49l-22.94-24.61C1374.55,842,1370.55,841.31,1368.19,843.26Z" transform="translate(-251.8 -175.93)"/><path class="cls-11" d="M1368.92,913c-4.91-2.56-9.7-5.59-12.19-9.27a16.23,16.23,0,0,1-2.47-8.69,63.48,63.48,0,0,1,2.45-21.47c1.86-6.31,6-13.05,15.61-13.82,9.34-.75,19.16,3,26.71,8.45,14.31,10.23,22,15.15,27.94,27.75,7.41,15.79.36,26-23.32,23.52C1391.46,918.18,1379.59,918.57,1368.92,913Z" transform="translate(-251.8 -175.93)"/><path class="cls-11" d="M1373.3,870.82l-46.12-4.3a6.71,6.71,0,0,1-6-6,4.66,4.66,0,0,1,5.37-4.91l46.12,4.29a6.72,6.72,0,0,1,6,6A4.67,4.67,0,0,1,1373.3,870.82Z" transform="translate(-251.8 -175.93)"/><path class="cls-11" d="M1369.56,885.11l-46.12-4.29a6.72,6.72,0,0,1-6-6,4.67,4.67,0,0,1,5.37-4.91l46.12,4.3a6.72,6.72,0,0,1,6,6A4.67,4.67,0,0,1,1369.56,885.11Z" transform="translate(-251.8 -175.93)"/><path class="cls-11" d="M1376.41,900.84l-46.12-4.29a6.74,6.74,0,0,1-6-6,4.67,4.67,0,0,1,5.37-4.91l46.13,4.3a6.71,6.71,0,0,1,6,6A4.67,4.67,0,0,1,1376.41,900.84Z" transform="translate(-251.8 -175.93)"/><path class="cls-11" d="M1389.18,915.82l-46.12-4.29a6.72,6.72,0,0,1-6-6,4.66,4.66,0,0,1,5.36-4.91l46.13,4.3a6.71,6.71,0,0,1,6,6A4.67,4.67,0,0,1,1389.18,915.82Z" transform="translate(-251.8 -175.93)"/><path class="cls-15" d="M1400.57,871.8a1.84,1.84,0,0,1-1.39-.64L1376,846.32c-1.87-2-4.81-2.59-6.42-1.26a2.88,2.88,0,0,0-1,2.08,5.2,5.2,0,0,0,1.51,3.77l8.16,8.76a1.81,1.81,0,0,1-2.66,2.47l-8.15-8.75a8.79,8.79,0,0,1-2.48-6.49,6.47,6.47,0,0,1,2.31-4.64c3.1-2.55,8.2-1.84,11.39,1.58,0,0,23.15,24.85,23.25,25a1.81,1.81,0,0,1-1.38,3Z" transform="translate(-251.8 -175.93)"/><path class="cls-15" d="M1403.36,922.07h-.19c-2.51-.26-5-.46-7.49-.65-9.48-.73-18.44-1.43-27-5.67l-25.83-2.41a8.56,8.56,0,0,1-7.63-7.66,6.33,6.33,0,0,1,1.9-5,6.52,6.52,0,0,1,2.32-1.42l-9.36-.88a8.58,8.58,0,0,1-7.64-7.66,6.37,6.37,0,0,1,1.91-5,6.86,6.86,0,0,1,5.44-1.8l22.6,2.1a.3.3,0,0,0,.28-.26.33.33,0,0,0-.22-.37l-29.22-2.72a8.57,8.57,0,0,1-7.64-7.66,6.37,6.37,0,0,1,1.91-5,6.83,6.83,0,0,1,5.44-1.8l32.85,3.06,0-.19L1327,868.33a8.58,8.58,0,0,1-7.64-7.67,6.31,6.31,0,0,1,1.92-5,6.85,6.85,0,0,1,5.43-1.81l46.13,4.3a8.13,8.13,0,0,1,2.26.56c.59,0,1.17,0,1.75.06a1.82,1.82,0,0,1,1.7,1.93,1.8,1.8,0,0,1-1.93,1.69c-.63,0-1.26,0-1.9,0a1.82,1.82,0,0,1-.75-.17,4.46,4.46,0,0,0-1.47-.41l-46.12-4.3a3.23,3.23,0,0,0-2.59.81,2.76,2.76,0,0,0-.8,2.19,4.88,4.88,0,0,0,4.35,4.26l28.85,2.69a3.65,3.65,0,0,1,2.8,1.75,3.78,3.78,0,0,1,.28,3.34l0,.09a3.66,3.66,0,0,1-3.74,2.23l-32.86-3.06a3.18,3.18,0,0,0-2.58.81,2.75,2.75,0,0,0-.81,2.19,4.9,4.9,0,0,0,4.35,4.26l29.23,2.72a3.83,3.83,0,0,1,2.65,1.42,4,4,0,0,1-.52,5.53,3.85,3.85,0,0,1-2.87.9l-22.6-2.1a3.18,3.18,0,0,0-2.58.81,2.75,2.75,0,0,0-.8,2.19,4.89,4.89,0,0,0,4.35,4.26l23.24,2.16a3.22,3.22,0,0,1,2.82,2.53,3.34,3.34,0,0,1-.68,3,3.14,3.14,0,0,1-2.68,1.06l-10.9-1a3.25,3.25,0,0,0-2.58.8,2.82,2.82,0,0,0-.8,2.2,4.89,4.89,0,0,0,4.35,4.26l26.17,2.44a1.63,1.63,0,0,1,.65.19c8,4,16.68,4.73,25.91,5.44,2.51.2,5,.39,7.59.66a1.81,1.81,0,0,1-.19,3.62Z" transform="translate(-251.8 -175.93)"/><ellipse class="cls-3" cx="1113.41" cy="1073.42" rx="50.61" ry="36.04"/><path class="cls-11" d="M1349.85,1211c1.07,2.39-.6,5.18-3.7,6.2l-28.08,9.23c-3.11,1-6.53-.1-7.61-2.49s.6-5.17,3.7-6.19l28.08-9.23C1345.35,1207.54,1348.77,1208.66,1349.85,1211Z" transform="translate(-251.8 -175.93)"/><path class="cls-11" d="M1320.72,1263.35c4.91.05,9.92-.3,13.38-2a13.65,13.65,0,0,0,5.46-5.5,51,51,0,0,0,6.76-17c1.08-5.44.58-12.1-6.74-16.52-7.07-4.27-16.37-5.34-24.51-4.32-15.44,1.93-20.94,2.73-30.71,9.77-12.24,8.82-13.41,19.08,6.32,26.61C1300.83,1258.24,1310,1263.26,1320.72,1263.35Z" transform="translate(-251.8 -175.93)"/><path class="cls-11" d="M1334.66,1229.56l38.16,15.14a6,6,0,0,0,7.15-2.06c1.34-2.16.33-4.77-2.26-5.8l-38.16-15.14a6.05,6.05,0,0,0-7.15,2.06C1331.06,1225.92,1332.07,1228.53,1334.66,1229.56Z" transform="translate(-251.8 -175.93)"/><path class="cls-11" d="M1331.83,1241.7l38.16,15.15a6,6,0,0,0,7.15-2.06c1.35-2.17.34-4.77-2.25-5.8l-38.16-15.14a6,6,0,0,0-7.15,2.06C1328.23,1238.07,1329.25,1240.68,1331.83,1241.7Z" transform="translate(-251.8 -175.93)"/><path class="cls-11" d="M1320.05,1250.7l38.17,15.15a6,6,0,0,0,7.14-2.06c1.35-2.16.34-4.77-2.25-5.8L1325,1242.85a6,6,0,0,0-7.15,2.06C1316.45,1247.07,1317.47,1249.68,1320.05,1250.7Z" transform="translate(-251.8 -175.93)"/><path class="cls-11" d="M1303.91,1256.79l38.16,15.15a6.07,6.07,0,0,0,7.15-2.07c1.34-2.16.33-4.77-2.26-5.79l-38.16-15.15a6.05,6.05,0,0,0-7.15,2.07C1300.31,1253.16,1301.32,1255.76,1303.91,1256.79Z" transform="translate(-251.8 -175.93)"/><polygon class="cls-2" points="94.64 1131.29 25.15 1983.01 39.12 1983.01 108.61 1131.29 94.64 1131.29"/><polygon class="cls-2" points="599.52 1131.29 530.03 1983.01 544 1983.01 613.49 1131.29 599.52 1131.29"/><path class="cls-6" d="M1886.93,1247.54H845.72c-15.91,0-28.81,11-28.81,24.6v42.32c0,13.58,12.9,24.59,28.81,24.59H1886.93c15.91,0,28.82-11,28.82-24.59v-42.32C1915.75,1258.55,1902.84,1247.54,1886.93,1247.54Z" transform="translate(-251.8 -175.93)"/><path class="cls-16" d="M324.74,1264.87v56.85c0,9.57,5.9,17.33,13.19,17.33H876.62c7.29,0,13.2-7.76,13.2-17.33v-56.85c0-9.57-5.91-17.33-13.2-17.33H337.93C330.64,1247.54,324.74,1255.3,324.74,1264.87Z" transform="translate(-251.8 -175.93)"/><path class="cls-17" d="M1151.1,1702.94h-22.5l-43.14,422.79a10.82,10.82,0,0,1-10.77,9.72H867.48a11.51,11.51,0,1,0,0,23H1083a24,24,0,0,0,23.78-21.58Z" transform="translate(-251.8 -175.93)"/><path class="cls-18" d="M1135.87,1182a27.14,27.14,0,0,1-7-.93l-21.95-5.88a2,2,0,0,1-1.44-2.5,2.07,2.07,0,0,1,2.5-1.45l22,5.88a22.89,22.89,0,0,0,26.79-12.6l41.3-90a2,2,0,0,1,3.72,1.71l-41.31,90A27,27,0,0,1,1135.87,1182Z" transform="translate(-251.8 -175.93)"/><path class="cls-16" d="M1896.06,1251.23a15.61,15.61,0,0,1,15.6,15.59v50.1a18.17,18.17,0,0,1-18.15,18.15H862.06v-83.84Zm0-4.09H858v92H1893.51a22.24,22.24,0,0,0,22.24-22.24v-50.1A19.69,19.69,0,0,0,1896.06,1247.14Z" transform="translate(-251.8 -175.93)"/><rect class="cls-13" x="1755.21" y="283.22" width="168.95" height="255.08" rx="8.85"/><rect class="cls-18" x="1731.15" y="283.22" width="168.95" height="255.08" rx="8.85"/><rect class="cls-19" x="1691.48" y="337.47" width="155.36" height="200.83" rx="8.85"/><rect class="cls-20" x="1669.35" y="337.47" width="155.36" height="200.83" rx="8.85"/><rect class="cls-21" x="1624.44" y="259.18" width="168.76" height="279.12" rx="8.85"/><rect class="cls-22" x="1600.4" y="259.18" width="168.76" height="279.12" rx="8.85"/><rect class="cls-18" x="1552.88" y="346.31" width="186.05" height="192" rx="8.85"/><rect class="cls-23" x="1526.38" y="346.31" width="186.05" height="192" rx="8.85"/><rect class="cls-24" x="1504.7" y="293.31" width="155.36" height="244.99" rx="8.85"/><rect class="cls-25" x="1482.57" y="293.31" width="155.36" height="244.99" rx="8.85"/><rect class="cls-26" x="1441.85" y="337.47" width="155.36" height="200.83" rx="8.85"/><rect class="cls-10" x="1397.83" y="337.47" width="155.36" height="200.83" rx="8.85"/><rect class="cls-27" x="1353.34" y="248.5" width="155.36" height="289.81" rx="8.85"/><rect class="cls-28" x="1331.22" y="248.5" width="155.36" height="289.81" rx="8.85"/><rect class="cls-29" x="1294.97" y="337.47" width="155.36" height="200.83" rx="8.85"/><rect class="cls-30" x="1272.84" y="337.47" width="155.36" height="200.83" rx="8.85"/><rect class="cls-6" x="1220.52" y="537.63" width="753.58" height="49.08" rx="11.5"/><path class="cls-3" d="M1442.42,849.59H1481c-18.76,0-36.25,13.76-39,30.74l-49,297c-2.8,17,10.15,30.74,28.91,30.74h-38.52c-18.77,0-31.71-13.76-28.92-30.74l49-297C1406.18,863.35,1423.66,849.59,1442.42,849.59Z" transform="translate(-251.8 -175.93)"/><path class="cls-4" d="M1374,1177.36l48.94-297c2.8-17,20.28-30.74,39-30.74h405.35c18.76,0,31.71,13.76,28.91,30.74l-49,297c-2.8,17-20.27,30.74-39,30.74H1402.94C1384.17,1208.1,1371.23,1194.34,1374,1177.36Z" transform="translate(-251.8 -175.93)"/><path class="cls-3" d="M1800.5,1198.41H1418.4c-9.57,0-18.19-3.69-23.65-10.12a25.65,25.65,0,0,1-5.62-21.13l46.14-279c2.79-16.87,20.2-30.59,38.82-30.59h382.1c9.58,0,18.2,3.69,23.66,10.13a25.63,25.63,0,0,1,5.61,21.13l-46.14,279C1836.53,1184.69,1819.12,1198.41,1800.5,1198.41Zm-407.34-30.58a21.6,21.6,0,0,0,4.71,17.81c4.68,5.52,12.16,8.68,20.53,8.68h382.1c16.7,0,32.31-12.18,34.78-27.16l46.14-279a21.62,21.62,0,0,0-4.69-17.82c-4.68-5.51-12.17-8.68-20.54-8.68h-382.1c-16.7,0-32.31,12.19-34.79,27.17Z" transform="translate(-251.8 -175.93)"/><path class="cls-3" d="M1771.32,1235.83H1578.81a5.68,5.68,0,1,0,0,11.36h192.51a5.68,5.68,0,0,0,0-11.36Z" transform="translate(-251.8 -175.93)"/><path class="cls-3" d="M1681.94,1023.77a12,12,0,0,0-11.31-9.43h-56.09a9.13,9.13,0,0,0-9.29,11.15l40.11,218.58h77Zm-18,98.41c-9.3,0-19.43-13.33-22.63-29.77s1.76-29.78,11.06-29.78,19.43,13.33,22.63,29.78S1673.29,1122.18,1664,1122.18Z" transform="translate(-251.8 -175.93)"/><rect class="cls-31" x="590.18" y="1019.86" width="35.37" height="51.62"/><path class="cls-32" d="M749.33,1195.79v.1h60.52a10.9,10.9,0,0,1,2.24.25c4.07.85,7.12,3.93,7.12,7.61v36.31c0,3.35-2.54,6.22-6.08,7.35H842v-51.62Z" transform="translate(-251.8 -175.93)"/><path class="cls-32" d="M991.58,1195.92h-96.5a5.32,5.32,0,0,1-1.2-.13H877.35v51.62H992.73c5.36-1.22,9.35-5.68,9.35-11v-29.26C1002.08,1201.43,997.52,1196.73,991.58,1195.92Z" transform="translate(-251.8 -175.93)"/><rect class="cls-6" x="377.96" y="1044.18" width="181.52" height="2.57"/><rect class="cls-6" x="377.96" y="1029.69" width="181.52" height="4.66"/><path class="cls-6" d="M811.09,1240.86a1.85,1.85,0,0,1-1.65,1H629.76v-1Z" transform="translate(-251.8 -175.93)"/><polygon class="cls-6" points="559.46 1026.79 559.48 1026.89 559.48 1028.6 377.96 1028.6 377.96 1026.79 559.46 1026.79"/><rect class="cls-6" x="377.96" y="1036.77" width="181.52" height="5.9"/><rect class="cls-6" x="377.96" y="1054.01" width="181.52" height="5.14"/><rect class="cls-6" x="377.96" y="1047.96" width="181.52" height="5.45"/><path class="cls-6" d="M809.44,1201.13a1.84,1.84,0,0,1,1.66,1H629.76v-1Z" transform="translate(-251.8 -175.93)"/><rect class="cls-6" x="377.96" y="1061.58" width="181.52" height="2.27"/><rect class="cls-33" x="377.96" y="1028.6" width="181.52" height="1.09"/><rect class="cls-33" x="377.96" y="1042.67" width="181.52" height="1.51"/><rect class="cls-33" x="377.96" y="1034.35" width="181.52" height="2.42"/><path class="cls-33" d="M811.1,1202.11a1.57,1.57,0,0,1,.15.61H629.76v-.61Z" transform="translate(-251.8 -175.93)"/><path class="cls-33" d="M811.28,1239.77v.37a1.61,1.61,0,0,1-.19.72H629.76v-1.09Z" transform="translate(-251.8 -175.93)"/><rect class="cls-33" x="377.96" y="1059.16" width="181.52" height="2.42"/><rect class="cls-33" x="377.96" y="1053.41" width="181.52" height="0.6"/><rect class="cls-33" x="377.96" y="1046.75" width="181.52" height="1.21"/><path class="cls-31" d="M629.76,1241.83H809.44a1.85,1.85,0,0,0,1.65-1,1.61,1.61,0,0,0,.19-.72v-37.32l0-.1a1.57,1.57,0,0,0-.15-.61,1.84,1.84,0,0,0-1.66-1H625.12c1.29-3.05,4.75-5.24,8.81-5.24H809.85a10.9,10.9,0,0,1,2.24.25c4.07.85,7.12,3.93,7.12,7.61v36.31c0,3.35-2.54,6.22-6.08,7.35h-7.32a14.08,14.08,0,0,0-3.27.41H643.69a15.1,15.1,0,0,0-1.66.1h-8.1c-4.08,0-7.56-2.23-8.83-5.3v-.79Z" transform="translate(-251.8 -175.93)"/><path class="cls-34" d="M829.18,1138.63h0Z" transform="translate(-251.8 -175.93)"/><path class="cls-35" d="M839.24,1136.21v-49.34a10.55,10.55,0,0,0-7.34-10.34,8.76,8.76,0,0,0-2.3-.34H729.94v-.13H977.83c7,0,12.66,5.08,12.66,11.35v47.9c0,6.27-5.67,11.36-12.66,11.36H831.58C835.94,1145.64,839.24,1141.33,839.24,1136.21Z" transform="translate(-251.8 -175.93)"/><rect class="cls-6" x="392.15" y="938.32" width="187.12" height="7.4"/><rect class="cls-6" x="392.15" y="923.11" width="187.12" height="8.02"/><rect class="cls-6" x="392.15" y="946.54" width="187.12" height="6.99"/><path class="cls-6" d="M829.18,1083.31a1.9,1.9,0,0,1,1.71,1.34H644v-1.34Z" transform="translate(-251.8 -175.93)"/><rect class="cls-6" x="392.15" y="913.49" width="187.12" height="6.33"/><rect class="cls-6" x="392.15" y="933.18" width="187.12" height="3.49"/><path class="cls-6" d="M830.88,1137.31a1.91,1.91,0,0,1-1.7,1.32H644v-1.32Z" transform="translate(-251.8 -175.93)"/><path class="cls-6" d="M831.06,1085.47s0,.09,0,.14v2.33H644v-2.47Z" transform="translate(-251.8 -175.93)"/><rect class="cls-6" x="392.15" y="956.82" width="187.12" height="3.08"/><rect class="cls-33" x="392.15" y="912.01" width="187.12" height="1.48"/><rect class="cls-33" x="392.15" y="931.12" width="187.12" height="2.06"/><rect class="cls-33" x="392.15" y="919.82" width="187.12" height="3.29"/><path class="cls-33" d="M830.89,1084.65a3.06,3.06,0,0,1,.17.82H644v-.82Z" transform="translate(-251.8 -175.93)"/><path class="cls-33" d="M831.07,1135.83v.49a2.64,2.64,0,0,1-.19,1H644v-1.48Z" transform="translate(-251.8 -175.93)"/><rect class="cls-33" x="392.15" y="953.53" width="187.12" height="3.29"/><rect class="cls-33" x="392.15" y="945.72" width="187.12" height="0.82"/><rect class="cls-33" x="392.15" y="936.67" width="187.12" height="1.64"/><path class="cls-36" d="M674.43,1146.9H648.24a9.81,9.81,0,0,1-9.1-7.2v-1.07h190a1.91,1.91,0,0,0,1.7-1.32,2.64,2.64,0,0,0,.19-1v-50.71s0-.09,0-.14a3.06,3.06,0,0,0-.17-.82,1.9,1.9,0,0,0-1.71-1.34h-190a9.8,9.8,0,0,1,9.08-7.12H829.6a8.76,8.76,0,0,1,2.3.34,10.55,10.55,0,0,1,7.34,10.34v49.34c0,5.12-3.3,9.43-7.66,10.46H677A14.12,14.12,0,0,0,674.43,1146.9Z" transform="translate(-251.8 -175.93)"/><path class="cls-37" d="M677,1146.67a14.12,14.12,0,0,0-2.54.23c-5.77,1-10.12,5.63-10.12,11.12v26.39c0,6.27,5.67,11.35,12.66,11.35h93.49v-49.09Z" transform="translate(-251.8 -175.93)"/><rect class="cls-32" x="518.66" y="970.74" width="11.87" height="49.1"/><polygon class="cls-37" points="530.52 970.74 530.52 1019.83 539.41 1019.83 538.76 970.74 530.52 970.74"/><polygon class="cls-32" points="538.76 970.74 539.41 1019.83 550.3 1019.83 550.3 970.74 538.76 970.74"/><path class="cls-37" d="M831.58,1146.67H802.1v49.09h88.3a7.31,7.31,0,0,1-5.32-7.26v-34.31a7.32,7.32,0,0,1,5.1-7.19,5.74,5.74,0,0,1,1.6-.24h43.39v-.09Z" transform="translate(-251.8 -175.93)"/><path class="cls-34" d="M892.08,1190.17h0Z" transform="translate(-251.8 -175.93)"/><path class="cls-6" d="M890.9,1189.26h130v.91H892.08A1.32,1.32,0,0,1,890.9,1189.26Z" transform="translate(-251.8 -175.93)"/><rect class="cls-6" x="638.96" y="993.72" width="130.11" height="2.43"/><rect class="cls-6" x="638.96" y="986.72" width="130.11" height="5.57"/><path class="cls-6" d="M890.89,1152.64a1.32,1.32,0,0,1,1.19-.93h128.79v.93Z" transform="translate(-251.8 -175.93)"/><rect class="cls-6" x="638.96" y="980.03" width="130.11" height="4.4"/><rect class="cls-6" x="638.96" y="997.29" width="130.11" height="5.15"/><rect class="cls-6" x="638.96" y="1010.16" width="130.11" height="2.14"/><rect class="cls-6" x="638.96" y="1003.01" width="130.11" height="4.86"/><polygon class="cls-6" points="638.96 979 638.96 977.38 638.98 977.28 769.07 977.28 769.07 979 638.96 979"/><rect class="cls-33" x="638.96" y="979" width="130.11" height="1.03"/><rect class="cls-33" x="638.96" y="992.29" width="130.11" height="1.43"/><rect class="cls-33" x="638.96" y="984.43" width="130.11" height="2.29"/><path class="cls-33" d="M890.78,1153.21a1.8,1.8,0,0,1,.11-.57h130v.57Z" transform="translate(-251.8 -175.93)"/><path class="cls-33" d="M890.9,1189.26a1.93,1.93,0,0,1-.14-.69v-.34h130.11v1Z" transform="translate(-251.8 -175.93)"/><rect class="cls-33" x="638.96" y="1007.87" width="130.11" height="2.29"/><rect class="cls-33" x="638.96" y="1002.44" width="130.11" height="0.57"/><rect class="cls-33" x="638.96" y="996.15" width="130.11" height="1.14"/><path class="cls-38" d="M890.54,1195.79l-.14,0a7.31,7.31,0,0,1-5.32-7.26v-34.31a7.32,7.32,0,0,1,5.1-7.19,6.13,6.13,0,0,1,1.6-.24h126.11a6.81,6.81,0,0,1,6.31,5H892.08a1.32,1.32,0,0,0-1.19.93,1.8,1.8,0,0,0-.11.57l0,.1v35.26a1.93,1.93,0,0,0,.14.69,1.32,1.32,0,0,0,1.18.91h132.13v.75a6.81,6.81,0,0,1-6.32,5H891.78A5.67,5.67,0,0,1,890.54,1195.79Z" transform="translate(-251.8 -175.93)"/></svg>